<svg width="50" height="77" viewBox="0 0 50 77" fill="none" xmlns="http://www.w3.org/2000/svg">
<g clip-path="url(#clip0_3503_71467)">
<path d="M42.7762 57.3372C40.4499 65.3579 34.8008 70.1106 27.6294 70.1106C18.4003 70.1106 10.918 60.5425 10.918 48.742C10.918 36.9415 18.4003 27.3734 27.6294 27.3734C33.1216 27.3734 38.0109 29.9133 41.0594 35.0642" stroke="#4D4D4D" stroke-width="13.7771" stroke-linecap="round" stroke-linejoin="round"/>
<path d="M4.45898 35.8028L4.98116 29.4194L9.31351 30.7605L10.5025 36.9396L5.84613 38.2742L4.45898 35.8028Z" fill="#4D4D4D"/>
<path d="M28.3235 74.7114C25.5339 74.7013 22.763 74.2554 20.1115 73.3899C20.9361 74.0872 20.9276 74.2756 20.9248 74.36C20.9182 74.4902 20.8309 74.6467 20.4552 74.6467C19.2907 74.6467 15.8139 73.568 13.065 70.3618C9.42478 66.1171 7.71175 61.8828 6.96888 59.49C6.91347 59.9905 6.78762 60.4647 6.53592 60.7515C6.4565 60.8456 6.35742 60.9212 6.24564 60.973C6.13387 61.0248 6.01209 61.0516 5.88884 61.0515V61.0515C5.7168 61.0472 5.54743 61.0079 5.39108 60.9362C3.01876 59.9052 2.11247 51.803 2.0749 51.459C1.85514 49.4393 2.09369 46.9098 2.3651 45.0269C1.9669 45.8704 1.48981 46.6014 1.01835 46.6605C0.999564 46.6605 0.979841 46.6605 0.961997 46.6605C0.885084 46.6592 0.809625 46.6393 0.742076 46.6026C0.674526 46.5659 0.6169 46.5134 0.574125 46.4496C-0.103949 45.5527 0.319611 40.8984 1.13011 38.0793C2.04016 34.9134 4.17111 29.8842 4.19272 29.8318L4.29978 29.5797L6.01281 30.6443L5.96585 30.813C5.96585 30.8261 5.60991 32.1617 5.94049 34.1486C6.50399 37.5573 8.60865 40.755 9.64079 41.9697C9.75725 42.1074 9.91691 42.2865 10.1029 42.4936C11.0974 43.6051 12.7626 45.4655 13.0706 46.7954C13.2303 47.4805 13.1927 47.996 12.9626 48.2847C12.8972 48.3666 12.8136 48.4322 12.7184 48.4762C12.6232 48.5203 12.519 48.5417 12.4141 48.5386C12.164 48.5251 11.9212 48.4494 11.7079 48.3184C12.1221 48.8048 12.5935 49.3362 13.0875 49.8582C14.7611 51.624 16.5896 54.9127 16.3492 56.3485C16.2976 56.6587 16.091 56.8443 15.7951 56.8443C15.349 56.8443 14.6287 56.3663 13.9036 55.7702C15.3903 57.5509 17.4236 59.8003 19.1235 60.9605C20.8957 62.1724 22.9093 62.581 24.3828 62.879C25.5662 63.119 26.4208 63.2933 26.7307 63.7769C26.831 63.9221 26.8951 64.0892 26.9174 64.2641C26.9398 64.4391 26.9199 64.6168 26.8594 64.7825C26.741 65.1115 26.4678 65.4301 26.0639 65.7197C27.4116 65.4498 29.1575 65.0899 30.0807 64.8622C31.2077 64.581 32.8155 64.2164 33.8148 64.2164C34.0317 64.2104 34.2483 64.2353 34.4581 64.2905C34.5255 64.3064 34.5867 64.3414 34.6345 64.3913C34.6823 64.4412 34.7147 64.5038 34.7277 64.5716C34.7346 64.7153 34.6888 64.8565 34.599 64.969C36.5074 64.0318 39.7306 62.6888 42.4363 62.6888C42.7314 62.6879 43.0263 62.7057 43.3191 62.7422C44.3231 62.8696 44.8875 63.223 44.9965 63.7928C45.3026 65.3973 41.5028 67.9794 41.0623 68.2221C40.5927 68.4827 39.1727 69.2306 37.8006 69.8679C38.1088 69.8346 38.4185 69.8171 38.7285 69.8154C39.771 69.8154 40.466 70.0572 40.7947 70.5352C40.8751 70.6427 40.9265 70.7691 40.9439 70.9022C40.9614 71.0353 40.9443 71.1707 40.8942 71.2952C40.7627 71.6298 40.3626 72.6467 34.2562 74.0132C32.3116 74.4697 30.3212 74.704 28.3235 74.7114V74.7114Z" fill="#FCDEBB"/>
<path d="M4.41213 29.9311L5.74292 30.7586C5.74292 30.7586 5.36725 32.1251 5.71192 34.1945C6.34398 37.9949 8.73978 41.2761 9.46857 42.129C10.1974 42.9818 12.4964 45.3361 12.8496 46.8563C13.0571 47.7504 12.9106 48.3118 12.4213 48.3118C12.0794 48.3118 11.5704 48.0381 10.8989 47.4121C10.0687 46.6398 9.95975 46.5283 9.95975 46.5283C9.95975 46.5283 11.3093 48.3202 12.9256 50.026C14.5419 51.7317 16.3498 54.982 16.1272 56.3166C16.0925 56.5265 15.977 56.6174 15.8042 56.6174C14.88 56.6174 12.3142 54.0204 11.6559 53.3015C11.6559 53.3015 15.8549 59.0111 19.0001 61.162C22.1454 63.3129 25.9293 62.9661 26.5425 63.9118C27.1558 64.8574 25.9105 65.8022 24.2763 66.3214C24.2763 66.3214 28.4932 65.506 30.1461 65.103C31.4666 64.7768 32.9119 64.4638 33.8238 64.4638C34.0181 64.4587 34.2121 64.4802 34.4005 64.5275C34.964 64.6944 33.0857 66.0543 33.0857 66.0543C33.0857 66.0543 38.4154 62.938 42.4491 62.938C42.7345 62.937 43.0196 62.9542 43.3028 62.9896C47.3891 63.5079 41.8725 67.5313 40.9615 68.0318C40.0505 68.5323 37.0424 70.0937 35.5557 70.5529C35.5557 70.5529 37.2753 70.0646 38.7413 70.0646C39.5556 70.0646 40.2928 70.2155 40.6149 70.6823C41.5193 71.9944 36.8752 73.2043 34.2183 73.7976C32.289 74.2453 30.3152 74.4745 28.3344 74.4808C25.6982 74.4808 22.4825 74.0666 18.8555 72.7001C18.8555 72.7001 20.7132 74.0666 20.7009 74.3505C20.7009 74.3899 20.6174 74.4133 20.4699 74.4133C19.5561 74.4133 16.1056 73.5314 13.2572 70.2099C7.74615 63.7834 6.7065 57.4806 6.7065 57.4806C6.7065 57.4806 7.15542 60.8208 5.90351 60.8208C5.76353 60.818 5.62568 60.7861 5.49874 60.7271C3.75283 59.967 2.65683 54.5171 2.32249 51.4402C1.98815 48.3633 2.74887 43.8947 3.04659 42.6154C3.04659 42.6154 1.89517 46.323 1.00297 46.4345H0.975734C0.118279 46.4345 0.462012 41.307 1.3683 38.1523C2.28492 34.9658 4.42152 29.9339 4.42152 29.9339L4.41213 29.9311ZM4.19894 29.2441L3.98387 29.7483C3.96227 29.7989 1.8238 34.8421 0.912812 38.0211C0.51179 39.4138 0.196231 41.2686 0.0675661 42.9818C-0.0770648 44.9022 0.0328153 46.1187 0.394392 46.5976C0.45965 46.6901 0.545926 46.7658 0.646156 46.8186C0.746386 46.8714 0.857721 46.8997 0.971039 46.9013C0.999619 46.9013 1.02817 46.8994 1.0565 46.8957C1.31008 46.8638 1.60779 46.7354 1.98627 46.1956C1.79187 47.8882 1.67259 49.8507 1.85009 51.4862C2.05591 53.3766 2.41555 55.2472 2.92543 57.0795C3.60351 59.4225 4.38207 60.7515 5.30621 61.1536C5.49241 61.2385 5.69411 61.2845 5.89882 61.2885C6.05524 61.29 6.2101 61.2573 6.35242 61.1925C6.49475 61.1277 6.62107 61.0325 6.72246 60.9136C6.85113 60.7583 6.9507 60.5812 7.01642 60.3907C7.14697 60.7656 7.29817 61.1761 7.47098 61.609C8.78148 64.8514 10.6131 67.8587 12.8937 70.5126C14.1312 71.9669 15.6588 73.148 17.3791 73.9803C18.6855 74.6026 19.8688 74.8819 20.4624 74.8819C21.0916 74.8819 21.1574 74.4911 21.1621 74.3712C21.1686 74.2287 21.133 74.09 20.9742 73.8979C25.3142 75.1645 29.9091 75.2862 34.3103 74.2512C39.8936 73.0047 40.8685 72.0234 41.1164 71.3936C41.1799 71.2331 41.2017 71.0591 41.1799 70.8879C41.1581 70.7167 41.0933 70.5538 40.9915 70.4142C40.6393 69.9044 39.95 69.6298 38.9413 69.597C39.8946 69.1284 40.753 68.6729 41.1784 68.4395C41.5362 68.2427 42.5947 67.5163 43.5367 66.6504C44.8214 65.4695 45.3755 64.5238 45.2271 63.7609C45.0975 63.0805 44.4655 62.6634 43.3488 62.5219C43.046 62.4844 42.7411 62.4659 42.436 62.4666C39.9002 62.4666 36.9193 63.6288 34.9593 64.5491C34.9394 64.4377 34.8878 64.3343 34.8107 64.2512C34.7336 64.1681 34.6343 64.1089 34.5245 64.0805C34.2933 64.0193 34.0545 63.9912 33.8154 63.9971C33.0246 63.9971 31.8554 64.1976 30.0249 64.6531C29.2802 64.8406 27.9954 65.1067 26.8205 65.3467C26.9311 65.2047 27.0191 65.0467 27.0816 64.8781C27.1545 64.6785 27.1786 64.4644 27.152 64.2537C27.1254 64.0429 27.0488 63.8415 26.9285 63.6662C26.5613 63.1039 25.6654 62.9165 24.4266 62.6662C22.9756 62.3719 20.9902 61.9689 19.2612 60.7843C17.9793 59.908 16.5029 58.4056 15.2228 56.9558C15.4041 57.0429 15.602 57.0905 15.8032 57.0954C16.2164 57.0954 16.5179 56.8302 16.5893 56.4037C16.7443 55.4778 16.1535 54.0972 15.6313 53.1029C14.9739 51.8489 14.0883 50.5817 13.2656 49.7139C12.9735 49.4055 12.6899 49.0934 12.4204 48.7898C12.5606 48.7924 12.6996 48.7629 12.8267 48.7034C12.9537 48.6439 13.0653 48.5561 13.1529 48.4468C13.4347 48.0953 13.4844 47.5273 13.306 46.7598C12.9839 45.3717 11.2943 43.4795 10.2847 42.3548C10.0969 42.1486 9.94003 41.9696 9.82545 41.8356C8.80834 40.6378 6.73655 37.485 6.17869 34.127C5.8575 32.1982 6.19559 30.903 6.19935 30.8908L6.29327 30.5552L5.99837 30.3678L4.66664 29.5393L4.19706 29.2497L4.19894 29.2441Z" fill="#4D4D4D"/>
<path d="M43.293 62.9849C39.2358 62.4695 33.1651 65.9981 33.0768 66.0487C33.1266 66.0131 34.9551 64.6888 34.3916 64.5238C33.6403 64.3017 31.7911 64.6907 30.1372 65.0983C28.5106 65.4995 24.3989 66.297 24.2703 66.3167C25.9035 65.7975 27.1469 64.8519 26.5337 63.9071C25.9204 62.9624 22.1375 63.3083 18.9913 61.1573C15.892 59.0411 11.7776 53.4721 11.6498 53.3006C12.4378 54.1601 15.8958 57.6456 16.1184 56.3129C16.3409 54.9801 14.5331 51.728 12.9168 50.0222C11.3305 48.3484 10.0054 46.592 9.95277 46.5264C9.96779 46.5414 10.1143 46.6839 10.8919 47.4083C12.5251 48.9285 13.1957 48.3718 12.8426 46.8516C12.4894 45.3315 10.1857 42.9772 9.46159 42.1243C8.73749 41.2714 6.34075 37.9902 5.70494 34.1898C5.36121 32.1214 5.73593 30.754 5.73593 30.754L4.41171 29.9311C4.41171 29.9311 2.27512 34.9611 1.3585 38.1496C0.441879 41.338 0.101901 46.5414 0.993165 46.4299C1.88443 46.3184 3.00109 42.7269 3.03584 42.6145C2.73907 43.8966 1.97835 48.3606 2.31269 51.4356C2.64703 54.5106 3.74303 59.9643 5.48893 60.7234C7.16721 61.4544 6.7352 57.7815 6.69951 57.4966C6.76619 57.8715 7.90821 63.9831 13.2483 70.209C16.557 74.0675 20.6789 74.6336 20.6911 74.3487C20.7033 74.0638 18.9067 72.7414 18.8466 72.7001C25.9983 75.3871 31.5525 74.3871 34.2085 73.7929C36.8644 73.1987 41.5095 71.9888 40.6051 70.6785C39.7195 69.3946 35.7112 70.5014 35.5506 70.5473C37.0391 70.0918 40.0426 68.5267 40.9517 68.0272C41.8608 67.5276 47.3793 63.5041 43.293 62.9849ZM43.6687 64.7094C43.5109 65.2464 42.5173 66.7235 39.3485 68.417C36.1798 70.1106 33.9014 71.135 33.9014 71.135C33.9014 71.135 39.1522 70.2202 39.8829 70.9616C40.2266 71.3112 37.6167 72.6701 35.081 73.2915C32.5452 73.9129 28.7745 74.1069 26.065 73.792C23.3555 73.4771 18.8955 72.791 16.9448 71.5867C16.9993 71.6289 18.7452 72.9729 18.7452 73.3281C18.7452 73.6833 17.3984 72.9766 16.3766 72.1331C15.3548 71.2896 11.8968 67.761 10.4111 64.9428C8.92532 62.1245 7.04231 57.8115 6.11348 54.5125C6.11348 54.5125 6.57742 60.4076 4.73854 58.4797C2.89966 56.5518 2.27324 46.1731 3.35328 41.6463C3.31477 41.7279 2.0084 44.458 1.40452 44.2218C0.800638 43.9856 2.10419 38.8637 2.67426 37.232C3.24434 35.6003 3.73927 34.3894 4.60612 34.5141C5.47297 34.6387 5.89465 38.4195 7.50437 40.8422C9.1141 43.2649 11.9128 45.4646 12.2349 46.7467C12.5571 48.0288 11.0215 47.204 10.2411 46.5367C9.48319 45.8882 8.30924 44.8019 8.24349 44.741C8.34398 44.8704 11.5747 49.0063 13.0332 50.6895C14.5838 52.4787 15.6497 54.9164 14.6589 54.8508C13.5723 54.7805 11.6536 53.3119 10.5529 52.1394C10.6515 52.3156 13.8231 57.9427 15.615 59.4029C17.436 60.8855 19.4496 63.5004 24.3088 63.7778C25.6095 63.8518 26.2134 64.4517 25.8819 64.8893C25.3494 65.5941 23.3931 66.6073 23.3058 66.6073C23.3058 66.6073 28.5078 66.3486 30.9468 65.6804C33.3858 65.0121 33.2628 65.5698 31.2764 67.0581C31.3826 67.0121 38.1539 64.0327 40.0106 63.8265C43.4696 63.4488 43.8218 64.1714 43.664 64.7094H43.6687Z" fill="#EBA44D"/>
<path d="M20.183 30.4325L17.7674 37.3923L17.6932 37.6059C16.3559 37.9021 15.1669 35.8384 14.4118 34.0961C13.9629 33.0766 13.6473 32.0037 13.4727 30.9039L15.2204 28.2628L16.9541 29.0201L20.183 30.4325Z" fill="#FCDEBB"/>
<path d="M17.7674 37.3923L17.6932 37.6059C16.3559 37.9021 15.1669 35.8384 14.4118 34.0961C13.9629 33.0766 13.6473 32.0037 13.4727 30.9039L15.2204 28.2628L16.9541 29.0201L16.6329 29.5965C16.6329 29.5965 15.2467 30.8524 15.0721 31.32C14.6616 32.4203 15.1284 33.1185 15.4064 33.8974C15.6844 34.6762 16.8574 36.9743 17.7674 37.3923Z" fill="#EBA44D"/>
<path d="M10.1154 32.5553C9.42229 32.5553 8.38827 32.3678 7.54208 32.0866C7.33453 32.0182 7.04808 31.947 6.71562 31.8645C5.60741 31.5899 4.08597 31.2141 3.42855 30.3996C2.32034 29.0426 1.73337 28.244 1.4751 26.2656C1.20556 24.1859 1.35489 20.7763 2.58237 17.4473C3.80986 14.1183 4.57433 12.332 4.58654 12.3113L4.59124 12.2991L6.21223 9.26819L21.5609 15.6197L18.4148 24.7314L12.2163 31.1044C12.1675 31.1747 12.0285 31.3744 11.8341 31.6002C11.3579 32.1626 10.9193 32.4737 10.5324 32.5309C10.3941 32.5488 10.2548 32.5569 10.1154 32.5553Z" fill="#616663"/>
<path d="M6.35875 9.68715L21.1468 15.8044L18.1246 24.5552L17.4409 25.2581L11.9627 30.8964C11.8463 31.0666 11.7209 31.2305 11.5871 31.3875C11.2912 31.7352 10.8667 32.1495 10.4873 32.2057C10.3628 32.2225 10.2373 32.2303 10.1116 32.2291C9.41196 32.2291 8.408 32.0323 7.64164 31.7793C6.72502 31.4765 4.45788 31.156 3.67932 30.1972C2.63309 28.9076 2.04987 28.1354 1.801 26.2244C1.55212 24.3134 1.65167 20.9225 2.89042 17.5607C4.12918 14.1989 4.88426 12.4444 4.88426 12.4444L6.35875 9.68715ZM6.05915 8.85303L5.77741 9.37787L4.30386 12.1342L4.29071 12.1586L4.27944 12.1839C4.27193 12.2017 3.50276 13.9937 2.27245 17.333C1.02525 20.7182 0.874042 24.1878 1.14546 26.3069C1.4103 28.3687 2.05175 29.2394 3.16278 30.6087C3.89345 31.5093 5.47312 31.9002 6.62641 32.186C6.9523 32.2666 7.23404 32.336 7.42939 32.4006C8.31878 32.6949 9.3697 32.8843 10.106 32.8843C10.2631 32.8854 10.42 32.875 10.5756 32.8533C11.0508 32.783 11.5429 32.4419 12.0782 31.8111C12.2661 31.5965 12.4004 31.4025 12.4642 31.3125L17.9161 25.7136L18.5988 25.0107L18.7012 24.9057L18.7491 24.7679L21.7713 16.0171L21.9732 15.4332L21.4013 15.1971L6.61326 9.08171L6.06197 8.85397L6.05915 8.85303Z" fill="#4D4D4D"/>
<path d="M18.2553 18.8466L17.4401 25.259L11.9619 30.8964C11.8455 31.0666 11.7201 31.2305 11.5863 31.3875C8.85519 31.6687 3.26999 30.2628 2.77506 25.4577C2.28012 20.6526 5.89589 12.4829 5.89589 12.4829L11.5863 12.3948L18.2553 18.8466Z" fill="#4D4D4D"/>
<path d="M3.9668 8.94112L6.13156 4.7077L9.82341 5.64586L6.91858 8.94112H3.9668Z" fill="#4D4D4D"/>
<path d="M6.30728 5.09478L9.22432 5.83611L6.77217 8.61684H4.50597L6.30728 5.09478ZM5.96073 4.33001L5.72218 4.79862L3.91805 8.31412L3.42969 9.26821H7.06706L7.26335 9.04609L9.7155 6.26536L10.4255 5.46029L9.38491 5.196L6.46788 4.45465L5.95885 4.32532L5.96073 4.33001Z" fill="#4D4D4D"/>
<path d="M10.4043 2.88484L13.8135 0.394653L16.7089 2.16787L12.1521 4.51092L10.4043 2.88484Z" fill="#4D4D4D"/>
<path d="M13.8304 0.789204L16.0412 2.14255L12.2085 4.11071L10.9199 2.91201L13.8313 0.786395L13.8304 0.789204ZM13.7994 -0.00274658L13.4435 0.256865L10.5321 2.38248L9.89062 2.85108L10.472 3.39186L11.7596 4.59056L12.0986 4.90547L12.509 4.69365L16.3427 2.72549L17.3757 2.19222L16.3812 1.58303L14.1704 0.229687L13.7947 6.78191e-05L13.7994 -0.00274658Z" fill="#4D4D4D"/>
<path d="M13.3299 14.4904C13.2951 14.4726 9.72631 12.6891 3.33437 12.3507L2.80469 12.3236L3.06483 11.8625C3.1672 11.6816 5.60715 7.40035 9.01818 4.68523C12.356 2.02728 15.7867 1.08069 17.8848 1.08069C18.0172 1.08069 18.1468 1.08069 18.2708 1.09193H18.3365L18.3957 1.12099C18.6051 1.22408 23.5517 3.66929 25.4394 6.96267L25.6273 7.2832L25.2873 7.42754C25.2084 7.46128 17.3307 10.8315 13.7187 14.4276L13.5496 14.5954L13.3299 14.4904Z" fill="#2B2C2A"/>
<path d="M17.8865 1.40868C18.0117 1.40868 18.1338 1.41243 18.2527 1.41992C18.2527 1.41992 23.296 3.88481 25.1537 7.12946C25.1537 7.12946 17.1812 10.5156 13.4818 14.1989C13.4818 14.1989 9.9036 12.3694 3.35295 12.0236C3.35295 12.0236 5.82482 7.64868 9.22459 4.94199C12.4299 2.38995 15.7893 1.40868 17.8865 1.40868V1.40868ZM17.8865 0.752625C15.733 0.752625 12.2186 1.7189 8.81417 4.42934C5.3543 7.18382 2.88431 11.5185 2.781 11.7012L2.25977 12.6225L3.3182 12.6787C9.62655 13.0114 13.1475 14.765 13.1794 14.7828L13.6039 14.9983L13.942 14.6628C17.5108 11.1136 25.3293 7.76677 25.4082 7.73303L26.0872 7.44437L25.721 6.80425C23.7854 3.4237 18.7514 0.934447 18.5383 0.830415L18.4199 0.772308L18.2884 0.764809C18.1579 0.756374 18.0217 0.752625 17.8827 0.752625H17.8865Z" fill="#4D4D4D"/>
<path d="M14.0191 31.2975C13.9477 31.2975 12.2459 31.2038 10.2342 30.1729C8.38033 29.2179 5.91409 27.2413 4.66689 23.245L4.61523 23.0791L9.77123 16.6123L12.6178 14.467C12.9174 14.2017 18.9985 8.86615 25.969 6.42751L25.984 6.42282C26.2197 6.35159 31.7861 4.69928 34.1988 4.69928C34.3106 4.69928 34.4148 4.69928 34.5106 4.71053C35.153 4.75739 36.1344 5.09197 37.1638 6.42376C38.0719 7.59809 38.7951 9.26166 39.3144 11.3676L39.3839 11.6488L39.1097 11.749C39.0806 11.7603 36.1983 12.8371 34.2411 13.6235L18.3693 27.5271L18.3364 27.5449C18.3148 27.5571 16.1434 28.7455 14.298 31.1626L14.1937 31.2994L14.0191 31.2975Z" fill="#C3BFB3"/>
<path d="M34.2 5.02446C34.3024 5.02446 34.3991 5.02446 34.4883 5.03477C36.0117 5.14536 37.9059 7.01792 38.9963 11.4425C38.9963 11.4425 36.0483 12.5428 34.0676 13.346L18.1779 27.2618C18.1779 27.2618 15.9483 28.4605 14.0353 30.9695C14.0353 30.9695 7.32309 30.6733 4.98176 23.1465L10.0044 16.8437L12.8275 14.7181C12.8275 14.7181 18.9443 9.2307 26.0819 6.73395C26.0819 6.73395 31.8108 5.02446 34.2028 5.02446H34.2ZM34.2028 4.36841C31.7432 4.36841 26.1317 6.03479 25.8941 6.10508L25.879 6.10976H25.864C22.1074 7.42187 18.6475 9.55966 16.4048 11.1192C15.0184 12.0742 13.6856 13.1045 12.4124 14.2055L9.61088 16.3151L9.5442 16.3648L9.49255 16.4304L4.46992 22.7332L4.25391 23.005L4.35721 23.3358C4.92071 25.1419 5.77159 26.7023 6.89295 27.9732C7.79232 28.9936 8.87541 29.8366 10.0861 30.4587C12.1607 31.5271 13.9367 31.6171 14.0071 31.6209L14.3508 31.6358L14.5593 31.3622C16.3653 28.9938 18.47 27.8457 18.4907 27.8345L18.5564 27.7998L18.6127 27.7501L34.4179 13.9074C36.3667 13.1202 39.1982 12.063 39.2273 12.0527L39.7749 11.8483L39.6359 11.2813C39.1062 9.13042 38.3624 7.42655 37.426 6.22035C36.3188 4.79297 35.2453 4.43214 34.5344 4.38059C34.431 4.37216 34.3174 4.36841 34.1981 4.36841H34.2028Z" fill="#4D4D4D"/>
<path d="M13.9858 31.1542C13.8722 31.1495 11.0547 30.9817 8.34052 28.7427C5.62634 26.5037 4.91915 23.5964 4.89003 23.4746L4.82617 23.2037L5.10229 23.2459C5.21499 23.2637 7.89066 23.6873 10.0535 25.0388C12.3676 26.4859 13.5021 28.0117 14.0995 30.4812V30.4925L14.2187 31.1663L13.9858 31.1542Z" fill="#A8A496"/>
<path d="M5.07321 23.4314C5.07321 23.4314 7.79678 23.8513 9.95685 25.1981C12.1169 26.5449 13.3003 27.9666 13.9201 30.5243L13.9981 30.9676C13.9981 30.9676 11.1562 30.8233 8.46359 28.5983C5.77101 26.3734 5.07603 23.4314 5.07603 23.4314H5.07321ZM4.58297 22.976L4.7107 23.5167C4.73981 23.6423 5.46203 26.6095 8.2241 28.887C10.9862 31.1644 13.8591 31.3359 13.9793 31.3416L14.4489 31.3659L14.3662 30.902L14.2873 30.4596V30.4475V30.4372C13.6769 27.9142 12.5198 26.3565 10.155 24.8804C7.9602 23.5083 5.24696 23.0781 5.13238 23.0603L4.58203 22.976H4.58297Z" fill="#4D4D4D"/>
<path d="M13.9961 30.9677C13.9681 30.7458 13.9126 30.5282 13.8308 30.3201C13.7524 30.1117 13.6614 29.9083 13.5584 29.7109C13.3495 29.3177 13.1069 28.9433 12.8334 28.5918L12.6277 28.3303L12.4098 28.0773L12.3018 27.9508L12.1882 27.828L11.9609 27.5843C11.806 27.425 11.6454 27.2703 11.4913 27.1157C11.3373 26.9611 11.1617 26.8195 10.9917 26.679C10.3047 26.1235 9.54674 25.6618 8.73771 25.3059C8.33071 25.1297 7.91288 24.9794 7.48675 24.8561C7.27544 24.7942 7.06131 24.7408 6.84718 24.6939C6.63538 24.6463 6.42129 24.6094 6.20573 24.5833L6.38324 24.3162L6.93734 25.2609C7.14208 25.5627 7.344 25.8664 7.55437 26.1635L7.88965 26.5937L8.05776 26.8092C8.11411 26.8805 8.17891 26.9451 8.23808 27.0135L8.60435 27.4175C8.72926 27.5487 8.86544 27.6687 8.99504 27.7924C9.52021 28.2905 10.108 28.7183 10.7438 29.0651L10.987 29.1832C11.0665 29.2252 11.1484 29.2628 11.2321 29.2957C11.3993 29.3631 11.5646 29.4334 11.7374 29.4831C11.9073 29.5396 12.0804 29.586 12.2558 29.6218C12.3432 29.6368 12.4305 29.6584 12.5188 29.6659C12.6034 29.6783 12.6887 29.6855 12.7742 29.6874L12.6456 29.8749C12.5584 29.6459 12.4575 29.4224 12.3432 29.2057C12.2276 28.9873 12.1046 28.7718 11.9675 28.5637C11.6977 28.1469 11.3855 27.759 11.0358 27.4062C10.686 27.0505 10.2914 26.7414 9.86189 26.4868C9.75671 26.4203 9.64401 26.3659 9.53318 26.3059C9.42236 26.246 9.30778 26.1963 9.19133 26.1504C8.95993 26.0519 8.72209 25.9692 8.47945 25.9029C8.97762 25.9994 9.4589 26.1684 9.90791 26.4044C10.3601 26.6415 10.7797 26.936 11.1561 27.2807C11.5328 27.6268 11.8704 28.013 12.1628 28.4325C12.4628 28.8521 12.7148 29.3038 12.9142 29.7793L12.9912 29.9667H12.7855C12.6864 29.9669 12.5873 29.9615 12.4887 29.9508C12.3948 29.9442 12.3009 29.9236 12.207 29.9105C12.0194 29.8775 11.834 29.8331 11.6519 29.7774C11.2884 29.6684 10.9354 29.5269 10.5973 29.3547C9.92421 29.009 9.30225 28.5722 8.74898 28.0567C8.61374 27.9273 8.47193 27.8027 8.34139 27.6677L7.96103 27.2525C7.89904 27.1822 7.83236 27.1157 7.77319 27.0426L7.59851 26.8224L7.25102 26.3809C7.13926 26.2319 7.04065 26.0726 6.93452 25.9189C6.8284 25.7652 6.72509 25.6096 6.62272 25.4503L6.05922 24.4821L5.87891 24.171L6.23673 24.215C6.46694 24.2431 6.69549 24.2834 6.92138 24.3359C7.1449 24.3856 7.36466 24.4474 7.58348 24.513C8.0195 24.6484 8.44669 24.8105 8.86262 24.9985C9.69161 25.3801 10.463 25.8757 11.1542 26.4709C11.326 26.619 11.4866 26.7811 11.6519 26.9395C11.8172 27.0979 11.9637 27.2666 12.1159 27.4344C12.4186 27.7703 12.6993 28.1253 12.9564 28.4972C13.2146 28.868 13.4405 29.2603 13.6317 29.6696C13.8195 30.0839 13.9735 30.5178 13.9961 30.9677Z" fill="#4D4D4D"/>
<path d="M15.5316 22.5027C15.4987 22.468 13.9942 20.9413 7.60223 18.9553L7.22656 18.8372L7.41439 18.4886C7.48108 18.363 9.05135 15.4051 10.0854 14.4689C10.3474 14.2317 10.7109 14.1108 11.1663 14.1108C12.4812 14.1108 14.2712 15.1315 14.3473 15.1755L16.0077 16.1905L16.0462 16.243C16.0716 16.2777 18.5529 19.7679 16.0218 22.5036L15.7767 22.7689L15.5316 22.5027Z" fill="#6B716F"/>
<path d="M11.1602 14.4389C12.4064 14.4389 14.1767 15.4595 14.1767 15.4595L15.7733 16.4361C15.7733 16.4361 18.1503 19.7107 15.7733 22.2815C15.7733 22.2815 14.3646 20.7117 7.69652 18.6414C7.69652 18.6414 9.2931 15.6198 10.2971 14.7116C10.5131 14.5157 10.8155 14.4398 11.1573 14.4389H11.1602ZM11.1573 13.7828C10.6173 13.7828 10.1797 13.9319 9.85566 14.2261C8.79722 15.184 7.28423 18.0163 7.11518 18.3358L6.74609 19.0331L7.49742 19.2684C13.6179 21.17 15.1901 22.6349 15.2821 22.7239L15.7583 23.2919L16.2504 22.7295C17.3821 21.5055 17.7437 19.9507 17.2948 18.2309C17.0888 17.4539 16.7522 16.7174 16.2992 16.0528L16.2222 15.9469L16.1105 15.8785L14.5139 14.9019H14.5064H14.4998C14.3026 14.7885 12.5379 13.7931 11.1545 13.7931L11.1573 13.7828Z" fill="#4D4D4D"/>
<path d="M8.88827 16.5907C8.88827 16.5907 12.6055 17.6835 14.9214 18.9441C14.9214 18.9441 16.6392 19.9272 16.6655 20.7641C16.6655 20.7641 16.4034 21.6376 15.7949 22.2637C15.7949 22.2637 14.188 20.9938 11.2559 19.8803C8.32384 18.7669 7.70117 18.6451 7.70117 18.6451C7.70117 18.6451 8.80187 16.6526 8.88827 16.5907Z" fill="#4D4D4D"/>
<path d="M25.9876 10.3151C25.3302 10.3151 25.1264 10.2617 25.0099 10.2045L24.9498 10.1754L22.4141 7.25882L22.739 7.05544C22.8442 6.98889 25.3395 5.44061 26.8957 5.44061C27.1676 5.43237 27.437 5.49401 27.6781 5.61962C28.9685 6.34128 30.7379 9.39474 30.812 9.52407L31.0656 9.96363L30.5594 10.0142C30.4401 10.0264 27.5203 10.3151 25.9876 10.3151Z" fill="#6B716F"/>
<path d="M26.8971 5.76866C27.1136 5.76049 27.3285 5.80759 27.5216 5.9055C28.7482 6.59154 30.527 9.68811 30.527 9.68811C30.527 9.68811 27.5216 9.98708 25.9814 9.98708C25.5672 9.98708 25.2611 9.96553 25.1484 9.91023L22.9104 7.33288C22.9104 7.33288 25.4132 5.76866 26.8924 5.76866H26.8971ZM26.8924 5.11261C25.2705 5.11261 22.8334 6.60654 22.561 6.77711L21.9102 7.18386L22.4135 7.76306L24.6563 10.3432L24.7436 10.4444L24.8638 10.5026C25.0451 10.5963 25.2958 10.6469 25.9908 10.6469C27.5414 10.6469 30.4772 10.3563 30.6012 10.3442L31.6126 10.2439L31.1064 9.36477C30.9139 9.03112 29.1934 6.09013 27.8485 5.33473C27.5573 5.18072 27.2312 5.10452 26.9018 5.11355L26.8924 5.11261Z" fill="#4D4D4D"/>
<path d="M28.7641 9.84273C27.9314 8.4091 26.8729 7.1186 25.6292 6.02075C25.6292 6.02075 23.7931 6.69649 22.9141 7.33286L24.7529 9.45097L25.1521 9.91021C25.1521 9.91021 25.54 10.032 26.4246 9.98706C27.3093 9.94207 28.7641 9.84273 28.7641 9.84273Z" fill="#4D4D4D"/>
<path d="M35.5093 26.2244C35.4789 26.4008 35.4353 26.5747 35.3788 26.7446L35.3487 26.8383C34.9073 28.1363 33.337 31.0061 28.198 30.2385H28.1698L28.0674 30.2198L26.5723 29.9386L29.6565 22.9685L35.5093 26.2244Z" fill="#FCDEBB"/>
<path d="M35.3781 26.7445L35.348 26.8383C34.9066 28.1363 33.3364 31.0061 28.1973 30.2385L29.2022 28.8851L30.5452 25.4643C30.4945 28.5965 29.2031 29.9311 29.2031 29.9311C33.8473 30.0913 34.5901 26.8786 34.5901 26.8786L35.3781 26.7445Z" fill="#EBA44D"/>
<path d="M24.1618 31.5066C20.345 31.5066 16.2728 29.5703 15.2228 28.8655L14.8077 28.5843L15.3515 28.425L17.5294 27.7811L14.1484 26.5252L15.2482 26.0079L17.0326 25.17L16.5198 23.991L38.7667 13.7622L39.4532 15.3105L42.4228 14.1221L41.0592 17.4474L43.5639 15.989L43.4287 16.5289C43.3789 16.7248 42.1956 21.3556 40.0571 23.9863C38.5347 25.8608 36.9156 26.7699 35.1077 26.7699C33.699 26.7699 32.2057 26.2366 30.5321 25.141L30.4955 25.1166L30.4692 25.0801C30.4561 25.0635 30.4389 25.0506 30.4194 25.0426C30.3924 25.057 30.3693 25.0775 30.3518 25.1026C30.3128 25.587 30.2343 26.0676 30.117 26.5393C30.0513 26.8092 29.9799 27.0557 29.9001 27.2891C29.2962 29.1017 27.9212 31.3013 24.8042 31.485C24.5947 31.5 24.3787 31.5066 24.1618 31.5066Z" fill="#FCDEBB"/>
<path d="M38.6477 14.0752L39.3295 15.6076L41.992 14.5448L40.5833 17.9975L43.2026 16.4726C43.2026 16.4726 42.0043 21.215 39.8742 23.8392C38.5848 25.425 37.0661 26.5356 35.1071 26.5356C33.8307 26.5356 32.3685 26.067 30.6601 24.9423C30.632 24.9038 30.5961 24.8717 30.5546 24.8481C30.5132 24.8245 30.4672 24.81 30.4197 24.8055C30.3333 24.8055 30.2319 24.8551 30.1211 25.0163C30.087 25.5105 30.0091 26.0008 29.8881 26.4812C29.8318 26.7118 29.7632 26.9592 29.6768 27.215C29.1021 28.9386 27.7854 31.0745 24.7932 31.2516C24.5847 31.2641 24.3753 31.2701 24.1649 31.2695C20.3669 31.2695 16.3774 29.3528 15.3565 28.6687L15.4204 28.6499L16.058 28.4625L18.2735 27.8064L18.2172 27.7858L14.7564 26.4999L15.3509 26.2188L17.3447 25.2816L16.8329 24.1044L38.6477 14.0752ZM38.8834 13.4501L38.4514 13.6488L16.6328 23.6845L16.2158 23.872L16.398 24.2928L16.7286 25.0529L15.1471 25.7942L14.5526 26.0754L13.543 26.5571L14.5892 26.9461L16.7878 27.7633L15.9209 28.0192L15.2832 28.2066L15.2203 28.2254L14.2605 28.5065L15.0907 29.0689C15.8843 29.6003 19.9903 31.7493 24.1611 31.7493C24.3828 31.7493 24.6035 31.7427 24.8185 31.7306C26.2808 31.6434 27.5102 31.1139 28.4738 30.156C29.1903 29.4428 29.7454 28.5065 30.1239 27.3734C30.2046 27.1326 30.2779 26.8795 30.3455 26.603C30.4389 26.2174 30.5088 25.8265 30.5549 25.4325C32.2069 26.4878 33.6974 27.0014 35.1071 27.0014C36.9854 27.0014 38.6684 26.0641 40.2386 24.1316C42.41 21.4605 43.6055 16.7819 43.6553 16.5832L43.9277 15.5036L42.9631 16.0659L41.5375 16.8963L42.4269 14.7191L42.8448 13.6975L41.8174 14.1071L39.5756 15.0022L39.0769 13.8831L38.8834 13.4482V13.4501Z" fill="#4D4D4D"/>
<path d="M29.6778 27.2178C29.103 28.9414 27.7863 31.0773 24.7941 31.2544C20.8186 31.4887 16.4356 29.3941 15.3574 28.6715L15.4213 28.6527L16.059 28.4653C17.6556 29.5899 20.6872 30.932 24.5884 30.9686C27.8887 30.9995 29.3181 28.1044 29.6778 27.2178Z" fill="#EBA44D"/>
<path d="M28.6387 24.2956C28.6387 24.2956 29.6502 25.3387 30.3855 25.1119C31.1209 24.8851 30.8128 23.1831 30.8128 23.1831C30.8128 23.1831 29.4003 23.1278 28.6387 24.2956Z" fill="#4D4D4D"/>
<path d="M16.1941 21.3536C16.0843 21.1287 14.36 17.4839 16.412 15.0499C18.4641 12.6159 21.3642 10.9149 25.2965 9.82866C26.5503 9.48377 27.7176 9.31226 28.777 9.31226C30.2421 9.31226 31.232 9.64965 31.8039 9.93176C31.9516 10.0053 32.0949 10.0872 32.2331 10.1773C32.9939 10.6759 33.5555 11.5897 33.8297 12.2786L34.6148 14.3732L34.3275 14.4969C34.2589 14.5269 27.4303 17.4651 22.3212 19.9806C19.777 21.2327 18.0781 22.1737 17.2704 22.7763L16.9408 23.0219L16.1941 21.3536Z" fill="white"/>
<path d="M28.7775 9.63658C30.159 9.63658 31.0926 9.94305 31.6579 10.2223C31.794 10.2899 31.926 10.3653 32.0533 10.4482C32.7596 10.9112 33.2799 11.7828 33.5212 12.3948L34.1974 14.199C34.1974 14.199 27.3519 17.1409 22.1762 19.6892C19.9269 20.797 17.9922 21.8317 17.0737 22.5168L16.4924 21.215C16.4924 21.215 14.708 17.5851 16.6642 15.2618C18.6205 12.9384 21.4464 11.2317 25.3843 10.1455C26.7311 9.7706 27.8543 9.63658 28.7775 9.63658ZM28.7775 8.98053C27.5694 8.99767 26.3691 9.17672 25.2087 9.51287C21.2107 10.6169 18.2505 12.3592 16.1608 14.8391C13.9895 17.4136 15.7561 21.2028 15.896 21.4933L16.4726 22.7858L16.8079 23.5355L17.4653 23.0435C18.257 22.453 19.9391 21.5233 22.4654 20.2787C27.567 17.767 34.3871 14.8325 34.4557 14.8035L35.0305 14.556L34.8154 13.9684L34.1392 12.1643V12.1586C33.849 11.4239 33.2451 10.4454 32.4205 9.90463C32.2715 9.80767 32.1169 9.71942 31.9575 9.64033C31.3518 9.34042 30.3121 8.98428 28.7832 8.98428L28.7775 8.98053Z" fill="#4D4D4D"/>
<path d="M34.1971 14.199C34.1971 14.199 27.3515 17.1409 22.1758 19.6892L16.831 21.7061C16.831 21.7061 15.3284 17.8569 17.4584 15.9291C19.5884 14.0012 24.5641 11.2327 28.764 10.3179C29.9258 10.0649 30.8818 10.0752 31.6576 10.2242C31.7937 10.2918 31.9257 10.3672 32.053 10.4501C32.7592 10.9131 33.2795 11.7847 33.5209 12.3967L34.1971 14.199Z" fill="#ED8D1D"/>
<path d="M34.232 14.168C34.232 14.168 27.3761 17.1212 22.1873 19.6789C19.9333 20.7904 17.9948 21.8288 17.0745 22.5168L16.4922 21.215C16.4922 21.215 18.949 17.9684 26.5929 14.7191C30.8257 12.9196 32.7134 12.436 33.5539 12.362L34.232 14.168Z" fill="#4D4D4D"/>
<path d="M35.9449 7.55127L37.9688 11.9084L34.3652 13.2786L35.9449 7.55127Z" fill="#FCDEBB"/>
<path d="M36.0239 8.50157L37.5265 11.7265L34.8584 12.7415L36.0276 8.50157H36.0239ZM35.8699 6.60089L35.3937 8.32725L34.2244 12.5672L33.877 13.8156L35.0885 13.3545L37.7566 12.3395L38.414 12.0892L38.1182 11.451L36.6155 8.22509L35.8642 6.60089H35.8699Z" fill="#4D4D4D"/>
<path d="M35.5352 12.4829L36.1353 10.8887L36.8622 11.9777L35.5352 12.4829Z" fill="#4D4D4D"/>
<path d="M13.666 17.2974L14.6409 17.796L19.3714 20.2121L16.3032 21.8391L15.6899 22.1653L13.666 17.2974Z" fill="#FCDEBB"/>
<path d="M14.3137 17.9975L14.4912 18.0912L18.663 20.2177L16.1516 21.5495L15.8577 21.706L14.3156 17.9975H14.3137ZM13.0214 16.5973L13.7089 18.2486L15.251 21.9572L15.5327 22.6245L16.1723 22.2843L16.4663 22.1278L18.9766 20.7969L20.0895 20.2065L18.9625 19.6329L14.7927 17.5035L14.6161 17.4098L13.0195 16.5935L13.0214 16.5973Z" fill="#4D4D4D"/>
<path d="M17.8136 20.6667L15.9785 19.9825L16.4857 21.3705L17.8136 20.6667Z" fill="#4D4D4D"/>
<path d="M14.49 18.0884L16.1702 21.5383L15.8546 21.7061L14.3125 17.9975L14.49 18.0884Z" fill="#EBA54E"/>
<path d="M21.5586 25.4578L26.153 22.961C26.153 22.961 27.0076 24.0491 26.153 24.976C25.2983 25.9029 24.0474 25.3097 23.7112 24.5674L21.5586 25.4578Z" fill="#4D4D4D"/>
<path d="M31.4355 20.4652C31.4355 20.4652 31.6872 22.5383 33.9159 21.5776C34.6033 21.2805 34.4174 20.0012 34.0643 19.5158L36.2375 18.2177L31.4355 20.4652Z" fill="#4D4D4D"/>
<path d="M25.7874 29.4194C27.0701 29.4194 28.1099 28.3817 28.1099 27.1016C28.1099 25.8216 27.0701 24.7839 25.7874 24.7839C24.5047 24.7839 23.4648 25.8216 23.4648 27.1016C23.4648 28.3817 24.5047 29.4194 25.7874 29.4194Z" fill="#F6BBAA"/>
<path d="M34.7542 25.1438C36.0369 25.1438 37.0767 24.1061 37.0767 22.826C37.0767 21.546 36.0369 20.5083 34.7542 20.5083C33.4715 20.5083 32.4316 21.546 32.4316 22.826C32.4316 24.1061 33.4715 25.1438 34.7542 25.1438Z" fill="#F6BBAA"/>
<path d="M11.9757 26.2816C11.8018 26.2846 11.6291 26.2543 11.4666 26.1925C11.4172 26.1741 11.3695 26.1515 11.3239 26.125C11.242 26.078 11.1734 26.0113 11.1241 25.9309C11.0749 25.8504 11.0467 25.759 11.0421 25.6649C11.0064 25.0604 11.8357 24.3218 12.5373 23.8082C13.7582 22.9188 20.7906 19.1821 22.2313 18.5598C23.672 17.9375 31.6229 14.3189 35.2312 12.6141C38.3736 11.1295 40.9375 10.5906 41.8936 10.5906C41.9617 10.59 42.0298 10.5938 42.0974 10.6019L42.1678 10.6113C42.5228 10.6581 43.1164 10.7369 43.107 11.2617C43.107 11.5176 42.9285 11.8015 42.5435 12.1811C41.7058 13.0002 36.407 15.4707 31.0528 17.93L30.264 18.2927C26.3091 20.1118 14.9274 25.2815 13.8061 25.768C12.9984 26.1194 12.418 26.2816 11.9757 26.2816Z" fill="white"/>
<path d="M41.89 10.9205C41.9431 10.9201 41.9961 10.9232 42.0487 10.9299C42.3915 10.9768 42.7803 11.0096 42.7775 11.2607C42.7775 11.4041 42.647 11.6197 42.3079 11.9496C41.38 12.8578 33.8771 16.2683 30.1204 17.9975C26.3638 19.7266 14.8121 24.976 13.6701 25.4699C12.9103 25.7998 12.3693 25.9535 11.9796 25.9535C11.847 25.956 11.7151 25.9338 11.5908 25.8879C11.5564 25.8749 11.5231 25.8593 11.4912 25.841C11.1456 25.6461 11.5307 24.9516 12.7318 24.0734C13.933 23.1953 20.8932 19.4951 22.3611 18.8644C23.829 18.2336 31.8194 14.5925 35.3722 12.914C38.6536 11.3629 41.1133 10.9215 41.8938 10.9205H41.89ZM41.8938 10.2645C41.0485 10.2645 38.5306 10.6946 35.0914 12.3207C31.485 14.0246 23.5397 17.6423 22.1009 18.2618C20.6124 18.9009 13.6147 22.6161 12.344 23.5439C11.2264 24.3602 10.6788 25.081 10.7145 25.6845C10.7216 25.8337 10.7667 25.9787 10.8456 26.1056C10.9244 26.2326 11.0345 26.3373 11.1653 26.4099C11.2254 26.446 11.2882 26.4774 11.3532 26.5037C11.5531 26.5784 11.7652 26.6156 11.9786 26.6133C12.4745 26.6133 13.0784 26.4474 13.9359 26.0753C15.0572 25.5889 26.4436 20.4164 30.3994 18.5963L31.1873 18.2346C36.7922 15.66 41.8938 13.2786 42.7719 12.4238C43.2339 11.973 43.4293 11.6291 43.4377 11.2748C43.4424 10.8868 43.2048 10.5663 42.8019 10.4182C42.6097 10.3561 42.4113 10.3146 42.2103 10.2945L42.1408 10.2851C42.0585 10.2747 41.9757 10.2697 41.8928 10.2701L41.8938 10.2645Z" fill="#4D4D4D"/>
<path d="M42.7764 11.2607C42.7764 11.4041 42.6459 11.6197 42.3069 11.9496C41.379 12.8578 33.876 16.2683 30.1194 17.9975C26.3627 19.7266 14.811 24.976 13.669 25.4699C12.62 25.9254 11.987 26.0454 11.5859 25.8879C12.4791 25.2975 19.2796 20.8616 26.7215 17.5111C34 14.2345 38.9954 11.974 42.7764 11.2607Z" fill="#ED8D1D"/>
<path d="M34.8538 24.7023C37.87 24.7023 40.315 22.2623 40.315 19.2524C40.315 16.2425 37.87 13.8025 34.8538 13.8025C31.8377 13.8025 29.3926 16.2425 29.3926 19.2524C29.3926 22.2623 31.8377 24.7023 34.8538 24.7023Z" stroke="#4D4D4D" stroke-width="0.468609" stroke-miterlimit="10"/>
<path d="M23.0003 30.1729C26.0164 30.1729 28.4615 27.7328 28.4615 24.7229C28.4615 21.713 26.0164 19.273 23.0003 19.273C19.9841 19.273 17.5391 21.713 17.5391 24.7229C17.5391 27.7328 19.9841 30.1729 23.0003 30.1729Z" stroke="#4D4D4D" stroke-width="0.468609" stroke-miterlimit="10"/>
<path d="M27.9961 22.5167C27.9961 22.5167 28.5399 21.4745 29.8979 21.5439" stroke="#4D4D4D" stroke-width="0.468609" stroke-miterlimit="10"/>
<path d="M18.257 27.782L18.2147 27.7886L14.7539 26.5027L15.3484 26.2234L18.257 27.782Z" fill="#EBA44D"/>
<path d="M16.0847 21.3649L15.7813 21.5308L14.3125 17.9975L14.49 18.0884L16.0847 21.3649Z" fill="#EBA44D"/>
<path d="M18.8281 29.0791C18.8281 29.0791 20.3993 26.6686 24.9731 26.1129" stroke="#4D4D4D" stroke-width="0.468609" stroke-miterlimit="10"/>
<path d="M17.5273 32.5637C17.5273 32.5637 19.0685 29.0275 23.7502 27.199" stroke="#4D4D4D" stroke-width="0.468609" stroke-miterlimit="10"/>
<path d="M21.4238 30.9817C21.4238 30.9817 23.2637 28.319 24.8274 27.4006" stroke="#4D4D4D" stroke-width="0.468609" stroke-miterlimit="10"/>
<path d="M34.7539 22.3181C34.7539 22.3181 37.9555 19.0312 40.8782 19.1671" stroke="#4D4D4D" stroke-width="0.468609" stroke-miterlimit="10"/>
<path d="M36.373 21.9788C36.373 21.9788 40.8256 19.3002 44.4883 20.2449" stroke="#4D4D4D" stroke-width="0.468609" stroke-miterlimit="10"/>
<path d="M35.9121 22.961C35.9121 22.961 40.1543 21.497 42.9408 23.0725" stroke="#4D4D4D" stroke-width="0.468609" stroke-miterlimit="10"/>
</g>
<defs>
<clipPath id="clip0_3503_71467">
<rect width="49.6788" height="77" fill="white"/>
</clipPath>
</defs>
</svg>
