<svg width="15" height="14" viewBox="0 0 15 14" fill="none" xmlns="http://www.w3.org/2000/svg">
<path d="M9.15916 1.40701C8.10365 0.498775 6.76285 0 5.3768 0C3.99076 0 2.64995 0.498775 1.59444 1.40701C1.0992 1.83475 0.700565 2.365 0.425491 2.96192C0.150417 3.55884 0.00531531 4.2085 0 4.86701C0.0116228 5.63594 0.209706 6.39027 0.576855 7.06379C0.944003 7.7373 1.469 8.30943 2.10581 8.73001L1.83777 9.88001C1.81819 9.96514 1.82391 10.0542 1.85419 10.1361C1.88447 10.2179 1.93796 10.2889 2.00798 10.3402C2.078 10.3914 2.16143 10.4207 2.2478 10.4242C2.33418 10.4277 2.41968 10.4054 2.49356 10.36L3.83577 9.53C4.18519 9.62409 4.54245 9.68537 4.90302 9.71302C4.66361 8.67511 4.77938 7.58581 5.2314 6.62302C5.52232 6.00593 5.93265 5.45404 6.43811 5C7.50736 4.04529 8.88795 3.52388 10.3144 3.53601C10.3936 3.53601 10.4727 3.53601 10.5528 3.53601C10.2884 2.71144 9.80653 1.97537 9.15916 1.40701ZM3.92974 3.59802C3.85799 3.67044 3.76364 3.71547 3.66273 3.72544C3.56183 3.7354 3.46063 3.70967 3.37638 3.65265C3.29214 3.59563 3.23006 3.51083 3.20072 3.41272C3.17138 3.31461 3.17659 3.20925 3.21548 3.11459C3.25437 3.01994 3.32452 2.94184 3.41398 2.89362C3.50344 2.84539 3.60667 2.83003 3.70608 2.85013C3.80549 2.87023 3.89492 2.92455 3.95915 3.00385C4.02338 3.08315 4.05843 3.18251 4.05831 3.28501C4.05817 3.40303 4.01197 3.51623 3.92974 3.60001V3.59802ZM6.81101 3.59802C6.73924 3.6712 6.64459 3.71691 6.54319 3.72739C6.44179 3.73786 6.33994 3.71242 6.25503 3.65543C6.17011 3.59844 6.10737 3.51343 6.07755 3.41489C6.04773 3.31635 6.05266 3.21042 6.0915 3.11514C6.13034 3.01987 6.20069 2.94117 6.29052 2.89249C6.38036 2.84381 6.48411 2.82816 6.58409 2.84821C6.68407 2.86826 6.77406 2.92275 6.83872 3.00241C6.90337 3.08208 6.93867 3.18196 6.9386 3.28501C6.93813 3.40297 6.89198 3.51605 6.81003 3.60001L6.81101 3.59802Z" fill="#4C4C4C"/>
<path d="M14.9723 8.64697C15.0752 7.69419 14.8897 6.73227 14.4403 5.88836C13.9909 5.04446 13.2988 4.3583 12.4555 3.92059C11.6121 3.48288 10.6573 3.31422 9.71708 3.43691C8.7769 3.55961 7.89569 3.96787 7.18992 4.60775C6.48415 5.24763 5.98706 6.08901 5.76436 7.02063C5.54167 7.95224 5.60385 8.93025 5.94268 9.82538C6.28151 10.7205 6.88104 11.4906 7.66202 12.0338C8.44301 12.5771 9.36867 12.868 10.3167 12.8679C10.8651 12.8688 11.4101 12.7807 11.9309 12.607L13.0822 13.046C13.1314 13.065 13.1837 13.0749 13.2364 13.075C13.3054 13.0751 13.3734 13.0587 13.435 13.0273C13.4965 12.9958 13.5498 12.9501 13.5906 12.8939C13.6313 12.8377 13.6584 12.7725 13.6696 12.7037C13.6807 12.6349 13.6757 12.5644 13.6548 12.498L13.4323 11.783C13.9067 11.4118 14.2917 10.9369 14.5584 10.3937C14.8251 9.85055 14.9666 9.25336 14.9723 8.64697ZM8.99326 7.83197C8.91102 7.91511 8.79947 7.96182 8.68317 7.96182C8.56687 7.96182 8.45534 7.91511 8.3731 7.83197C8.29086 7.74882 8.24466 7.63604 8.24466 7.51846C8.24466 7.40087 8.29086 7.2881 8.3731 7.20495C8.45534 7.12181 8.56687 7.0751 8.68317 7.0751C8.79947 7.0751 8.91102 7.12181 8.99326 7.20495C9.07549 7.2881 9.12169 7.40087 9.12169 7.51846C9.12169 7.63604 9.07549 7.74882 8.99326 7.83197ZM12.0327 7.83197C11.961 7.90435 11.8667 7.94936 11.7658 7.95935C11.665 7.96933 11.5638 7.94366 11.4796 7.88671C11.3954 7.82977 11.3332 7.74507 11.3038 7.64703C11.2744 7.54899 11.2795 7.44366 11.3183 7.34899C11.3571 7.25433 11.4271 7.1762 11.5164 7.12786C11.6058 7.07953 11.7089 7.064 11.8083 7.08392C11.9077 7.10384 11.9972 7.15798 12.0616 7.23712C12.126 7.31626 12.1612 7.41552 12.1613 7.51797C12.1615 7.63636 12.1153 7.74999 12.0327 7.83395V7.83197Z" fill="#4C4C4C"/>
</svg>
