<svg width="15" height="10" viewBox="0 0 15 10" fill="none" xmlns="http://www.w3.org/2000/svg">
<path d="M1.44561 3.08197C1.63517 3.19528 2.20683 3.53267 3.16059 4.0941C4.11435 4.65553 4.8452 5.08766 5.35312 5.39046C5.40927 5.42375 5.52783 5.49607 5.7088 5.60746C5.88978 5.71885 6.04037 5.8088 6.16058 5.8773C6.28079 5.9458 6.42577 6.02261 6.59552 6.10775C6.74925 6.1867 6.9105 6.25103 7.07702 6.29982C7.21256 6.34026 7.35332 6.36191 7.49512 6.36414H7.51197C7.6541 6.362 7.79519 6.34035 7.93105 6.29982C8.09725 6.251 8.25817 6.18667 8.41156 6.10775C8.58197 6.02261 8.72695 5.9458 8.84651 5.8773C8.96606 5.8088 9.11664 5.71885 9.29828 5.60746L9.65396 5.39046L13.5694 3.08581C13.9615 2.85698 14.3073 2.5609 14.5899 2.212C14.8482 1.90995 14.9929 1.53168 15 1.13938C15.0003 0.985338 14.9648 0.8332 14.8962 0.694242C14.8276 0.555284 14.7277 0.433064 14.6037 0.336606C14.344 0.115394 14.0083 -0.00380707 13.6625 0.00241388H1.34455C1.16169 -0.00869105 0.978506 0.0186119 0.807519 0.0824161C0.636532 0.14622 0.481769 0.245032 0.353801 0.372124C0.119552 0.624818 -0.0050207 0.955394 0.0060506 1.29493C0.0360796 1.66095 0.19937 2.00471 0.466753 2.26481C0.744725 2.58726 1.0754 2.86331 1.44561 3.08197Z" fill="#4C4C4C"/>
<path d="M14.1638 3.84156C12.3342 4.89273 10.9452 5.70959 9.99669 6.29215C9.67833 6.49061 9.42041 6.64554 9.22292 6.75693C8.96919 6.89218 8.70403 7.0062 8.43031 7.0978C8.13627 7.20718 7.82481 7.26599 7.50991 7.27161H7.49306C7.17816 7.26599 6.86669 7.20718 6.57265 7.0978C6.29894 7.0062 6.03378 6.89217 5.78005 6.75693C5.5819 6.64618 5.32398 6.49125 5.00628 6.29215C4.2533 5.8229 2.86625 5.00604 0.845109 3.84156C0.538293 3.66982 0.254458 3.46211 4.06409e-08 3.22314V8.86277C-4.38932e-05 9.01678 0.0355329 9.16884 0.104116 9.30776C0.172698 9.44669 0.272544 9.56895 0.396303 9.66555C0.657109 9.88766 0.99437 10.0069 1.34148 9.99971H13.6585C14.0056 10.0069 14.3429 9.88766 14.6037 9.66555C14.7275 9.56895 14.8273 9.44669 14.8959 9.30776C14.9645 9.16884 15 9.01678 15 8.86277V3.22314C14.7473 3.46044 14.4667 3.66802 14.1638 3.84156Z" fill="#4C4C4C"/>
</svg>
