<svg width="15" height="13" viewBox="0 0 15 13" fill="none" xmlns="http://www.w3.org/2000/svg">
<path d="M13.2323 12.997C13.6713 13.0232 14.103 12.8769 14.4339 12.5897C14.7648 12.3024 14.9682 11.8975 15 11.4626V9.41612C14.9951 9.30286 14.9531 9.19428 14.8805 9.1067C14.8079 9.01912 14.7086 8.9573 14.5975 8.93056L11.0711 7.90829C10.9858 7.88342 10.8965 7.87583 10.8082 7.88597C10.72 7.8961 10.6347 7.92374 10.5575 7.96726L9.05849 8.8352C7.31822 8.04539 5.84831 6.7691 4.82914 5.16292L5.82849 3.86054C5.87752 3.7984 5.90957 3.72477 5.92155 3.64678C5.93354 3.56878 5.92505 3.48905 5.8969 3.41526L4.7181 0.353363C4.67115 0.246084 4.5927 0.155317 4.49296 0.0928978C4.39321 0.0304784 4.27682 -0.000684918 4.15895 0.00344636H1.76767C1.32937 -0.0246689 0.897626 0.120098 0.566517 0.406218C0.235408 0.692337 0.031783 1.0966 0 1.53093C0 7.4286 6.44414 12.997 13.2373 12.997H13.2323Z" fill="#4C4C4C"/>
</svg>
