<svg width="409" height="545" viewBox="0 0 409 545" fill="none" xmlns="http://www.w3.org/2000/svg">
<path d="M0 0H401.396C403.455 0.0444903 405.412 0.925185 406.838 2.44848C408.263 3.97177 409.041 6.01297 408.998 8.12336V536.877C409.041 538.987 408.263 541.028 406.838 542.552C405.412 544.075 403.455 544.956 401.396 545H0V0Z" fill="#004269"/>
<g clip-path="url(#clip0_9813_122691)">
<rect width="310" height="545" fill="#004269"/>
<path d="M227.634 364.752H227.516C224.611 364.701 221.677 362.645 218.281 358.278C207.403 344.298 193.628 338.548 173.511 333.342C155.085 328.572 134.198 323.169 118.994 308.125C108.839 298.078 96.2861 298.293 82.1216 299.532C75.34 300.129 71.2203 299.231 68.7645 296.631C66.401 294.131 65.6445 290.058 66.3814 283.817C68.3093 267.463 62.8925 254.359 53.5286 238.506C42.2565 219.43 31.1747 198.822 30.2642 175.125C29.8021 163.058 21.6911 155.862 13.848 148.897C12.5568 147.75 11.2206 146.565 9.95294 145.385C6.33553 142.016 2.9997 138.364 3.09781 134.478C3.17532 131.496 5.19644 128.449 9.45551 124.889C21.2663 115.016 28.3 102.359 32.2608 83.8464C39.9783 47.7694 50.7511 31.9754 59.2731 22.2433C67.8589 12.4379 67.1918 0.411267 66.5452 -11.2191C66.4814 -12.3749 66.4167 -13.5267 66.3627 -14.6755C66.0272 -21.6806 66.9406 -25.6768 69.413 -28.0386C71.7373 -30.2569 75.4421 -30.9752 81.0698 -30.295C97.9932 -28.2543 111.485 -34.2731 126.531 -43.94C142.59 -54.255 161.901 -64.9593 183.383 -66.1382C199.336 -67.0141 209.359 -77.9592 217.501 -88.1498C221.38 -93.0038 224.684 -95.2261 227.883 -95.2422C231.091 -95.2271 234.273 -92.9867 238.204 -87.9772C248.64 -74.6713 261.892 -67.4887 281.177 -64.6934C297.498 -62.3256 315.019 -54.7697 329.247 -43.9651C344.089 -32.6939 358.111 -28.463 374.723 -30.2418C381.002 -30.915 384.82 -30.1535 387.108 -27.7697C389.275 -25.5132 390.001 -21.6916 389.325 -16.0892C387.206 1.50086 393.095 15.6947 402.589 31.5951C413.097 49.1931 424.364 69.9496 425.041 93.6287C425.4 106.211 433.951 113.695 442.221 120.928C443.515 122.061 444.855 123.235 446.121 124.391C450.517 128.413 452.463 131.597 452.429 134.71C452.394 137.823 450.438 140.85 445.885 144.836C432.433 156.609 425.749 168.915 423.534 185.995C420.983 205.666 410.323 225.189 401.323 239.998C400.824 240.819 400.326 241.634 399.83 242.444C392.843 253.858 386.809 263.715 389.127 275.419L389.132 275.471C389.156 287.739 389.168 293.897 386.189 296.842C383.449 299.551 378.199 299.482 368.376 299.114C354.275 298.587 343.357 303.787 331.309 311.756C310.313 325.642 292.329 332.973 274.698 334.832C258.485 336.538 247.989 345.48 237.219 358.38C233.542 362.784 230.579 364.758 227.635 364.758L227.634 364.752ZM93.3191 298.416C103.059 298.416 111.828 300.322 119.344 307.757C134.454 322.706 155.268 328.09 173.634 332.84C181.492 334.872 190.615 337.507 198.692 341.619C206.463 345.471 213.292 351.054 218.678 357.957C221.971 362.191 224.783 364.186 227.523 364.234H227.621C230.369 364.234 233.299 362.263 236.825 358.04C247.675 345.045 258.258 336.037 274.641 334.312C292.186 332.465 310.104 325.16 331.025 311.321C343.155 303.294 354.146 298.058 368.386 298.595C378.064 298.956 383.237 299.028 385.828 296.468C388.648 293.682 388.637 287.604 388.613 275.498C386.268 263.602 392.642 253.191 399.388 242.169C399.883 241.361 400.381 240.546 400.88 239.724C409.854 224.959 420.479 205.5 423.018 185.928C425.252 168.712 431.988 156.305 445.544 144.44C449.916 140.615 451.878 137.613 451.91 134.708C451.941 131.757 450.045 128.696 445.772 124.782C444.509 123.627 443.173 122.458 441.88 121.326C433.526 114.017 424.887 106.458 424.522 93.6467C423.848 70.0951 412.618 49.4099 402.145 31.87C392.605 15.8743 386.679 1.58714 388.815 -16.1524C389.471 -21.5883 388.792 -25.2684 386.74 -27.4045C384.572 -29.6629 380.884 -30.3763 374.771 -29.7231C358.031 -27.9272 343.892 -32.1903 328.94 -43.5457C314.778 -54.3012 297.341 -61.82 281.103 -64.1757C261.682 -66.993 248.333 -74.2319 237.807 -87.6532C233.98 -92.5292 230.921 -94.7084 227.881 -94.7235H227.853C224.82 -94.7235 221.657 -92.5323 217.899 -87.8277C209.687 -77.5498 199.574 -66.5124 183.414 -65.6255C162.048 -64.4526 142.808 -53.7865 126.803 -43.5056C111.664 -33.7755 98.0835 -27.7195 81.0129 -29.7803C75.5451 -30.4435 71.9708 -29.7673 69.7653 -27.6603C67.4106 -25.4149 66.5472 -21.5401 66.8749 -14.7036C66.9288 -13.5578 66.9926 -12.407 67.0574 -11.2522C67.7088 0.48651 68.3829 12.6205 59.6558 22.5874C43.5113 41.0242 36.8034 65.0695 32.7612 83.9568C28.7748 102.592 21.6862 115.34 9.78026 125.293C5.64383 128.751 3.68355 131.674 3.60996 134.493C3.53245 137.465 5.46919 140.513 10.2924 145C11.5541 146.176 12.8885 147.359 14.1786 148.505C22.1042 155.539 30.2985 162.813 30.7704 175.104C31.675 198.677 42.7235 219.218 53.9613 238.237C63.3801 254.189 68.8322 267.382 66.8857 283.878C66.1694 289.954 66.8857 293.892 69.1295 296.27C71.4391 298.715 75.5529 299.581 82.0804 299.013C85.9529 298.673 89.7057 298.411 93.325 298.411" fill="white"/>
<path d="M227.705 353.542H227.607C225.448 353.495 223.336 351.99 220.758 348.662C208.753 333.165 194.535 326.076 177.278 326.975L177.06 326.986C176.233 327.139 175.38 327.015 174.627 326.634C167.592 321.354 159.23 318.479 151.143 315.698C141.277 312.309 131.075 308.803 123.131 300.902C112.927 290.757 100.08 290.25 87.717 291.216C81.9156 291.669 78.4326 290.915 76.4174 288.759C74.5248 286.739 73.8822 283.373 74.4551 278.468C76.3065 262.593 70.5306 249.927 60.6213 234.637C48.4465 215.862 41.3176 198.037 39.429 181.662C37.5756 165.551 31.5181 153.592 19.7888 142.884C18.1269 141.312 16.552 139.645 15.0715 137.894C14.4338 137.165 13.8157 136.459 13.2074 135.8L13.127 135.711L13.1387 135.593C13.5312 132.014 15.6308 130.205 17.4831 128.607C17.8354 128.306 18.1827 128.005 18.5163 127.696C29.7688 117.284 36.1285 105.133 39.7851 87.069C44.9174 61.7174 53.3188 42.3646 65.471 27.9049C75.293 16.2183 75.242 2.29843 74.4218 -9.83057C74.097 -14.6465 74.7985 -17.7487 76.6332 -19.5928C78.4503 -21.4198 81.428 -22.084 86.001 -21.6766C104.4 -20.0463 118.323 -24.8411 128.567 -36.325C129.391 -37.4053 130.512 -38.2089 131.786 -38.6326C139.848 -40.4867 147.393 -44.2872 154.689 -47.9633C164.666 -52.9889 174.983 -58.1871 186.838 -58.5472C202.036 -59.0098 211.785 -69.0178 221.243 -80.1264C223.784 -83.1113 225.831 -84.4467 227.865 -84.4467H227.934C229.946 -84.4176 231.906 -83.0832 234.287 -80.1194C247.151 -64.1146 260.889 -56.9751 277.531 -57.6523C279.288 -57.7942 281.046 -57.3862 282.57 -56.4824C289.574 -51.498 297.738 -48.5974 305.634 -45.7932C315.928 -42.1351 326.571 -38.3536 334.945 -29.9138C344.023 -20.7656 356.494 -20.7997 369.547 -21.6867C374.308 -22.0087 377.37 -21.2673 379.174 -19.351C380.94 -17.4758 381.545 -14.4418 381.074 -9.80348C379.364 7.08722 386.193 20.0951 394.614 34.1414C404.649 50.8907 415.131 71.0421 416.787 93.5142C417.879 108.293 426.922 118.139 435.625 125.821C439.669 129.391 441.453 132.196 441.414 134.916C441.372 137.558 439.602 140.233 435.843 143.344C425.209 152.141 419.236 163.665 415.873 181.879C412.288 200.761 405.124 218.743 394.785 234.811C384.899 250.042 379.165 262.703 381.123 278.748C381.726 283.664 381.093 287.024 379.192 289.005C377.256 291.023 374.019 291.714 369.003 291.163C352.955 289.419 340.335 296.847 326.972 304.708L323.86 306.536C307.406 316.192 290.389 326.176 270.597 327.314C254.28 328.252 243.321 338.76 234.752 348.915C232.093 352.064 229.852 353.536 227.707 353.537L227.705 353.542ZM180.176 326.376C196.296 326.376 209.725 333.581 221.153 348.337C223.629 351.532 225.621 352.977 227.614 353.02C229.64 353.048 231.771 351.652 234.364 348.578C240.091 341.792 244.927 337.241 250.044 333.819C256.142 329.632 263.232 327.206 270.565 326.796C290.238 325.665 307.2 315.711 323.605 306.084L326.716 304.257C340.152 296.351 352.845 288.885 369.054 290.644C373.902 291.171 377.007 290.534 378.826 288.638C380.61 286.778 381.196 283.563 380.615 278.805C378.637 262.603 384.406 249.847 394.357 234.516C404.658 218.506 411.797 200.59 415.37 181.776C418.758 163.43 424.784 151.814 435.52 142.933C439.15 139.923 440.863 137.375 440.902 134.9C440.941 132.348 439.212 129.665 435.292 126.208C426.511 118.457 417.386 108.515 416.28 93.5454C414.629 71.1836 404.18 51.1054 394.176 34.4053C385.709 20.2717 378.841 7.18555 380.568 -9.8677C381.021 -14.3425 380.461 -17.243 378.802 -18.9978C377.111 -20.7937 374.179 -21.483 369.58 -21.175C356.404 -20.285 343.813 -20.255 334.585 -29.5556C326.294 -37.9042 315.705 -41.6706 305.466 -45.3046C297.538 -48.1209 289.34 -51.0335 282.279 -56.059C280.848 -56.9037 279.197 -57.2791 277.551 -57.1346C260.745 -56.4563 246.867 -63.6511 233.891 -79.7923C231.644 -82.5875 229.748 -83.9059 227.922 -83.9289H227.866C226.014 -83.9289 224.029 -82.6116 221.624 -79.7873C212.089 -68.5884 202.254 -58.4971 186.85 -58.0295C175.105 -57.6724 164.837 -52.5003 154.909 -47.4948C147.587 -43.8066 140.015 -39.992 131.894 -38.1239C130.726 -37.7172 129.699 -36.9714 128.939 -35.9778C118.582 -24.3605 104.524 -19.5145 85.9539 -21.1569C81.5389 -21.5472 78.6936 -20.9312 76.9874 -19.2195C75.2675 -17.4918 74.6121 -14.519 74.927 -9.86469C75.7532 2.36766 75.8022 16.41 65.8536 28.247C53.7593 42.6375 45.3942 61.913 40.2806 87.1763C36.6004 105.358 30.1926 117.592 18.8548 128.085C18.5173 128.396 18.168 128.701 17.8089 129.008C15.9644 130.599 14.0571 132.244 13.6558 135.535C14.2395 136.172 14.8331 136.851 15.4454 137.549C16.913 139.287 18.4745 140.939 20.1224 142.499C31.9508 153.297 38.0603 165.357 39.9293 181.604C41.8033 197.902 48.9047 215.65 61.0363 234.357C71.0163 249.747 76.8245 262.505 74.9535 278.539C74.4002 283.279 74.9967 286.507 76.7775 288.408C78.6779 290.436 82.0363 291.144 87.6679 290.706C100.149 289.73 113.127 290.247 123.479 300.538C131.342 308.356 141.488 311.842 151.299 315.213C159.423 318.005 167.824 320.892 174.922 326.22C175.585 326.512 176.316 326.6 177.026 326.473L177.246 326.462C178.231 326.409 179.207 326.383 180.173 326.383" fill="white"/>
<path d="M141.603 54.6461C141.392 54.6461 141.176 54.6461 140.955 54.6381C122.205 54.1716 102.04 54.1666 77.4972 54.6221C73.8347 54.6943 71.6203 53.9679 70.9423 52.474C70.2644 50.9801 71.1287 48.7848 73.5305 45.9806C91.0662 25.506 92.8587 11.7848 92.2985 1.06243C92.2417 0.53438 92.2934 1.05942e-05 92.4504 -0.5064C92.6073 -1.01281 92.866 -1.48008 93.2099 -1.87826C93.6512 -2.30443 94.173 -2.6339 94.7432 -2.84645C95.3135 -3.05901 95.9202 -3.15017 96.5261 -3.11434C116.266 -3.23474 130.931 -13.7494 142.673 -24.0273L142.968 -24.2932C144.33 -25.5162 146.196 -27.1877 149.811 -25.3778L149.953 -25.3055V-25.143C149.953 -18.7934 149.943 -12.4244 149.923 -6.03597C149.882 10.5277 149.84 27.6541 150.08 44.5478C150.133 48.2209 149.823 51.0152 148.144 52.7148C146.848 54.0261 144.759 54.6451 141.598 54.6451L141.603 54.6461ZM111.029 53.7622C121.625 53.7622 131.474 53.8796 140.962 54.1164C144.342 54.2077 146.51 53.6378 147.786 52.3455C149.337 50.7744 149.622 48.0955 149.571 44.5559C149.331 27.6581 149.374 10.5287 149.414 -6.03597C149.429 -12.3668 149.439 -18.681 149.444 -24.9784C146.224 -26.5255 144.607 -25.0718 143.303 -23.9019L143 -23.631C131.189 -13.2969 116.43 -2.71502 96.5252 -2.59262C95.9883 -2.62769 95.45 -2.55069 94.9432 -2.36631C94.4363 -2.18192 93.9715 -1.894 93.5769 -1.52008C93.2819 -1.17218 93.0609 -0.765337 92.928 -0.325406C92.7951 0.114525 92.7531 0.577926 92.8047 1.03534C93.8114 20.329 83.8186 34.7555 73.9112 46.3237C71.687 48.9213 70.8187 50.972 71.4015 52.2553C71.9843 53.5385 74.0338 54.1706 77.4845 54.1013C89.6151 53.8756 100.68 53.7632 111.031 53.7632" fill="white"/>
<path d="M149.947 295.454H149.688C147.41 295.415 145.164 294.902 143.087 293.945C141.01 292.988 139.145 291.608 137.607 289.89C127.474 279.431 114.949 273.809 99.3172 272.702C98.9248 272.674 98.5196 272.656 98.1212 272.639C96.2267 272.557 94.2684 272.471 93.1381 271.197C92.7403 270.668 92.4508 270.062 92.2866 269.415C92.1224 268.769 92.087 268.095 92.1825 267.435C93.1901 248.563 83.4505 234.789 73.7962 223.806C72.1106 221.889 70.7027 219.506 71.8143 215.101L71.8634 214.901H72.0596C78.6364 214.901 85.2384 214.903 91.8656 214.907C109.035 214.914 126.794 214.923 144.334 214.876H144.371C146.538 214.876 148.037 215.365 148.955 216.371C150.296 217.839 150.133 220.105 149.984 222.296C149.934 223.012 149.886 223.689 149.886 224.336C149.97 241.756 149.96 258.85 149.948 276.955C149.944 282.987 149.942 289.065 149.941 295.189L149.947 295.454ZM72.2607 215.422C71.8255 216.812 71.7741 218.297 72.1123 219.714C72.4504 221.131 73.1649 222.426 74.1769 223.454C83.9037 234.517 93.7101 248.397 92.6927 267.459C92.6037 268.051 92.6308 268.655 92.7723 269.236C92.9138 269.817 93.1669 270.363 93.5168 270.843C94.5038 271.956 96.2718 272.033 98.1438 272.115C98.547 272.133 98.9532 272.149 99.3535 272.178C115.113 273.294 127.745 278.966 137.97 289.52C139.434 291.155 141.203 292.475 143.172 293.403C145.141 294.33 147.272 294.847 149.439 294.922C149.439 288.885 149.441 282.895 149.446 276.954C149.457 258.855 149.467 241.758 149.384 224.34C149.384 223.672 149.431 222.954 149.482 222.26C149.626 220.18 149.776 218.029 148.589 216.728C147.772 215.833 146.395 215.398 144.378 215.398H144.34C126.804 215.444 109.044 215.436 91.8705 215.428C85.3133 215.428 78.7774 215.426 72.2627 215.422" fill="white"/>
<path d="M227.826 19.4361H227.814C226.048 19.4311 224.221 18.2923 221.904 15.7449C210.289 2.9778 198.174 -9.71205 186.459 -21.9795C181.901 -26.7539 177.348 -31.5337 172.802 -36.3188L172.625 -36.5044L172.807 -36.687C175.436 -39.3227 179.857 -39.8886 183.836 -40.0983C200.76 -40.9812 213.743 -46.4703 223.531 -56.8826C224.932 -58.3735 226.238 -59.7611 227.834 -59.7611H227.877C228.506 -59.6908 229.115 -59.4877 229.663 -59.1645C230.212 -58.8414 230.689 -58.4053 231.064 -57.8839C243.805 -43.4624 261.242 -40.4524 276.619 -39.412C278.32 -39.1652 279.95 -38.5543 281.403 -37.6191C281.925 -37.3291 282.375 -37.0803 282.761 -36.9168L283.105 -36.7703L282.846 -36.4974C278.239 -31.6146 273.669 -26.7817 269.135 -21.9986C256.969 -9.15622 245.49 2.97679 233.955 15.5021C231.783 17.8609 229.907 19.4341 227.825 19.4341L227.826 19.4361ZM173.348 -36.4964C177.829 -31.7708 182.321 -27.0553 186.825 -22.3497C198.542 -10.0753 210.659 2.6166 222.279 15.3867C224.492 17.8197 226.203 18.9073 227.816 18.9123H227.827C229.453 18.9123 231.122 17.8197 233.586 15.1439C245.119 2.61661 256.607 -9.51641 268.771 -22.3618C273.222 -27.0626 277.708 -31.8063 282.229 -36.5927C281.908 -36.7512 281.554 -36.9459 281.162 -37.1636C279.771 -38.0599 278.213 -38.6493 276.587 -38.8943C266.408 -39.5826 258.526 -41.0233 251.786 -43.4252C243.685 -46.1962 236.42 -51.0565 230.692 -57.5368C230.361 -58.0032 229.941 -58.3953 229.456 -58.6887C228.971 -58.9821 228.433 -59.1706 227.874 -59.2424H227.841C226.46 -59.2424 225.228 -57.9381 223.924 -56.5455C214.022 -46.0108 200.926 -40.4695 183.867 -39.5796C180.077 -39.3789 175.881 -38.8582 173.351 -36.4954" fill="white"/>
<path d="M227.8 330.799L227.598 330.545C212.206 311.166 190.325 308.723 171.023 307.953L170.453 307.93L170.846 307.511C175.899 302.193 180.839 297.015 185.69 291.935C198.191 278.841 209.998 266.476 221.607 253.828C223.99 251.231 225.865 250.071 227.678 250.071H227.697C229.529 250.079 231.352 251.236 233.791 253.941C245.152 266.534 256.538 278.78 268.594 291.745C273.173 296.669 277.807 301.658 282.496 306.714L282.836 307.081L282.346 307.15C281.181 307.318 280.01 307.483 278.831 307.645C260.438 310.211 241.418 312.863 227.991 330.538L227.8 330.799ZM171.613 307.456C190.802 308.252 212.428 310.837 227.791 329.962C241.331 312.354 260.364 309.695 278.768 307.131C279.78 306.99 280.787 306.848 281.79 306.705C277.216 301.766 272.696 296.899 268.23 292.103C256.173 279.137 244.781 266.89 233.422 254.295C231.088 251.706 229.375 250.599 227.7 250.591H227.683C226.022 250.591 224.262 251.701 221.983 254.184C210.371 266.835 198.562 279.205 186.059 292.299C181.337 297.244 176.522 302.296 171.613 307.455" fill="white"/>
<path d="M61.1837 191.882L61.009 191.635C57.1709 186.193 56.8118 180.731 56.4635 175.448C56.4174 174.75 56.3722 174.057 56.3192 173.367C55.346 160.807 50.5208 149.896 41.5661 140.012C41.2384 139.648 40.8793 139.294 40.4927 138.919C39.2006 137.658 37.8653 136.352 37.877 134.686C37.9434 134.011 38.1453 133.358 38.4702 132.766C38.795 132.175 39.2357 131.659 39.7647 131.25C53.3876 118.345 56.4694 101.042 57.6859 85.8189C57.9096 83.0157 58.1902 79.5252 59.9916 78.7326L60.1466 78.6633L60.2692 78.7827C65.1288 83.5324 69.9824 88.3483 74.6682 93.0056C86.4064 104.662 97.4922 115.672 109.319 126.343C112.753 129.447 114.382 132.067 114.429 134.592C114.487 137.622 112.289 140.39 108.72 143.873C97.4235 154.904 86.5909 165.967 75.1205 177.685C70.5858 182.317 66.0105 186.979 61.3946 191.671L61.1837 191.882ZM60.0456 79.2854C58.6543 80.0991 58.3992 83.2856 58.1932 85.8611C56.9687 101.185 53.8625 118.606 40.1111 131.632C39.6351 131.995 39.2366 132.453 38.94 132.978C38.6434 133.504 38.455 134.086 38.3862 134.689C38.3764 136.131 39.6313 137.357 40.844 138.543C41.2158 138.906 41.6004 139.282 41.9408 139.657C50.9741 149.631 55.8444 160.645 56.8265 173.326C56.8804 174.018 56.9246 174.714 56.9717 175.412C57.3102 180.54 57.6585 185.841 61.2494 191.081C65.8012 186.466 70.3052 181.876 74.7614 177.313C86.2328 165.598 97.0673 154.532 108.368 143.501C111.836 140.115 113.975 137.445 113.921 134.606C113.875 132.237 112.305 129.737 108.98 126.737C97.1458 116.058 86.0552 105.043 74.3131 93.3829C69.6645 88.7677 64.8609 83.9959 60.0446 79.2884" fill="white"/>
<path d="M290.394 293.427C288.13 293.427 286.187 291.457 284.94 290.193C273.039 278.128 260.987 265.812 249.326 253.903L239.316 243.673C238.291 242.626 236.937 241.04 237.021 239.381C237.073 238.862 237.235 238.36 237.494 237.91C237.753 237.459 238.104 237.072 238.522 236.773C241.409 234.241 244.094 231.478 246.552 228.51C253.077 221.046 259.829 213.327 273.035 214.399C274.266 214.499 275.429 214.591 276.523 214.673C294.848 216.092 295.022 216.303 295.027 237.296V253.831L295.071 254.092C295.071 256.939 295.072 259.785 295.075 262.632C295.081 269.996 295.089 277.61 295.05 285.099V285.765C295.055 288.633 295.062 291.885 291.841 293.146C291.379 293.329 290.889 293.424 290.394 293.425V293.427ZM270.546 214.82C259.206 214.82 253.232 221.654 246.932 228.867C244.456 231.855 241.751 234.637 238.842 237.185C238.479 237.438 238.173 237.768 237.946 238.153C237.72 238.538 237.577 238.969 237.53 239.415C237.456 240.867 238.72 242.335 239.676 243.312L249.69 253.546C261.345 265.455 273.398 277.77 285.298 289.834C287.218 291.779 289.286 293.603 291.658 292.672C294.551 291.536 294.545 288.61 294.54 285.779V285.107C294.578 277.62 294.571 270.006 294.565 262.643C294.565 259.883 294.564 257.123 294.56 254.364H294.517V237.307C294.511 216.598 294.511 216.598 276.483 215.204C275.387 215.119 274.224 215.028 272.993 214.929C272.15 214.862 271.333 214.828 270.541 214.828" fill="white"/>
<path d="M283.992 54.8718C274.072 54.8718 259.187 53.3478 256.826 51.4666C245.331 42.3074 239.318 37.2808 238.996 31.9482C238.677 26.6578 243.933 21.0232 254.034 10.7002C257.48 7.1772 260.917 3.64689 264.346 0.109224C270.593 -6.32199 277.054 -12.9709 283.484 -19.4322C283.779 -19.7332 284.073 -20.0442 284.381 -20.3663C286.486 -22.5967 288.872 -25.124 292.261 -23.5327C295.446 -22.0388 295.295 -18.768 295.161 -15.8835C295.131 -15.2424 295.104 -14.6344 295.108 -14.0455C295.156 -6.932 295.146 0.301856 295.138 7.29191C295.138 10.0791 295.136 12.866 295.131 15.6525V15.9133H295.058V24.0602C295.058 31.1563 295.058 38.2533 295.058 45.3514C295.058 45.7738 295.067 46.2022 295.078 46.6316C295.144 49.2533 295.214 51.9642 292.743 53.8695C291.831 54.5718 288.402 54.8728 283.995 54.8728L283.992 54.8718ZM290.177 -23.5077C288.056 -23.5077 286.382 -21.7328 284.75 -20.0041C284.443 -19.678 284.142 -19.359 283.844 -19.06C277.416 -12.5997 270.957 -5.95177 264.712 0.478438C261.278 4.01276 257.84 7.54307 254.399 11.0694C244.405 21.2841 239.203 26.8514 239.508 31.9181C239.817 37.027 245.767 41.9944 257.144 51.0582C260.321 53.5896 289.677 55.5822 292.437 53.4531C294.694 51.7084 294.636 49.2493 294.57 46.6447C294.56 46.2113 294.548 45.7778 294.549 45.3504C294.557 38.2544 294.557 31.1576 294.549 24.0602V15.3916H294.623C294.623 12.6907 294.625 9.99047 294.63 7.29091C294.638 0.297843 294.648 -6.932 294.599 -14.0425C294.599 -14.6444 294.625 -15.2886 294.653 -15.9086C294.786 -18.763 294.923 -21.7137 292.05 -23.0612C291.465 -23.3487 290.825 -23.5018 290.176 -23.5097" fill="white"/>
<path d="M184.783 55.1187C184.016 55.1187 183.226 55.0852 182.414 55.0183C181.219 54.9234 180.088 54.8361 179.023 54.7565C160.561 53.3518 160.387 53.1431 160.402 32.0064C160.406 26.4026 160.406 20.7992 160.402 15.196C160.402 12.469 160.397 9.74203 160.385 7.01503C160.365 -0.475668 160.344 -8.22221 160.456 -15.8403V-16.1584C160.492 -18.9767 160.537 -22.4792 163.816 -23.8648C166.54 -25.0126 168.589 -22.9157 170.234 -21.2301L170.61 -20.8469C183.587 -7.7326 197.825 6.7622 215.417 24.7686L215.809 25.1699C217.183 26.5595 218.744 28.1327 218.654 29.9045C218.591 30.4524 218.413 30.98 218.132 31.4515C217.852 31.923 217.476 32.3274 217.03 32.6375C214.14 35.1636 211.447 37.917 208.978 40.8727C202.805 47.8808 196.433 55.1137 184.774 55.1137L184.783 55.1187ZM160.9 15.196C160.905 20.7985 160.905 26.402 160.9 32.0064C160.884 52.8592 160.884 52.8592 179.05 54.2368C180.118 54.3177 181.249 54.4053 182.443 54.4996C195.37 55.519 202.1 47.8999 208.598 40.5245C211.085 37.5481 213.797 34.7758 216.708 32.2332C217.099 31.9699 217.43 31.6232 217.678 31.2169C217.926 30.8107 218.085 30.3544 218.144 29.8794C218.22 28.3404 216.747 26.8535 215.447 25.5411L215.048 25.1398C197.456 7.13443 183.22 -7.35937 170.242 -20.4736L169.864 -20.8589C168.244 -22.5164 166.409 -24.3976 164 -23.3802C161.033 -22.1281 160.992 -18.9506 160.958 -16.1473V-15.8273C160.848 -8.21419 160.868 -0.469651 160.888 7.01905C160.896 9.74604 160.901 12.4734 160.904 15.201" fill="white"/>
<path d="M165.141 293.403C164.551 293.4 163.969 293.271 163.432 293.022C160.363 291.636 160.379 287.579 160.39 284.32C160.39 284.012 160.39 283.71 160.39 283.417C160.361 275.526 160.37 267.503 160.379 259.746L160.385 253.595C160.385 250.686 160.416 247.769 160.444 244.854C160.509 237.945 160.578 230.8 160.288 223.791C160.149 220.408 160.713 218.172 162.061 216.737C163.443 215.271 165.653 214.614 169.212 214.614H169.383C170.45 214.62 171.512 214.619 172.566 214.62C186.052 214.627 198.755 214.62 209.364 227.973C217.222 237.863 219.246 242.436 209.231 251.286C200.331 259.151 191.969 267.97 183.881 276.498C180.095 280.491 176.179 284.625 172.258 288.6C172.056 288.8 171.852 289.016 171.643 289.232C169.805 291.128 167.602 293.405 165.137 293.405L165.141 293.403ZM169.213 215.132C165.805 215.132 163.71 215.739 162.432 217.096C161.186 218.416 160.666 220.536 160.801 223.766C161.096 230.789 161.022 237.941 160.957 244.857C160.929 247.767 160.901 250.682 160.898 253.593L160.893 259.743C160.884 267.501 160.874 275.523 160.903 283.413C160.903 283.709 160.903 284.015 160.903 284.322C160.891 287.591 160.875 291.298 163.639 292.549C166.484 293.83 169.035 291.192 171.286 288.866C171.496 288.649 171.702 288.436 171.904 288.231C175.822 284.253 179.736 280.127 183.52 276.136C191.615 267.599 199.985 258.773 208.902 250.893C218.575 242.345 216.605 237.907 208.975 228.301C198.648 215.301 186.228 215.14 173.065 215.14C172.732 215.14 172.399 215.14 172.066 215.14C171.174 215.14 170.279 215.138 169.38 215.134H169.21" fill="white"/>
<path d="M136.525 203.982C133.79 203.982 130.914 203.726 128.074 203.472C125.205 203.217 122.245 202.944 119.511 202.97C106.665 203.033 93.464 202.996 80.2787 202.862C79.9068 202.862 79.5222 202.869 79.1298 202.881C76.9321 202.938 74.442 203.008 73.2028 200.63C71.4858 197.332 73.8533 194.931 75.7537 193.004L76.1766 192.574C81.4678 187.135 86.8767 181.638 92.1061 176.32C101.284 166.99 110.773 157.339 119.949 147.69C121.794 145.75 123.391 144.845 124.971 144.845H124.984C127.057 144.852 128.897 146.506 130.576 148.293C135.118 153.127 139.86 157.925 144.446 162.561C146.378 164.514 148.308 166.471 150.235 168.43L150.304 168.499L150.626 173.74L150.616 173.782C149.666 177.361 150.148 181.517 150.616 185.536C151.373 192.057 152.087 198.222 146.914 201.621C144.114 203.461 140.469 203.994 136.528 203.994L136.525 203.982ZM119.714 202.458C122.407 202.458 125.306 202.716 128.122 202.966C134.964 203.574 142.041 204.204 146.639 201.183C151.545 197.961 150.848 191.953 150.11 185.598C149.639 181.545 149.153 177.355 150.11 173.689L149.805 168.73C147.908 166.791 146.003 164.858 144.089 162.932C139.5 158.293 134.756 153.494 130.21 148.656C128.609 146.951 126.867 145.373 124.985 145.366H124.974C123.539 145.366 122.059 146.221 120.314 148.054C111.137 157.705 101.646 167.356 92.4672 176.691C87.2378 182.008 81.8289 187.508 76.5396 192.944L76.1138 193.377C74.1516 195.371 72.1138 197.434 73.6531 200.39C74.7432 202.485 76.9664 202.424 79.1161 202.365C79.5154 202.354 79.9088 202.342 80.2846 202.346C93.467 202.48 106.662 202.516 119.509 202.455H119.711" fill="white"/>
<path d="M125.045 122.742C121.219 122.742 117.413 118.923 109.911 111.258L102.095 103.271C94.2806 95.2872 86.4634 87.3059 78.6431 79.3275C78.1379 78.8118 77.5796 78.3022 76.9899 77.7644C74.5597 75.5461 71.8057 73.0328 72.8604 69.7088C74.1859 65.5411 77.8229 65.9966 81.0302 66.3979C82.0602 66.5595 83.1013 66.6357 84.1433 66.6256C90.7855 66.3337 97.5475 66.3949 104.087 66.4521C106.702 66.4761 109.316 66.4992 111.931 66.5012C113.262 66.5123 114.599 66.4531 115.905 66.4009C118.797 66.2045 121.7 66.2756 124.579 66.6136C127.551 66.8899 130.546 66.7573 133.483 66.2193C139.329 65.4367 145.373 64.6291 149.447 70.0319C155.236 77.7192 148.466 103.064 140.11 111.469C132.653 118.972 128.841 122.738 125.045 122.739V122.742ZM78.0604 66.6648C75.9804 66.6648 74.1702 67.2748 73.351 69.8673C72.3983 72.8672 74.907 75.1578 77.3343 77.3731C77.9299 77.9169 78.492 78.4296 79.0091 78.9563C86.8306 86.9326 94.6469 94.9149 102.458 102.903L110.274 110.889C125.008 125.944 125.008 125.944 139.757 111.1C143.576 107.257 147.42 99.167 149.551 90.4914C151.808 81.294 151.621 73.7652 149.047 70.3509C145.154 65.1839 139.518 65.9364 133.554 66.739C130.57 67.2837 127.529 67.416 124.511 67.1323C121.661 66.7994 118.788 66.7299 115.927 66.9246C114.617 66.9728 113.278 67.025 111.934 67.025C109.319 67.025 106.702 66.9999 104.085 66.9758C97.5494 66.9176 90.7944 66.8574 84.1679 67.1494C83.0977 67.1603 82.0284 67.0831 80.9704 66.9186C80.006 66.7772 79.0343 66.6948 78.0604 66.6718" fill="white"/>
</g>
<defs>
<clipPath id="clip0_9813_122691">
<rect width="280" height="545" fill="white"/>
</clipPath>
</defs>
</svg>
