<svg width="382" height="56" viewBox="0 0 382 56" fill="none" xmlns="http://www.w3.org/2000/svg">
<path d="M0.749331 24.4271H8.67326V16.5339H15.8469V39.468H8.67326V31.5748H0.749331V24.4271ZM7.92393 15.7874V23.6806H0V32.3203H7.92393V40.2125H16.5962V15.7874H7.92393Z" fill="#B8B1A4"/>
<path d="M32.4428 40.2126H23.7695V15.7864H32.4428V23.6806H40.3637V32.3203H32.4428V40.2126ZM24.5189 39.466H31.6935V31.5728H39.6154V24.4261H31.6935V16.5329H24.5189V39.466Z" fill="#B8B1A4"/>
<path d="M24.519 48.1078H15.8458V40.2126H7.92285V31.5728H32.442V40.2126H24.519V48.1078ZM16.5951 47.3612H23.7697V39.468H31.6926V32.3213H8.67218V39.468H16.5951V47.3612Z" fill="#B8B1A4"/>
<path d="M32.4427 0.746521H55.4622V7.89321H47.5392V15.7874H40.3636V7.89321H32.4427V0.746521ZM31.6924 0V8.63973H39.6153V16.5329H48.2876V8.63973H56.2105V0H31.6924Z" fill="#B8B1A4"/>
<path d="M32.4427 48.1068H40.3636V40.2126H47.5382V48.1058H55.4612V55.2535H32.4427V48.1068ZM39.6153 39.4671V47.3603H31.6924V56H56.2105V47.3603H48.2876V39.4671H39.6153Z" fill="#B8B1A4"/>
<path d="M32.443 24.4272H7.92383V15.7865H15.8468V7.89326H24.519V15.7865H32.443V24.4272ZM8.67316 23.6807H31.6936V16.533H23.7697V8.63979H16.5961V16.533H8.67316V23.6807Z" fill="#B8B1A4"/>
<path d="M63.1362 40.2126H54.464V32.3194H46.54V23.6796H54.464V15.7864H63.1362V40.2126ZM55.2133 39.466H62.3869V16.5329H55.2133V24.4271H47.2894V31.5738H55.2133V39.466Z" fill="#B8B1A4"/>
<path d="M78.9838 40.2126H70.3105V15.7864H78.9838V23.6806H86.9057V32.3203H78.9838V40.2126ZM71.0599 39.466H78.2305V31.5728H86.1524V24.4261H78.2305V16.5329H71.0599V39.466Z" fill="#B8B1A4"/>
<path d="M71.0591 48.1078H62.3858V40.2126H54.4629V31.5728H78.982V40.2126H71.0591V48.1078ZM63.1352 47.3612H70.3098V39.468H78.2297V32.3213H55.2122V39.468H63.1352V47.3612Z" fill="#B8B1A4"/>
<path d="M78.9838 0.746521H102.003V7.89321H94.0813V15.7874H86.9067V7.89321H78.9838V0.746521ZM78.2305 0V8.63973H86.1534V16.5329H94.8257V8.63973H102.749V0H78.2305Z" fill="#B8B1A4"/>
<path d="M78.9828 48.1068H86.9057V40.2126H94.0803V48.1058H102.002V55.2535H78.9828V48.1068ZM86.1564 39.4671V47.3603H78.2305V56H102.749V47.3603H94.8257V39.4671H86.1564Z" fill="#B8B1A4"/>
<path d="M78.983 24.4272H54.4639V15.7865H62.3868V7.89326H71.0591V15.7865H78.983V24.4272ZM55.2132 23.6807H78.2297V16.533H70.3097V8.63979H63.1361V16.533H55.2132V23.6807Z" fill="#B8B1A4"/>
<path d="M109.678 40.2126H101.01V32.3194H93.0811V23.6796H101.01V15.7864H109.683L109.678 40.2126ZM101.754 39.466H108.929V16.5329H101.754V24.4271H93.8304V31.5738H101.754V39.466Z" fill="#B8B1A4"/>
<path d="M125.524 40.2126H116.851V15.7864H125.524V23.6806H133.446V32.3203H125.524V40.2126ZM117.6 39.466H124.775V31.5728H132.696V24.4261H124.775V16.5329H117.6V39.466Z" fill="#B8B1A4"/>
<path d="M117.6 48.1078H108.928V40.2126H101.004V31.5728H125.523V40.2126H117.6V48.1078ZM109.677 47.3612H116.851V39.468H124.774V32.3213H101.753V39.468H109.677V47.3612Z" fill="#B8B1A4"/>
<path d="M125.524 0.746521H148.544V7.89321H140.621V15.7874H133.447V7.89321H125.524V0.746521ZM124.774 0V8.63973H132.697V16.5329H141.37V8.63973H149.294V0H124.774Z" fill="#B8B1A4"/>
<path d="M125.524 48.1068H133.447V40.2126H140.621V48.1058H148.544V55.2535H125.524V48.1068ZM132.697 39.4671V47.3603H124.774V56H149.294V47.3603H141.374V39.4671H132.697Z" fill="#B8B1A4"/>
<path d="M125.524 24.4272H101.01V15.7865H108.934V7.89326H117.605V15.7865H125.529L125.524 24.4272ZM101.754 23.6807H124.775V16.533H116.851V8.63979H109.678V16.533H101.754V23.6807Z" fill="#B8B1A4"/>
<path d="M156.218 40.2126H147.545V32.3194H139.621V23.6796H147.545V15.7864H156.218V40.2126ZM148.294 39.466H155.469V16.5329H148.294V24.4271H140.374V31.5738H148.298L148.294 39.466Z" fill="#B8B1A4"/>
<path d="M172.065 40.2126H163.392V15.7864H172.065V23.6806H179.987V32.3203H172.065V40.2126ZM164.141 39.466H171.316V31.5728H179.24V24.4261H171.319V16.5329H164.144L164.141 39.466Z" fill="#B8B1A4"/>
<path d="M164.14 48.1078H155.468V40.2126H147.544V31.5728H172.063V40.2126H164.14V48.1078ZM156.217 47.3612H163.391V39.468H171.314V32.3213H148.293V39.468H156.217V47.3612Z" fill="#B8B1A4"/>
<path d="M172.064 0.746521H195.084V7.89321H187.16V15.7874H179.987V7.89321H172.064V0.746521ZM171.314 0V8.63973H179.237V16.5329H187.91V8.63973H195.834V0H171.314Z" fill="#B8B1A4"/>
<path d="M172.064 48.1068H179.987V40.2126H187.16V48.1058H195.084V55.2535H172.064V48.1068ZM179.237 39.4671V47.3603H171.314V56H195.834V47.3603H187.91V39.4671H179.237Z" fill="#B8B1A4"/>
<path d="M172.064 24.4272H147.545V15.7865H155.469V7.89326H164.14V15.7865H172.064V24.4272ZM148.294 23.6807H171.315V16.533H163.391V8.63979H156.218V16.533H148.294V23.6807Z" fill="#B8B1A4"/>
<path d="M202.759 40.2126H194.087V32.3194H186.163V23.6796H194.087V15.7864H202.759V40.2126ZM194.836 39.466H202.01V16.5329H194.836V24.4271H186.912V31.5738H194.836V39.466Z" fill="#B8B1A4"/>
<path d="M218.605 40.2126H209.933V15.7864H218.605V23.6806H226.528V32.3203H218.605V40.2126ZM210.682 39.466H217.856V31.5728H225.778V24.4261H217.856V16.5329H210.682V39.466Z" fill="#B8B1A4"/>
<path d="M210.682 48.1078H202.009V40.2126H194.086V31.5728H218.605V40.2126H210.682V48.1078ZM202.758 47.3612H209.933V39.468H217.855V32.3213H194.835V39.468H202.758V47.3612Z" fill="#B8B1A4"/>
<path d="M218.605 0.746521H241.625V7.89321H233.702V15.7874H226.528V7.89321H218.605V0.746521ZM217.855 0V8.63973H225.778V16.5329H234.452V8.63973H242.374V0H217.855Z" fill="#B8B1A4"/>
<path d="M218.605 48.1068H226.529V40.2126H233.702V48.1058H241.625V55.2535H218.605V48.1068ZM225.778 39.4671V47.3603H217.855V56H242.374V47.3603H234.452V39.4671H225.778Z" fill="#B8B1A4"/>
<path d="M218.605 24.4272H194.087V15.7865H202.01V7.89326H210.682V15.7865H218.605V24.4272ZM194.836 23.6807H217.856V16.533H209.933V8.63979H202.759V16.533H194.836V23.6807Z" fill="#B8B1A4"/>
<path d="M249.299 40.2126H240.627V32.3194H232.703V23.6796H240.627V15.7864H249.299V40.2126ZM241.376 39.466H248.55V16.5329H241.376V24.4271H233.452V31.5738H241.376V39.466Z" fill="#B8B1A4"/>
<path d="M265.146 40.2126H256.472V15.7864H265.144V23.6806H273.067V32.3203H265.144L265.146 40.2126ZM257.223 39.466H264.397V31.5728H272.32V24.4261H264.397V16.5329H257.223V39.466Z" fill="#B8B1A4"/>
<path d="M257.222 48.1078H248.549V40.2126H240.626V31.5728H265.144V40.2126H257.222V48.1078ZM249.298 47.3612H256.471V39.468H264.393V32.3213H241.373V39.468H249.296L249.298 47.3612Z" fill="#B8B1A4"/>
<path d="M265.145 0.746521H288.165V7.89321H280.242V15.7874H273.069V7.89321H265.145V0.746521ZM264.396 0V8.63973H272.319V16.5329H280.991V8.63973H288.914V0H264.396Z" fill="#B8B1A4"/>
<path d="M265.145 48.1068H273.069V40.2126H280.242V48.1058H288.165V55.2535H265.145V48.1068ZM272.318 39.4671V47.3603H264.395V56H288.914V47.3603H280.992V39.4671H272.318Z" fill="#B8B1A4"/>
<path d="M265.145 24.4272H240.627V15.7865H248.55V7.89326H257.222V15.7865H265.145V24.4272ZM241.376 23.6807H264.396V16.533H256.471V8.63979H249.297V16.533H241.374L241.376 23.6807Z" fill="#B8B1A4"/>
<path d="M295.836 40.2126H287.164V32.3194H279.24V23.6796H287.164V15.7864H295.836V40.2126ZM287.913 39.466H295.087V16.5329H287.913V24.4271H279.99V31.5738H287.913V39.466Z" fill="#B8B1A4"/>
<path d="M311.687 40.2126H303.014V15.7864H311.687V23.6806H319.609V32.3203H311.687V40.2126ZM303.763 39.466H310.938V31.5728H318.86V24.4261H310.938V16.5329H303.763V39.466Z" fill="#B8B1A4"/>
<path d="M303.763 48.1078H295.09V40.2126H287.167V31.5728H311.686V40.2126H303.763V48.1078ZM295.839 47.3612H303.014V39.468H310.937V32.3213H287.916V39.468H295.839V47.3612Z" fill="#B8B1A4"/>
<path d="M311.688 0.746521H334.707V7.89321H326.784V15.7874H319.61V7.89321H311.688V0.746521ZM310.938 0V8.63973H318.86V16.5329H327.533V8.63973H335.456V0H310.938Z" fill="#B8B1A4"/>
<path d="M311.687 48.1068H319.61V40.2126H326.784V48.1058H334.706V55.2535H311.687V48.1068ZM318.86 39.4671V47.3603H310.937V56H335.455V47.3603H327.532V39.4671H318.86Z" fill="#B8B1A4"/>
<path d="M311.687 24.4272H287.168V15.7865H295.091V7.89326H303.763V15.7865H311.687V24.4272ZM287.917 23.6807H310.938V16.533H303.014V8.63979H295.836V16.533H287.913L287.917 23.6807Z" fill="#B8B1A4"/>
<path d="M342.381 40.2126H333.708V32.3194H325.785V23.6796H333.708V15.7864H342.381V40.2126ZM334.457 39.466H341.632V16.5329H334.457V24.4271H326.534V31.5738H334.457V39.466Z" fill="#B8B1A4"/>
<path d="M358.228 40.2126H349.555V15.7864H358.228V23.6806H366.151V32.3203H358.228V40.2126ZM350.304 39.466H357.482V31.5728H365.405V24.4261H357.482V16.5329H350.307L350.304 39.466Z" fill="#B8B1A4"/>
<path d="M350.303 48.1078H341.631V40.2126H333.707V31.5728H358.226V40.2126H350.303V48.1078ZM342.38 47.3612H349.554V39.468H357.477V32.3213H334.456V39.468H342.38V47.3612Z" fill="#B8B1A4"/>
<path d="M358.227 0.746521H381.248V7.89321H373.324V15.7874H366.151V7.89321H358.227V0.746521ZM357.48 0V8.63973H365.404V16.5329H374.076V8.63973H382V0H357.48Z" fill="#B8B1A4"/>
<path d="M358.227 48.1068H366.151V40.2126H373.324V48.1058H381.248V55.2535H358.227V48.1068ZM365.401 39.4671V47.3603H357.48V56H382V47.3603H374.077V39.4671H365.401Z" fill="#B8B1A4"/>
<path d="M358.227 24.4272H333.708V15.7865H341.632V7.89326H350.303V15.7865H358.227V24.4272ZM334.457 23.6807H357.481V16.533H349.557V8.63979H342.384V16.533H334.46L334.457 23.6807Z" fill="#B8B1A4"/>
</svg>
