<svg width="12" height="12" viewBox="0 0 12 12" fill="none" xmlns="http://www.w3.org/2000/svg">
<path d="M5.995 1.00012C3.235 1.00012 1 3.24012 1 6.00012C1 8.76012 3.235 11.0001 5.995 11.0001C8.76 11.0001 11 8.76012 11 6.00012C11 3.24012 8.76 1.00012 5.995 1.00012ZM6 10.0001C3.79 10.0001 2 8.21012 2 6.00012C2 3.79012 3.79 2.00012 6 2.00012C8.21 2.00012 10 3.79012 10 6.00012C10 8.21012 8.21 10.0001 6 10.0001Z" fill="#8C9CA1"/>
<path d="M6.25 3.49988H5.5V6.49988L8.125 8.07488L8.5 7.45988L6.25 6.12488V3.49988Z" fill="#8C9CA1"/>
</svg>
