<svg width="18" height="12" viewBox="0 0 18 12" fill="none" xmlns="http://www.w3.org/2000/svg">
<path d="M14.25 2.99994L11.25 5.99994H13.5C13.5 8.48244 11.4825 10.4999 9 10.4999C8.2425 10.4999 7.5225 10.3124 6.9 9.97494L5.805 11.0699C6.7275 11.6549 7.8225 11.9999 9 11.9999C12.315 11.9999 15 9.31494 15 5.99994H17.25L14.25 2.99994ZM4.5 5.99994C4.5 3.51744 6.5175 1.49994 9 1.49994C9.7575 1.49994 10.4775 1.68744 11.1 2.02494L12.195 0.929939C11.2725 0.344939 10.1775 -6.10352e-05 9 -6.10352e-05C5.685 -6.10352e-05 3 2.68494 3 5.99994H0.75L3.75 8.99994L6.75 5.99994H4.5Z" fill="#2594A2"/>
</svg>
