<svg width="18" height="13" viewBox="0 0 18 13" fill="none" xmlns="http://www.w3.org/2000/svg">
<path d="M15.9717 4.29704C15.6517 1.81061 14.3157 -3.05176e-05 12.6717 -3.05176e-05H5.06169C3.41569 -3.05176e-05 2.08268 1.81062 1.76168 4.29397C1.19491 4.62475 0.72993 5.11229 0.419665 5.70112C0.1094 6.28994 -0.0336884 6.9564 0.0066856 7.62463C-0.0278324 8.63072 0.322082 9.61079 0.981684 10.3555V11.972C0.981684 12.0771 1.00187 12.1812 1.04109 12.2783C1.08032 12.3754 1.1378 12.4635 1.21026 12.5377C1.28272 12.612 1.36872 12.6708 1.46334 12.7108C1.55797 12.7508 1.65935 12.7713 1.76168 12.771H3.19268C3.39902 12.771 3.59691 12.6869 3.74282 12.537C3.88872 12.3872 3.97068 12.184 3.97068 11.972V11.3558H13.7617V11.972C13.7617 12.184 13.8436 12.3872 13.9895 12.537C14.1355 12.6869 14.3333 12.771 14.5397 12.771H15.9707C16.177 12.771 16.3749 12.6869 16.5208 12.537C16.6667 12.3872 16.7487 12.184 16.7487 11.972V10.3586C17.4095 9.61324 17.7601 8.63201 17.7257 7.62463C17.7653 6.95705 17.622 6.29141 17.312 5.70325C17.002 5.11508 16.5376 4.62791 15.9717 4.29704ZM5.06169 0.92225H12.6697C13.7267 0.92225 14.6537 2.21217 15.0017 3.96017C14.9017 3.94271 14.7377 3.92322 14.6227 3.90987C14.5231 3.89804 14.4229 3.89221 14.3227 3.89241H3.49068C3.23593 3.89282 2.98169 3.91548 2.73068 3.96017C3.07868 2.2132 4.00769 0.92225 5.06169 0.92225ZM3.06169 8.83651C2.82811 8.83631 2.59983 8.76498 2.40573 8.63153C2.21162 8.49809 2.06041 8.30851 1.9712 8.0868C1.882 7.86509 1.85881 7.6212 1.90457 7.38596C1.95034 7.15071 2.06299 6.93468 2.2283 6.76519C2.3936 6.5957 2.60413 6.48038 2.83326 6.43378C3.06239 6.38717 3.29983 6.4114 3.51556 6.50339C3.73128 6.59538 3.9156 6.751 4.04521 6.95058C4.17481 7.15016 4.24388 7.38474 4.24369 7.62463C4.24448 7.94578 4.12123 8.25414 3.90096 8.48209C3.68069 8.71005 3.38138 8.83899 3.06868 8.84062L3.06169 8.83651ZM14.6617 8.83651C14.428 8.83672 14.1995 8.76574 14.0052 8.63254C13.8108 8.49934 13.6593 8.30992 13.5698 8.08825C13.4803 7.86657 13.4568 7.62259 13.5023 7.38721C13.5479 7.15183 13.6604 6.93563 13.8256 6.76594C13.9908 6.59625 14.2013 6.4807 14.4305 6.43393C14.6597 6.38716 14.8973 6.41127 15.1131 6.5032C15.3289 6.59513 15.5134 6.75074 15.6431 6.95036C15.7728 7.14998 15.8419 7.38465 15.8417 7.62463C15.8425 7.94578 15.7192 8.25414 15.499 8.48209C15.2787 8.71005 14.9794 8.83899 14.6667 8.84062L14.6617 8.83651Z" fill="white"/>
</svg>
