<svg width="18" height="13" viewBox="0 0 18 13" fill="none" xmlns="http://www.w3.org/2000/svg">
<path d="M15.9717 4.29707C15.6517 1.81064 14.3157 0 12.6717 0H5.06169C3.41569 0 2.08268 1.81065 1.76168 4.294C1.19491 4.62478 0.72993 5.11232 0.419665 5.70115C0.1094 6.28997 -0.0336884 6.95643 0.0066856 7.62466C-0.0278324 8.63075 0.322082 9.61082 0.981684 10.3555V11.9721C0.981684 12.0772 1.00187 12.1812 1.04109 12.2783C1.08032 12.3754 1.1378 12.4635 1.21026 12.5378C1.28272 12.612 1.36872 12.6708 1.46334 12.7108C1.55797 12.7509 1.65935 12.7713 1.76168 12.7711H3.19268C3.39902 12.7711 3.59691 12.6869 3.74282 12.537C3.88872 12.3872 3.97068 12.184 3.97068 11.9721V11.3558H13.7617V11.9721C13.7617 12.184 13.8436 12.3872 13.9895 12.537C14.1355 12.6869 14.3333 12.7711 14.5397 12.7711H15.9707C16.177 12.7711 16.3749 12.6869 16.5208 12.537C16.6667 12.3872 16.7487 12.184 16.7487 11.9721V10.3586C17.4095 9.61327 17.7601 8.63204 17.7257 7.62466C17.7653 6.95708 17.622 6.29144 17.312 5.70328C17.002 5.11511 16.5376 4.62794 15.9717 4.29707ZM5.06169 0.922281H12.6697C13.7267 0.922281 14.6537 2.2122 15.0017 3.9602C14.9017 3.94274 14.7377 3.92325 14.6227 3.9099C14.5231 3.89807 14.4229 3.89224 14.3227 3.89244H3.49068C3.23593 3.89285 2.98169 3.91551 2.73068 3.9602C3.07868 2.21323 4.00769 0.922281 5.06169 0.922281ZM3.06169 8.83654C2.82811 8.83634 2.59983 8.76501 2.40573 8.63157C2.21162 8.49812 2.06041 8.30854 1.9712 8.08683C1.882 7.86513 1.85881 7.62123 1.90457 7.38599C1.95034 7.15074 2.06299 6.93471 2.2283 6.76522C2.3936 6.59573 2.60413 6.48041 2.83326 6.43381C3.06239 6.38721 3.29983 6.41143 3.51556 6.50342C3.73128 6.59541 3.9156 6.75103 4.04521 6.95061C4.17481 7.15019 4.24388 7.38477 4.24369 7.62466C4.24448 7.94581 4.12123 8.25417 3.90096 8.48213C3.68069 8.71008 3.38138 8.83902 3.06868 8.84065L3.06169 8.83654ZM14.6617 8.83654C14.428 8.83675 14.1995 8.76577 14.0052 8.63257C13.8108 8.49937 13.6593 8.30995 13.5698 8.08828C13.4803 7.8666 13.4568 7.62262 13.5023 7.38724C13.5479 7.15186 13.6604 6.93566 13.8256 6.76597C13.9908 6.59628 14.2013 6.48073 14.4305 6.43396C14.6597 6.3872 14.8973 6.4113 15.1131 6.50323C15.3289 6.59516 15.5134 6.75077 15.6431 6.95039C15.7728 7.15001 15.8419 7.38468 15.8417 7.62466C15.8425 7.94581 15.7192 8.25417 15.499 8.48213C15.2787 8.71008 14.9794 8.83902 14.6667 8.84065L14.6617 8.83654Z" fill="#5F5F5F"/>
</svg>
