<svg width="18" height="22" viewBox="0 0 18 22" fill="none" xmlns="http://www.w3.org/2000/svg">
<path d="M9.18516 7.40937H11.4797V8.38437H9.18516V7.40937ZM17.318 2.98203L9.35391 0.267969C9.25781 0.235156 9.12891 0.21875 9 0.21875C8.87109 0.21875 8.74219 0.235156 8.64609 0.267969L0.682031 2.98203C0.4875 3.04766 0.328125 3.27266 0.328125 3.47891V14.7852C0.328125 14.9914 0.461719 15.2633 0.623438 15.3922L8.70234 21.6875C8.78437 21.7508 8.88984 21.7836 8.99766 21.7836C9.10547 21.7836 9.21328 21.7508 9.29297 21.6875L17.3719 15.3922C17.5336 15.2656 17.6672 14.9937 17.6672 14.7852V3.47891C17.6719 3.27266 17.5125 3.05 17.318 2.98203ZM6.63984 14.375H6.63516C6.63516 14.4781 6.55078 14.5625 6.44766 14.5625H5.57344C5.47031 14.5625 5.38594 14.4781 5.38594 14.375V10.0484C5.20547 10.2641 5.025 10.468 4.84453 10.6578C4.82751 10.676 4.80599 10.6894 4.78214 10.6966C4.7583 10.7038 4.73296 10.7046 4.70871 10.6989C4.68445 10.6932 4.66214 10.6812 4.64401 10.6641C4.62588 10.647 4.61259 10.6254 4.60547 10.6016L4.29609 9.58203C4.28203 9.53516 4.29141 9.48594 4.32422 9.45078C5.19141 8.43359 5.84063 7.22187 6.25078 5.85078C6.27656 5.76875 6.36797 5.72656 6.44766 5.76406L7.35234 6.19297C7.41563 6.22344 7.44844 6.29609 7.42734 6.36172C7.22738 7.00367 6.96356 7.62396 6.63984 8.21328V14.375ZM13.5891 13.2219L12.9727 14.0492C12.9608 14.0651 12.9458 14.0784 12.9284 14.088C12.9111 14.0976 12.8919 14.1033 12.8721 14.1049C12.8523 14.1064 12.8325 14.1037 12.8138 14.097C12.7952 14.0902 12.7782 14.0795 12.7641 14.0656C12.0469 13.3789 11.4328 12.5375 10.9336 11.5602V14.375C10.9336 14.4781 10.8492 14.5625 10.7461 14.5625H9.89766C9.79453 14.5625 9.71016 14.4781 9.71016 14.375V11.5625C9.19453 12.6102 8.56172 13.4562 7.82109 14.0844C7.80589 14.0975 7.78799 14.1072 7.76867 14.1127C7.74934 14.1182 7.72904 14.1195 7.70919 14.1164C7.68933 14.1132 7.67039 14.1058 7.65369 14.0946C7.637 14.0834 7.62294 14.0687 7.6125 14.0516L7.07812 13.1961C7.05889 13.1657 7.05205 13.129 7.05903 13.0937C7.066 13.0584 7.08626 13.0271 7.11563 13.0062C7.78594 12.5305 8.33203 11.9469 8.77969 11.225H7.48828C7.38516 11.225 7.30078 11.1406 7.30078 11.0375V10.2031C7.30078 10.1 7.38516 10.0156 7.48828 10.0156H9.7125V9.57969H8.16797C8.06484 9.57969 7.98047 9.49531 7.98047 9.39219V6.40625C7.98047 6.30312 8.06484 6.21875 8.16797 6.21875H12.4969C12.6 6.21875 12.6844 6.30312 12.6844 6.40625V9.3875C12.6844 9.49062 12.6 9.575 12.4969 9.575H10.9336V10.0109H13.2492C13.3523 10.0109 13.4367 10.0953 13.4367 10.1984V11.0328C13.4367 11.1359 13.3523 11.2203 13.2492 11.2203H11.8664C12.2906 11.9023 12.8461 12.493 13.5609 13.0227C13.6219 13.0719 13.6359 13.1609 13.5891 13.2219Z" fill="#5F5F5F"/>
</svg>
