<svg width="56" height="56" viewBox="0 0 56 56" fill="none" xmlns="http://www.w3.org/2000/svg">
<path d="M54.3161 30.3212C53.7438 28.8279 53.7438 27.1766 54.3161 25.6833L55.8839 21.5945C56.0162 21.2495 56.036 20.8717 55.9404 20.5148C55.8448 20.158 55.6387 19.8403 55.3515 19.607L51.9521 16.8491C50.7099 15.8412 49.8844 14.4116 49.6339 12.8344L48.9457 8.50715C48.888 8.14278 48.716 7.806 48.4545 7.54506C48.1929 7.28412 47.8553 7.11243 47.4899 7.05458L43.1661 6.36737C41.5848 6.11559 40.1532 5.28851 39.1477 4.04589L36.3938 0.646392C36.1616 0.360685 35.8449 0.155419 35.4887 0.0598978C35.1325 -0.0356232 34.7552 -0.0165159 34.4106 0.114492L30.3179 1.68482C28.8245 2.25778 27.171 2.25778 25.6775 1.68482L21.59 0.117537C21.2454 -0.0149828 20.8675 -0.0348753 20.5108 0.0607322C20.1541 0.15634 19.8372 0.362499 19.6057 0.649438L16.8508 4.04995C15.8456 5.29146 14.4148 6.11776 12.8345 6.3694L8.50765 7.05661C8.14304 7.11563 7.80639 7.28778 7.54557 7.54856C7.28474 7.80935 7.11303 8.14549 7.05485 8.50918L6.36765 12.8354C6.11684 14.4125 5.29099 15.8417 4.04846 16.8491L0.647063 19.606C0.360523 19.8391 0.154948 20.1563 0.0595455 20.5126C-0.0358568 20.8688 -0.0162337 21.246 0.115627 21.5905L1.68347 25.6802C2.25579 27.1735 2.25579 28.8248 1.68347 30.3181L0.116645 34.4099C-0.015894 34.7544 -0.035767 35.1319 0.0598686 35.4883C0.155504 35.8447 0.361748 36.1619 0.6491 36.3944L4.04846 39.1463C5.29285 40.1542 6.11987 41.585 6.3707 43.1639L7.05892 47.4892C7.11592 47.8537 7.28718 48.1908 7.54816 48.4523C7.80913 48.7138 8.14643 48.8862 8.51172 48.9448L12.8396 49.633C14.4193 49.8847 15.8496 50.7106 16.8549 51.9515L19.6108 55.3499C19.8422 55.6381 20.1599 55.8451 20.5175 55.9408C20.8752 56.0364 21.2541 56.0158 21.5991 55.8818L25.6857 54.3166C27.1779 53.7447 28.8298 53.7447 30.322 54.3166L34.4106 55.8839C34.7561 56.0162 35.1349 56.0357 35.4922 55.9396C35.8496 55.8434 36.1671 55.6366 36.3989 55.3489L39.1477 51.9525C40.1539 50.7116 41.5855 49.8863 43.1661 49.6361L47.4919 48.9489C47.8576 48.8904 48.1953 48.7181 48.4568 48.4566C48.7183 48.1952 48.8901 47.858 48.9478 47.4932L49.635 43.167C49.8853 41.5887 50.7116 40.1583 51.9552 39.1503L55.3515 36.3984C55.6385 36.1657 55.8445 35.8485 55.9399 35.4921C56.0353 35.1357 56.0154 34.7584 55.8829 34.414L54.3161 30.3212Z" fill="#CE203B"/>
</svg>
