<svg width="20" height="21" viewBox="0 0 20 21" fill="none" xmlns="http://www.w3.org/2000/svg">
<path d="M20 13.6C20 13.23 19.8 12.88 19.48 12.7L11.5 7.99997V2.57997C11.5 1.76997 10.89 1.03997 10.08 0.999969C9.21 0.959969 8.5 1.63997 8.5 2.49997V7.99997L0.52 12.7C0.2 12.88 0 13.23 0 13.6C0 14.3 0.67 14.8 1.34 14.61L8.5 12.51V18L6.83 19.25C6.6772 19.3659 6.56962 19.5315 6.52582 19.7182C6.48201 19.9049 6.50471 20.1011 6.59001 20.2729C6.67531 20.4447 6.81787 20.5813 6.99311 20.6593C7.16835 20.7372 7.36529 20.7516 7.55 20.7L10 20L12.45 20.7C12.6347 20.7516 12.8317 20.7372 13.0069 20.6593C13.1821 20.5813 13.3247 20.4447 13.41 20.2729C13.4953 20.1011 13.518 19.9049 13.4742 19.7182C13.4304 19.5315 13.3228 19.3659 13.17 19.25L11.5 18V12.5L18.66 14.6C19.33 14.8 20 14.3 20 13.6Z" fill="#5F5F5F"/>
</svg>
