<svg width="19" height="13" viewBox="0 0 19 13" fill="none" xmlns="http://www.w3.org/2000/svg">
<path d="M2.15407 3.62997C2.1546 3.15513 2.34347 2.6999 2.67923 2.36414C3.01499 2.02837 3.47023 1.83952 3.94507 1.83899H7.96606C8.26343 1.8384 8.55627 1.91188 8.81815 2.05276C9.08002 2.19365 9.30269 2.39753 9.46606 2.646C9.62944 2.39753 9.85212 2.19365 10.114 2.05276C10.3759 1.91188 10.6687 1.8384 10.9661 1.83899H14.9871C15.4619 1.83952 15.9172 2.02837 16.2529 2.36414C16.5887 2.6999 16.7775 3.15513 16.7781 3.62997V3.71298H17.2261V1.96597C17.2255 1.44472 17.0182 0.944967 16.6497 0.576385C16.2811 0.207804 15.7813 0.00052946 15.2601 0H3.67107C3.14981 0.00052946 2.65006 0.207804 2.28148 0.576385C1.9129 0.944967 1.70561 1.44472 1.70508 1.96597V3.71298H2.15407V3.62997Z" fill="white"/>
<path d="M18.172 4.55099H0.752991C0.553364 4.55126 0.361998 4.63069 0.22084 4.77185C0.0796829 4.91301 0.000264582 5.10436 0 5.30399V9.67401C0.000264582 9.87364 0.0796829 10.065 0.22084 10.2061C0.361998 10.3473 0.553364 10.4267 0.752991 10.427H1.06599L0.695999 11.472C0.676874 11.5239 0.668247 11.5791 0.670624 11.6344C0.673 11.6897 0.686329 11.744 0.709839 11.7941C0.733349 11.8442 0.766564 11.8891 0.807571 11.9262C0.848579 11.9634 0.896568 11.992 0.94873 12.0105C1.00089 12.029 1.0562 12.0369 1.11145 12.0338C1.1667 12.0307 1.22079 12.0167 1.27058 11.9926C1.32038 11.9684 1.36489 11.9347 1.40152 11.8932C1.43815 11.8517 1.46618 11.8034 1.48399 11.751L1.95299 10.427H16.971L17.44 11.751C17.4578 11.8034 17.4858 11.8517 17.5225 11.8932C17.5591 11.9347 17.6036 11.9684 17.6534 11.9926C17.7032 12.0167 17.7573 12.0307 17.8125 12.0338C17.8678 12.0369 17.9231 12.029 17.9753 12.0105C18.0274 11.992 18.0754 11.9634 18.1164 11.9262C18.1574 11.8891 18.1906 11.8442 18.2141 11.7941C18.2377 11.744 18.251 11.6897 18.2534 11.6344C18.2557 11.5791 18.2471 11.5239 18.228 11.472L17.858 10.427H18.171C18.3706 10.4267 18.562 10.3473 18.7032 10.2061C18.8443 10.065 18.9237 9.87364 18.924 9.67401V5.30301C18.9237 5.10365 18.8444 4.91252 18.7034 4.77155C18.5625 4.63058 18.3714 4.55126 18.172 4.55099Z" fill="white"/>
<path d="M10.9589 2.67798C10.7057 2.67824 10.4629 2.77894 10.2839 2.95798C10.1049 3.13702 10.0042 3.37976 10.0039 3.63297V3.71597H15.9339V3.63297C15.9336 3.37976 15.8329 3.13702 15.6539 2.95798C15.4749 2.77894 15.2321 2.67824 14.9789 2.67798H10.9589Z" fill="white"/>
<path d="M3.94524 2.67798C3.69204 2.67824 3.44927 2.77894 3.27023 2.95798C3.09119 3.13702 2.9905 3.37976 2.99023 3.63297V3.71597H8.92123V3.63297C8.92097 3.37976 8.82028 3.13702 8.64124 2.95798C8.4622 2.77894 8.21943 2.67824 7.96623 2.67798H3.94524Z" fill="white"/>
</svg>
