<svg width="24" height="18" viewBox="0 0 24 18" fill="none" xmlns="http://www.w3.org/2000/svg">
<path d="M9.81818 0.272705C9.81818 0.272705 8.72727 0.272705 8.29091 1.36361L7.63636 2.45452H2.18182C0.872727 2.45452 0 3.32725 0 4.63634V15.5454C0 16.8545 0.872727 17.7272 2.18182 17.7272H21.8182C23.1273 17.7272 24 16.8545 24 15.5454V4.63634C24 3.32725 23.1273 2.45452 21.8182 2.45452H16.3636L15.7091 1.36361C15.2727 0.272705 14.1818 0.272705 14.1818 0.272705H9.81818ZM12 4.63634C15.0545 4.63634 17.4545 7.03634 17.4545 10.0909C17.4545 13.1454 15.0545 15.5454 12 15.5454C8.94545 15.5454 6.54545 13.1454 6.54545 10.0909C6.54545 7.03634 8.94545 4.63634 12 4.63634ZM12 7.90907C10.6909 7.90907 9.81818 8.7818 9.81818 10.0909C9.81818 11.4 10.6909 12.2727 12 12.2727C13.3091 12.2727 14.1818 11.4 14.1818 10.0909C14.1818 8.7818 13.3091 7.90907 12 7.90907Z" fill="#5F5F5F"/>
</svg>
