<svg width="22" height="15" viewBox="0 0 22 15" fill="none" xmlns="http://www.w3.org/2000/svg">
<path d="M0.872703 0H21.1265C21.3581 0 21.5803 0.09002 21.7441 0.250253C21.908 0.410486 22 0.627804 22 0.854408V14.1464C21.9998 14.3729 21.9076 14.59 21.7438 14.75C21.58 14.9101 21.358 15 21.1265 15H0.872703C0.641246 15 0.419268 14.9101 0.255603 14.75C0.091938 14.5899 0 14.3728 0 14.1464V0.854408C-1.06011e-07 0.627946 0.091911 0.410749 0.255552 0.25054C0.419193 0.0903304 0.641169 0.00021671 0.872703 0Z" fill="#D60A2E"/>
<path d="M4.37502 3.02588L5.20093 4.66111L7.04749 4.92357L5.71 6.19824L6.02515 7.99699L4.37335 7.14748L2.72155 7.99699L3.0367 6.19824L1.69922 4.92357L3.54579 4.66111L4.37502 3.02588Z" fill="#FED953"/>
<path d="M9.20257 6.07764L9.52106 6.70883L10.2333 6.81022L9.71751 7.30078L9.83955 7.99495L9.20257 7.66789L8.56475 7.99495L8.68681 7.30078L8.17188 6.81022L8.88408 6.70883L9.20257 6.07764Z" fill="#FED953"/>
<path d="M8.80595 3.46899L9.3376 3.84674L9.95786 3.63253L9.75389 4.24411L10.1535 4.75429H9.49643L9.1236 5.28329L8.92048 4.67171L8.29102 4.48857L8.82267 4.11083L8.80595 3.46899Z" fill="#FED953"/>
<path d="M8.27771 1.67631L8.13226 2.41216L8.66977 2.94525L7.90991 3.03763L7.55798 3.70236L7.2328 3.02456L6.48047 2.90191L7.03887 2.39009L6.92435 1.65015L7.59309 2.01153L8.27771 1.67631Z" fill="#FED953"/>
<path d="M8.18188 8.37958L8.06234 8.98543L8.50538 9.4245L7.87843 9.50054L7.58836 10.0483L7.32003 9.48908L6.69727 9.38852L7.15786 8.96663L7.06341 8.35669L7.61595 8.65512L8.18188 8.37958Z" fill="#FED953"/>
</svg>
