<svg width="22" height="15" viewBox="0 0 22 15" fill="none" xmlns="http://www.w3.org/2000/svg">
<path d="M21.6206 15H0.379327C0.169855 15 0 14.8232 0 14.6052V0.394754C0 0.176763 0.169855 0 0.379327 0H21.6206C21.8301 0 22 0.176763 22 0.394754V14.6052C21.9999 14.8232 21.8301 15 21.6206 15Z" fill="#41479B"/>
<path d="M21.9999 0.394754C21.9999 0.176763 21.8301 0 21.6206 0H19.9235L12.8965 4.79121V0H9.10337V4.79121L2.07633 0H0.379327C0.169855 0 0 0.176763 0 0.394754V1.41567L6.02888 5.52629H0V9.47366H6.02888L0 13.5843V14.6052C0 14.8232 0.169855 15 0.379327 15H2.07637L9.10345 10.2088V15H12.8965V10.2088L19.9236 15H21.6207C21.8301 15 22 14.8232 22 14.6052V13.5843L15.9711 9.47371H21.9999V5.52634H15.971L21.9999 1.41567V0.394754Z" fill="#F5F5F5"/>
<path d="M21.9999 6.30735H12.1379V0H9.862V6.30735H0V8.67257H9.862V14.9799H12.1379V8.67257H21.9999V6.30735Z" fill="#FF4B55"/>
<path d="M7.6901 9.45996L0.0117188 14.64C0.0385741 14.8303 0.189608 14.9789 0.38026 14.9789H0.902713L9.08349 9.46001H7.6901V9.45996Z" fill="#FF4B55"/>
<path d="M14.8836 9.45996H13.4902L21.6591 14.9707C21.8495 14.9497 21.9997 14.7881 21.9997 14.5846V14.2605L14.8836 9.45996Z" fill="#FF4B55"/>
<path d="M0 0.828307L6.9514 5.51785H8.34478L0.220987 0.0373535C0.0912221 0.100006 0 0.234645 0 0.393131V0.828307Z" fill="#FF4B55"/>
<path d="M14.2899 5.5189L21.9867 0.326393C21.9547 0.14232 21.8069 0 21.6205 0H21.0771L12.8965 5.5189H14.2899Z" fill="#FF4B55"/>
</svg>
