<svg width="68" height="68" viewBox="0 0 68 68" fill="none" xmlns="http://www.w3.org/2000/svg">
<g filter="url(#filter0_d_4574_99948)">
<path d="M60.3161 35.3212C59.7438 33.8279 59.7438 32.1766 60.3161 30.6833L61.8839 26.5945C62.0162 26.2495 62.036 25.8717 61.9404 25.5148C61.8448 25.158 61.6387 24.8403 61.3515 24.607L57.9521 21.8491C56.7099 20.8412 55.8844 19.4116 55.6339 17.8344L54.9457 13.5072C54.888 13.1428 54.716 12.806 54.4545 12.5451C54.1929 12.2841 53.8553 12.1124 53.4899 12.0546L49.1661 11.3674C47.5848 11.1156 46.1532 10.2885 45.1477 9.04589L42.3938 5.64639C42.1616 5.36068 41.8449 5.15542 41.4887 5.0599C41.1325 4.96438 40.7552 4.98348 40.4106 5.11449L36.3179 6.68482C34.8245 7.25778 33.171 7.25778 31.6775 6.68482L27.59 5.11754C27.2454 4.98502 26.8675 4.96512 26.5108 5.06073C26.1541 5.15634 25.8372 5.3625 25.6057 5.64944L22.8508 9.04995C21.8456 10.2915 20.4148 11.1178 18.8345 11.3694L14.5076 12.0566C14.143 12.1156 13.8064 12.2878 13.5456 12.5486C13.2847 12.8093 13.113 13.1455 13.0548 13.5092L12.3676 17.8354C12.1168 19.4125 11.291 20.8417 10.0485 21.8491L6.64706 24.606C6.36052 24.8391 6.15495 25.1563 6.05955 25.5126C5.96414 25.8688 5.98377 26.246 6.11563 26.5905L7.68347 30.6802C8.25579 32.1735 8.25579 33.8248 7.68347 35.3181L6.11664 39.4099C5.98411 39.7544 5.96423 40.1319 6.05987 40.4883C6.1555 40.8447 6.36175 41.1619 6.6491 41.3944L10.0485 44.1463C11.2928 45.1542 12.1199 46.585 12.3707 48.1639L13.0589 52.4892C13.1159 52.8537 13.2872 53.1908 13.5482 53.4523C13.8091 53.7138 14.1464 53.8862 14.5117 53.9448L18.8396 54.633C20.4193 54.8847 21.8496 55.7106 22.8549 56.9515L25.6108 60.3499C25.8422 60.6381 26.1599 60.8451 26.5175 60.9408C26.8752 61.0364 27.2541 61.0158 27.5991 60.8818L31.6857 59.3166C33.1779 58.7447 34.8298 58.7447 36.322 59.3166L40.4106 60.8839C40.7561 61.0162 41.1349 61.0357 41.4922 60.9396C41.8496 60.8434 42.1671 60.6366 42.3989 60.3489L45.1477 56.9525C46.1539 55.7116 47.5855 54.8863 49.1661 54.6361L53.4919 53.9489C53.8576 53.8904 54.1953 53.7181 54.4568 53.4566C54.7183 53.1952 54.8901 52.858 54.9478 52.4932L55.635 48.167C55.8853 46.5887 56.7116 45.1583 57.9552 44.1503L61.3515 41.3984C61.6385 41.1657 61.8445 40.8485 61.9399 40.4921C62.0353 40.1357 62.0154 39.7584 61.8829 39.414L60.3161 35.3212Z" fill="#004269"/>
</g>
<defs>
<filter id="filter0_d_4574_99948" x="0" y="0" width="68" height="68" filterUnits="userSpaceOnUse" color-interpolation-filters="sRGB">
<feFlood flood-opacity="0" result="BackgroundImageFix"/>
<feColorMatrix in="SourceAlpha" type="matrix" values="0 0 0 0 0 0 0 0 0 0 0 0 0 0 0 0 0 0 127 0" result="hardAlpha"/>
<feOffset dy="1"/>
<feGaussianBlur stdDeviation="3"/>
<feColorMatrix type="matrix" values="0 0 0 0 0 0 0 0 0 0 0 0 0 0 0 0 0 0 0.161 0"/>
<feBlend mode="normal" in2="BackgroundImageFix" result="effect1_dropShadow_4574_99948"/>
<feBlend mode="normal" in="SourceGraphic" in2="effect1_dropShadow_4574_99948" result="shape"/>
</filter>
</defs>
</svg>
