 <svg
    width="143"
    height="19"
    viewBox="0 0 143 19"
    fill="none"
    xmlns="http://www.w3.org/2000/svg"
  >
    <path
      d="M35.7933 13.632C35.8786 13.632 35.9533 13.6667 36.0173 13.736L36.6333 14.4C36.1639 14.944 35.5933 15.368 34.9213 15.672C34.2546 15.976 33.4466 16.128 32.4973 16.128C31.6759 16.128 30.9293 15.9867 30.2573 15.704C29.5853 15.416 29.0119 15.016 28.5373 14.504C28.0626 13.9867 27.6946 13.368 27.4333 12.648C27.1719 11.928 27.0413 11.136 27.0413 10.272C27.0413 9.408 27.1773 8.616 27.4493 7.896C27.7213 7.176 28.1026 6.55733 28.5933 6.04C29.0893 5.52267 29.6813 5.12267 30.3693 4.84C31.0573 4.552 31.8173 4.408 32.6493 4.408C33.4653 4.408 34.1853 4.53867 34.8093 4.8C35.4333 5.06133 35.9826 5.416 36.4573 5.864L35.9453 6.576C35.9133 6.62933 35.8706 6.67467 35.8173 6.712C35.7693 6.744 35.7026 6.76 35.6173 6.76C35.5213 6.76 35.4039 6.70933 35.2653 6.608C35.1266 6.50133 34.9453 6.384 34.7213 6.256C34.4973 6.128 34.2173 6.01333 33.8813 5.912C33.5453 5.80533 33.1319 5.752 32.6413 5.752C32.0493 5.752 31.5079 5.856 31.0173 6.064C30.5266 6.26667 30.1026 6.56267 29.7453 6.952C29.3933 7.34133 29.1186 7.816 28.9213 8.376C28.7239 8.936 28.6253 9.568 28.6253 10.272C28.6253 10.9867 28.7266 11.624 28.9293 12.184C29.1373 12.744 29.4173 13.2187 29.7693 13.608C30.1266 13.992 30.5453 14.2853 31.0253 14.488C31.5106 14.6907 32.0333 14.792 32.5933 14.792C32.9346 14.792 33.2413 14.7733 33.5133 14.736C33.7906 14.6933 34.0439 14.6293 34.2733 14.544C34.5079 14.4587 34.7239 14.352 34.9213 14.224C35.1239 14.0907 35.3239 13.9333 35.5213 13.752C35.6119 13.672 35.7026 13.632 35.7933 13.632ZM42.4888 12.352C41.8328 12.3733 41.2728 12.4267 40.8088 12.512C40.3501 12.592 39.9741 12.6987 39.6808 12.832C39.3928 12.9653 39.1821 13.1227 39.0488 13.304C38.9208 13.4853 38.8568 13.688 38.8568 13.912C38.8568 14.1253 38.8914 14.3093 38.9608 14.464C39.0301 14.6187 39.1234 14.7467 39.2408 14.848C39.3634 14.944 39.5048 15.016 39.6648 15.064C39.8301 15.1067 40.0061 15.128 40.1928 15.128C40.4434 15.128 40.6728 15.104 40.8808 15.056C41.0888 15.0027 41.2834 14.928 41.4648 14.832C41.6514 14.736 41.8274 14.6213 41.9928 14.488C42.1634 14.3547 42.3288 14.2027 42.4888 14.032V12.352ZM37.8888 9.04C38.3368 8.608 38.8194 8.28533 39.3368 8.072C39.8541 7.85867 40.4274 7.752 41.0568 7.752C41.5101 7.752 41.9128 7.82667 42.2648 7.976C42.6168 8.12533 42.9128 8.33333 43.1528 8.6C43.3928 8.86667 43.5741 9.18933 43.6968 9.568C43.8194 9.94667 43.8808 10.3627 43.8808 10.816V16H43.2488C43.1101 16 43.0034 15.9787 42.9288 15.936C42.8541 15.888 42.7954 15.7973 42.7528 15.664L42.5928 14.896C42.3794 15.0933 42.1714 15.2693 41.9688 15.424C41.7661 15.5733 41.5528 15.7013 41.3288 15.808C41.1048 15.9093 40.8648 15.9867 40.6088 16.04C40.3581 16.0987 40.0781 16.128 39.7688 16.128C39.4541 16.128 39.1581 16.0853 38.8808 16C38.6034 15.9093 38.3608 15.776 38.1528 15.6C37.9501 15.424 37.7874 15.2027 37.6648 14.936C37.5474 14.664 37.4888 14.344 37.4888 13.976C37.4888 13.656 37.5768 13.3493 37.7528 13.056C37.9288 12.7573 38.2141 12.4933 38.6088 12.264C39.0034 12.0347 39.5181 11.848 40.1528 11.704C40.7874 11.5547 41.5661 11.4693 42.4888 11.448V10.816C42.4888 10.1867 42.3528 9.712 42.0808 9.392C41.8088 9.06667 41.4114 8.904 40.8888 8.904C40.5368 8.904 40.2408 8.94933 40.0008 9.04C39.7661 9.12533 39.5608 9.224 39.3848 9.336C39.2141 9.44267 39.0648 9.54133 38.9368 9.632C38.8141 9.71733 38.6914 9.76 38.5688 9.76C38.4728 9.76 38.3901 9.736 38.3208 9.688C38.2514 9.63467 38.1928 9.57067 38.1447 9.496L37.8888 9.04ZM47.3939 9.072C47.5699 8.87467 47.7565 8.696 47.9539 8.536C48.1512 8.376 48.3592 8.24 48.5779 8.128C48.8019 8.01067 49.0365 7.92267 49.2819 7.864C49.5325 7.8 49.8019 7.768 50.0899 7.768C50.5325 7.768 50.9219 7.84267 51.2579 7.992C51.5992 8.136 51.8819 8.344 52.1059 8.616C52.3352 8.88267 52.5085 9.20533 52.6259 9.584C52.7432 9.96267 52.8019 10.3813 52.8019 10.84V16H51.3699V10.84C51.3699 10.2267 51.2285 9.752 50.9459 9.416C50.6685 9.07467 50.2445 8.904 49.6739 8.904C49.2525 8.904 48.8579 9.00533 48.4899 9.208C48.1272 9.41067 47.7912 9.68533 47.4819 10.032V16H46.0499V7.896H46.9059C47.1085 7.896 47.2339 7.99467 47.2819 8.192L47.3939 9.072ZM60.6118 9.336C60.5691 9.39467 60.5264 9.44 60.4838 9.472C60.4411 9.504 60.3824 9.52 60.3078 9.52C60.2278 9.52 60.1398 9.488 60.0438 9.424C59.9478 9.35467 59.8278 9.28 59.6838 9.2C59.5451 9.12 59.3718 9.048 59.1638 8.984C58.9611 8.91467 58.7104 8.88 58.4118 8.88C58.0118 8.88 57.6598 8.952 57.3558 9.096C57.0518 9.23467 56.7958 9.43733 56.5878 9.704C56.3851 9.97067 56.2304 10.2933 56.1238 10.672C56.0224 11.0507 55.9718 11.4747 55.9718 11.944C55.9718 12.4347 56.0278 12.872 56.1398 13.256C56.2518 13.6347 56.4091 13.9547 56.6118 14.216C56.8198 14.472 57.0678 14.6693 57.3558 14.808C57.6491 14.9413 57.9771 15.008 58.3398 15.008C58.6864 15.008 58.9718 14.968 59.1958 14.888C59.4198 14.8027 59.6038 14.7093 59.7478 14.608C59.8971 14.5067 60.0198 14.416 60.1158 14.336C60.2171 14.2507 60.3158 14.208 60.4118 14.208C60.5291 14.208 60.6198 14.2533 60.6838 14.344L61.0838 14.864C60.9078 15.0827 60.7078 15.2693 60.4838 15.424C60.2598 15.5787 60.0171 15.7093 59.7558 15.816C59.4998 15.9173 59.2304 15.992 58.9478 16.04C58.6651 16.088 58.3771 16.112 58.0838 16.112C57.5771 16.112 57.1051 16.0187 56.6678 15.832C56.2358 15.6453 55.8598 15.376 55.5398 15.024C55.2198 14.6667 54.9691 14.2293 54.7878 13.712C54.6064 13.1947 54.5158 12.6053 54.5158 11.944C54.5158 11.3413 54.5984 10.784 54.7638 10.272C54.9344 9.76 55.1798 9.32 55.4998 8.952C55.8251 8.57867 56.2224 8.288 56.6918 8.08C57.1664 7.872 57.7104 7.768 58.3238 7.768C58.8944 7.768 59.3958 7.86133 59.8278 8.048C60.2651 8.22933 60.6518 8.488 60.9878 8.824L60.6118 9.336ZM67.8958 11.064C67.8958 10.7333 67.8478 10.432 67.7518 10.16C67.6611 9.88267 67.5251 9.64533 67.3438 9.448C67.1678 9.24533 66.9518 9.09067 66.6958 8.984C66.4398 8.872 66.1491 8.816 65.8238 8.816C65.1411 8.816 64.5998 9.016 64.1998 9.416C63.8051 9.81067 63.5598 10.36 63.4638 11.064H67.8958ZM69.0478 14.864C68.8718 15.0773 68.6611 15.264 68.4158 15.424C68.1704 15.5787 67.9064 15.7067 67.6238 15.808C67.3464 15.9093 67.0584 15.984 66.7598 16.032C66.4611 16.0853 66.1651 16.112 65.8718 16.112C65.3118 16.112 64.7944 16.0187 64.3198 15.832C63.8504 15.64 63.4424 15.3627 63.0958 15C62.7544 14.632 62.4878 14.1787 62.2958 13.64C62.1038 13.1013 62.0078 12.4827 62.0078 11.784C62.0078 11.2187 62.0931 10.6907 62.2638 10.2C62.4398 9.70933 62.6904 9.28533 63.0158 8.928C63.3411 8.56533 63.7384 8.28267 64.2078 8.08C64.6771 7.872 65.2051 7.768 65.7918 7.768C66.2771 7.768 66.7251 7.85067 67.1358 8.016C67.5518 8.176 67.9091 8.41067 68.2078 8.72C68.5118 9.024 68.7491 9.40267 68.9198 9.856C69.0904 10.304 69.1758 10.816 69.1758 11.392C69.1758 11.616 69.1518 11.7653 69.1038 11.84C69.0558 11.9147 68.9651 11.952 68.8318 11.952H63.4158C63.4318 12.464 63.5011 12.9093 63.6238 13.288C63.7518 13.6667 63.9278 13.984 64.1518 14.24C64.3758 14.4907 64.6424 14.68 64.9518 14.808C65.2611 14.9307 65.6078 14.992 65.9918 14.992C66.3491 14.992 66.6558 14.952 66.9118 14.872C67.1731 14.7867 67.3971 14.696 67.5838 14.6C67.7704 14.504 67.9251 14.416 68.0478 14.336C68.1758 14.2507 68.2851 14.208 68.3758 14.208C68.4931 14.208 68.5838 14.2533 68.6478 14.344L69.0478 14.864ZM72.3969 4.216V16H70.9729V4.216H72.3969Z"
      fill="#CE203B"
    />
    <path
      d="M80.2319 14.048C80.4932 14.4 80.7785 14.648 81.0879 14.792C81.4025 14.936 81.7465 15.008 82.1199 15.008C82.8825 15.008 83.4665 14.7387 83.8719 14.2C84.2772 13.6613 84.4799 12.8587 84.4799 11.792C84.4799 10.8 84.2985 10.072 83.9359 9.608C83.5785 9.13867 83.0665 8.904 82.3999 8.904C81.9359 8.904 81.5305 9.01067 81.1839 9.224C80.8425 9.43733 80.5252 9.73867 80.2319 10.128V14.048ZM80.2319 9.064C80.5732 8.66933 80.9572 8.35467 81.3839 8.12C81.8159 7.88533 82.3119 7.768 82.8719 7.768C83.3465 7.768 83.7732 7.85867 84.1519 8.04C84.5359 8.22133 84.8612 8.48533 85.1279 8.832C85.3945 9.17333 85.5972 9.58933 85.7359 10.08C85.8799 10.5707 85.9519 11.1227 85.9519 11.736C85.9519 12.392 85.8719 12.9893 85.7119 13.528C85.5519 14.0667 85.3199 14.528 85.0159 14.912C84.7172 15.2907 84.3519 15.5867 83.9199 15.8C83.4879 16.008 83.0025 16.112 82.4639 16.112C81.9305 16.112 81.4799 16.0133 81.1119 15.816C80.7492 15.6133 80.4319 15.328 80.1599 14.96L80.0879 15.696C80.0452 15.8987 79.9225 16 79.7199 16H78.7999V4.216H80.2319V9.064ZM94.5419 7.896L90.0219 18.392C89.9739 18.4987 89.9125 18.584 89.8379 18.648C89.7685 18.712 89.6592 18.744 89.5099 18.744H88.4539L89.9339 15.528L86.5899 7.896H87.8219C87.9445 7.896 88.0405 7.928 88.1099 7.992C88.1845 8.05067 88.2352 8.11733 88.2619 8.192L90.4299 13.296C90.5152 13.52 90.5872 13.7547 90.6459 14C90.7205 13.7493 90.8005 13.512 90.8859 13.288L92.9899 8.192C93.0219 8.10667 93.0752 8.03733 93.1499 7.984C93.2299 7.92533 93.3179 7.896 93.4139 7.896H94.5419ZM100.935 14.048C101.196 14.4 101.482 14.648 101.791 14.792C102.1 14.936 102.447 15.008 102.831 15.008C103.588 15.008 104.17 14.7387 104.575 14.2C104.98 13.6613 105.183 12.8933 105.183 11.896C105.183 11.368 105.135 10.9147 105.039 10.536C104.948 10.1573 104.815 9.848 104.639 9.608C104.463 9.36267 104.247 9.184 103.991 9.072C103.735 8.96 103.444 8.904 103.119 8.904C102.655 8.904 102.247 9.01067 101.895 9.224C101.548 9.43733 101.228 9.73867 100.935 10.128V14.048ZM100.863 9.152C101.204 8.73067 101.599 8.392 102.047 8.136C102.495 7.88 103.007 7.752 103.583 7.752C104.052 7.752 104.476 7.84267 104.855 8.024C105.234 8.2 105.556 8.464 105.823 8.816C106.09 9.16267 106.295 9.59467 106.439 10.112C106.583 10.6293 106.655 11.224 106.655 11.896C106.655 12.4933 106.575 13.0507 106.415 13.568C106.255 14.08 106.023 14.5253 105.719 14.904C105.42 15.2773 105.052 15.5733 104.615 15.792C104.183 16.0053 103.695 16.112 103.151 16.112C102.655 16.112 102.228 16.0293 101.871 15.864C101.519 15.6933 101.207 15.4587 100.935 15.16V18.744H99.503V7.896H100.359C100.562 7.896 100.687 7.99467 100.735 8.192L100.863 9.152ZM109.904 8.976C110.25 8.608 110.634 8.31467 111.056 8.096C111.477 7.87733 111.962 7.768 112.512 7.768C112.954 7.768 113.344 7.84267 113.68 7.992C114.021 8.136 114.304 8.344 114.528 8.616C114.757 8.88267 114.93 9.20533 115.048 9.584C115.165 9.96267 115.224 10.3813 115.224 10.84V16H113.792V10.84C113.792 10.2267 113.65 9.752 113.368 9.416C113.09 9.07467 112.666 8.904 112.096 8.904C111.674 8.904 111.28 9.00533 110.912 9.208C110.549 9.41067 110.213 9.68533 109.904 10.032V16H108.472V4.216H109.904V8.976ZM120.81 7.768C121.402 7.768 121.935 7.86667 122.41 8.064C122.884 8.26133 123.29 8.54133 123.626 8.904C123.962 9.26667 124.218 9.70667 124.394 10.224C124.575 10.736 124.666 11.3093 124.666 11.944C124.666 12.584 124.575 13.16 124.394 13.672C124.218 14.184 123.962 14.6213 123.626 14.984C123.29 15.3467 122.884 15.6267 122.41 15.824C121.935 16.016 121.402 16.112 120.81 16.112C120.212 16.112 119.674 16.016 119.194 15.824C118.719 15.6267 118.314 15.3467 117.978 14.984C117.642 14.6213 117.383 14.184 117.202 13.672C117.026 13.16 116.938 12.584 116.938 11.944C116.938 11.3093 117.026 10.736 117.202 10.224C117.383 9.70667 117.642 9.26667 117.978 8.904C118.314 8.54133 118.719 8.26133 119.194 8.064C119.674 7.86667 120.212 7.768 120.81 7.768ZM120.81 15C121.61 15 122.207 14.7333 122.602 14.2C122.996 13.6613 123.194 12.912 123.194 11.952C123.194 10.9867 122.996 10.2347 122.602 9.696C122.207 9.15733 121.61 8.888 120.81 8.888C120.404 8.888 120.05 8.95733 119.746 9.096C119.447 9.23467 119.196 9.43467 118.994 9.696C118.796 9.95733 118.647 10.28 118.546 10.664C118.45 11.0427 118.402 11.472 118.402 11.952C118.402 12.912 118.599 13.6613 118.994 14.2C119.394 14.7333 119.999 15 120.81 15ZM127.816 9.072C127.992 8.87467 128.178 8.696 128.376 8.536C128.573 8.376 128.781 8.24 129 8.128C129.224 8.01067 129.458 7.92267 129.704 7.864C129.954 7.8 130.224 7.768 130.512 7.768C130.954 7.768 131.344 7.84267 131.68 7.992C132.021 8.136 132.304 8.344 132.528 8.616C132.757 8.88267 132.93 9.20533 133.048 9.584C133.165 9.96267 133.224 10.3813 133.224 10.84V16H131.792V10.84C131.792 10.2267 131.65 9.752 131.368 9.416C131.09 9.07467 130.666 8.904 130.096 8.904C129.674 8.904 129.28 9.00533 128.912 9.208C128.549 9.41067 128.213 9.68533 127.904 10.032V16H126.472V7.896H127.328C127.53 7.896 127.656 7.99467 127.704 8.192L127.816 9.072ZM140.818 11.064C140.818 10.7333 140.77 10.432 140.674 10.16C140.583 9.88267 140.447 9.64533 140.266 9.448C140.09 9.24533 139.874 9.09067 139.618 8.984C139.362 8.872 139.071 8.816 138.746 8.816C138.063 8.816 137.522 9.016 137.122 9.416C136.727 9.81067 136.482 10.36 136.386 11.064H140.818ZM141.97 14.864C141.794 15.0773 141.583 15.264 141.338 15.424C141.092 15.5787 140.828 15.7067 140.546 15.808C140.268 15.9093 139.98 15.984 139.682 16.032C139.383 16.0853 139.087 16.112 138.794 16.112C138.234 16.112 137.716 16.0187 137.242 15.832C136.772 15.64 136.364 15.3627 136.018 15C135.676 14.632 135.41 14.1787 135.218 13.64C135.026 13.1013 134.93 12.4827 134.93 11.784C134.93 11.2187 135.015 10.6907 135.186 10.2C135.362 9.70933 135.612 9.28533 135.938 8.928C136.263 8.56533 136.66 8.28267 137.13 8.08C137.599 7.872 138.127 7.768 138.714 7.768C139.199 7.768 139.647 7.85067 140.058 8.016C140.474 8.176 140.831 8.41067 141.13 8.72C141.434 9.024 141.671 9.40267 141.842 9.856C142.012 10.304 142.098 10.816 142.098 11.392C142.098 11.616 142.074 11.7653 142.026 11.84C141.978 11.9147 141.887 11.952 141.754 11.952H136.338C136.354 12.464 136.423 12.9093 136.546 13.288C136.674 13.6667 136.85 13.984 137.074 14.24C137.298 14.4907 137.564 14.68 137.874 14.808C138.183 14.9307 138.53 14.992 138.914 14.992C139.271 14.992 139.578 14.952 139.834 14.872C140.095 14.7867 140.319 14.696 140.506 14.6C140.692 14.504 140.847 14.416 140.97 14.336C141.098 14.2507 141.207 14.208 141.298 14.208C141.415 14.208 141.506 14.2533 141.57 14.344L141.97 14.864Z"
      fill="#2594A2"
    />
    <path
      d="M17.7825 13.8897C15.495 11.7444 12.405 10.4231 9 10.4231C5.595 10.4231 2.505 11.7444 0.2175 13.8897C0.0825 14.0233 0 14.2089 0 14.4168C0 14.6246 0.0825 14.8102 0.2175 14.9438L2.0775 16.7847C2.2125 16.9183 2.4 17 2.61 17C2.8125 17 3 16.9183 3.135 16.7922C3.7275 16.2428 4.4025 15.7826 5.13 15.4189C5.3775 15.3001 5.55 15.0477 5.55 14.7508V12.4496C6.6375 12.0933 7.8 11.9077 9 11.9077C10.2 11.9077 11.3625 12.0933 12.45 12.4422V14.7434C12.45 15.0329 12.6225 15.2927 12.87 15.4115C13.605 15.7752 14.2725 16.2428 14.865 16.7847C15 16.9183 15.1875 16.9926 15.39 16.9926C15.6 16.9926 15.7875 16.9109 15.9225 16.7773L17.7825 14.9364C17.9175 14.8028 18 14.6172 18 14.4093C18 14.2089 17.9175 14.0233 17.7825 13.8897ZM15.87 6.16225L14.8125 5.11559L12.1425 7.75079L13.2 8.79746C13.2 8.79746 15.7875 6.18452 15.87 6.16225ZM9.75 3H8.25V6.71156H9.75V3ZM4.8 8.79746L5.8575 7.75079L3.195 5.10817L2.13 6.16225C2.2125 6.18452 4.8 8.79746 4.8 8.79746Z"
      fill="#818181"
    />
  </svg>