 <svg
      width="40"
      height="30"
      viewBox="0 0 20 19"
      fill="none"
      xmlns="http://www.w3.org/2000/svg"
    >
      <path
        d="M6.49437 0.560524L13.6288 7.70886L16.7929 7.70886C17.3024 7.70991 17.8055 7.82262 18.2669 8.03908L18.5729 8.20175C18.7713 8.29366 18.9396 8.44014 19.0582 8.62415C19.1768 8.80816 19.2407 9.02212 19.2426 9.24113C19.2445 9.46014 19.1843 9.67519 19.0689 9.86123C18.9536 10.0473 18.7878 10.1967 18.591 10.292L18.2488 10.4714C17.7926 10.6828 17.2962 10.7926 16.7936 10.7933H13.6295L6.49576 17.9388C6.31761 18.1182 6.10571 18.2605 5.87231 18.3573C5.63892 18.4541 5.38867 18.5036 5.13605 18.5029H4.23423C4.16515 18.503 4.09734 18.4844 4.03791 18.4491C3.97848 18.4138 3.92963 18.3632 3.89648 18.3025C3.86333 18.2418 3.8471 18.1733 3.84951 18.1041C3.85192 18.035 3.87286 17.9677 3.91015 17.9095L8.55867 10.6439C7.3941 10.5741 6.42189 10.4749 5.2392 10.3562L4.02724 10.2334L2.24658 12.9324C2.21136 12.9857 2.16352 13.0293 2.10733 13.0595C2.05115 13.0898 1.98837 13.1056 1.9246 13.1055H1.15798C1.1004 13.1055 1.04356 13.0926 0.991632 13.0676C0.939705 13.0427 0.894012 13.0065 0.857914 12.9615C0.821814 12.9166 0.796223 12.8641 0.783024 12.808C0.769823 12.7518 0.76935 12.6934 0.781635 12.6371L1.53362 9.25107L0.781635 5.86505C0.769028 5.80875 0.769247 5.75033 0.782278 5.69412C0.795309 5.63792 0.820816 5.58538 0.856905 5.54041C0.893297 5.49557 0.939194 5.4594 0.991268 5.43453C1.04334 5.40965 1.10029 5.39669 1.15798 5.39659H1.9246C1.98831 5.39638 2.05106 5.4121 2.10717 5.44233C2.16327 5.47257 2.21096 5.51636 2.24589 5.56973L4.02375 8.26877L5.2399 8.1459C6.42468 8.02722 7.39271 7.93017 8.55728 7.85826L3.91015 0.593336C3.8729 0.535143 3.85195 0.467979 3.84952 0.398888C3.84708 0.329796 3.86324 0.26132 3.89631 0.200638C3.92938 0.139956 3.97813 0.0893021 4.03746 0.0539856C4.09679 0.018671 4.16452 -7.62939e-06 4.23353 -8.96454e-05H5.13605C5.38821 -0.0012207 5.6381 0.0477428 5.87125 0.14397C6.1044 0.240198 6.31619 0.381779 6.49437 0.560524Z"
        fill="#BDBFCD"
      />
    </svg>