<svg width="16" height="12" viewBox="0 0 16 12" fill="none" xmlns="http://www.w3.org/2000/svg">
<path d="M13.9918 0.0150757H2.00879C1.61218 0.0169266 1.23244 0.175779 0.952651 0.456883C0.672859 0.737987 0.515785 1.11846 0.515789 1.51508L0.508789 10.4831C0.508789 10.8809 0.666824 11.2624 0.948129 11.5437C1.22943 11.825 1.61096 11.9831 2.00879 11.9831H13.9918C14.3896 11.9831 14.7711 11.825 15.0525 11.5437C15.3338 11.2624 15.4918 10.8809 15.4918 10.4831V1.51508C15.4918 1.11725 15.3338 0.73572 15.0525 0.454415C14.7711 0.173111 14.3896 0.0150757 13.9918 0.0150757ZM13.9918 3.00608L7.99979 6.74408L2.00879 3.00608V1.51508L7.99979 5.24908L13.9918 1.51508V3.00608Z" fill="#4D4D4D"/>
</svg>
