<svg width="290" height="294" viewBox="0 0 290 294" fill="none" xmlns="http://www.w3.org/2000/svg">
<path opacity="0.152" d="M167.767 282.744C165.527 285.017 165.705 291.325 169.686 292.997H171.075C173.343 287.725 166.859 287.001 167.767 282.743V282.744ZM144.994 225.157C147.379 215.69 154.252 207.788 164.104 203.65C165.459 203.083 166.845 202.597 168.255 202.194C165.367 201.727 162.672 200.428 160.49 198.452C156.257 195.222 150.514 197.017 149.45 199.458C147.907 194.666 153.973 192.391 157.875 194.973C156.889 193.06 156.35 190.942 156.301 188.784C156.307 186.255 154.173 184.187 152.78 184.291C153.04 184.012 153.37 183.808 153.734 183.702C154.098 183.595 154.484 183.589 154.851 183.684C155.721 183.876 156.511 184.34 157.108 185.009C157.449 184.624 157.889 184.342 158.379 184.196C158.869 184.049 159.389 184.045 159.882 184.182C160.256 184.237 160.605 184.408 160.88 184.671C161.156 184.934 161.344 185.278 161.42 185.654C160.643 184.974 157.692 185.515 157.692 188.587C157.718 191.169 158.523 193.682 159.999 195.787C162.365 199.053 166.319 200.892 171.484 201.142C171.889 201.161 173.579 201.04 174.027 200.979C183.977 199.627 195.873 201.707 207.222 210.088C198.956 198.585 196.905 186.521 198.236 176.43C198.297 175.983 198.417 174.263 198.398 173.852C198.151 168.616 196.339 164.608 193.117 162.208C191.041 160.711 188.563 159.894 186.015 159.868C182.984 159.868 182.45 162.861 183.123 163.649C182.752 163.572 182.414 163.381 182.154 163.101C181.895 162.822 181.727 162.468 181.673 162.088C181.537 161.589 181.541 161.061 181.685 160.565C181.829 160.068 182.107 159.622 182.488 159.277C181.826 158.672 181.368 157.871 181.18 156.988C181.086 156.616 181.092 156.224 181.197 155.855C181.302 155.486 181.503 155.152 181.779 154.888C181.679 156.304 183.717 158.466 186.209 158.46C188.337 158.51 190.425 159.056 192.312 160.055C189.765 156.1 192.013 149.947 196.735 151.512C194.328 152.589 192.557 158.415 195.745 162.707C197.693 164.918 198.974 167.65 199.436 170.578C199.834 169.149 200.313 167.744 200.871 166.371C204.952 156.382 212.742 149.412 222.084 146.997C212.746 144.579 204.952 137.611 200.871 127.621C200.312 126.248 199.833 124.843 199.436 123.414C198.973 126.341 197.692 129.073 195.745 131.285C192.552 135.576 194.328 141.399 196.735 142.479C192.01 144.044 189.764 137.892 192.312 133.935C190.425 134.935 188.336 135.481 186.208 135.531C183.714 135.525 181.675 137.69 181.778 139.103C181.502 138.839 181.301 138.505 181.196 138.136C181.091 137.766 181.085 137.375 181.179 137.003C181.368 136.121 181.825 135.32 182.486 134.715C182.105 134.37 181.827 133.924 181.683 133.427C181.539 132.93 181.535 132.402 181.671 131.902C181.725 131.523 181.893 131.169 182.152 130.89C182.412 130.61 182.75 130.419 183.121 130.342C182.451 131.13 182.984 134.123 186.013 134.123C188.56 134.096 191.038 133.28 193.114 131.783C196.336 129.383 198.149 125.376 198.395 120.139C198.415 119.728 198.295 118.009 198.235 117.561C196.902 107.471 198.954 95.4103 207.219 83.9034C195.873 92.285 183.976 94.3645 174.024 93.0122C173.581 92.9526 171.886 92.8312 171.481 92.8494C166.317 93.1002 162.362 94.938 159.996 98.2039C158.52 100.309 157.715 102.821 157.689 105.403C157.689 108.479 160.641 109.02 161.418 108.336C161.341 108.712 161.152 109.054 160.877 109.317C160.602 109.58 160.254 109.751 159.88 109.806C159.387 109.944 158.866 109.939 158.376 109.793C157.886 109.647 157.446 109.365 157.105 108.979C156.509 109.649 155.719 110.113 154.848 110.304C154.481 110.399 154.095 110.393 153.731 110.286C153.367 110.18 153.038 109.976 152.778 109.697C154.17 109.798 156.305 107.73 156.299 105.205C156.348 103.047 156.886 100.929 157.872 99.0161C153.971 101.598 147.905 99.3195 149.447 94.5294C150.509 96.9709 156.255 98.7682 160.487 95.5408C162.669 93.5657 165.364 92.2669 168.252 91.7985C166.842 91.3951 165.456 90.9092 164.101 90.3431C154.249 86.2054 147.377 78.3072 144.992 68.8352C142.608 78.3021 135.736 86.2054 125.883 90.3431C124.528 90.909 123.143 91.395 121.733 91.7985C124.621 92.2669 127.316 93.5658 129.497 95.5408C133.729 98.7774 139.473 96.976 140.537 94.5294C142.079 99.3215 136.013 101.598 132.112 99.0161C133.101 100.932 133.641 103.053 133.69 105.214C133.685 107.743 135.82 109.81 137.213 109.706C136.953 109.985 136.623 110.189 136.259 110.295C135.895 110.402 135.509 110.408 135.142 110.313C134.272 110.122 133.482 109.658 132.886 108.988C132.545 109.374 132.105 109.656 131.614 109.802C131.124 109.948 130.603 109.953 130.111 109.815C129.736 109.76 129.388 109.589 129.113 109.326C128.837 109.063 128.649 108.721 128.572 108.345C129.35 109.024 132.301 108.483 132.301 105.412C132.275 102.83 131.47 100.317 129.994 98.213C127.628 94.9471 123.673 93.1093 118.509 92.8585C118.103 92.8403 116.408 92.9596 115.967 93.0213C106.015 94.3736 94.1207 92.2941 82.7705 83.9125C91.0363 95.4174 93.0883 107.479 91.7555 117.57C91.6957 118.018 91.576 119.737 91.5949 120.148C91.8413 125.385 93.6549 129.392 96.876 131.792C98.9513 133.289 101.429 134.105 103.976 134.132C107.009 134.132 107.542 131.139 106.868 130.351C107.239 130.428 107.578 130.619 107.837 130.899C108.097 131.178 108.265 131.532 108.319 131.912C108.454 132.411 108.45 132.939 108.306 133.436C108.161 133.933 107.883 134.379 107.502 134.724C108.164 135.329 108.622 136.129 108.81 137.012C108.904 137.384 108.899 137.776 108.793 138.145C108.688 138.514 108.487 138.848 108.211 139.112C108.311 137.696 106.273 135.535 103.781 135.541C101.653 135.49 99.5648 134.944 97.678 133.945C100.225 137.901 97.9773 144.053 93.2539 142.488C95.661 141.411 97.4336 135.585 94.2444 131.294C92.2974 129.081 91.0174 126.348 90.5565 123.42C90.158 124.849 89.6787 126.254 89.121 127.627C85.04 137.617 77.2451 144.585 67.908 147.003C77.2451 149.418 85.04 156.388 89.121 166.377C89.6788 167.75 90.1581 169.154 90.5565 170.582C91.0184 167.655 92.2994 164.923 94.2474 162.711C97.4396 158.419 95.6639 152.597 93.2568 151.516C97.9823 149.951 100.228 156.104 97.681 160.06C99.5676 159.06 101.656 158.514 103.784 158.464C106.278 158.47 108.318 156.305 108.214 154.892C108.49 155.156 108.691 155.49 108.796 155.859C108.901 156.228 108.907 156.62 108.813 156.992C108.625 157.875 108.168 158.676 107.505 159.281C107.886 159.626 108.164 160.072 108.309 160.569C108.453 161.065 108.458 161.593 108.322 162.092C108.268 162.472 108.1 162.826 107.84 163.105C107.581 163.385 107.242 163.576 106.871 163.653C107.541 162.865 107.008 159.872 103.979 159.872C101.432 159.899 98.9543 160.715 96.879 162.212C93.6579 164.612 91.8443 168.62 91.5979 173.856C91.579 174.267 91.6977 175.987 91.7585 176.434C93.0913 186.525 91.0393 198.585 82.7735 210.092C94.1197 201.711 106.017 199.631 115.97 200.983C116.411 201.043 118.106 201.165 118.512 201.146C123.676 200.896 127.631 199.057 129.997 195.791C131.473 193.686 132.278 191.173 132.304 188.591C132.304 185.517 129.353 184.976 128.575 185.658C128.651 185.282 128.839 184.939 129.115 184.675C129.39 184.412 129.739 184.241 130.113 184.186C130.606 184.049 131.127 184.053 131.617 184.2C132.107 184.346 132.548 184.627 132.889 185.013C133.486 184.343 134.275 183.88 135.145 183.688C135.512 183.593 135.898 183.599 136.262 183.706C136.626 183.812 136.956 184.016 137.216 184.295C135.82 184.194 133.688 186.261 133.693 188.788C133.644 190.946 133.106 193.064 132.121 194.977C136.022 192.395 142.088 194.673 140.546 199.463C139.484 197.021 133.738 195.226 129.506 198.456C127.325 200.432 124.63 201.73 121.742 202.198C123.152 202.602 124.537 203.088 125.892 203.654C135.746 207.789 142.614 215.691 144.998 225.158L144.994 225.157ZM179.365 271.593C177.827 271.93 176.265 272.137 174.693 272.21C177.842 273.722 179.848 276.34 176.621 278.757C176.621 277.147 174.933 272.746 169.262 271.922C163.913 271.088 158.948 268.6 155.046 264.798C155.507 266.389 155.624 268.062 155.391 269.703C155.102 271.546 156.398 274.678 157.778 274.907C157.46 275.117 157.093 275.237 156.714 275.255C156.335 275.273 155.958 275.187 155.623 275.008C154.821 274.615 154.161 273.976 153.737 273.181C153.315 273.476 152.821 273.646 152.31 273.671C151.799 273.696 151.291 273.575 150.844 273.323C150.493 273.18 150.193 272.932 149.987 272.611C149.78 272.29 149.676 271.912 149.69 271.528C150.288 272.378 153.543 272.379 154.005 269.53C154.242 267.963 154.144 266.364 153.717 264.839C153.291 263.314 152.546 261.9 151.534 260.693C148.142 255.67 145.907 249.939 144.994 243.923C144.081 249.939 141.847 255.67 138.455 260.693C137.443 261.901 136.698 263.314 136.272 264.839C135.846 266.364 135.747 267.963 135.984 269.53C136.445 272.379 139.699 272.378 140.299 271.528C140.312 271.912 140.208 272.289 140.002 272.611C139.795 272.932 139.496 273.18 139.145 273.323C138.698 273.575 138.19 273.696 137.679 273.671C137.168 273.646 136.674 273.476 136.252 273.181C135.828 273.975 135.168 274.614 134.366 275.008C134.031 275.187 133.654 275.273 133.275 275.255C132.896 275.237 132.529 275.117 132.211 274.907C133.591 274.678 134.886 271.546 134.598 269.703C134.363 268.062 134.481 266.389 134.943 264.798C131.04 268.6 126.076 271.088 120.727 271.922V271.922C115.056 272.746 113.369 277.147 113.369 278.757C110.143 276.34 112.148 273.722 115.297 272.21C113.725 272.137 112.162 271.93 110.624 271.593C105.768 270.592 100.727 271.077 96.1428 272.986C95.8984 277.746 89.1599 276.716 88.2162 281.935C87.2875 274.608 95.9143 269.905 105.093 269.752C96.6625 265.95 90.0577 257.951 90.0577 246.808C90.0577 238.837 84.5253 237.586 82.0164 238.394C84.3217 234.422 89.2846 236.675 90.6323 240.666C90.9741 238.694 91.5865 236.78 92.4518 234.98C93.8344 232.294 93.4893 229.889 92.4029 229.159C92.7778 229.1 93.1615 229.144 93.514 229.286C93.8664 229.428 94.1748 229.664 94.407 229.968C94.9805 230.66 95.3246 231.517 95.3906 232.419C95.8931 232.324 96.4117 232.374 96.8877 232.563C97.3637 232.752 97.7781 233.072 98.084 233.487C98.3468 233.763 98.5194 234.114 98.5781 234.493C98.6369 234.872 98.5789 235.26 98.4122 235.604C98.2127 234.6 94.8539 233.643 93.7586 235.516C92.362 237.9 91.4642 242.341 91.4642 246.814C91.4642 261.851 104.226 270.837 116.565 270.837C120.184 270.852 123.764 270.072 127.058 268.551C130.352 267.03 133.282 264.804 135.646 262.025C137.714 259.589 139.403 256.847 140.654 253.893C135.547 258.421 128.737 256.271 130.322 251.224C131.402 253.658 140.106 255.096 142.317 249.324C143.852 243.904 144.597 238.285 144.529 232.646C144.529 220.35 137.361 209.999 125.354 204.957C123.395 204.138 121.37 203.49 119.303 203.019C123.8 205.256 126.3 213.93 120.241 215.935C122.896 210.324 119.934 203.019 114.965 202.28C103.922 201.013 90.5245 204.111 78.2905 215.666C78.1249 215.488 77.4396 214.808 77.27 214.632C88.6671 202.228 91.7226 188.644 90.4717 177.448C89.7455 172.41 82.5401 169.405 77.0047 172.098C78.9808 165.954 87.5359 168.489 89.7435 173.049C89.2781 170.953 88.6388 168.901 87.8321 166.914C82.8583 154.74 72.6494 147.472 60.5221 147.472C54.9596 147.404 49.4171 148.16 44.0704 149.717C38.3774 151.959 39.7979 160.783 42.197 161.877C37.2192 163.484 35.0984 156.579 39.5655 151.404C36.6527 152.67 33.9485 154.382 31.5471 156.479C28.8062 158.877 26.6104 161.848 25.111 165.189C23.6115 168.53 22.8441 172.16 22.8614 175.831C22.8614 188.341 31.7237 201.281 46.5553 201.281C50.9665 201.281 55.3478 200.371 57.698 198.955C59.5465 197.842 58.6018 194.44 57.6112 194.236C57.9508 194.067 58.3334 194.008 58.707 194.068C59.0806 194.127 59.427 194.302 59.6991 194.568C60.1087 194.878 60.4247 195.298 60.6112 195.781C60.7977 196.264 60.8473 196.789 60.7545 197.299C61.6432 197.366 62.4884 197.715 63.1706 198.296C63.4706 198.532 63.7029 198.845 63.8433 199.202C63.9836 199.56 64.0269 199.949 63.9686 200.329C63.2484 199.227 60.8762 198.877 58.2277 200.279C56.4511 201.153 54.5628 201.771 52.6175 202.115C56.5498 203.482 58.7754 208.513 54.857 210.849C55.655 208.306 54.4191 202.698 46.5593 202.698C35.5683 202.698 27.6796 196.006 23.9288 187.463C23.7792 196.768 19.1405 205.516 11.9142 204.574C17.0606 203.614 16.0461 196.786 20.7396 196.538C22.625 191.885 23.1032 186.77 22.1132 181.842C21.7806 180.283 21.5764 178.698 21.5027 177.105C20.0124 180.297 17.4307 182.329 15.0466 179.06C16.6347 179.06 20.976 177.349 21.789 171.6C22.6112 166.177 25.0641 161.144 28.8128 157.187C27.2445 157.654 25.5953 157.773 23.9777 157.535C22.1601 157.242 19.0707 158.558 18.8443 159.954C18.6369 159.633 18.5183 159.261 18.5007 158.877C18.4832 158.493 18.5674 158.111 18.7445 157.772C19.131 156.957 19.7611 156.287 20.5451 155.857C20.2545 155.431 20.0873 154.931 20.0625 154.414C20.0376 153.897 20.1561 153.383 20.4044 152.93C20.5446 152.574 20.7898 152.27 21.1065 152.06C21.4232 151.85 21.796 151.745 22.1741 151.758C21.3371 152.365 21.3351 155.666 24.1463 156.134C25.6912 156.374 27.269 156.275 28.7727 155.842C30.2765 155.41 31.671 154.655 32.8619 153.629C37.8158 150.19 43.4691 147.924 49.4033 147C43.469 146.074 37.8158 143.808 32.8619 140.368C31.671 139.342 30.2765 138.587 28.7727 138.155C27.269 137.722 25.6912 137.623 24.1463 137.863C21.3351 138.331 21.3371 141.63 22.1741 142.238C21.7962 142.252 21.4234 142.146 21.1067 141.937C20.7899 141.728 20.5447 141.424 20.4044 141.068C20.155 140.615 20.0359 140.1 20.0608 139.581C20.0857 139.063 20.2534 138.562 20.5451 138.135C19.7614 137.705 19.1314 137.036 18.7445 136.222C18.5674 135.882 18.4832 135.5 18.5008 135.116C18.5183 134.732 18.6369 134.36 18.8443 134.038C19.0707 135.435 22.1601 136.749 23.9777 136.457C25.5955 136.22 27.2447 136.339 28.8128 136.807C25.0642 132.849 22.6114 127.815 21.789 122.392V122.392C20.975 116.643 16.6337 114.931 15.0456 114.931C17.4297 111.662 20.0114 113.695 21.5017 116.887C21.5753 115.293 21.7795 113.709 22.1122 112.149C23.1022 107.221 22.624 102.106 20.7386 97.4544C16.0501 97.2056 17.0596 90.3745 11.9132 89.4176C19.1385 88.476 23.7782 97.2238 23.9278 106.53C27.6786 97.9864 35.5673 91.2948 46.5583 91.2948C54.4181 91.2948 55.653 85.6845 54.856 83.1428C58.7744 85.4792 56.5518 90.511 52.6165 91.8774C54.5619 92.2209 56.4503 92.8388 58.2267 93.7132C60.8742 95.114 63.2474 94.765 63.9676 93.6636C64.0258 94.0438 63.9825 94.4329 63.8421 94.7904C63.7018 95.148 63.4696 95.4608 63.1696 95.6966C62.4867 96.2764 61.6417 96.6245 60.7535 96.6918C60.8465 97.2015 60.7969 97.7274 60.6103 98.21C60.4238 98.6926 60.1078 99.1127 59.6981 99.4226C59.4262 99.6892 59.0797 99.8641 58.7059 99.9235C58.3322 99.9829 57.9496 99.9238 57.6102 99.7544C58.6008 99.5521 59.5455 96.1477 57.697 95.0361C55.3468 93.6201 50.9655 92.7098 46.5543 92.7098C31.7227 92.7098 22.8604 105.65 22.8604 118.16C22.8432 121.831 23.6107 125.461 25.1102 128.802C26.6096 132.143 28.8053 135.114 31.5461 137.512C33.948 139.608 36.6521 141.32 39.5645 142.587C35.0974 137.411 37.2182 130.507 42.196 132.114C39.7969 133.208 38.3764 142.031 44.0694 144.273C49.4157 145.831 54.9579 146.587 60.5201 146.518C72.6474 146.518 82.8563 139.249 87.8301 127.076C88.6363 125.089 89.2757 123.037 89.7415 120.942C87.5339 125.501 78.9788 128.035 77.0027 121.891C82.5361 124.584 89.7415 121.582 90.4697 116.542C91.7206 105.345 88.6651 91.7621 77.268 79.358C77.4376 79.181 78.1229 78.5013 78.2885 78.3233C90.5245 89.8849 103.924 92.9839 114.965 91.7166C119.934 90.9793 122.896 83.6738 120.241 78.0624C126.3 80.067 123.8 88.74 119.303 90.9783C121.37 90.507 123.395 89.8587 125.354 89.0404C137.361 83.9984 144.524 73.6465 144.524 61.3506C144.592 55.7119 143.847 50.0933 142.312 44.6733C140.101 38.9001 131.397 40.3403 130.317 42.7738C128.732 37.7258 135.542 35.5755 140.649 40.1057C139.399 37.1526 137.71 34.4106 135.643 31.9748C133.277 29.1961 130.346 26.9701 127.051 25.4498C123.756 23.9296 120.175 23.1512 116.555 23.1684C104.223 23.1684 91.4543 32.1549 91.4543 47.1907C91.4543 51.6642 92.3521 56.1064 93.7486 58.4893C94.8459 60.3635 98.2007 59.4057 98.4022 58.4013C98.569 58.7457 98.627 59.1339 98.5683 59.5129C98.5095 59.8919 98.337 60.2433 98.074 60.5192C97.7682 60.9345 97.3538 61.2547 96.8779 61.4436C96.4019 61.6325 95.8832 61.6827 95.3806 61.5883C95.3143 62.4893 94.9702 63.3462 94.397 64.038C94.1645 64.3415 93.8559 64.5763 93.5034 64.7177C93.1509 64.8591 92.7674 64.9021 92.393 64.8421C93.4793 64.1128 93.8245 61.7067 92.4418 59.0223C91.5793 57.2209 90.9698 55.3059 90.6313 53.3331C89.2836 57.3211 84.3208 59.5776 82.0154 55.6047C84.5243 56.4139 90.0567 55.1617 90.0567 47.1907C90.0567 36.0478 96.6565 28.0495 105.082 24.2466C95.9044 24.0948 87.2765 19.3917 88.2052 12.065C89.1519 17.2839 95.8864 16.2543 96.1318 21.013C100.72 22.924 105.765 23.4088 110.625 22.4058C112.163 22.0682 113.726 21.8615 115.298 21.7878C112.149 20.2707 110.144 17.6592 113.37 15.2408C113.37 16.851 115.057 21.2517 120.728 22.0771C126.078 22.9104 131.045 25.3994 134.948 29.2035C134.487 27.613 134.371 25.9406 134.605 24.3002C134.894 22.4574 133.599 19.325 132.219 19.0954C132.537 18.885 132.904 18.7646 133.283 18.7468C133.662 18.729 134.039 18.8145 134.374 18.9942C135.176 19.3868 135.836 20.0256 136.26 20.8199C136.681 20.5246 137.176 20.3548 137.687 20.3296C138.198 20.3043 138.706 20.4248 139.153 20.6772C139.504 20.8197 139.803 21.0685 140.01 21.3896C140.216 21.7107 140.32 22.0885 140.306 22.4715C139.708 21.6229 136.453 21.6209 135.992 24.4701C135.755 26.0367 135.854 27.6366 136.28 29.1614C136.706 30.6862 137.451 32.1003 138.463 33.3079C141.855 38.3306 144.089 44.062 145.002 50.0783C145.915 44.0619 148.15 38.3306 151.542 33.3079C152.554 32.1003 153.299 30.6861 153.725 29.1613C154.151 27.6365 154.249 26.0366 154.012 24.4701C153.551 21.6209 150.297 21.6229 149.696 22.4715C149.684 22.0883 149.788 21.7105 149.995 21.3894C150.201 21.0683 150.501 20.8197 150.852 20.6772C151.299 20.4247 151.807 20.3042 152.318 20.3294C152.83 20.3546 153.324 20.5245 153.745 20.8199C154.169 20.0255 154.829 19.3868 155.632 18.9942C155.967 18.8144 156.344 18.729 156.722 18.7468C157.101 18.7646 157.468 18.8849 157.786 19.0954C156.395 19.325 155.098 22.4574 155.39 24.3002C155.624 25.9406 155.507 27.613 155.046 29.2035C158.948 25.402 163.913 22.9148 169.262 22.0821C174.933 21.2568 176.62 16.8561 176.62 15.2459C179.847 17.6642 177.841 20.2808 174.692 21.7928C176.264 21.8666 177.827 22.0733 179.365 22.4108C184.226 23.4139 189.271 22.9291 193.859 21.0181C194.104 16.2644 200.842 17.289 201.785 12.07C202.715 19.3958 194.086 24.0999 184.908 24.2516C193.334 28.0546 199.934 36.0529 199.934 47.1958C199.934 55.1668 205.466 56.4179 207.975 55.6098C205.67 59.5827 200.707 57.3292 199.358 53.3381C199.02 55.311 198.411 57.226 197.549 59.0274C196.166 61.7117 196.512 64.1179 197.598 64.8471C197.223 64.9072 196.84 64.8643 196.487 64.7229C196.134 64.5814 195.826 64.3467 195.593 64.043C195.02 63.3514 194.676 62.4943 194.61 61.5934C194.108 61.6874 193.589 61.6371 193.113 61.4482C192.637 61.2593 192.223 60.9393 191.917 60.5243C191.655 60.248 191.482 59.8966 191.424 59.5177C191.365 59.1388 191.423 58.7508 191.59 58.4064C191.789 59.4107 195.149 60.3685 196.243 58.4944C197.64 56.1115 198.538 51.6693 198.538 47.1958C198.538 32.1599 185.775 23.1734 173.436 23.1734C169.816 23.1564 166.235 23.9348 162.94 25.455C159.645 26.9753 156.714 29.2013 154.349 31.9799C152.282 34.4155 150.594 37.1575 149.344 40.1107C154.45 35.5806 161.259 37.7309 159.675 42.7789C158.595 40.3454 149.892 38.9051 147.681 44.6783C146.145 50.0982 145.4 55.7169 145.468 61.3557C145.468 73.6516 152.636 84.0035 164.644 89.0464C166.603 89.8646 168.627 90.5129 170.694 90.9843C166.196 88.7461 163.696 80.0731 169.756 78.0685C167.101 83.6788 170.063 90.9843 175.033 91.7227C186.076 92.99 199.473 89.891 211.705 78.3365C211.872 78.5145 212.558 79.1942 212.727 79.3712C201.331 91.7753 198.274 105.358 199.524 116.555C200.253 121.595 207.458 124.597 212.991 121.905C211.016 128.048 202.461 125.514 200.255 120.955C200.719 123.051 201.359 125.103 202.166 127.089C207.139 139.263 217.349 146.531 229.476 146.531C235.037 146.6 240.579 145.844 245.925 144.286C251.618 142.044 250.197 133.221 247.799 132.127C252.777 130.52 254.897 137.424 250.432 142.6C253.344 141.333 256.047 139.622 258.449 137.525C261.19 135.127 263.385 132.156 264.885 128.815C266.384 125.474 267.152 121.844 267.135 118.173C267.135 105.663 258.272 92.723 243.442 92.723C239.029 92.723 234.648 93.6333 232.298 95.0492C230.449 96.1618 231.4 99.5642 232.386 99.7675C232.046 99.9371 231.663 99.9962 231.29 99.9368C230.916 99.8774 230.569 99.7025 230.297 99.4358C229.888 99.1255 229.572 98.7054 229.386 98.2228C229.199 97.7403 229.15 97.2145 229.242 96.7049C228.353 96.6376 227.506 96.2884 226.822 95.7067C226.522 95.4711 226.29 95.1582 226.15 94.8007C226.009 94.4431 225.966 94.054 226.024 93.6737C226.744 94.7751 229.117 95.1241 231.765 93.7233C233.542 92.8485 235.43 92.2305 237.376 91.8875C233.441 90.5211 231.218 85.4893 235.135 83.1529C234.337 85.6946 235.573 91.305 243.434 91.305C254.424 91.305 262.313 97.9965 266.062 106.54C266.214 97.2349 270.85 88.4861 278.078 89.4278C272.931 90.3866 273.947 97.2157 269.252 97.4645C267.367 102.116 266.889 107.231 267.879 112.159C268.212 113.719 268.416 115.303 268.488 116.897C269.985 113.705 272.561 111.672 274.945 114.941C273.358 114.941 269.016 116.653 268.204 122.402H268.199C267.378 127.826 264.925 132.86 261.175 136.817C262.743 136.349 264.393 136.23 266.01 136.467C267.829 136.759 270.918 135.446 271.144 134.048C271.351 134.37 271.47 134.742 271.488 135.126C271.505 135.51 271.421 135.892 271.244 136.232C270.856 137.046 270.226 137.715 269.442 138.145C269.733 138.572 269.901 139.073 269.926 139.591C269.951 140.109 269.832 140.625 269.584 141.078C269.443 141.434 269.198 141.738 268.881 141.947C268.564 142.157 268.191 142.262 267.813 142.248C268.65 141.641 268.652 138.341 265.842 137.873C264.297 137.633 262.719 137.732 261.215 138.165C259.712 138.597 258.317 139.352 257.126 140.378C252.172 143.818 246.519 146.084 240.585 147.01C246.519 147.935 252.172 150.2 257.126 153.639C258.317 154.665 259.712 155.42 261.216 155.853C262.72 156.285 264.298 156.384 265.843 156.144C268.652 155.676 268.65 152.377 267.813 151.768C268.191 151.755 268.564 151.86 268.881 152.07C269.198 152.28 269.443 152.584 269.584 152.94C269.831 153.393 269.949 153.907 269.925 154.424C269.9 154.941 269.733 155.441 269.443 155.867C270.227 156.298 270.857 156.968 271.245 157.782C271.422 158.121 271.506 158.503 271.488 158.887C271.471 159.271 271.352 159.643 271.145 159.964C270.918 158.568 267.829 157.252 266.011 157.545C264.393 157.783 262.744 157.664 261.175 157.197C264.925 161.154 267.378 166.187 268.2 171.61C269.013 177.359 273.354 179.07 274.941 179.07C272.557 182.339 269.976 180.307 268.485 177.115C268.412 178.708 268.208 180.293 267.876 181.852C266.885 186.78 267.363 191.896 269.249 196.548C273.944 196.796 272.927 203.628 278.074 204.584C270.848 205.526 266.211 196.779 266.058 187.473C262.31 196.016 254.42 202.708 243.43 202.708C235.569 202.708 234.335 208.317 235.131 210.859C231.215 208.523 233.435 203.492 237.373 202.125C235.427 201.781 233.538 201.163 231.761 200.289C229.112 198.887 226.741 199.237 226.02 200.339C225.962 199.959 226.005 199.57 226.146 199.213C226.286 198.855 226.518 198.542 226.818 198.306C227.501 197.725 228.346 197.376 229.235 197.309C229.142 196.8 229.192 196.274 229.378 195.791C229.564 195.309 229.88 194.889 230.289 194.578C230.561 194.312 230.908 194.137 231.282 194.078C231.655 194.018 232.038 194.077 232.378 194.246C231.387 194.448 230.442 197.854 232.29 198.965C234.641 200.381 239.022 201.291 243.434 201.291C258.264 201.291 267.127 188.351 267.127 175.841C267.144 172.171 266.376 168.54 264.877 165.199C263.378 161.859 261.182 158.887 258.442 156.489C256.041 154.392 253.336 152.68 250.424 151.414C254.889 156.589 252.769 163.494 247.791 161.887C250.185 160.793 251.61 151.969 245.918 149.727C240.572 148.17 235.03 147.415 229.468 147.483C217.342 147.483 207.131 154.752 202.159 166.925C201.351 168.911 200.711 170.964 200.247 173.06C202.453 168.5 211.008 165.965 212.984 172.11C207.452 169.416 200.247 172.421 199.517 177.459C198.266 188.655 201.323 202.239 212.72 214.643C212.55 214.819 211.864 215.499 211.698 215.677C199.464 204.122 186.068 201.024 175.026 202.292C170.056 203.029 167.093 210.334 169.749 215.946C163.689 213.941 166.189 205.267 170.686 203.03C168.619 203.501 166.595 204.15 164.636 204.968C152.628 210.01 145.46 220.362 145.46 232.657C145.392 238.296 146.137 243.915 147.673 249.335C149.885 255.107 158.587 253.669 159.667 251.235C161.252 256.282 154.443 258.433 149.336 253.904C150.587 256.857 152.274 259.598 154.341 262.034C156.707 264.812 159.638 267.038 162.933 268.558C166.228 270.078 169.808 270.856 173.428 270.84C185.767 270.84 198.53 261.854 198.53 246.817C198.53 242.344 197.632 237.903 196.235 235.519C195.138 233.646 191.782 234.609 191.581 235.607C191.415 235.262 191.357 234.875 191.416 234.496C191.474 234.117 191.647 233.766 191.909 233.49C192.215 233.075 192.63 232.755 193.105 232.566C193.581 232.378 194.1 232.328 194.602 232.422C194.668 231.52 195.011 230.663 195.585 229.971C195.817 229.667 196.125 229.431 196.478 229.289C196.83 229.146 197.214 229.103 197.589 229.162C196.503 229.892 196.158 232.297 197.541 234.983C198.403 236.784 199.011 238.699 199.349 240.671C200.698 236.683 205.661 234.427 207.966 238.399C205.458 237.59 199.925 238.842 199.925 246.813C199.925 257.956 193.325 265.956 184.899 269.757C194.077 269.91 202.706 274.612 201.777 281.94C200.83 276.721 194.096 277.751 193.85 272.991C189.265 271.08 184.223 270.593 179.365 271.593ZM118.913 292.997H120.302C124.283 291.325 124.461 285.017 122.221 282.744C123.134 287.002 116.649 287.726 118.918 292.998L118.913 292.997ZM288.991 173.447V172.038C287.343 168 281.12 167.821 278.88 170.093C283.085 169.168 283.797 175.743 288.996 173.444L288.991 173.447ZM88.309 214.971C89.6826 219.529 95.9732 216.877 98.1359 221.71C96.4919 213.069 88.2032 212.448 80.9161 214.212C80.577 214.817 80.1525 215.368 79.6562 215.848C79.9367 215.659 80.2543 215.534 80.587 215.482C80.9197 215.429 81.2597 215.451 81.5835 215.544C83.7875 215.033 86.0517 214.84 88.309 214.971V214.971ZM218.683 194.514C210.162 196.179 209.55 204.584 211.289 211.973C211.886 212.315 212.429 212.746 212.903 213.249C212.717 212.965 212.594 212.643 212.542 212.306C212.49 211.97 212.511 211.625 212.603 211.297C212.1 209.062 211.91 206.766 212.039 204.477C216.535 203.085 213.918 196.706 218.683 194.514V194.514ZM1.002 172.035V173.444C6.20025 175.743 6.9145 169.168 11.1142 170.09C8.8727 167.821 2.65195 167.997 1.002 172.035ZM78.7115 211.973C80.4502 204.589 79.8377 196.179 71.3156 194.514C76.0819 196.706 73.4664 203.085 77.9623 204.477C78.0909 206.766 77.9012 209.062 77.3987 211.297C77.4905 211.625 77.5113 211.97 77.4597 212.306C77.408 212.643 77.2851 212.965 77.0995 213.249C77.5709 212.746 78.1127 212.316 78.7075 211.973H78.7115ZM96.7982 282.71C92.2314 283.721 93.0144 289.486 97.8326 292.267C95.3697 292.259 91.4942 292.092 90.6961 291.963C82.177 290.547 75.0285 284.657 69.3285 276.308C65.7722 271.103 69.4083 262.047 74.036 263.84C68.0766 258.793 65.3074 266.02 65.7722 270.313C65.7164 270.202 65.6515 270.097 65.5947 269.986C58.7175 256.707 56.1678 240.381 65.1867 229.139C67.9269 226.044 77.1354 225.932 77.8736 228.678C78.5479 224.609 72.9935 222.824 69.8642 223.203C70.2363 220.03 68.4676 214.387 64.4515 215.07C67.1618 215.819 67.0511 225.156 63.9976 227.935C52.9107 237.078 36.8072 234.493 23.7103 227.52C23.6006 227.462 23.4978 227.397 23.3881 227.339C27.6177 227.812 34.7463 225.004 29.7725 218.962C31.5381 223.655 22.61 227.339 17.4746 223.735C9.2418 217.955 3.42705 210.709 2.03446 202.071C1.90378 201.262 1.7352 197.33 1.73021 194.835C4.47748 199.719 10.1556 200.513 11.1571 195.883C9.0363 197.43 1.7342 194.805 1.71525 188.287C1.71525 186.892 1.71525 185.898 1.70926 185.767H1.01097V204.102C2.9153 212.478 8.71309 219.476 17.1763 225.199C23.5048 231.617 24.3757 239.014 23.0799 243.798C22.627 245.552 21.7464 247.161 20.5192 248.479C18.5061 250.52 15.8636 248.597 15.8636 247.551C15.6327 247.855 15.4999 248.223 15.4831 248.607C15.4663 248.99 15.5664 249.369 15.7698 249.693C15.988 250.161 16.331 250.558 16.7601 250.839C17.1891 251.121 17.6871 251.274 18.1978 251.284C18.0859 252.18 18.2548 253.089 18.6807 253.882C18.8488 254.227 19.105 254.519 19.4226 254.729C19.7402 254.939 20.1075 255.059 20.4862 255.076C19.4996 254.074 20.2468 250.764 21.5426 249.438C22.9324 247.962 23.9251 246.149 24.4256 244.173C24.6059 243.503 24.7418 242.823 24.8326 242.136C26.279 246.715 32.6065 248.757 34.2724 243.938C31.9661 245.223 26.3259 243.112 24.8954 237.937C24.4982 234.198 23.1447 230.628 20.969 227.582C21.6933 228.003 22.4295 228.42 23.1826 228.826C33.9063 234.621 50.0099 238.706 62.2289 230.94C54.5707 243.33 58.5908 259.647 64.3058 270.521C64.7048 271.284 65.1142 272.031 65.5338 272.764C62.5302 270.557 59.0079 269.188 55.3188 268.794C50.2164 267.338 48.1365 261.62 49.3994 259.28C44.648 260.97 46.6621 267.386 51.18 268.852C50.5018 268.944 49.8303 269.081 49.1699 269.263C47.2205 269.771 45.4324 270.779 43.9766 272.188C42.6679 273.503 39.4029 274.259 38.4153 273.259C38.4322 273.643 38.5503 274.015 38.7573 274.337C38.9644 274.659 39.2527 274.918 39.5924 275.089C40.375 275.521 41.272 275.692 42.1561 275.578C42.1652 276.096 42.317 276.601 42.5943 277.036C42.8716 277.471 43.2633 277.819 43.7253 278.04C44.0448 278.246 44.4193 278.347 44.7975 278.329C45.1757 278.31 45.5391 278.174 45.8381 277.939C44.8076 277.939 42.9083 275.261 44.9223 273.22C46.2226 271.975 47.8105 271.083 49.54 270.623C54.2574 269.308 61.5536 270.192 67.884 276.609C73.5322 285.189 80.4313 291.072 88.691 293H106.775V292.292L104.289 292.286C97.8576 292.262 95.2689 284.86 96.7942 282.71H96.7982ZM191.865 221.71C194.029 216.877 200.317 219.529 201.691 214.971C203.949 214.84 206.213 215.032 208.418 215.543C208.741 215.45 209.081 215.428 209.414 215.481C209.746 215.533 210.063 215.658 210.344 215.847C209.848 215.366 209.424 214.815 209.085 214.211C201.794 212.448 193.504 213.069 191.861 221.71H191.865ZM288.299 185.758C288.299 185.889 288.299 186.882 288.293 188.278C288.274 194.796 280.974 197.42 278.853 195.874C279.85 200.504 285.53 199.71 288.278 194.826C288.27 197.321 288.104 201.252 287.979 202.062C286.582 210.699 280.771 217.946 272.537 223.726C267.403 227.33 258.472 223.646 260.241 218.953C255.263 224.995 262.39 227.803 266.62 227.33C266.511 227.388 266.406 227.453 266.298 227.511C253.201 234.484 237.098 237.069 226.009 227.926C222.958 225.147 222.847 215.81 225.556 215.061C221.542 214.378 219.77 220.017 220.145 223.194C217.015 222.815 211.46 224.599 212.134 228.668C212.872 225.922 222.082 226.039 224.822 229.13C233.841 240.372 231.29 256.698 224.414 269.977C224.357 270.088 224.294 270.192 224.236 270.304C224.703 266.015 221.932 258.788 215.974 263.831C220.601 262.041 224.236 271.094 220.68 276.299C214.981 284.648 207.832 290.541 199.313 291.954C198.515 292.088 194.639 292.258 192.175 292.258C196.994 289.472 197.778 283.716 193.21 282.701C194.736 284.851 192.147 292.253 185.72 292.273L183.233 292.279V292.987H201.316C209.578 291.056 216.479 285.176 222.124 276.596C228.453 270.179 235.75 269.296 240.468 270.61C242.197 271.069 243.785 271.962 245.085 273.206C247.1 275.247 245.2 277.926 244.17 277.926C244.469 278.161 244.832 278.297 245.21 278.315C245.588 278.333 245.962 278.233 246.282 278.027C246.744 277.806 247.136 277.458 247.414 277.023C247.691 276.588 247.843 276.083 247.853 275.565C248.736 275.679 249.633 275.508 250.415 275.076C250.754 274.905 251.043 274.646 251.25 274.324C251.457 274.002 251.575 273.63 251.592 273.246C250.604 274.246 247.339 273.488 246.032 272.175C244.576 270.765 242.788 269.758 240.838 269.25C240.178 269.068 239.506 268.931 238.828 268.839C243.345 267.373 245.361 260.957 240.608 259.267C241.875 261.606 239.793 267.325 234.688 268.774C231 269.178 227.479 270.55 224.473 272.755C224.89 272.021 225.3 271.273 225.702 270.512C231.416 259.638 235.436 243.321 227.779 230.931C239.998 238.697 256.101 234.612 266.824 228.817C267.578 228.413 268.315 227.994 269.038 227.573C266.861 230.618 265.511 234.188 265.121 237.928C263.687 243.102 258.046 245.21 255.744 243.929C257.41 248.748 263.737 246.706 265.184 242.126C265.273 242.814 265.406 243.494 265.583 244.163C266.085 246.14 267.078 247.953 268.468 249.429C269.765 250.755 270.512 254.065 269.524 255.067C269.903 255.049 270.27 254.93 270.588 254.72C270.905 254.51 271.162 254.218 271.33 253.873C271.756 253.08 271.925 252.171 271.812 251.275C272.323 251.266 272.821 251.112 273.25 250.831C273.679 250.55 274.022 250.152 274.24 249.684C274.444 249.36 274.544 248.981 274.527 248.598C274.51 248.214 274.377 247.846 274.146 247.542C274.146 248.587 271.505 250.511 269.491 248.47C268.264 247.152 267.383 245.542 266.93 243.789C265.633 239.005 266.506 231.608 272.835 225.19C281.297 219.462 287.1 212.468 289 204.093V185.762L288.299 185.758ZM122.226 11.2528C124.466 8.98114 124.288 2.67289 120.307 1H118.918C116.649 6.27255 123.134 6.99774 122.226 11.2528ZM171.079 1.00202H169.689C165.709 2.67492 165.53 8.98317 167.77 11.2548C166.862 6.99774 173.347 6.27255 171.079 1.00202ZM1.002 120.557V121.965C2.65195 126.002 8.8727 126.182 11.1142 123.909C6.9145 124.836 6.20025 118.261 1.002 120.557ZM71.3116 99.4854C79.8337 97.8205 80.4462 89.4146 78.7075 82.0262C78.1089 81.6841 77.5637 81.2539 77.0895 80.7497C77.2751 81.0344 77.398 81.3564 77.4496 81.6936C77.5013 82.0309 77.4805 82.3755 77.3887 82.7038C77.8913 84.9387 78.0811 87.2343 77.9524 89.5228C73.4624 90.9145 76.078 97.2926 71.3116 99.4854ZM1.70128 108.241C1.70128 108.111 1.70128 107.117 1.70727 105.721C1.72622 99.2052 9.02832 96.5795 11.1491 98.126C10.1516 93.4957 4.4655 94.2887 1.72223 99.1738C1.73021 96.6787 1.8958 92.7472 2.02648 91.9381C3.42306 83.3006 9.23382 76.0527 17.4666 70.2744C22.602 66.6697 31.5322 70.3533 29.7645 75.0463C34.7423 69.0041 27.6138 66.1964 23.3801 66.6697C23.4899 66.611 23.5926 66.5463 23.7023 66.4877C36.7992 59.5159 52.9028 56.9307 63.9896 66.075C67.0431 68.8534 67.1538 78.1898 64.4435 78.9383C68.4596 79.622 70.2293 73.9823 69.8562 70.8074C72.9855 71.1857 78.5399 69.4016 77.8656 65.3296C77.1274 68.0776 67.919 67.9653 65.1787 64.8694C56.1638 53.6314 58.7135 37.301 65.5907 24.023C65.6475 23.9108 65.7124 23.8066 65.7682 23.6953C65.3034 27.9838 68.0726 35.2114 74.032 30.1684C69.4043 31.9587 65.7682 22.9064 69.3245 17.7006C75.0245 9.34829 82.177 3.45371 90.6921 2.04075C91.4902 1.90826 95.3657 1.73733 97.8286 1.73733C93.0104 4.52279 92.2274 10.2798 96.7942 11.2953C95.2689 9.14398 97.8576 1.74137 104.286 1.72216C105.662 1.72216 106.642 1.72216 106.772 1.71609V1.00809H88.6841C80.4243 2.93789 73.5212 8.8183 67.8771 17.3932C61.5466 23.8096 54.2505 24.6926 49.533 23.3788C47.8034 22.9202 46.2154 22.0277 44.9153 20.7834C42.9013 18.7414 44.8006 16.0631 45.8311 16.0631C45.5315 15.8287 45.1678 15.6936 44.7897 15.6764C44.4116 15.6592 44.0374 15.7607 43.7183 15.967C43.2566 16.1885 42.865 16.5363 42.5878 16.9713C42.3105 17.4062 42.1586 17.9111 42.1491 18.4289C41.2651 18.3154 40.3682 18.4866 39.5854 18.9184C39.2457 19.089 38.9574 19.3488 38.7504 19.6708C38.5434 19.9928 38.4252 20.3651 38.4083 20.7491C39.3959 19.7477 42.6609 20.5063 43.9697 21.8191C45.4253 23.2286 47.2135 24.2354 49.1629 24.7432C49.8231 24.9257 50.4947 25.0632 51.173 25.1548C46.6551 26.6224 44.641 33.0368 49.3924 34.7279C48.1265 32.3885 50.2094 26.6699 55.3119 25.2206C59.0004 24.8178 62.5214 23.4459 65.5268 21.2406C65.1098 21.9742 64.7005 22.722 64.2988 23.4839C58.5838 34.3568 54.5637 50.674 62.2219 63.064C50.0029 55.2983 33.8994 59.3844 23.1756 65.1779C22.4225 65.5824 21.6863 66.0022 20.9621 66.4239C23.1392 63.3786 24.49 59.8074 24.8795 56.067C26.3149 50.8935 31.9551 48.7847 34.2615 50.0662C32.5955 45.2467 26.2681 47.2908 24.8216 51.8695C24.731 51.1818 24.595 50.5009 24.4146 49.8315C23.9137 47.8552 22.921 46.0423 21.5317 44.5661C20.2348 43.2411 19.4887 39.9297 20.4753 38.9284C20.0965 38.9453 19.7292 39.065 19.4116 39.275C19.094 39.4849 18.8378 39.7773 18.6697 40.1219C18.2439 40.9156 18.075 41.8249 18.1869 42.7212C17.6761 42.7307 17.1782 42.8847 16.7492 43.1658C16.3202 43.4469 15.9771 43.844 15.7588 44.3122C15.5554 44.6356 15.4553 45.0146 15.4721 45.3978C15.4888 45.781 15.6217 46.1496 15.8526 46.4534C15.8526 45.4096 18.4951 43.4838 20.5082 45.5259C21.7357 46.8436 22.6163 48.4533 23.0689 50.2068C24.3657 54.9908 23.4939 62.3884 17.1654 68.8068C8.70212 74.5335 2.90433 81.5285 1 89.9031V108.238L1.70128 108.241ZM80.9161 79.7879C88.2032 81.5518 96.4919 80.9298 98.1379 72.2892C95.9752 77.1228 89.6846 74.4708 88.311 79.0283C86.0515 79.16 83.7849 78.9676 81.5785 78.4568C81.2547 78.5504 80.9147 78.5718 80.582 78.5194C80.2493 78.467 79.9318 78.3422 79.6512 78.1534C80.1494 78.6326 80.5756 79.1832 80.9161 79.7879V79.7879ZM288.994 121.964V120.557C283.796 118.257 283.081 124.832 278.881 123.909C281.122 126.182 287.345 126.002 288.994 121.965V121.964ZM201.684 79.0283C200.31 74.4708 194.021 77.1228 191.858 72.2892C193.501 80.9298 201.791 81.5518 209.078 79.7879C209.416 79.1832 209.84 78.6322 210.336 78.1524C210.056 78.3412 209.738 78.466 209.406 78.5184C209.074 78.5708 208.734 78.5495 208.411 78.4558C206.206 78.9662 203.942 79.1589 201.684 79.0283V79.0283ZM193.205 11.2902C197.772 10.2788 196.989 4.51369 192.17 1.73227C194.633 1.74036 198.51 1.90826 199.308 2.0357C207.827 3.45169 214.975 9.34323 220.675 17.6915C224.23 22.8973 220.596 31.9526 215.968 30.1593C221.927 35.2063 224.697 27.9787 224.23 23.6862C224.288 23.7975 224.351 23.9017 224.409 24.0139C231.285 37.2919 233.836 53.6203 224.817 64.8603C222.077 67.9562 212.867 68.0685 212.128 65.3205C211.455 69.3925 217.01 71.1766 220.139 70.7983C219.766 73.9692 221.535 79.6129 225.551 78.9292C222.841 78.1807 222.957 68.8443 226.004 66.0659C237.093 56.9216 253.196 59.5068 266.293 66.4786C266.401 66.5372 266.505 66.602 266.614 66.6606C262.385 66.1873 255.258 68.995 260.236 75.0372C258.469 70.3442 267.398 66.6606 272.532 70.2653C280.766 76.0436 286.579 83.2914 287.974 91.929C288.103 92.7381 288.273 96.6695 288.273 99.1647C285.526 94.2796 279.848 93.4866 278.847 98.1169C280.968 96.5704 288.269 99.1961 288.288 105.712C288.288 107.107 288.288 108.102 288.294 108.232H288.992V89.9031C287.088 81.5285 281.289 74.5295 272.827 68.8068C266.498 62.3884 265.626 54.9908 266.922 50.2068C267.375 48.4535 268.256 46.8439 269.483 45.5259C271.497 43.4838 274.138 45.4096 274.138 46.4534C274.369 46.1496 274.502 45.781 274.519 45.3978C274.536 45.0146 274.436 44.6356 274.232 44.3122C274.014 43.844 273.671 43.4469 273.242 43.1658C272.813 42.8847 272.315 42.7307 271.804 42.7212C271.917 41.825 271.748 40.9155 271.322 40.1219C271.154 39.7774 270.897 39.485 270.579 39.2751C270.261 39.0652 269.894 38.9455 269.515 38.9284C270.503 39.9297 269.755 43.2411 268.46 44.5661C267.071 46.0424 266.077 47.8553 265.575 49.8315C265.396 50.5011 265.261 51.1819 265.17 51.8695C263.724 47.2908 257.396 45.2467 255.73 50.0662C258.037 48.7807 263.677 50.8935 265.107 56.067C265.504 59.8069 266.858 63.3768 269.033 66.4239C268.31 66.0022 267.573 65.5845 266.818 65.1779C256.096 59.3844 239.993 55.2983 227.774 63.064C235.431 50.674 231.411 34.3568 225.697 23.4839C225.298 22.72 224.889 21.9722 224.468 21.2406C227.472 23.4473 230.994 24.8165 234.683 25.2115C239.787 26.6669 241.866 32.3855 240.602 34.7249C245.355 33.0338 243.34 26.6194 238.823 25.1518C239.501 25.0602 240.173 24.9227 240.833 24.7401C242.782 24.2321 244.571 23.2253 246.026 21.8161C247.334 20.5013 250.599 19.7447 251.587 20.746C251.57 20.3621 251.452 19.9897 251.245 19.6678C251.038 19.3458 250.749 19.086 250.41 18.9153C249.627 18.4836 248.731 18.3123 247.847 18.4258C247.837 17.9079 247.685 17.4031 247.408 16.9681C247.13 16.5332 246.739 16.1854 246.277 15.964C245.958 15.7577 245.583 15.6562 245.205 15.6734C244.827 15.6906 244.464 15.8256 244.164 16.0601C245.195 16.0601 247.094 18.7383 245.079 20.7804C243.779 22.0251 242.191 22.9176 240.462 23.3757C235.745 24.6906 228.448 23.8066 222.119 17.3901C216.471 8.81021 209.572 2.92676 201.311 1.00506H183.229V1.71305C183.358 1.71305 184.339 1.71305 185.715 1.71912C192.138 1.73632 194.727 9.13893 193.205 11.2902ZM212.906 80.7497C212.719 81.0342 212.596 81.3562 212.545 81.6935C212.493 82.0308 212.514 82.3755 212.606 82.7038C212.103 84.9386 211.913 87.2342 212.042 89.5228C216.538 90.9145 213.922 97.2926 218.687 99.4854C210.165 97.8205 209.554 89.4146 211.292 82.0262C211.888 81.6831 212.431 81.253 212.903 80.7497H212.906Z" stroke="#B8B1A4"/>
</svg>
