<svg width="46" height="47" viewBox="0 0 46 47" fill="none" xmlns="http://www.w3.org/2000/svg">
<path d="M6.03559 6.34258L7.88801 32.4661L2.50483 38.6655C1.64091 39.6648 1.00596 40.8408 0.644447 42.1112L0.439386 42.9931C0.283871 43.5379 0.285893 44.1156 0.445216 44.6594C0.604539 45.2031 0.914668 45.6907 1.33967 46.0656C1.76466 46.4404 2.28715 46.6872 2.84667 46.7775C3.4062 46.8678 3.97987 46.7979 4.50126 46.5758L5.43646 46.2088C6.62432 45.6724 7.68206 44.8855 8.53714 43.902L13.9203 37.7026L40.0439 35.8528C40.6984 35.8081 41.3375 35.6341 41.9243 35.3409C42.5111 35.0478 43.0339 34.6413 43.4627 34.1449L44.997 32.3761C45.1136 32.2405 45.1917 32.0762 45.2231 31.9002C45.2546 31.7241 45.2383 31.5429 45.1759 31.3754C45.1135 31.2078 45.0073 31.06 44.8683 30.9474C44.7294 30.8348 44.5628 30.7616 44.3859 30.7352L22.2551 27.5095C24.0955 25.1097 25.5558 23.0349 27.3402 20.5102L29.1626 17.9244L37.4734 19.0184C37.6376 19.0401 37.8046 19.0206 37.9595 18.9617C38.1143 18.9029 38.2522 18.8066 38.3606 18.6814L39.6708 17.1725C39.7687 17.0598 39.8401 16.9265 39.8798 16.7825C39.9194 16.6385 39.9263 16.4876 39.8999 16.3406C39.8737 16.1932 39.8145 16.0537 39.7267 15.9324C39.6388 15.8112 39.5247 15.7115 39.3928 15.6406L31.4911 11.3651L26.1409 4.14174C26.098 4.08342 26.0491 4.02982 25.9949 3.98178C25.8957 3.89553 25.7804 3.82968 25.6556 3.78802C25.5309 3.74635 25.3992 3.72972 25.268 3.73901C25.1368 3.7483 25.0088 3.78333 24.8911 3.84215C24.7735 3.90097 24.6687 3.98237 24.5826 4.08175L23.2743 5.59064C23.1654 5.71534 23.0894 5.86528 23.0533 6.02682C23.0171 6.18835 23.0219 6.35634 23.0673 6.51554L25.3268 14.5898L23.0172 16.7646C20.7768 18.8784 18.9334 20.6182 16.8159 22.779L10.4936 1.33103C10.4426 1.15944 10.3465 1.00469 10.2153 0.882896C10.0841 0.761103 9.92258 0.67676 9.74763 0.638656C9.57269 0.600552 9.39072 0.610053 9.22073 0.666242C9.05073 0.72243 8.89895 0.823239 8.78121 0.958084L7.24685 2.72488C6.81532 3.21762 6.48604 3.79119 6.27811 4.41222C6.07017 5.03326 5.98772 5.68943 6.03559 6.34258Z" fill="#ED8D1D"/>
</svg>
