<svg width="14" height="17" viewBox="0 0 14 17" fill="none" xmlns="http://www.w3.org/2000/svg">
<path d="M7.0002 0.997073C5.3842 0.939056 3.81345 1.5955 2.63244 2.82245C1.45142 4.04939 0.756543 5.74668 0.700195 7.54207V12.6331C0.709029 12.9296 0.770358 13.2212 0.880676 13.4914C0.990995 13.7615 1.14814 14.0048 1.34313 14.2075C1.53813 14.4101 1.76715 14.5681 2.01711 14.6723C2.26706 14.7766 2.53306 14.8251 2.7999 14.8151H4.9005V8.99707H2.1006V7.54207C2.14356 6.14545 2.68372 4.82489 3.60241 3.8705C4.5211 2.91611 5.74319 2.40594 7.0002 2.45207C8.25736 2.40594 9.47957 2.91625 10.3983 3.87085C11.317 4.82546 11.8571 6.14628 11.8998 7.54307V8.99707H9.0999V14.8151H11.8998V15.5421H7.0002V16.9971H11.2005C11.4673 17.0071 11.7333 16.9586 11.9833 16.8543C12.2332 16.7501 12.4623 16.5921 12.6573 16.3895C12.8523 16.1868 13.0094 15.9435 13.1197 15.6734C13.23 15.4032 13.2914 15.1116 13.3002 14.8151V7.54207C13.2438 5.74668 12.549 4.04939 11.368 2.82245C10.1869 1.5955 8.61619 0.939056 7.0002 0.997073Z" fill="#4D4D4D"/>
</svg>
