<svg width="27" height="25" viewBox="0 0 27 25" fill="none" xmlns="http://www.w3.org/2000/svg">
<rect width="27" height="25" fill="#81A7A8"/>
<path d="M14.0024 17.7073C17.2746 17.7073 19.9272 14.9016 19.9272 11.4406C19.9272 7.97954 17.2746 5.17383 14.0024 5.17383C10.7303 5.17383 8.07764 7.97954 8.07764 11.4406C8.07764 14.9016 10.7303 17.7073 14.0024 17.7073Z" fill="white"/>
<path d="M21.8607 9.03165C21.8924 8.42791 21.8962 7.85244 21.9052 7.27003C21.9104 6.93403 21.924 6.35722 20.7602 6.18255C17.9282 5.81188 15.7149 4.22973 14.744 3.42812C14.5802 3.30498 14.4267 3.16778 14.2852 3.01798C14.0701 2.79984 13.6669 2.21584 12.8148 2.97798C9.39902 6.23162 6.56542 6.10228 5.82534 5.99881C5.71994 5.98309 5.6124 5.99882 5.51535 6.04417C5.41829 6.08952 5.33575 6.1626 5.27742 6.25482C4.98324 6.73269 5.08113 7.7287 5.30602 9.49806C5.83255 13.6392 7.35831 17.295 9.04405 19.2512C9.9356 20.2862 11.4253 21.7846 13.456 22.3947C14.6765 21.8017 18.2909 20.151 20.2824 15.4155C20.7105 14.4191 21.0679 13.3918 21.3517 12.3416L21.8607 9.03165ZM19.3424 13.5573C19.3424 13.5573 19.3043 13.913 18.8084 13.7024C18.3125 13.4917 15.6809 12.3184 15.6809 12.3184C15.6809 12.3184 14.473 11.7253 14.3205 12.3717C14.3331 13.1757 14.3205 15.0736 14.3205 15.0736L15.363 15.8645L15.5536 16.0195C15.5926 16.0743 15.6246 16.1341 15.6489 16.1973C15.668 16.2667 15.6394 17.0376 15.6394 17.0376C15.6394 17.0376 15.6584 17.5022 15.1435 17.275C14.6286 17.0477 13.5557 16.3656 13.5557 16.3656L11.9109 17.2552C11.9109 17.2552 11.576 17.4728 11.4531 17.1168C11.4243 16.7748 11.4243 16.4308 11.4531 16.0888L12.7975 15.0805L12.788 12.4592C12.788 12.4592 12.8928 11.8874 12.0443 12.0949C11.1958 12.3024 8.41216 13.6568 8.41216 13.6568C8.41216 13.6568 7.89696 13.9928 7.72565 13.5677C7.75425 13.3304 7.72565 12.6384 7.72565 12.6384L8.59351 11.897L8.58398 10.6415C8.60469 10.4979 8.67749 10.3679 8.78756 10.2779C8.89763 10.1878 9.03669 10.1446 9.17646 10.157C9.24487 10.1463 9.31466 10.1499 9.3817 10.1676C9.44875 10.1853 9.51168 10.2167 9.56679 10.2601C9.6219 10.3034 9.66807 10.3577 9.70257 10.4197C9.73707 10.4818 9.7592 10.5504 9.76765 10.6215V10.9482L10.1873 10.6418L10.1682 9.46526C10.1942 9.32022 10.2649 9.18783 10.3698 9.08799C10.4747 8.98816 10.6081 8.92628 10.7499 8.91165C10.8388 8.91672 10.9257 8.94108 11.0049 8.98314C11.0841 9.0252 11.1539 9.08403 11.2098 9.15581C11.2657 9.22759 11.3063 9.31073 11.3292 9.39982C11.352 9.48892 11.3565 9.58198 11.3424 9.67299C11.5626 9.58339 12.601 8.57565 12.601 8.57565L12.6783 6.15028C12.6783 6.15028 12.8975 5.25401 13.5603 5.29347C14.2231 5.33294 14.4287 5.98495 14.448 6.28148C14.4673 6.57802 14.448 8.57485 14.448 8.57485L15.7576 9.72153V9.36579C15.821 9.23661 15.9202 9.12997 16.0425 9.05951C16.1648 8.98906 16.3047 8.958 16.4441 8.97032C16.5155 8.96796 16.5865 8.98192 16.6521 9.0112C16.7177 9.04049 16.7763 9.08438 16.8236 9.13976C16.871 9.19514 16.906 9.26064 16.9261 9.3316C16.9462 9.40257 16.9509 9.47724 16.94 9.55032C16.94 9.66899 16.94 10.6437 16.94 10.6437L17.3589 10.9871V10.6181C17.4012 10.4971 17.4767 10.3916 17.576 10.3143C17.6754 10.2371 17.7944 10.1915 17.9184 10.1831C18.0673 10.1767 18.213 10.2288 18.3262 10.3291C18.4394 10.4294 18.5118 10.5704 18.5286 10.7237C18.5412 10.8818 18.5286 11.9626 18.5286 11.9626L19.2651 12.529C19.2651 12.529 19.3287 12.5424 19.3424 12.7928C19.356 13.0432 19.3424 13.5573 19.3424 13.5573Z" fill="#00BABD"/>
<path d="M13.4639 22.5L13.4294 22.4896C11.8634 22.0181 10.4057 20.9802 8.97292 19.3162C7.15297 17.2039 5.7117 13.4463 5.2117 9.51051C4.97393 7.63262 4.89382 6.69394 5.19727 6.20114C5.2655 6.09328 5.36198 6.00777 5.47544 5.9546C5.58889 5.90142 5.71462 5.88279 5.83792 5.90087C6.60763 6.00753 9.3843 6.11074 12.7504 2.9051C13.6028 2.14215 14.0716 2.64669 14.296 2.88883C14.3155 2.9099 14.3338 2.92963 14.3508 2.94696L14.3982 2.99496C14.4943 3.09552 14.5976 3.18832 14.7073 3.27257L14.8019 3.35044C15.8513 4.21711 18.0219 5.7238 20.7707 6.08434C22.0147 6.271 22.0046 6.91901 21.9992 7.26755L21.9954 7.53422C21.9884 8.01983 21.9815 8.5209 21.9544 9.03664C21.9537 9.04958 21.9506 9.06225 21.9452 9.07394C21.9398 9.08563 21.9322 9.0961 21.9229 9.10475C21.9136 9.1134 21.9027 9.12008 21.8909 9.12438C21.8791 9.12868 21.8666 9.13054 21.8541 9.12984C21.8416 9.12914 21.8293 9.1259 21.818 9.1203C21.8067 9.1147 21.7966 9.10685 21.7883 9.09721C21.7799 9.08756 21.7735 9.07631 21.7693 9.06409C21.7652 9.05186 21.7634 9.03891 21.764 9.02597C21.7898 8.5153 21.7978 8.01503 21.8047 7.53262L21.8086 7.26942C21.8138 6.93795 21.8215 6.44274 20.7452 6.28274C17.9536 5.91473 15.7496 4.38458 14.6855 3.50537L14.5912 3.4275C14.4761 3.33911 14.3677 3.24176 14.2669 3.1363L14.2197 3.08857C14.2014 3.0699 14.1818 3.04883 14.1607 3.02617C13.9343 2.78243 13.5919 2.41416 12.8784 3.05283C9.45231 6.31447 6.60403 6.20647 5.81242 6.09687C5.72517 6.08362 5.63607 6.0964 5.55559 6.13371C5.4751 6.17102 5.40656 6.23132 5.35802 6.30754C5.07904 6.76088 5.18826 7.81022 5.40078 9.48464C5.89614 13.3831 7.31809 17.1002 9.11537 19.1856C10.5128 20.808 11.9307 21.8237 13.4482 22.2896L13.5131 22.2581C14.8137 21.6288 18.2684 19.957 20.196 15.3762C20.6218 14.3842 20.977 13.3612 21.2586 12.3156C21.2619 12.3031 21.2676 12.2914 21.2752 12.2812C21.2829 12.2709 21.2925 12.2623 21.3033 12.2559C21.3142 12.2495 21.3262 12.2453 21.3386 12.2437C21.351 12.2421 21.3636 12.243 21.3757 12.2464C21.3878 12.2498 21.3991 12.2557 21.409 12.2636C21.4189 12.2715 21.4272 12.2814 21.4334 12.2927C21.4396 12.3039 21.4436 12.3163 21.4452 12.3292C21.4467 12.3421 21.4459 12.3551 21.4426 12.3676C21.1585 13.4225 20.8002 14.4544 20.3707 15.4551C18.4142 20.1045 14.9121 21.7992 13.5937 22.4371L13.4639 22.5ZM15.3905 17.4354C15.2924 17.4316 15.1961 17.4076 15.1071 17.3647C14.5742 17.0974 14.0551 16.8015 13.552 16.4781L11.9549 17.3421C11.9003 17.3772 11.8395 17.4004 11.776 17.4104C11.7125 17.4204 11.6477 17.4169 11.5855 17.4002C11.5322 17.3792 11.4844 17.3456 11.4459 17.3022C11.4073 17.2587 11.3791 17.2065 11.3634 17.1498L11.3588 17.1317C11.3287 16.7818 11.3287 16.4298 11.3588 16.0799L11.3624 16.0346L12.7019 15.0292L12.6924 12.4492L12.6939 12.4399C12.6994 12.4018 12.6967 12.3629 12.6859 12.326C12.6751 12.2891 12.6566 12.2551 12.6316 12.2265C12.5667 12.1631 12.4155 12.1052 12.0649 12.1908C11.2516 12.3897 8.58574 13.6804 8.45514 13.7439C8.28732 13.8557 8.0848 13.8974 7.88842 13.8607C7.83036 13.8406 7.77738 13.8073 7.73338 13.7632C7.68938 13.7192 7.65548 13.6654 7.63417 13.606L7.62438 13.5818L7.62747 13.5551C7.65478 13.3287 7.62747 12.6484 7.62747 12.6423L7.62541 12.5932L8.49481 11.8505L8.48579 10.642C8.50679 10.4731 8.58906 10.3187 8.71593 10.2103C8.84279 10.1018 9.00474 10.0474 9.16895 10.058C9.2496 10.0466 9.33163 10.052 9.41023 10.0739C9.48883 10.0958 9.5624 10.1338 9.62664 10.1855C9.69088 10.2373 9.74449 10.3018 9.78431 10.3753C9.82413 10.4488 9.84937 10.5297 9.85854 10.6135V10.7572L10.0868 10.5905L10.0685 9.45718L10.07 9.44811C10.0983 9.28077 10.1791 9.12776 10.3 9.01289C10.4209 8.89802 10.575 8.82771 10.7385 8.8129H10.7486L10.7586 8.8145C10.8654 8.82478 10.969 8.85797 11.0628 8.91196C11.1565 8.96596 11.2384 9.03957 11.3032 9.12811C11.3784 9.23461 11.4255 9.35963 11.4397 9.49078C11.6924 9.29637 12.1813 8.84277 12.5041 8.53077L12.5814 6.1254C12.5912 6.0854 12.8302 5.15179 13.5603 5.19419C13.8229 5.21949 14.0677 5.34327 14.2484 5.54227C14.4291 5.74127 14.5333 6.00175 14.5415 6.27474C14.5592 6.54994 14.5448 8.22143 14.5415 8.52917L15.66 9.50838V9.34518L15.6679 9.32624C15.7381 9.17791 15.8501 9.05514 15.9892 8.97419C16.1282 8.89323 16.2878 8.85791 16.4467 8.8729C16.53 8.86936 16.613 8.88482 16.6899 8.91818C16.7667 8.95154 16.8356 9.00198 16.8916 9.06594C16.9475 9.12991 16.9892 9.20582 17.0137 9.28831C17.0382 9.3708 17.0448 9.45786 17.0332 9.54331V10.5977L17.262 10.7844L17.2666 10.5887C17.3143 10.4486 17.4008 10.3261 17.5154 10.2366C17.6299 10.1471 17.7674 10.0946 17.9106 10.0855C18.0846 10.0761 18.2555 10.1364 18.3878 10.2538C18.5201 10.3713 18.6037 10.5369 18.6213 10.7164C18.6329 10.8591 18.6247 11.6959 18.6213 11.9143L19.3091 12.4428C19.3825 12.4788 19.4245 12.5948 19.4343 12.7895C19.4469 13.041 19.4343 13.5407 19.4343 13.5628V13.5714C19.4274 13.6222 19.4098 13.6708 19.3825 13.7137C19.3553 13.7566 19.3192 13.7927 19.2769 13.8194C19.1964 13.8568 19.1086 13.8743 19.0205 13.8704C18.9323 13.8665 18.8463 13.8414 18.7692 13.797C18.2782 13.5882 15.6664 12.4241 15.6401 12.4124C15.4297 12.3092 14.83 12.0756 14.5489 12.2145C14.5152 12.2307 14.4855 12.2546 14.4619 12.2843C14.4384 12.314 14.4216 12.3489 14.4129 12.3863C14.424 13.1154 14.415 14.721 14.4129 15.0263L15.4163 15.7871L15.6278 15.9637C15.6738 16.0275 15.7109 16.0978 15.7377 16.1725C15.752 16.4627 15.7499 16.7536 15.7316 17.0437C15.7332 17.1076 15.7206 17.1711 15.6949 17.2293C15.6692 17.2875 15.631 17.3388 15.5832 17.3794C15.5254 17.4196 15.457 17.4402 15.3874 17.4383L15.3905 17.4354ZM13.5597 16.2511L13.6056 16.2805C13.6164 16.2874 14.6782 16.9615 15.1808 17.1834C15.3161 17.2431 15.4212 17.2543 15.4771 17.2146C15.5458 17.1661 15.544 17.0418 15.544 17.0407C15.5572 16.677 15.5654 16.2751 15.5561 16.2197C15.5369 16.1729 15.5127 16.1287 15.4838 16.0877L15.3034 15.9415L14.2241 15.1228V15.0722C14.2241 15.0532 14.2367 13.166 14.2241 12.3724V12.3596L14.2269 12.3473C14.241 12.279 14.2702 12.215 14.3122 12.1604C14.3543 12.1058 14.4081 12.062 14.4693 12.0327C14.8895 11.8255 15.687 12.2124 15.7207 12.2289C15.7439 12.2393 18.3544 13.4023 18.8439 13.6108C18.8944 13.6407 18.9504 13.6594 19.0083 13.6656C19.0662 13.6718 19.1247 13.6655 19.1801 13.6471C19.1971 13.6363 19.2118 13.6219 19.2232 13.605C19.2347 13.588 19.2426 13.5687 19.2465 13.5484C19.2478 13.4884 19.2581 13.0268 19.2465 12.798C19.2476 12.7347 19.2367 12.6719 19.2143 12.6129L18.432 12.0116V11.9609C18.4364 11.5876 18.442 10.8529 18.432 10.7313C18.4158 10.6044 18.3548 10.4881 18.2607 10.405C18.1666 10.3219 18.0461 10.2779 17.9225 10.2815C17.8197 10.2878 17.7208 10.3244 17.6376 10.3872C17.5543 10.4499 17.4902 10.536 17.4528 10.6353V11.1905L16.8426 10.6921V9.55024C16.8426 9.33131 16.7975 9.08784 16.4374 9.07024C16.3204 9.06041 16.203 9.08529 16.0992 9.14196C15.9953 9.19863 15.9092 9.28475 15.8508 9.39024V9.93452L14.3506 8.62037V8.57397C14.3506 8.55397 14.3694 6.57741 14.3506 6.28807C14.3351 6.051 14.1615 5.42806 13.5487 5.39153C13.0113 5.35979 12.7923 6.07314 12.7671 6.16487L12.6898 8.61823L12.661 8.6449C12.5533 8.74943 11.6028 9.66811 11.373 9.76198L11.2143 9.82651L11.2442 9.65265C11.2663 9.50794 11.2326 9.36002 11.1501 9.24091C11.1012 9.17571 11.04 9.12147 10.9702 9.08146C10.9004 9.04145 10.8235 9.01649 10.7442 9.0081C10.6266 9.02255 10.5166 9.07516 10.4297 9.15837C10.3428 9.24158 10.2837 9.35113 10.2607 9.47131L10.2805 10.6895L9.66947 11.1356V10.6212C9.66139 10.5632 9.64208 10.5075 9.6127 10.4574C9.58331 10.4073 9.54445 10.3638 9.49846 10.3297C9.45246 10.2955 9.40028 10.2713 9.34503 10.2585C9.28978 10.2458 9.2326 10.2447 9.17693 10.2553C8.71325 10.2719 8.67874 10.634 8.67745 10.6492L8.68775 11.9425L7.82144 12.6828C7.82711 12.8404 7.84257 13.3274 7.82144 13.5508C7.83313 13.579 7.85041 13.6042 7.87216 13.625C7.8939 13.6458 7.91963 13.6616 7.94767 13.6714C8.09213 13.6911 8.2386 13.6559 8.35983 13.5722L8.37013 13.5663C8.48425 13.5108 11.1733 12.2063 12.0219 11.9977C12.3709 11.9124 12.6205 11.9415 12.7643 12.0841C12.8108 12.1341 12.8456 12.1944 12.8662 12.2605C12.8867 12.3265 12.8924 12.3965 12.8828 12.4652L12.8926 15.1295L11.5453 16.141C11.5191 16.457 11.5191 16.7748 11.5453 17.0909C11.5525 17.1179 11.5655 17.143 11.5833 17.1641C11.6012 17.1853 11.6234 17.202 11.6483 17.213C11.7218 17.2275 11.7979 17.2123 11.8609 17.1706L13.5597 16.2511Z" fill="#1D1D1B"/>
<path d="M19.717 7.64139C19.7083 7.64134 19.6997 7.64072 19.6912 7.63952C18.4617 7.48911 17.2859 7.03152 16.2651 6.30617C16.2251 6.27413 16.1989 6.22693 16.1925 6.17494C16.186 6.12296 16.1998 6.07045 16.2307 6.02897C16.2617 5.98749 16.3073 5.96044 16.3575 5.95376C16.4077 5.94708 16.4584 5.96133 16.4985 5.99337C17.4694 6.67104 18.5818 7.10059 19.7443 7.24672C19.7925 7.2531 19.8366 7.27833 19.8675 7.31725C19.8984 7.35616 19.9138 7.40582 19.9105 7.45608C19.9072 7.50634 19.8855 7.55341 19.8498 7.58765C19.8141 7.6219 19.7672 7.64074 19.7185 7.64032" fill="#F7B67C"/>
<path d="M20.1445 7.58252C20.1446 7.60988 20.1525 7.63661 20.1672 7.65933C20.182 7.68206 20.2029 7.69976 20.2274 7.71019C20.2518 7.72063 20.2788 7.72333 20.3047 7.71796C20.3307 7.71259 20.3545 7.69939 20.3732 7.68002C20.3919 7.66065 20.4046 7.63599 20.4098 7.60915C20.4149 7.58231 20.4123 7.5545 20.4021 7.52922C20.392 7.50395 20.3748 7.48235 20.3528 7.46715C20.3308 7.45196 20.3049 7.44385 20.2784 7.44385C20.2608 7.44385 20.2434 7.44743 20.2271 7.45441C20.2109 7.46138 20.1961 7.4716 20.1837 7.48448C20.1712 7.49736 20.1614 7.51265 20.1547 7.52947C20.1479 7.54629 20.1445 7.56432 20.1445 7.58252Z" fill="#F7B67C"/>
<path d="M12.9346 19.4325C12.8714 19.4325 12.8107 19.4064 12.7661 19.3601C12.7214 19.3138 12.6963 19.251 12.6963 19.1856V17.841C12.6963 17.7756 12.7214 17.7128 12.7661 17.6665C12.8108 17.6202 12.8715 17.5942 12.9347 17.5942C12.9979 17.5942 13.0586 17.6202 13.1033 17.6665C13.148 17.7128 13.1731 17.7756 13.1731 17.841V19.1856C13.1731 19.251 13.148 19.3138 13.1033 19.3601C13.0587 19.4064 12.998 19.4325 12.9348 19.4325" fill="#F7B67C"/>
<path d="M13.5561 19.828C13.4929 19.828 13.4323 19.8019 13.3876 19.7556C13.343 19.7093 13.3179 19.6465 13.3179 19.5811V18.2366C13.3179 18.1711 13.343 18.1083 13.3877 18.062C13.4324 18.0157 13.493 17.9897 13.5563 17.9897C13.6195 17.9897 13.6801 18.0157 13.7249 18.062C13.7696 18.1083 13.7947 18.1711 13.7947 18.2366V19.5811C13.7947 19.6465 13.7696 19.7093 13.7249 19.7556C13.6802 19.8019 13.6196 19.828 13.5564 19.828" fill="#F7B67C"/>
<path d="M14.1553 19.4324C14.0921 19.4323 14.0314 19.4063 13.9868 19.36C13.9421 19.3137 13.917 19.2509 13.917 19.1855V17.8409C13.917 17.7755 13.9421 17.7127 13.9868 17.6665C14.0315 17.6202 14.0921 17.5942 14.1553 17.5942C14.2185 17.5942 14.2791 17.6202 14.3238 17.6665C14.3684 17.7127 14.3935 17.7755 14.3935 17.8409V19.1855C14.3935 19.2509 14.3685 19.3137 14.3238 19.36C14.2791 19.4063 14.2185 19.4323 14.1553 19.4324Z" fill="#F7B67C"/>
<path d="M13.6981 20.1508C13.698 20.182 13.689 20.2125 13.6722 20.2384C13.6554 20.2644 13.6315 20.2846 13.6036 20.2965C13.5757 20.3084 13.545 20.3115 13.5154 20.3053C13.4857 20.2992 13.4586 20.2842 13.4372 20.2621C13.4159 20.24 13.4014 20.2119 13.3955 20.1812C13.3896 20.1506 13.3927 20.1189 13.4042 20.0901C13.4158 20.0612 13.4354 20.0366 13.4605 20.0193C13.4856 20.0019 13.5151 19.9927 13.5453 19.9927C13.5858 19.9927 13.6247 20.0094 13.6533 20.0391C13.682 20.0687 13.6981 20.1089 13.6981 20.1508Z" fill="#F7B67C"/>
<path d="M7.41218 7.64117C7.36352 7.64158 7.31654 7.62274 7.28085 7.5885C7.24516 7.55425 7.22345 7.50719 7.22016 7.45693C7.21687 7.40667 7.23225 7.35701 7.26315 7.31809C7.29405 7.27918 7.33815 7.25395 7.38642 7.24756C8.54898 7.10101 9.66136 6.67101 10.6322 5.99288C10.6722 5.96084 10.723 5.94659 10.7732 5.95327C10.8234 5.95995 10.869 5.987 10.9 6.02848C10.9309 6.06996 10.9447 6.12247 10.9382 6.17446C10.9318 6.22644 10.9056 6.27365 10.8656 6.30568C9.84481 7.03104 8.66902 7.48863 7.43948 7.63903C7.43094 7.64023 7.42234 7.64085 7.41372 7.6409" fill="#F7B67C"/>
<path d="M6.9846 7.58252C6.98455 7.60988 6.97665 7.63661 6.96191 7.65933C6.94717 7.68206 6.92623 7.69976 6.90176 7.71019C6.87729 7.72063 6.85038 7.72333 6.82442 7.71796C6.79846 7.71259 6.77463 7.69939 6.75593 7.68002C6.73722 7.66065 6.7245 7.63599 6.71935 7.60915C6.71421 7.58231 6.71687 7.5545 6.72701 7.52922C6.73716 7.50395 6.75432 7.48235 6.77633 7.46715C6.79835 7.45196 6.82423 7.44385 6.8507 7.44385C6.86831 7.44385 6.88574 7.44743 6.902 7.45441C6.91826 7.46138 6.93304 7.4716 6.94547 7.48448C6.95791 7.49736 6.96777 7.51265 6.97448 7.52947C6.9812 7.54629 6.98464 7.56432 6.9846 7.58252Z" fill="#F7B67C"/>
</svg>
