<svg width="19" height="15" viewBox="0 0 19 15" fill="none" xmlns="http://www.w3.org/2000/svg">
<path fill-rule="evenodd" clip-rule="evenodd" d="M9.57806 0.524123C5.41684 0.886574 2.5293 4.77699 3.36579 8.89422C3.39154 9.02092 3.43811 9.21627 3.46931 9.32842L3.52606 9.53223H4.67047H5.81482L5.02944 10.323C4.4036 10.9532 4.24602 11.1189 4.25364 11.1388C4.26238 11.1618 4.49562 11.5159 4.54272 11.5777C4.56236 11.6034 4.76598 11.401 8.64442 7.49864C10.889 5.24028 12.7839 3.34286 12.8554 3.28215C13.3814 2.83539 13.9663 2.52187 14.5865 2.3543C14.6768 2.3299 14.7599 2.30715 14.7712 2.30371C14.7939 2.2969 14.7982 2.30107 14.5639 2.10532C13.1884 0.956208 11.3417 0.370573 9.57806 0.524123ZM13.1356 9.42371C8.63129 13.9602 8.97574 13.6362 8.26635 14.0039C8.14693 14.0658 8.05458 14.1196 8.06108 14.1235C8.11429 14.1555 8.70794 14.3008 8.9691 14.3458C13.6674 15.1552 17.744 11.0689 16.9734 6.32228C16.9422 6.13044 16.8538 5.72851 16.8393 5.71297C16.8342 5.70748 15.1675 7.3773 13.1356 9.42371Z" fill="#EBC304"/>
<path fill-rule="evenodd" clip-rule="evenodd" d="M15.346 2.20419C15.1769 2.22271 14.8077 2.28626 14.7918 2.29961C14.7843 2.3059 14.7257 2.32441 14.6618 2.34081C14.0619 2.49436 13.4715 2.79333 12.9672 3.19903C12.8306 3.309 11.7602 4.37724 7.90602 8.25053L3.01814 13.1626L3.13749 13.2797C4.18903 14.3115 5.84223 14.7413 7.319 14.3666C7.58049 14.3002 7.98274 14.1608 8.03279 14.1192C8.04081 14.1124 8.12705 14.0672 8.22433 14.0186C8.5471 13.8573 8.86823 13.6447 9.13018 13.4189C9.19993 13.3588 11.4492 11.1058 14.1285 8.41221L19 3.51493L18.8732 3.39847C18.1717 2.75418 17.3861 2.37573 16.4476 2.22991C16.2306 2.19619 15.5614 2.18058 15.346 2.20419ZM0.259148 9.56034C0.100192 9.62204 -0.000501482 9.77433 0.000483779 9.95149C0.00146904 10.1372 -0.0755126 10.0498 1.34149 11.4754L2.62148 12.7631L4.20637 11.1581L5.79126 9.55306L4.52362 9.54473C1.66321 9.52595 0.335276 9.53085 0.259148 9.56034Z" fill="#343C7B"/>
<path fill-rule="evenodd" clip-rule="evenodd" d="M8.59932 7.54478L4.56934 11.6055L8.60273 7.54822C10.8211 5.31677 12.6362 3.48944 12.6362 3.48752C12.6362 3.47793 12.3463 3.7693 8.59932 7.54478ZM13.1219 9.42534L9.42727 13.1485L13.1254 9.42878C16.5638 5.97032 16.8297 5.70217 16.8201 5.70217C16.8182 5.70217 15.1541 7.3776 13.1219 9.42534ZM9.3445 13.2277L9.29038 13.2863L9.34858 13.2318C9.38056 13.2019 9.40671 13.1755 9.40671 13.1733C9.40671 13.1629 9.39482 13.1733 9.3445 13.2277Z" fill="#94843B"/>
<path fill-rule="evenodd" clip-rule="evenodd" d="M4.10207 9.54234C4.41689 9.54439 4.92798 9.54439 5.23788 9.54234C5.54777 9.54023 5.29023 9.53857 4.66557 9.53857C4.04085 9.53857 3.78731 9.54023 4.10207 9.54234Z" fill="#7A6B4C"/>
</svg>
