<svg
    width="216"
    height="15"
    viewBox="0 0 216 15"
    fill="none"
    xmlns="http://www.w3.org/2000/svg"
  >
    <path
      d="M5.98675 7.432V12H4.43475V7.432L0.23475 0.535999H1.59475C1.73342 0.535999 1.84275 0.570666 1.92275 0.639999C2.00275 0.703999 2.07208 0.789333 2.13075 0.896L4.75475 5.352C4.85075 5.53867 4.93875 5.71467 5.01875 5.88C5.09875 6.04 5.16808 6.20267 5.22675 6.368C5.28542 6.20267 5.35208 6.04 5.42675 5.88C5.50142 5.71467 5.58408 5.53867 5.67475 5.352L8.29075 0.896C8.33875 0.805333 8.40542 0.722666 8.49075 0.648C8.57608 0.573333 8.68542 0.535999 8.81875 0.535999H10.1868L5.98675 7.432ZM12.9971 3.768C13.5891 3.768 14.1225 3.86667 14.5971 4.064C15.0718 4.26133 15.4771 4.54133 15.8131 4.904C16.1491 5.26667 16.4051 5.70667 16.5811 6.224C16.7625 6.736 16.8531 7.30933 16.8531 7.944C16.8531 8.584 16.7625 9.16 16.5811 9.672C16.4051 10.184 16.1491 10.6213 15.8131 10.984C15.4771 11.3467 15.0718 11.6267 14.5971 11.824C14.1225 12.016 13.5891 12.112 12.9971 12.112C12.3998 12.112 11.8611 12.016 11.3811 11.824C10.9065 11.6267 10.5011 11.3467 10.1651 10.984C9.82913 10.6213 9.57046 10.184 9.38913 9.672C9.21313 9.16 9.12513 8.584 9.12513 7.944C9.12513 7.30933 9.21313 6.736 9.38913 6.224C9.57046 5.70667 9.82913 5.26667 10.1651 4.904C10.5011 4.54133 10.9065 4.26133 11.3811 4.064C11.8611 3.86667 12.3998 3.768 12.9971 3.768ZM12.9971 11C13.7971 11 14.3945 10.7333 14.7891 10.2C15.1838 9.66133 15.3811 8.912 15.3811 7.952C15.3811 6.98667 15.1838 6.23467 14.7891 5.696C14.3945 5.15733 13.7971 4.888 12.9971 4.888C12.5918 4.888 12.2371 4.95733 11.9331 5.096C11.6345 5.23467 11.3838 5.43467 11.1811 5.696C10.9838 5.95733 10.8345 6.28 10.7331 6.664C10.6371 7.04267 10.5891 7.472 10.5891 7.952C10.5891 8.912 10.7865 9.66133 11.1811 10.2C11.5811 10.7333 12.1865 11 12.9971 11ZM25.3233 3.896V12H24.4753C24.2726 12 24.1446 11.9013 24.0913 11.704L23.9793 10.832C23.6273 11.2213 23.2326 11.536 22.7953 11.776C22.3579 12.0107 21.8566 12.128 21.2913 12.128C20.8486 12.128 20.4566 12.056 20.1153 11.912C19.7793 11.7627 19.4966 11.5547 19.2673 11.288C19.0379 11.0213 18.8646 10.6987 18.7473 10.32C18.6353 9.94133 18.5793 9.52267 18.5793 9.064V3.896H20.0033V9.064C20.0033 9.67733 20.1419 10.152 20.4193 10.488C20.7019 10.824 21.1313 10.992 21.7073 10.992C22.1286 10.992 22.5206 10.8933 22.8833 10.696C23.2513 10.4933 23.5899 10.216 23.8993 9.864V3.896H25.3233ZM37.3149 5.336C37.2722 5.39467 37.2295 5.44 37.1869 5.472C37.1442 5.504 37.0855 5.52 37.0109 5.52C36.9309 5.52 36.8429 5.488 36.7469 5.424C36.6509 5.35467 36.5309 5.28 36.3869 5.2C36.2482 5.12 36.0749 5.048 35.8669 4.984C35.6642 4.91467 35.4135 4.88 35.1149 4.88C34.7149 4.88 34.3629 4.952 34.0589 5.096C33.7549 5.23467 33.4989 5.43733 33.2909 5.704C33.0882 5.97067 32.9335 6.29333 32.8269 6.672C32.7255 7.05067 32.6749 7.47467 32.6749 7.944C32.6749 8.43467 32.7309 8.872 32.8429 9.256C32.9549 9.63467 33.1122 9.95467 33.3149 10.216C33.5229 10.472 33.7709 10.6693 34.0589 10.808C34.3522 10.9413 34.6802 11.008 35.0429 11.008C35.3895 11.008 35.6749 10.968 35.8989 10.888C36.1229 10.8027 36.3069 10.7093 36.4509 10.608C36.6002 10.5067 36.7229 10.416 36.8189 10.336C36.9202 10.2507 37.0189 10.208 37.1149 10.208C37.2322 10.208 37.3229 10.2533 37.3869 10.344L37.7869 10.864C37.6109 11.0827 37.4109 11.2693 37.1869 11.424C36.9629 11.5787 36.7202 11.7093 36.4589 11.816C36.2029 11.9173 35.9335 11.992 35.6509 12.04C35.3682 12.088 35.0802 12.112 34.7869 12.112C34.2802 12.112 33.8082 12.0187 33.3709 11.832C32.9389 11.6453 32.5629 11.376 32.2429 11.024C31.9229 10.6667 31.6722 10.2293 31.4909 9.712C31.3095 9.19467 31.2189 8.60533 31.2189 7.944C31.2189 7.34133 31.3015 6.784 31.4669 6.272C31.6375 5.76 31.8829 5.32 32.2029 4.952C32.5282 4.57867 32.9255 4.288 33.3949 4.08C33.8695 3.872 34.4135 3.768 35.0269 3.768C35.5975 3.768 36.0989 3.86133 36.5309 4.048C36.9682 4.22933 37.3549 4.488 37.6909 4.824L37.3149 5.336ZM43.7075 8.352C43.0515 8.37333 42.4915 8.42667 42.0275 8.512C41.5688 8.592 41.1928 8.69867 40.8995 8.832C40.6115 8.96533 40.4008 9.12267 40.2675 9.304C40.1395 9.48533 40.0755 9.688 40.0755 9.912C40.0755 10.1253 40.1102 10.3093 40.1795 10.464C40.2488 10.6187 40.3422 10.7467 40.4595 10.848C40.5822 10.944 40.7235 11.016 40.8835 11.064C41.0488 11.1067 41.2248 11.128 41.4115 11.128C41.6622 11.128 41.8915 11.104 42.0995 11.056C42.3075 11.0027 42.5022 10.928 42.6835 10.832C42.8702 10.736 43.0462 10.6213 43.2115 10.488C43.3822 10.3547 43.5475 10.2027 43.7075 10.032V8.352ZM39.1075 5.04C39.5555 4.608 40.0382 4.28533 40.5555 4.072C41.0728 3.85867 41.6462 3.752 42.2755 3.752C42.7288 3.752 43.1315 3.82667 43.4835 3.976C43.8355 4.12533 44.1315 4.33333 44.3715 4.6C44.6115 4.86667 44.7928 5.18933 44.9155 5.568C45.0382 5.94667 45.0995 6.36267 45.0995 6.816V12H44.4675C44.3288 12 44.2222 11.9787 44.1475 11.936C44.0728 11.888 44.0142 11.7973 43.9715 11.664L43.8115 10.896C43.5982 11.0933 43.3902 11.2693 43.1875 11.424C42.9848 11.5733 42.7715 11.7013 42.5475 11.808C42.3235 11.9093 42.0835 11.9867 41.8275 12.04C41.5768 12.0987 41.2968 12.128 40.9875 12.128C40.6728 12.128 40.3768 12.0853 40.0995 12C39.8222 11.9093 39.5795 11.776 39.3715 11.6C39.1688 11.424 39.0062 11.2027 38.8835 10.936C38.7662 10.664 38.7075 10.344 38.7075 9.976C38.7075 9.656 38.7955 9.34933 38.9715 9.056C39.1475 8.75733 39.4328 8.49333 39.8275 8.264C40.2222 8.03467 40.7368 7.848 41.3715 7.704C42.0062 7.55467 42.7848 7.46933 43.7075 7.448V6.816C43.7075 6.18667 43.5715 5.712 43.2995 5.392C43.0275 5.06667 42.6302 4.904 42.1075 4.904C41.7555 4.904 41.4595 4.94933 41.2195 5.04C40.9848 5.12533 40.7795 5.224 40.6035 5.336C40.4328 5.44267 40.2835 5.54133 40.1555 5.632C40.0328 5.71733 39.9102 5.76 39.7875 5.76C39.6915 5.76 39.6088 5.736 39.5395 5.688C39.4702 5.63467 39.4115 5.57067 39.3635 5.496L39.1075 5.04ZM48.6126 5.072C48.7886 4.87467 48.9753 4.696 49.1726 4.536C49.37 4.376 49.578 4.24 49.7966 4.128C50.0206 4.01067 50.2553 3.92267 50.5006 3.864C50.7513 3.8 51.0206 3.768 51.3086 3.768C51.7513 3.768 52.1406 3.84267 52.4766 3.992C52.818 4.136 53.1006 4.344 53.3246 4.616C53.554 4.88267 53.7273 5.20533 53.8446 5.584C53.962 5.96267 54.0206 6.38133 54.0206 6.84V12H52.5886V6.84C52.5886 6.22667 52.4473 5.752 52.1646 5.416C51.8873 5.07467 51.4633 4.904 50.8926 4.904C50.4713 4.904 50.0766 5.00533 49.7086 5.208C49.346 5.41067 49.01 5.68533 48.7006 6.032V12H47.2686V3.896H48.1246C48.3273 3.896 48.4526 3.99467 48.5006 4.192L48.6126 5.072ZM64.6763 8.352C64.0203 8.37333 63.4603 8.42667 62.9963 8.512C62.5376 8.592 62.1616 8.69867 61.8683 8.832C61.5803 8.96533 61.3696 9.12267 61.2363 9.304C61.1083 9.48533 61.0443 9.688 61.0443 9.912C61.0443 10.1253 61.0789 10.3093 61.1483 10.464C61.2176 10.6187 61.3109 10.7467 61.4283 10.848C61.5509 10.944 61.6923 11.016 61.8523 11.064C62.0176 11.1067 62.1936 11.128 62.3803 11.128C62.6309 11.128 62.8603 11.104 63.0683 11.056C63.2763 11.0027 63.4709 10.928 63.6523 10.832C63.8389 10.736 64.0149 10.6213 64.1803 10.488C64.3509 10.3547 64.5163 10.2027 64.6763 10.032V8.352ZM60.0763 5.04C60.5243 4.608 61.0069 4.28533 61.5243 4.072C62.0416 3.85867 62.6149 3.752 63.2443 3.752C63.6976 3.752 64.1003 3.82667 64.4523 3.976C64.8043 4.12533 65.1003 4.33333 65.3403 4.6C65.5803 4.86667 65.7616 5.18933 65.8843 5.568C66.0069 5.94667 66.0683 6.36267 66.0683 6.816V12H65.4363C65.2976 12 65.1909 11.9787 65.1163 11.936C65.0416 11.888 64.9829 11.7973 64.9403 11.664L64.7803 10.896C64.5669 11.0933 64.3589 11.2693 64.1562 11.424C63.9536 11.5733 63.7403 11.7013 63.5163 11.808C63.2923 11.9093 63.0523 11.9867 62.7963 12.04C62.5456 12.0987 62.2656 12.128 61.9563 12.128C61.6416 12.128 61.3456 12.0853 61.0683 12C60.7909 11.9093 60.5483 11.776 60.3403 11.6C60.1376 11.424 59.9749 11.2027 59.8523 10.936C59.7349 10.664 59.6763 10.344 59.6763 9.976C59.6763 9.656 59.7643 9.34933 59.9403 9.056C60.1163 8.75733 60.4016 8.49333 60.7963 8.264C61.1909 8.03467 61.7056 7.848 62.3403 7.704C62.9749 7.55467 63.7536 7.46933 64.6763 7.448V6.816C64.6763 6.18667 64.5403 5.712 64.2683 5.392C63.9963 5.06667 63.5989 4.904 63.0763 4.904C62.7243 4.904 62.4283 4.94933 62.1883 5.04C61.9536 5.12533 61.7483 5.224 61.5723 5.336C61.4016 5.44267 61.2523 5.54133 61.1243 5.632C61.0016 5.71733 60.8789 5.76 60.7563 5.76C60.6603 5.76 60.5776 5.736 60.5083 5.688C60.4389 5.63467 60.3803 5.57067 60.3322 5.496L60.0763 5.04ZM69.7094 0.216V12H68.2854V0.216H69.7094ZM76.7386 5.232C76.6746 5.34933 76.576 5.408 76.4426 5.408C76.3626 5.408 76.272 5.37867 76.1706 5.32C76.0693 5.26133 75.944 5.19733 75.7946 5.128C75.6506 5.05333 75.4773 4.98667 75.2746 4.928C75.072 4.864 74.832 4.832 74.5546 4.832C74.3146 4.832 74.0986 4.864 73.9066 4.928C73.7146 4.98667 73.5493 5.06933 73.4106 5.176C73.2773 5.28267 73.1733 5.408 73.0986 5.552C73.0293 5.69067 72.9946 5.84267 72.9946 6.008C72.9946 6.216 73.0533 6.38933 73.1706 6.528C73.2933 6.66667 73.4533 6.78667 73.6506 6.888C73.848 6.98933 74.072 7.08 74.3226 7.16C74.5733 7.23467 74.8293 7.31733 75.0906 7.408C75.3573 7.49333 75.616 7.58933 75.8666 7.696C76.1173 7.80267 76.3413 7.936 76.5386 8.096C76.736 8.256 76.8933 8.45333 77.0106 8.688C77.1333 8.91733 77.1946 9.19467 77.1946 9.52C77.1946 9.89333 77.128 10.24 76.9946 10.56C76.8613 10.8747 76.664 11.1493 76.4026 11.384C76.1413 11.6133 75.8213 11.7947 75.4426 11.928C75.064 12.0613 74.6266 12.128 74.1306 12.128C73.5653 12.128 73.0533 12.0373 72.5946 11.856C72.136 11.6693 71.7466 11.432 71.4266 11.144L71.7626 10.6C71.8053 10.5307 71.856 10.4773 71.9146 10.44C71.9733 10.4027 72.048 10.384 72.1386 10.384C72.2346 10.384 72.336 10.4213 72.4426 10.496C72.5493 10.5707 72.6773 10.6533 72.8266 10.744C72.9813 10.8347 73.168 10.9173 73.3866 10.992C73.6053 11.0667 73.8773 11.104 74.2026 11.104C74.48 11.104 74.7226 11.0693 74.9306 11C75.1386 10.9253 75.312 10.8267 75.4506 10.704C75.5893 10.5813 75.6906 10.44 75.7546 10.28C75.824 10.12 75.8586 9.94933 75.8586 9.768C75.8586 9.544 75.7973 9.36 75.6746 9.216C75.5573 9.06667 75.4 8.94133 75.2026 8.84C75.0053 8.73333 74.7786 8.64267 74.5226 8.568C74.272 8.488 74.0133 8.40533 73.7466 8.32C73.4853 8.23467 73.2266 8.13867 72.9706 8.032C72.72 7.92 72.496 7.78133 72.2986 7.616C72.1013 7.45067 71.9413 7.248 71.8186 7.008C71.7013 6.76267 71.6426 6.46667 71.6426 6.12C71.6426 5.81067 71.7066 5.51467 71.8346 5.232C71.9626 4.944 72.1493 4.69333 72.3946 4.48C72.64 4.26133 72.9413 4.088 73.2986 3.96C73.656 3.832 74.064 3.768 74.5226 3.768C75.056 3.768 75.5333 3.85333 75.9546 4.024C76.3813 4.18933 76.7493 4.41867 77.0586 4.712L76.7386 5.232ZM82.3565 3.768C82.9485 3.768 83.4818 3.86667 83.9565 4.064C84.4312 4.26133 84.8365 4.54133 85.1725 4.904C85.5085 5.26667 85.7645 5.70667 85.9405 6.224C86.1218 6.736 86.2125 7.30933 86.2125 7.944C86.2125 8.584 86.1218 9.16 85.9405 9.672C85.7645 10.184 85.5085 10.6213 85.1725 10.984C84.8365 11.3467 84.4312 11.6267 83.9565 11.824C83.4818 12.016 82.9485 12.112 82.3565 12.112C81.7592 12.112 81.2205 12.016 80.7405 11.824C80.2658 11.6267 79.8605 11.3467 79.5245 10.984C79.1885 10.6213 78.9298 10.184 78.7485 9.672C78.5725 9.16 78.4845 8.584 78.4845 7.944C78.4845 7.30933 78.5725 6.736 78.7485 6.224C78.9298 5.70667 79.1885 5.26667 79.5245 4.904C79.8605 4.54133 80.2658 4.26133 80.7405 4.064C81.2205 3.86667 81.7592 3.768 82.3565 3.768ZM82.3565 11C83.1565 11 83.7538 10.7333 84.1485 10.2C84.5432 9.66133 84.7405 8.912 84.7405 7.952C84.7405 6.98667 84.5432 6.23467 84.1485 5.696C83.7538 5.15733 83.1565 4.888 82.3565 4.888C81.9512 4.888 81.5965 4.95733 81.2925 5.096C80.9938 5.23467 80.7432 5.43467 80.5405 5.696C80.3432 5.95733 80.1938 6.28 80.0925 6.664C79.9965 7.04267 79.9485 7.472 79.9485 7.952C79.9485 8.912 80.1458 9.66133 80.5405 10.2C80.9405 10.7333 81.5458 11 82.3565 11ZM153.294 10.048C153.556 10.4 153.841 10.648 154.15 10.792C154.465 10.936 154.809 11.008 155.182 11.008C155.945 11.008 156.529 10.7387 156.934 10.2C157.34 9.66133 157.542 8.85867 157.542 7.792C157.542 6.8 157.361 6.072 156.998 5.608C156.641 5.13867 156.129 4.904 155.462 4.904C154.998 4.904 154.593 5.01067 154.246 5.224C153.905 5.43733 153.588 5.73867 153.294 6.128V10.048ZM153.294 5.064C153.636 4.66933 154.02 4.35467 154.446 4.12C154.878 3.88533 155.374 3.768 155.934 3.768C156.409 3.768 156.836 3.85867 157.214 4.04C157.598 4.22133 157.924 4.48533 158.19 4.832C158.457 5.17333 158.66 5.58933 158.798 6.08C158.942 6.57067 159.014 7.12267 159.014 7.736C159.014 8.392 158.934 8.98933 158.774 9.528C158.614 10.0667 158.382 10.528 158.078 10.912C157.78 11.2907 157.414 11.5867 156.982 11.8C156.55 12.008 156.065 12.112 155.526 12.112C154.993 12.112 154.542 12.0133 154.174 11.816C153.812 11.6133 153.494 11.328 153.222 10.96L153.15 11.696C153.108 11.8987 152.985 12 152.782 12H151.862V0.216H153.294V5.064ZM167.604 3.896L163.084 14.392C163.036 14.4987 162.975 14.584 162.9 14.648C162.831 14.712 162.722 14.744 162.572 14.744H161.516L162.996 11.528L159.652 3.896H160.884C161.007 3.896 161.103 3.928 161.172 3.992C161.247 4.05067 161.298 4.11733 161.324 4.192L163.492 9.296C163.578 9.52 163.65 9.75467 163.708 10C163.783 9.74933 163.863 9.512 163.948 9.288L166.052 4.192C166.084 4.10667 166.138 4.03733 166.212 3.984C166.292 3.92533 166.38 3.896 166.476 3.896H167.604ZM173.998 10.048C174.259 10.4 174.544 10.648 174.854 10.792C175.163 10.936 175.51 11.008 175.894 11.008C176.651 11.008 177.232 10.7387 177.638 10.2C178.043 9.66133 178.246 8.89333 178.246 7.896C178.246 7.368 178.198 6.91467 178.102 6.536C178.011 6.15733 177.878 5.848 177.702 5.608C177.526 5.36267 177.31 5.184 177.054 5.072C176.798 4.96 176.507 4.904 176.182 4.904C175.718 4.904 175.31 5.01067 174.958 5.224C174.611 5.43733 174.291 5.73867 173.998 6.128V10.048ZM173.926 5.152C174.267 4.73067 174.662 4.392 175.11 4.136C175.558 3.88 176.07 3.752 176.646 3.752C177.115 3.752 177.539 3.84267 177.918 4.024C178.296 4.2 178.619 4.464 178.886 4.816C179.152 5.16267 179.358 5.59467 179.502 6.112C179.646 6.62933 179.718 7.224 179.718 7.896C179.718 8.49333 179.638 9.05067 179.477 9.568C179.318 10.08 179.086 10.5253 178.782 10.904C178.483 11.2773 178.115 11.5733 177.678 11.792C177.246 12.0053 176.758 12.112 176.214 12.112C175.718 12.112 175.291 12.0293 174.934 11.864C174.582 11.6933 174.27 11.4587 173.998 11.16V14.744H172.566V3.896H173.422C173.624 3.896 173.75 3.99467 173.798 4.192L173.926 5.152ZM182.966 4.976C183.313 4.608 183.697 4.31467 184.118 4.096C184.54 3.87733 185.025 3.768 185.574 3.768C186.017 3.768 186.406 3.84267 186.742 3.992C187.084 4.136 187.366 4.344 187.59 4.616C187.82 4.88267 187.993 5.20533 188.11 5.584C188.228 5.96267 188.286 6.38133 188.286 6.84V12H186.854V6.84C186.854 6.22667 186.713 5.752 186.43 5.416C186.153 5.07467 185.729 4.904 185.158 4.904C184.737 4.904 184.342 5.00533 183.974 5.208C183.612 5.41067 183.276 5.68533 182.966 6.032V12H181.534V0.216H182.966V4.976ZM193.872 3.768C194.464 3.768 194.997 3.86667 195.472 4.064C195.947 4.26133 196.352 4.54133 196.688 4.904C197.024 5.26667 197.28 5.70667 197.456 6.224C197.637 6.736 197.728 7.30933 197.728 7.944C197.728 8.584 197.637 9.16 197.456 9.672C197.28 10.184 197.024 10.6213 196.688 10.984C196.352 11.3467 195.947 11.6267 195.472 11.824C194.997 12.016 194.464 12.112 193.872 12.112C193.275 12.112 192.736 12.016 192.256 11.824C191.781 11.6267 191.376 11.3467 191.04 10.984C190.704 10.6213 190.445 10.184 190.264 9.672C190.088 9.16 190 8.584 190 7.944C190 7.30933 190.088 6.736 190.264 6.224C190.445 5.70667 190.704 5.26667 191.04 4.904C191.376 4.54133 191.781 4.26133 192.256 4.064C192.736 3.86667 193.275 3.768 193.872 3.768ZM193.872 11C194.672 11 195.269 10.7333 195.664 10.2C196.059 9.66133 196.256 8.912 196.256 7.952C196.256 6.98667 196.059 6.23467 195.664 5.696C195.269 5.15733 194.672 4.888 193.872 4.888C193.467 4.888 193.112 4.95733 192.808 5.096C192.509 5.23467 192.259 5.43467 192.056 5.696C191.859 5.95733 191.709 6.28 191.608 6.664C191.512 7.04267 191.464 7.472 191.464 7.952C191.464 8.912 191.661 9.66133 192.056 10.2C192.456 10.7333 193.061 11 193.872 11ZM200.878 5.072C201.054 4.87467 201.241 4.696 201.438 4.536C201.636 4.376 201.844 4.24 202.062 4.128C202.286 4.01067 202.521 3.92267 202.766 3.864C203.017 3.8 203.286 3.768 203.574 3.768C204.017 3.768 204.406 3.84267 204.742 3.992C205.084 4.136 205.366 4.344 205.59 4.616C205.82 4.88267 205.993 5.20533 206.11 5.584C206.228 5.96267 206.286 6.38133 206.286 6.84V12H204.854V6.84C204.854 6.22667 204.713 5.752 204.43 5.416C204.153 5.07467 203.729 4.904 203.158 4.904C202.737 4.904 202.342 5.00533 201.974 5.208C201.612 5.41067 201.276 5.68533 200.966 6.032V12H199.534V3.896H200.39C200.593 3.896 200.718 3.99467 200.766 4.192L200.878 5.072ZM213.88 7.064C213.88 6.73333 213.832 6.432 213.736 6.16C213.645 5.88267 213.509 5.64533 213.328 5.448C213.152 5.24533 212.936 5.09067 212.68 4.984C212.424 4.872 212.133 4.816 211.808 4.816C211.125 4.816 210.584 5.016 210.184 5.416C209.789 5.81067 209.544 6.36 209.448 7.064H213.88ZM215.032 10.864C214.856 11.0773 214.645 11.264 214.4 11.424C214.155 11.5787 213.891 11.7067 213.608 11.808C213.331 11.9093 213.043 11.984 212.744 12.032C212.445 12.0853 212.149 12.112 211.856 12.112C211.296 12.112 210.779 12.0187 210.304 11.832C209.835 11.64 209.427 11.3627 209.08 11C208.739 10.632 208.472 10.1787 208.28 9.64C208.088 9.10133 207.992 8.48267 207.992 7.784C207.992 7.21867 208.077 6.69067 208.248 6.2C208.424 5.70933 208.675 5.28533 209 4.928C209.325 4.56533 209.723 4.28267 210.192 4.08C210.661 3.872 211.189 3.768 211.776 3.768C212.261 3.768 212.709 3.85067 213.12 4.016C213.536 4.176 213.893 4.41067 214.192 4.72C214.496 5.024 214.733 5.40267 214.904 5.856C215.075 6.304 215.16 6.816 215.16 7.392C215.16 7.616 215.136 7.76533 215.088 7.84C215.04 7.91467 214.949 7.952 214.816 7.952H209.4C209.416 8.464 209.485 8.90933 209.608 9.288C209.736 9.66667 209.912 9.984 210.136 10.24C210.36 10.4907 210.627 10.68 210.936 10.808C211.245 10.9307 211.592 10.992 211.976 10.992C212.333 10.992 212.64 10.952 212.896 10.872C213.157 10.7867 213.381 10.696 213.568 10.6C213.755 10.504 213.909 10.416 214.032 10.336C214.16 10.2507 214.269 10.208 214.36 10.208C214.477 10.208 214.568 10.2533 214.632 10.344L215.032 10.864Z"
      fill="#2594A2"
    />
    <path
      d="M95.6244 6.088C96.0724 6.088 96.467 6.03467 96.8084 5.928C97.155 5.816 97.443 5.66133 97.6724 5.464C97.907 5.26133 98.083 5.02133 98.2004 4.744C98.3177 4.46667 98.3764 4.16 98.3764 3.824C98.3764 3.14133 98.1524 2.62667 97.7044 2.28C97.2564 1.93333 96.5844 1.76 95.6884 1.76H93.9924V6.088H95.6244ZM100.92 12H99.5444C99.2617 12 99.0537 11.8907 98.9204 11.672L95.9444 7.576C95.8537 7.448 95.755 7.35733 95.6484 7.304C95.547 7.24533 95.387 7.216 95.1684 7.216H93.9924V12H92.4484V0.535999H95.6884C96.4137 0.535999 97.0404 0.610666 97.5684 0.759999C98.0964 0.904 98.531 1.11467 98.8724 1.392C99.219 1.66933 99.475 2.00533 99.6404 2.4C99.8057 2.78933 99.8884 3.22667 99.8884 3.712C99.8884 4.11733 99.8244 4.496 99.6964 4.848C99.5684 5.2 99.3817 5.51733 99.1364 5.8C98.8964 6.07733 98.6004 6.31467 98.2484 6.512C97.9017 6.70933 97.507 6.85867 97.0644 6.96C97.2617 7.072 97.4324 7.23467 97.5764 7.448L100.92 12ZM107.052 7.064C107.052 6.73333 107.004 6.432 106.908 6.16C106.817 5.88267 106.681 5.64533 106.5 5.448C106.324 5.24533 106.108 5.09067 105.852 4.984C105.596 4.872 105.305 4.816 104.98 4.816C104.297 4.816 103.756 5.016 103.356 5.416C102.961 5.81067 102.716 6.36 102.62 7.064H107.052ZM108.204 10.864C108.028 11.0773 107.817 11.264 107.572 11.424C107.327 11.5787 107.063 11.7067 106.78 11.808C106.503 11.9093 106.215 11.984 105.916 12.032C105.617 12.0853 105.321 12.112 105.028 12.112C104.468 12.112 103.951 12.0187 103.476 11.832C103.007 11.64 102.599 11.3627 102.252 11C101.911 10.632 101.644 10.1787 101.452 9.64C101.26 9.10133 101.164 8.48267 101.164 7.784C101.164 7.21867 101.249 6.69067 101.42 6.2C101.596 5.70933 101.847 5.28533 102.172 4.928C102.497 4.56533 102.895 4.28267 103.364 4.08C103.833 3.872 104.361 3.768 104.948 3.768C105.433 3.768 105.881 3.85067 106.292 4.016C106.708 4.176 107.065 4.41067 107.364 4.72C107.668 5.024 107.905 5.40267 108.076 5.856C108.247 6.304 108.332 6.816 108.332 7.392C108.332 7.616 108.308 7.76533 108.26 7.84C108.212 7.91467 108.121 7.952 107.988 7.952H102.572C102.588 8.464 102.657 8.90933 102.78 9.288C102.908 9.66667 103.084 9.984 103.308 10.24C103.532 10.4907 103.799 10.68 104.108 10.808C104.417 10.9307 104.764 10.992 105.148 10.992C105.505 10.992 105.812 10.952 106.068 10.872C106.329 10.7867 106.553 10.696 106.74 10.6C106.927 10.504 107.081 10.416 107.204 10.336C107.332 10.2507 107.441 10.208 107.532 10.208C107.649 10.208 107.74 10.2533 107.804 10.344L108.204 10.864ZM114.801 5.232C114.737 5.34933 114.638 5.408 114.505 5.408C114.425 5.408 114.334 5.37867 114.233 5.32C114.132 5.26133 114.006 5.19733 113.857 5.128C113.713 5.05333 113.54 4.98667 113.337 4.928C113.134 4.864 112.894 4.832 112.617 4.832C112.377 4.832 112.161 4.864 111.969 4.928C111.777 4.98667 111.612 5.06933 111.473 5.176C111.34 5.28267 111.236 5.408 111.161 5.552C111.092 5.69067 111.057 5.84267 111.057 6.008C111.057 6.216 111.116 6.38933 111.233 6.528C111.356 6.66667 111.516 6.78667 111.713 6.888C111.91 6.98933 112.134 7.08 112.385 7.16C112.636 7.23467 112.892 7.31733 113.153 7.408C113.42 7.49333 113.678 7.58933 113.929 7.696C114.18 7.80267 114.404 7.936 114.601 8.096C114.798 8.256 114.956 8.45333 115.073 8.688C115.196 8.91733 115.257 9.19467 115.257 9.52C115.257 9.89333 115.19 10.24 115.057 10.56C114.924 10.8747 114.726 11.1493 114.465 11.384C114.204 11.6133 113.884 11.7947 113.505 11.928C113.126 12.0613 112.689 12.128 112.193 12.128C111.628 12.128 111.116 12.0373 110.657 11.856C110.198 11.6693 109.809 11.432 109.489 11.144L109.825 10.6C109.868 10.5307 109.918 10.4773 109.977 10.44C110.036 10.4027 110.11 10.384 110.201 10.384C110.297 10.384 110.398 10.4213 110.505 10.496C110.612 10.5707 110.74 10.6533 110.889 10.744C111.044 10.8347 111.23 10.9173 111.449 10.992C111.668 11.0667 111.94 11.104 112.265 11.104C112.542 11.104 112.785 11.0693 112.993 11C113.201 10.9253 113.374 10.8267 113.513 10.704C113.652 10.5813 113.753 10.44 113.817 10.28C113.886 10.12 113.921 9.94933 113.921 9.768C113.921 9.544 113.86 9.36 113.737 9.216C113.62 9.06667 113.462 8.94133 113.265 8.84C113.068 8.73333 112.841 8.64267 112.585 8.568C112.334 8.488 112.076 8.40533 111.809 8.32C111.548 8.23467 111.289 8.13867 111.033 8.032C110.782 7.92 110.558 7.78133 110.361 7.616C110.164 7.45067 110.004 7.248 109.881 7.008C109.764 6.76267 109.705 6.46667 109.705 6.12C109.705 5.81067 109.769 5.51467 109.897 5.232C110.025 4.944 110.212 4.69333 110.457 4.48C110.702 4.26133 111.004 4.088 111.361 3.96C111.718 3.832 112.126 3.768 112.585 3.768C113.118 3.768 113.596 3.85333 114.017 4.024C114.444 4.18933 114.812 4.41867 115.121 4.712L114.801 5.232ZM122.427 7.064C122.427 6.73333 122.379 6.432 122.283 6.16C122.192 5.88267 122.056 5.64533 121.875 5.448C121.699 5.24533 121.483 5.09067 121.227 4.984C120.971 4.872 120.68 4.816 120.355 4.816C119.672 4.816 119.131 5.016 118.731 5.416C118.336 5.81067 118.091 6.36 117.995 7.064H122.427ZM123.579 10.864C123.403 11.0773 123.192 11.264 122.947 11.424C122.702 11.5787 122.438 11.7067 122.155 11.808C121.878 11.9093 121.59 11.984 121.291 12.032C120.992 12.0853 120.696 12.112 120.403 12.112C119.843 12.112 119.326 12.0187 118.851 11.832C118.382 11.64 117.974 11.3627 117.627 11C117.286 10.632 117.019 10.1787 116.827 9.64C116.635 9.10133 116.539 8.48267 116.539 7.784C116.539 7.21867 116.624 6.69067 116.795 6.2C116.971 5.70933 117.222 5.28533 117.547 4.928C117.872 4.56533 118.27 4.28267 118.739 4.08C119.208 3.872 119.736 3.768 120.323 3.768C120.808 3.768 121.256 3.85067 121.667 4.016C122.083 4.176 122.44 4.41067 122.739 4.72C123.043 5.024 123.28 5.40267 123.451 5.856C123.622 6.304 123.707 6.816 123.707 7.392C123.707 7.616 123.683 7.76533 123.635 7.84C123.587 7.91467 123.496 7.952 123.363 7.952H117.947C117.963 8.464 118.032 8.90933 118.155 9.288C118.283 9.66667 118.459 9.984 118.683 10.24C118.907 10.4907 119.174 10.68 119.483 10.808C119.792 10.9307 120.139 10.992 120.523 10.992C120.88 10.992 121.187 10.952 121.443 10.872C121.704 10.7867 121.928 10.696 122.115 10.6C122.302 10.504 122.456 10.416 122.579 10.336C122.707 10.2507 122.816 10.208 122.907 10.208C123.024 10.208 123.115 10.2533 123.179 10.344L123.579 10.864ZM126.808 5.52C127.064 4.96533 127.379 4.53333 127.752 4.224C128.125 3.90933 128.581 3.752 129.12 3.752C129.291 3.752 129.453 3.77067 129.608 3.808C129.768 3.84533 129.909 3.904 130.032 3.984L129.928 5.048C129.896 5.18133 129.816 5.248 129.688 5.248C129.613 5.248 129.504 5.232 129.36 5.2C129.216 5.168 129.053 5.152 128.872 5.152C128.616 5.152 128.387 5.18933 128.184 5.264C127.987 5.33867 127.808 5.45067 127.648 5.6C127.493 5.744 127.352 5.92533 127.224 6.144C127.101 6.35733 126.989 6.60267 126.888 6.88V12H125.456V3.896H126.272C126.427 3.896 126.533 3.92533 126.592 3.984C126.651 4.04267 126.691 4.144 126.712 4.288L126.808 5.52ZM138.228 3.896L134.924 12H133.644L130.34 3.896H131.5C131.618 3.896 131.714 3.92533 131.788 3.984C131.863 4.04267 131.914 4.112 131.94 4.192L133.996 9.408C134.06 9.60533 134.116 9.79733 134.164 9.984C134.212 10.1707 134.258 10.3573 134.3 10.544C134.343 10.3573 134.388 10.1707 134.436 9.984C134.484 9.79733 134.543 9.60533 134.612 9.408L136.692 4.192C136.724 4.10667 136.778 4.03733 136.852 3.984C136.927 3.92533 137.015 3.896 137.116 3.896H138.228ZM144.74 7.064C144.74 6.73333 144.692 6.432 144.596 6.16C144.505 5.88267 144.369 5.64533 144.188 5.448C144.012 5.24533 143.796 5.09067 143.54 4.984C143.284 4.872 142.993 4.816 142.668 4.816C141.985 4.816 141.444 5.016 141.044 5.416C140.649 5.81067 140.404 6.36 140.308 7.064H144.74ZM145.892 10.864C145.716 11.0773 145.505 11.264 145.26 11.424C145.014 11.5787 144.75 11.7067 144.468 11.808C144.19 11.9093 143.902 11.984 143.604 12.032C143.305 12.0853 143.009 12.112 142.716 12.112C142.156 12.112 141.638 12.0187 141.164 11.832C140.694 11.64 140.286 11.3627 139.94 11C139.598 10.632 139.332 10.1787 139.14 9.64C138.948 9.10133 138.852 8.48267 138.852 7.784C138.852 7.21867 138.937 6.69067 139.108 6.2C139.284 5.70933 139.534 5.28533 139.86 4.928C140.185 4.56533 140.582 4.28267 141.052 4.08C141.521 3.872 142.049 3.768 142.636 3.768C143.121 3.768 143.569 3.85067 143.98 4.016C144.396 4.176 144.753 4.41067 145.052 4.72C145.356 5.024 145.593 5.40267 145.764 5.856C145.934 6.304 146.02 6.816 146.02 7.392C146.02 7.616 145.996 7.76533 145.948 7.84C145.9 7.91467 145.809 7.952 145.676 7.952H140.26C140.276 8.464 140.345 8.90933 140.468 9.288C140.596 9.66667 140.772 9.984 140.996 10.24C141.22 10.4907 141.486 10.68 141.796 10.808C142.105 10.9307 142.452 10.992 142.836 10.992C143.193 10.992 143.5 10.952 143.756 10.872C144.017 10.7867 144.241 10.696 144.428 10.6C144.614 10.504 144.769 10.416 144.892 10.336C145.02 10.2507 145.129 10.208 145.22 10.208C145.337 10.208 145.428 10.2533 145.492 10.344L145.892 10.864Z"
      fill="#CE203B"
    />
  </svg>