<svg
    width="30"
    height="29"
    viewBox="0 0 20 19"
    fill="none"
    xmlns="http://www.w3.org/2000/svg"
  >
    <path
      d="M13.5213 17.9424L6.38679 10.7941H3.22273C2.71323 10.793 2.21013 10.6803 1.74872 10.4638L1.44277 10.3012C1.24431 10.2093 1.076 10.0628 0.957427 9.87878C0.838851 9.69477 0.774891 9.48081 0.772993 9.2618C0.771094 9.04279 0.831335 8.82774 0.946703 8.6417C1.06207 8.45566 1.22782 8.30627 1.42465 8.21092L1.76684 8.0315C2.22298 7.82012 2.71945 7.71032 3.22203 7.70965H6.38609L13.5199 0.564111C13.698 0.384693 13.9099 0.242453 14.1433 0.145624C14.3767 0.0487955 14.627 -0.000698267 14.8796 7.44167e-06L15.7814 7.44167e-06C15.8505 -3.63892e-05 15.9183 0.0185501 15.9777 0.0538155C16.0371 0.0890809 16.086 0.139724 16.1191 0.200428C16.1523 0.261132 16.1685 0.329657 16.1661 0.398809C16.1637 0.467961 16.1428 0.535189 16.1055 0.593433L11.457 7.85906C12.6215 7.92887 13.5937 8.02801 14.7764 8.14669L15.9884 8.26957L17.769 5.57053C17.8043 5.51728 17.8521 5.47359 17.9083 5.44338C17.9645 5.41317 18.0273 5.39737 18.091 5.39739H18.8576C18.9152 5.39742 18.9721 5.41037 19.024 5.43529C19.0759 5.46021 19.1216 5.49647 19.1577 5.54141C19.1938 5.58635 19.2194 5.63881 19.2326 5.69496C19.2458 5.7511 19.2463 5.80949 19.234 5.86585L18.482 9.25186L19.234 12.6379C19.2466 12.6942 19.2464 12.7526 19.2333 12.8088C19.2203 12.865 19.1948 12.9175 19.1587 12.9625C19.1223 13.0074 19.0764 13.0435 19.0244 13.0684C18.9723 13.0933 18.9153 13.1062 18.8576 13.1063H18.091C18.0273 13.1066 17.9646 13.0908 17.9085 13.0606C17.8524 13.0304 17.8047 12.9866 17.7697 12.9332L15.9919 10.2342L14.7757 10.357C13.5909 10.4757 12.6229 10.5728 11.4583 10.6447L16.1055 17.9096C16.1427 17.9678 16.1637 18.035 16.1661 18.104C16.1685 18.1731 16.1524 18.2416 16.1193 18.3023C16.0862 18.363 16.0375 18.4136 15.9782 18.4489C15.9188 18.4843 15.8511 18.5029 15.7821 18.503H14.8796C14.6274 18.5042 14.3775 18.4552 14.1444 18.359C13.9112 18.2627 13.6994 18.1212 13.5213 17.9424Z"
      fill="#BDBFCD"
    />
  </svg>