<svg width="11" height="10" viewBox="0 0 11 10" fill="none" xmlns="http://www.w3.org/2000/svg">
<path d="M1.96429 0C1.44332 0 0.943701 0.203829 0.575326 0.566648C0.206951 0.929467 0 1.42155 0 1.93466V5.80397C0 6.05804 0.0508078 6.30961 0.149522 6.54433C0.248237 6.77906 0.392925 6.99233 0.575326 7.17198C0.943701 7.5348 1.44332 7.73863 1.96429 7.73863H2.35714V9.24147C2.35712 9.38715 2.39969 9.52976 2.47978 9.65224C2.55986 9.77472 2.67407 9.87188 2.80874 9.93212C2.94342 9.99236 3.09285 10.0131 3.23919 9.99193C3.38553 9.97073 3.52257 9.90847 3.63393 9.81258L6.04057 7.73863H9.03571C9.29367 7.73863 9.5491 7.68859 9.78741 7.59136C10.0257 7.49414 10.2423 7.35163 10.4247 7.17198C10.6071 6.99233 10.7518 6.77906 10.8505 6.54433C10.9492 6.30961 11 6.05804 11 5.80397V1.93466C11 1.42155 10.793 0.929467 10.4247 0.566648C10.0563 0.203829 9.55667 0 9.03571 0H1.96429Z" fill="white"/>
</svg>
