  <svg
    width="18"
    height="18"
    viewBox="0 0 18 18"
    fill="none"
    xmlns="http://www.w3.org/2000/svg"
  >
    <path
      d="M4.84866 15.2266C4.70899 15.4687 4.5786 15.6891 4.46066 15.8753C4.23308 16.233 3.8385 16.4496 3.41457 16.4496C2.99063 16.4496 2.59605 16.233 2.36847 15.8753C2.25053 15.6891 2.12014 15.4687 1.98047 15.2266C0.68292 15.4718 0 15.9902 0 16.3937C0 17.0052 1.45895 17.6912 3.41453 17.6912C5.37014 17.6912 6.82906 17.0052 6.82906 16.3937C6.8291 15.9902 6.14618 15.4718 4.84866 15.2266Z"
      fill="#818181"
    />
    <path
      d="M3.41457 5.27539C1.52587 5.28021 -0.00207257 6.81371 2.11028e-06 8.70237C2.11028e-06 10.0154 1.75384 13.7559 2.89305 15.5408C3.00558 15.7204 3.2026 15.8295 3.41453 15.8295C3.62647 15.8295 3.82353 15.7204 3.93602 15.5408C5.07522 13.7559 6.82906 10.0154 6.82906 8.70237C6.83117 6.81371 5.30323 5.28021 3.41457 5.27539ZM3.41457 11.1732C2.04307 11.1732 0.931251 10.0614 0.931251 8.68992C0.931251 7.31842 2.04307 6.2066 3.41457 6.2066C4.78607 6.2066 5.89789 7.31842 5.89789 8.68992C5.89602 10.0607 4.7853 11.1714 3.41457 11.1732Z"
      fill="#818181"
    />
    <path
      d="M3.41523 6.82715C2.38661 6.82715 1.55273 7.66099 1.55273 8.68965C1.55273 9.7183 2.38658 10.5521 3.41523 10.5521C4.44385 10.5521 5.27773 9.7183 5.27773 8.68965C5.27689 7.66134 4.4435 6.82796 3.41523 6.82715Z"
      fill="#818181"
    />
    <path
      d="M15.21 8.69003C16.3865 8.69003 17.3829 8.12199 17.3829 7.44839C17.3829 7.06658 17.0415 6.69409 16.4982 6.45508C16.3151 6.79652 16.1382 7.10072 15.9954 7.32736C15.8246 7.59608 15.5284 7.75882 15.21 7.75882C14.8916 7.75882 14.5954 7.59604 14.4246 7.32736C14.2818 7.10076 14.1049 6.79656 13.9218 6.45508C13.3786 6.69409 13.0371 7.06658 13.0371 7.44839C13.0371 8.12196 14.0336 8.69003 15.21 8.69003Z"
      fill="#818181"
    />
    <path
      d="M15.21 7.13224C15.3143 7.13224 15.4118 7.08087 15.4708 6.99489C16.222 5.81222 17.3829 3.34754 17.3829 2.4908C17.3845 1.28858 16.4122 0.31211 15.21 0.308594C14.0078 0.31211 13.0355 1.28854 13.0371 2.4908C13.0371 3.34754 14.1981 5.81222 14.9493 6.99489C15.0082 7.08087 15.1058 7.13224 15.21 7.13224ZM13.658 2.48148C13.658 1.62429 14.3528 0.929414 15.21 0.929414C16.0672 0.929414 16.7621 1.62429 16.7621 2.48148C16.7618 3.33854 16.0671 4.03324 15.21 4.03355C14.3528 4.03355 13.658 3.33868 13.658 2.48148Z"
      fill="#818181"
    />
    <path
      d="M16.1418 2.48203C16.1403 1.96835 15.7243 1.55229 15.2105 1.55078C14.6962 1.55078 14.2793 1.96772 14.2793 2.48203C14.2793 2.99634 14.6962 3.41328 15.2105 3.41328C15.7249 3.41328 16.1418 2.99634 16.1418 2.48203Z"
      fill="#818181"
    />
    <path
      d="M8.07008 16.1396H7.75965C7.58822 16.1396 7.44922 16.2786 7.44922 16.4501C7.44922 16.6215 7.58819 16.7605 7.75965 16.7605H8.07008C8.2415 16.7605 8.3805 16.6215 8.3805 16.4501C8.3805 16.2786 8.24153 16.1396 8.07008 16.1396Z"
      fill="#818181"
    />
    <path
      d="M11.8177 16.1396H11.1932C11.0218 16.1396 10.8828 16.2786 10.8828 16.4501C10.8828 16.6215 11.0218 16.7605 11.1932 16.7605H11.8177C11.9891 16.7605 12.1281 16.6215 12.1281 16.4501C12.1281 16.2786 11.9892 16.1396 11.8177 16.1396Z"
      fill="#818181"
    />
    <path
      d="M11.1867 10.2411C11.1867 10.0697 11.0477 9.93066 10.8763 9.93066H10.2518C10.0804 9.93066 9.94141 10.0696 9.94141 10.2411C9.94141 10.4125 10.0804 10.5515 10.2518 10.5515H10.8763C11.0477 10.5515 11.1867 10.4125 11.1867 10.2411Z"
      fill="#818181"
    />
    <path
      d="M9.91004 7.75855H10.5345C10.7059 7.75855 10.8449 7.61958 10.8449 7.44812C10.8449 7.2767 10.706 7.1377 10.5345 7.1377H9.91004C9.73861 7.1377 9.59961 7.27666 9.59961 7.44812C9.59961 7.61958 9.73858 7.75855 9.91004 7.75855Z"
      fill="#818181"
    />
    <path
      d="M8.45289 8.71115C8.5863 8.71105 8.70474 8.62585 8.74725 8.4994C8.79919 8.34538 8.88495 8.2049 8.99825 8.08833C9.1177 7.96525 9.11478 7.76869 8.99171 7.64924C8.86864 7.52978 8.67207 7.5327 8.55262 7.65578C8.37497 7.83919 8.24036 8.05988 8.15853 8.30177C8.12696 8.39651 8.14282 8.50063 8.20108 8.58168C8.25938 8.66277 8.35306 8.71091 8.45289 8.71115Z"
      fill="#818181"
    />
    <path
      d="M17.0642 11.4513C16.9188 11.5419 16.8743 11.7334 16.965 11.8789C17.064 12.0379 17.1466 12.2064 17.2117 12.3821C17.2568 12.5039 17.3729 12.5847 17.5027 12.5848C17.6043 12.5847 17.6993 12.5349 17.7573 12.4516C17.8153 12.3682 17.8289 12.2618 17.7937 12.1665C17.7141 11.9515 17.6129 11.7452 17.4918 11.5505C17.4011 11.4051 17.2097 11.3606 17.0642 11.4513Z"
      fill="#818181"
    />
    <path
      d="M9.94272 16.1396H9.31824C9.14682 16.1396 9.00781 16.2786 9.00781 16.4501C9.00781 16.6215 9.14678 16.7605 9.31824 16.7605H9.94272C10.1141 16.7605 10.2531 16.6215 10.2531 16.4501C10.2531 16.2786 10.1142 16.1396 9.94272 16.1396Z"
      fill="#818181"
    />
    <path
      d="M17.7041 13.1918C17.5337 13.1834 17.3886 13.3141 17.379 13.4845C17.3699 13.6714 17.3418 13.8568 17.295 14.038C17.271 14.131 17.2915 14.2299 17.3503 14.3058C17.4092 14.3817 17.4999 14.4261 17.596 14.426C17.7374 14.4257 17.8608 14.33 17.8964 14.1931C17.9535 13.9711 17.9879 13.7438 17.9991 13.5147C18.0062 13.3443 17.8745 13.2001 17.7041 13.1918Z"
      fill="#818181"
    />
    <path
      d="M13.0502 10.2411C13.0448 10.0675 12.902 9.92975 12.7283 9.93067H12.1268C11.9554 9.93067 11.8164 10.0696 11.8164 10.2411C11.8164 10.4125 11.9554 10.5515 12.1268 10.5515H12.7513C12.8325 10.5511 12.91 10.5178 12.9663 10.4594C13.0226 10.4009 13.0528 10.3222 13.0502 10.2411Z"
      fill="#818181"
    />
    <path
      d="M17.2407 14.9842C17.1049 14.8798 16.9101 14.9052 16.8056 15.041C16.6912 15.1898 16.5623 15.3269 16.4209 15.4504C16.3233 15.5354 16.2888 15.6721 16.3342 15.7933C16.3796 15.9145 16.4955 15.9947 16.6249 15.9947C16.7 15.9948 16.7725 15.9676 16.8289 15.9181C17.0013 15.7677 17.1584 15.6006 17.2979 15.4193C17.4022 15.2834 17.3766 15.0886 17.2407 14.9842Z"
      fill="#818181"
    />
    <path
      d="M14.9346 10.2433C14.9358 10.0719 14.7978 9.93197 14.6263 9.9308L13.9979 9.93066C13.8265 9.93066 13.6875 10.0696 13.6875 10.2411C13.6875 10.4125 13.8265 10.5515 13.9979 10.5515L14.6178 10.5517H14.6221C14.7935 10.5528 14.9335 10.4148 14.9346 10.2433Z"
      fill="#818181"
    />
    <path
      d="M9.04235 10.3433C9.18107 10.3435 9.30302 10.2516 9.3411 10.1182C9.37919 9.98481 9.32419 9.84236 9.20636 9.76918C9.06823 9.68324 8.95092 9.5677 8.86291 9.43087C8.77025 9.28656 8.57812 9.24468 8.4338 9.33737C8.28949 9.43003 8.24761 9.62216 8.3403 9.76648C8.47857 9.98077 8.66251 10.1618 8.87898 10.2967C8.92796 10.3272 8.98458 10.3434 9.04235 10.3433Z"
      fill="#818181"
    />
    <path
      d="M13.6908 16.1396H13.0663C12.8949 16.1396 12.7559 16.2786 12.7559 16.4501C12.7559 16.6215 12.8948 16.7605 13.0663 16.7605H13.6908C13.8622 16.7605 14.0012 16.6215 14.0012 16.4501C14.0012 16.2786 13.8622 16.1396 13.6908 16.1396Z"
      fill="#818181"
    />
    <path
      d="M16.3772 11.1218C16.5124 11.122 16.6322 11.0345 16.6733 10.9057C16.7144 10.7768 16.6673 10.6362 16.5569 10.558C16.3701 10.4257 16.1706 10.3125 15.9613 10.2199C15.8599 10.175 15.7422 10.1877 15.6527 10.2531C15.5632 10.3185 15.5153 10.4268 15.5272 10.537C15.5391 10.6472 15.6089 10.7428 15.7103 10.7876C15.8817 10.8635 16.0451 10.9564 16.198 11.0648C16.2504 11.1019 16.313 11.1218 16.3772 11.1218Z"
      fill="#818181"
    />
    <path
      d="M15.4519 16.0027C15.2739 16.0608 15.0905 16.1007 14.9044 16.1219C14.7409 16.1404 14.6202 16.2833 14.6294 16.4476C14.6386 16.612 14.7744 16.7405 14.9389 16.7407C14.9507 16.7407 14.9624 16.7401 14.9741 16.7388C15.202 16.7128 15.4266 16.664 15.6447 16.5929C15.8076 16.5397 15.8966 16.3644 15.8434 16.2014C15.7901 16.0385 15.6148 15.9495 15.4519 16.0027Z"
      fill="#818181"
    />
    <path
      d="M11.7968 7.75855H12.1072C12.2786 7.75855 12.4176 7.61958 12.4176 7.44812C12.4176 7.2767 12.2786 7.1377 12.1072 7.1377H11.7968C11.6253 7.1377 11.4863 7.27666 11.4863 7.44812C11.4864 7.61958 11.6253 7.75855 11.7968 7.75855Z"
      fill="#818181"
    />
  </svg>