<svg
    width="144"
    height="13"
    viewBox="0 0 144 13"
    fill="none"
    xmlns="http://www.w3.org/2000/svg"
  >
    <path
      d="M8.78544 9.632C8.87077 9.632 8.94544 9.66667 9.00944 9.736L9.62544 10.4C9.1561 10.944 8.58544 11.368 7.91344 11.672C7.24677 11.976 6.43877 12.128 5.48944 12.128C4.6681 12.128 3.92144 11.9867 3.24944 11.704C2.57744 11.416 2.0041 11.016 1.52944 10.504C1.05477 9.98667 0.686771 9.368 0.425438 8.648C0.164104 7.928 0.0334376 7.136 0.0334376 6.272C0.0334376 5.408 0.169438 4.616 0.441438 3.896C0.713438 3.176 1.09477 2.55733 1.58544 2.04C2.08144 1.52267 2.67344 1.12267 3.36144 0.839999C4.04944 0.551999 4.80944 0.407999 5.64144 0.407999C6.45744 0.407999 7.17744 0.538666 7.80144 0.799999C8.42544 1.06133 8.97477 1.416 9.44944 1.864L8.93744 2.576C8.90544 2.62933 8.86277 2.67467 8.80944 2.712C8.76144 2.744 8.69477 2.76 8.60944 2.76C8.51344 2.76 8.3961 2.70933 8.25744 2.608C8.11877 2.50133 7.93744 2.384 7.71344 2.256C7.48944 2.128 7.20944 2.01333 6.87344 1.912C6.53744 1.80533 6.1241 1.752 5.63344 1.752C5.04144 1.752 4.5001 1.856 4.00944 2.064C3.51877 2.26667 3.09477 2.56267 2.73744 2.952C2.38544 3.34133 2.11077 3.816 1.91344 4.376C1.7161 4.936 1.61744 5.568 1.61744 6.272C1.61744 6.98667 1.71877 7.624 1.92144 8.184C2.12944 8.744 2.40944 9.21867 2.76144 9.608C3.11877 9.992 3.53744 10.2853 4.01744 10.488C4.50277 10.6907 5.02544 10.792 5.58544 10.792C5.92677 10.792 6.23344 10.7733 6.50544 10.736C6.78277 10.6933 7.0361 10.6293 7.26544 10.544C7.5001 10.4587 7.7161 10.352 7.91344 10.224C8.1161 10.0907 8.3161 9.93333 8.51344 9.752C8.6041 9.672 8.69477 9.632 8.78544 9.632ZM17.6279 3.896V12H16.7799C16.5773 12 16.4493 11.9013 16.3959 11.704L16.2839 10.832C15.9319 11.2213 15.5373 11.536 15.0999 11.776C14.6626 12.0107 14.1613 12.128 13.5959 12.128C13.1533 12.128 12.7613 12.056 12.4199 11.912C12.0839 11.7627 11.8013 11.5547 11.5719 11.288C11.3426 11.0213 11.1693 10.6987 11.0519 10.32C10.9399 9.94133 10.8839 9.52267 10.8839 9.064V3.896H12.3079V9.064C12.3079 9.67733 12.4466 10.152 12.7239 10.488C13.0066 10.824 13.4359 10.992 14.0119 10.992C14.4333 10.992 14.8253 10.8933 15.1879 10.696C15.5559 10.4933 15.8946 10.216 16.2039 9.864V3.896H17.6279ZM24.6058 5.232C24.5418 5.34933 24.4431 5.408 24.3098 5.408C24.2298 5.408 24.1391 5.37867 24.0378 5.32C23.9365 5.26133 23.8111 5.19733 23.6618 5.128C23.5178 5.05333 23.3445 4.98667 23.1418 4.928C22.9391 4.864 22.6991 4.832 22.4218 4.832C22.1818 4.832 21.9658 4.864 21.7738 4.928C21.5818 4.98667 21.4165 5.06933 21.2778 5.176C21.1445 5.28267 21.0405 5.408 20.9658 5.552C20.8965 5.69067 20.8618 5.84267 20.8618 6.008C20.8618 6.216 20.9205 6.38933 21.0378 6.528C21.1605 6.66667 21.3205 6.78667 21.5178 6.888C21.7151 6.98933 21.9391 7.08 22.1898 7.16C22.4405 7.23467 22.6965 7.31733 22.9578 7.408C23.2245 7.49333 23.4831 7.58933 23.7338 7.696C23.9845 7.80267 24.2085 7.936 24.4058 8.096C24.6031 8.256 24.7605 8.45333 24.8778 8.688C25.0005 8.91733 25.0618 9.19467 25.0618 9.52C25.0618 9.89333 24.9951 10.24 24.8618 10.56C24.7285 10.8747 24.5311 11.1493 24.2698 11.384C24.0085 11.6133 23.6885 11.7947 23.3098 11.928C22.9311 12.0613 22.4938 12.128 21.9978 12.128C21.4325 12.128 20.9205 12.0373 20.4618 11.856C20.0031 11.6693 19.6138 11.432 19.2938 11.144L19.6298 10.6C19.6725 10.5307 19.7231 10.4773 19.7818 10.44C19.8405 10.4027 19.9151 10.384 20.0058 10.384C20.1018 10.384 20.2031 10.4213 20.3098 10.496C20.4165 10.5707 20.5445 10.6533 20.6938 10.744C20.8485 10.8347 21.0351 10.9173 21.2538 10.992C21.4725 11.0667 21.7445 11.104 22.0698 11.104C22.3471 11.104 22.5898 11.0693 22.7978 11C23.0058 10.9253 23.1791 10.8267 23.3178 10.704C23.4565 10.5813 23.5578 10.44 23.6218 10.28C23.6911 10.12 23.7258 9.94933 23.7258 9.768C23.7258 9.544 23.6645 9.36 23.5418 9.216C23.4245 9.06667 23.2671 8.94133 23.0698 8.84C22.8725 8.73333 22.6458 8.64267 22.3898 8.568C22.1391 8.488 21.8805 8.40533 21.6138 8.32C21.3525 8.23467 21.0938 8.13867 20.8378 8.032C20.5871 7.92 20.3631 7.78133 20.1658 7.616C19.9685 7.45067 19.8085 7.248 19.6858 7.008C19.5685 6.76267 19.5098 6.46667 19.5098 6.12C19.5098 5.81067 19.5738 5.51467 19.7018 5.232C19.8298 4.944 20.0165 4.69333 20.2618 4.48C20.5071 4.26133 20.8085 4.088 21.1658 3.96C21.5231 3.832 21.9311 3.768 22.3898 3.768C22.9231 3.768 23.4005 3.85333 23.8218 4.024C24.2485 4.18933 24.6165 4.41867 24.9258 4.712L24.6058 5.232ZM29.2957 12.128C28.6557 12.128 28.1624 11.9493 27.8157 11.592C27.4744 11.2347 27.3037 10.72 27.3037 10.048V5.088H26.3277C26.2424 5.088 26.1704 5.064 26.1117 5.016C26.053 4.96267 26.0237 4.88267 26.0237 4.776V4.208L27.3517 4.04L27.6797 1.536C27.6957 1.456 27.7304 1.392 27.7837 1.344C27.8424 1.29067 27.917 1.264 28.0077 1.264H28.7277V4.056H31.0717V5.088H28.7277V9.952C28.7277 10.2933 28.8104 10.5467 28.9757 10.712C29.141 10.8773 29.3544 10.96 29.6157 10.96C29.765 10.96 29.893 10.9413 29.9997 10.904C30.1117 10.8613 30.2077 10.816 30.2877 10.768C30.3677 10.72 30.4344 10.6773 30.4877 10.64C30.5464 10.5973 30.597 10.576 30.6397 10.576C30.7144 10.576 30.781 10.6213 30.8397 10.712L31.2557 11.392C31.0104 11.6213 30.7144 11.8027 30.3677 11.936C30.021 12.064 29.6637 12.128 29.2957 12.128ZM35.9112 3.768C36.5032 3.768 37.0365 3.86667 37.5112 4.064C37.9859 4.26133 38.3912 4.54133 38.7272 4.904C39.0632 5.26667 39.3192 5.70667 39.4952 6.224C39.6765 6.736 39.7672 7.30933 39.7672 7.944C39.7672 8.584 39.6765 9.16 39.4952 9.672C39.3192 10.184 39.0632 10.6213 38.7272 10.984C38.3912 11.3467 37.9859 11.6267 37.5112 11.824C37.0365 12.016 36.5032 12.112 35.9112 12.112C35.3139 12.112 34.7752 12.016 34.2952 11.824C33.8205 11.6267 33.4152 11.3467 33.0792 10.984C32.7432 10.6213 32.4845 10.184 32.3032 9.672C32.1272 9.16 32.0392 8.584 32.0392 7.944C32.0392 7.30933 32.1272 6.736 32.3032 6.224C32.4845 5.70667 32.7432 5.26667 33.0792 4.904C33.4152 4.54133 33.8205 4.26133 34.2952 4.064C34.7752 3.86667 35.3139 3.768 35.9112 3.768ZM35.9112 11C36.7112 11 37.3085 10.7333 37.7032 10.2C38.0979 9.66133 38.2952 8.912 38.2952 7.952C38.2952 6.98667 38.0979 6.23467 37.7032 5.696C37.3085 5.15733 36.7112 4.888 35.9112 4.888C35.5059 4.888 35.1512 4.95733 34.8472 5.096C34.5485 5.23467 34.2979 5.43467 34.0952 5.696C33.8979 5.95733 33.7485 6.28 33.6472 6.664C33.5512 7.04267 33.5032 7.472 33.5032 7.952C33.5032 8.912 33.7005 9.66133 34.0952 10.2C34.4952 10.7333 35.1005 11 35.9112 11ZM41.5733 12V3.896H42.4293C42.632 3.896 42.7573 3.99467 42.8053 4.192L42.9093 5.024C43.208 4.656 43.544 4.35467 43.9173 4.12C44.2906 3.88533 44.7226 3.768 45.2133 3.768C45.7573 3.768 46.1973 3.92 46.5333 4.224C46.8746 4.528 47.12 4.93867 47.2693 5.456C47.3866 5.16267 47.536 4.90933 47.7173 4.696C47.904 4.48267 48.112 4.30667 48.3413 4.168C48.5706 4.02933 48.8133 3.928 49.0693 3.864C49.3306 3.8 49.5946 3.768 49.8613 3.768C50.288 3.768 50.6666 3.83733 50.9973 3.976C51.3333 4.10933 51.616 4.30667 51.8453 4.568C52.08 4.82933 52.2586 5.152 52.3813 5.536C52.504 5.91467 52.5653 6.34933 52.5653 6.84V12H51.1333V6.84C51.1333 6.20533 50.9946 5.72533 50.7173 5.4C50.44 5.06933 50.04 4.904 49.5173 4.904C49.2826 4.904 49.0586 4.94667 48.8453 5.032C48.6373 5.112 48.4533 5.232 48.2933 5.392C48.1333 5.552 48.0053 5.75467 47.9093 6C47.8186 6.24 47.7733 6.52 47.7733 6.84V12H46.3413V6.84C46.3413 6.18933 46.2106 5.704 45.9493 5.384C45.688 5.064 45.3066 4.904 44.8053 4.904C44.4533 4.904 44.128 5 43.8293 5.192C43.5306 5.37867 43.256 5.63467 43.0053 5.96V12H41.5733ZM56.2336 3.896V12H54.8096V3.896H56.2336ZM56.5376 1.352C56.5376 1.49067 56.5082 1.62133 56.4496 1.744C56.3962 1.86133 56.3216 1.968 56.2256 2.064C56.1349 2.15467 56.0256 2.22667 55.8976 2.28C55.7749 2.33333 55.6442 2.36 55.5056 2.36C55.3669 2.36 55.2362 2.33333 55.1136 2.28C54.9962 2.22667 54.8922 2.15467 54.8016 2.064C54.7109 1.968 54.6389 1.86133 54.5856 1.744C54.5322 1.62133 54.5056 1.49067 54.5056 1.352C54.5056 1.21333 54.5322 1.08267 54.5856 0.959999C54.6389 0.831999 54.7109 0.722666 54.8016 0.631999C54.8922 0.536 54.9962 0.461333 55.1136 0.407999C55.2362 0.354666 55.3669 0.327999 55.5056 0.327999C55.6442 0.327999 55.7749 0.354666 55.8976 0.407999C56.0256 0.461333 56.1349 0.536 56.2256 0.631999C56.3216 0.722666 56.3962 0.831999 56.4496 0.959999C56.5082 1.08267 56.5376 1.21333 56.5376 1.352ZM64.1653 4.504C64.1653 4.60533 64.1466 4.704 64.1093 4.8C64.0773 4.896 64.032 4.97867 63.9733 5.048L59.5813 10.888H64.0133V12H57.9093V11.408C57.9093 11.3387 57.9253 11.2587 57.9573 11.168C57.9893 11.072 58.0373 10.9813 58.1013 10.896L62.5173 5.016H58.1573V3.896H64.1653V4.504ZM71.0754 7.064C71.0754 6.73333 71.0274 6.432 70.9314 6.16C70.8408 5.88267 70.7048 5.64533 70.5234 5.448C70.3474 5.24533 70.1314 5.09067 69.8754 4.984C69.6194 4.872 69.3288 4.816 69.0034 4.816C68.3208 4.816 67.7794 5.016 67.3794 5.416C66.9848 5.81067 66.7394 6.36 66.6434 7.064H71.0754ZM72.2274 10.864C72.0514 11.0773 71.8408 11.264 71.5954 11.424C71.3501 11.5787 71.0861 11.7067 70.8034 11.808C70.5261 11.9093 70.2381 11.984 69.9394 12.032C69.6408 12.0853 69.3448 12.112 69.0514 12.112C68.4914 12.112 67.9741 12.0187 67.4994 11.832C67.0301 11.64 66.6221 11.3627 66.2754 11C65.9341 10.632 65.6674 10.1787 65.4754 9.64C65.2834 9.10133 65.1874 8.48267 65.1874 7.784C65.1874 7.21867 65.2728 6.69067 65.4434 6.2C65.6194 5.70933 65.8701 5.28533 66.1954 4.928C66.5208 4.56533 66.9181 4.28267 67.3874 4.08C67.8568 3.872 68.3848 3.768 68.9714 3.768C69.4568 3.768 69.9048 3.85067 70.3154 4.016C70.7314 4.176 71.0888 4.41067 71.3874 4.72C71.6914 5.024 71.9288 5.40267 72.0994 5.856C72.2701 6.304 72.3554 6.816 72.3554 7.392C72.3554 7.616 72.3314 7.76533 72.2834 7.84C72.2354 7.91467 72.1448 7.952 72.0114 7.952H66.5954C66.6114 8.464 66.6808 8.90933 66.8034 9.288C66.9314 9.66667 67.1074 9.984 67.3314 10.24C67.5554 10.4907 67.8221 10.68 68.1314 10.808C68.4408 10.9307 68.7874 10.992 69.1714 10.992C69.5288 10.992 69.8354 10.952 70.0914 10.872C70.3528 10.7867 70.5768 10.696 70.7634 10.6C70.9501 10.504 71.1048 10.416 71.2274 10.336C71.3554 10.2507 71.4648 10.208 71.5554 10.208C71.6728 10.208 71.7634 10.2533 71.8274 10.344L72.2274 10.864Z"
      fill="#CE203B"
    />
    <path
      d="M82.8383 7.432V12H81.2863V7.432L77.0863 0.535999H78.4463C78.585 0.535999 78.6943 0.570666 78.7743 0.639999C78.8543 0.703999 78.9236 0.789333 78.9823 0.896L81.6063 5.352C81.7023 5.53867 81.7903 5.71467 81.8703 5.88C81.9503 6.04 82.0196 6.20267 82.0783 6.368C82.137 6.20267 82.2036 6.04 82.2783 5.88C82.353 5.71467 82.4356 5.53867 82.5263 5.352L85.1423 0.896C85.1903 0.805333 85.257 0.722666 85.3423 0.648C85.4276 0.573333 85.537 0.535999 85.6703 0.535999H87.0383L82.8383 7.432ZM89.8487 3.768C90.4407 3.768 90.974 3.86667 91.4487 4.064C91.9234 4.26133 92.3287 4.54133 92.6647 4.904C93.0007 5.26667 93.2567 5.70667 93.4327 6.224C93.614 6.736 93.7047 7.30933 93.7047 7.944C93.7047 8.584 93.614 9.16 93.4327 9.672C93.2567 10.184 93.0007 10.6213 92.6647 10.984C92.3287 11.3467 91.9234 11.6267 91.4487 11.824C90.974 12.016 90.4407 12.112 89.8487 12.112C89.2514 12.112 88.7127 12.016 88.2327 11.824C87.758 11.6267 87.3527 11.3467 87.0167 10.984C86.6807 10.6213 86.422 10.184 86.2407 9.672C86.0647 9.16 85.9767 8.584 85.9767 7.944C85.9767 7.30933 86.0647 6.736 86.2407 6.224C86.422 5.70667 86.6807 5.26667 87.0167 4.904C87.3527 4.54133 87.758 4.26133 88.2327 4.064C88.7127 3.86667 89.2514 3.768 89.8487 3.768ZM89.8487 11C90.6487 11 91.246 10.7333 91.6407 10.2C92.0354 9.66133 92.2327 8.912 92.2327 7.952C92.2327 6.98667 92.0354 6.23467 91.6407 5.696C91.246 5.15733 90.6487 4.888 89.8487 4.888C89.4434 4.888 89.0887 4.95733 88.7847 5.096C88.486 5.23467 88.2354 5.43467 88.0327 5.696C87.8354 5.95733 87.686 6.28 87.5847 6.664C87.4887 7.04267 87.4407 7.472 87.4407 7.952C87.4407 8.912 87.638 9.66133 88.0327 10.2C88.4327 10.7333 89.038 11 89.8487 11ZM102.175 3.896V12H101.327C101.124 12 100.996 11.9013 100.943 11.704L100.831 10.832C100.479 11.2213 100.084 11.536 99.6468 11.776C99.2095 12.0107 98.7081 12.128 98.1428 12.128C97.7001 12.128 97.3081 12.056 96.9668 11.912C96.6308 11.7627 96.3481 11.5547 96.1188 11.288C95.8895 11.0213 95.7161 10.6987 95.5988 10.32C95.4868 9.94133 95.4308 9.52267 95.4308 9.064V3.896H96.8548V9.064C96.8548 9.67733 96.9935 10.152 97.2708 10.488C97.5535 10.824 97.9828 10.992 98.5588 10.992C98.9801 10.992 99.3721 10.8933 99.7348 10.696C100.103 10.4933 100.441 10.216 100.751 9.864V3.896H102.175ZM105.785 5.52C106.041 4.96533 106.355 4.53333 106.729 4.224C107.102 3.90933 107.558 3.752 108.097 3.752C108.267 3.752 108.43 3.77067 108.585 3.808C108.745 3.84533 108.886 3.904 109.009 3.984L108.905 5.048C108.873 5.18133 108.793 5.248 108.665 5.248C108.59 5.248 108.481 5.232 108.337 5.2C108.193 5.168 108.03 5.152 107.849 5.152C107.593 5.152 107.363 5.18933 107.161 5.264C106.963 5.33867 106.785 5.45067 106.625 5.6C106.47 5.744 106.329 5.92533 106.201 6.144C106.078 6.35733 105.966 6.60267 105.865 6.88V12H104.433V3.896H105.249C105.403 3.896 105.51 3.92533 105.569 3.984C105.627 4.04267 105.667 4.144 105.689 4.288L105.785 5.52ZM121.614 1.84H117.902V12H116.358V1.84H112.638V0.535999H121.614V1.84ZM124.442 3.768C125.034 3.768 125.568 3.86667 126.042 4.064C126.517 4.26133 126.922 4.54133 127.258 4.904C127.594 5.26667 127.85 5.70667 128.026 6.224C128.208 6.736 128.298 7.30933 128.298 7.944C128.298 8.584 128.208 9.16 128.026 9.672C127.85 10.184 127.594 10.6213 127.258 10.984C126.922 11.3467 126.517 11.6267 126.042 11.824C125.568 12.016 125.034 12.112 124.442 12.112C123.845 12.112 123.306 12.016 122.826 11.824C122.352 11.6267 121.946 11.3467 121.61 10.984C121.274 10.6213 121.016 10.184 120.834 9.672C120.658 9.16 120.57 8.584 120.57 7.944C120.57 7.30933 120.658 6.736 120.834 6.224C121.016 5.70667 121.274 5.26667 121.61 4.904C121.946 4.54133 122.352 4.26133 122.826 4.064C123.306 3.86667 123.845 3.768 124.442 3.768ZM124.442 11C125.242 11 125.84 10.7333 126.234 10.2C126.629 9.66133 126.826 8.912 126.826 7.952C126.826 6.98667 126.629 6.23467 126.234 5.696C125.84 5.15733 125.242 4.888 124.442 4.888C124.037 4.888 123.682 4.95733 123.378 5.096C123.08 5.23467 122.829 5.43467 122.626 5.696C122.429 5.95733 122.28 6.28 122.178 6.664C122.082 7.04267 122.034 7.472 122.034 7.952C122.034 8.912 122.232 9.66133 122.626 10.2C123.026 10.7333 123.632 11 124.442 11ZM136.769 3.896V12H135.921C135.718 12 135.59 11.9013 135.537 11.704L135.425 10.832C135.073 11.2213 134.678 11.536 134.241 11.776C133.803 12.0107 133.302 12.128 132.737 12.128C132.294 12.128 131.902 12.056 131.561 11.912C131.225 11.7627 130.942 11.5547 130.713 11.288C130.483 11.0213 130.31 10.6987 130.193 10.32C130.081 9.94133 130.025 9.52267 130.025 9.064V3.896H131.449V9.064C131.449 9.67733 131.587 10.152 131.865 10.488C132.147 10.824 132.577 10.992 133.153 10.992C133.574 10.992 133.966 10.8933 134.329 10.696C134.697 10.4933 135.035 10.216 135.345 9.864V3.896H136.769ZM140.378 5.52C140.634 4.96533 140.949 4.53333 141.322 4.224C141.696 3.90933 142.152 3.752 142.69 3.752C142.861 3.752 143.024 3.77067 143.178 3.808C143.338 3.84533 143.48 3.904 143.602 3.984L143.498 5.048C143.466 5.18133 143.386 5.248 143.258 5.248C143.184 5.248 143.074 5.232 142.93 5.2C142.786 5.168 142.624 5.152 142.442 5.152C142.186 5.152 141.957 5.18933 141.754 5.264C141.557 5.33867 141.378 5.45067 141.218 5.6C141.064 5.744 140.922 5.92533 140.794 6.144C140.672 6.35733 140.56 6.60267 140.458 6.88V12H139.026V3.896H139.842C139.997 3.896 140.104 3.92533 140.162 3.984C140.221 4.04267 140.261 4.144 140.282 4.288L140.378 5.52Z"
      fill="#2594A2"
    />
  </svg>