<svg width="15" height="10" viewBox="0 0 15 10" fill="none" xmlns="http://www.w3.org/2000/svg">
<path d="M14.9698 4.84545C14.3817 3.46257 13.3608 2.26664 12.0332 1.40549C10.7056 0.544343 9.12953 0.055715 7.49979 0C5.87005 0.055715 4.29398 0.544343 2.96639 1.40549C1.6388 2.26664 0.617868 3.46257 0.0297873 4.84545C-0.0099291 4.94532 -0.0099291 5.05468 0.0297873 5.15455C0.617868 6.53743 1.6388 7.73336 2.96639 8.59451C4.29398 9.45566 5.87005 9.94429 7.49979 10C9.12953 9.94429 10.7056 9.45566 12.0332 8.59451C13.3608 7.73336 14.3817 6.53743 14.9698 5.15455C15.0095 5.05468 15.0095 4.94532 14.9698 4.84545ZM7.49979 7.95455C6.857 7.95455 6.22864 7.78126 5.69418 7.45661C5.15973 7.13197 4.74316 6.67053 4.49718 6.13066C4.25119 5.59078 4.18683 4.99672 4.31224 4.4236C4.43764 3.85047 4.74717 3.32402 5.20169 2.91082C5.65621 2.49762 6.23531 2.21623 6.86574 2.10223C7.49618 1.98822 8.14965 2.04673 8.74351 2.27036C9.33737 2.49398 9.84495 2.87267 10.2021 3.35854C10.5592 3.84442 10.7498 4.41565 10.7498 5C10.7485 5.78323 10.4056 6.53403 9.79642 7.08785C9.18722 7.64168 8.36134 7.95334 7.49979 7.95455Z" fill="white"/>
</svg>
