<svg width="40" height="40" viewBox="0 0 40 40" fill="none" xmlns="http://www.w3.org/2000/svg">
<path d="M10.7748 33.8379C10.4644 34.3759 10.1747 34.8657 9.91258 35.2796C9.40684 36.0745 8.53001 36.5558 7.58792 36.5558C6.64584 36.5558 5.76901 36.0744 5.26327 35.2796C5.00118 34.8657 4.71143 34.376 4.40105 33.8379C1.5176 34.3829 0 35.5348 0 36.4315C0 37.7904 3.24212 39.3149 7.58785 39.3149C11.9336 39.3149 15.1757 37.7904 15.1757 36.4315C15.1758 35.5348 13.6582 34.3829 10.7748 33.8379Z" fill="#4D4D4D"/>
<path d="M7.58793 11.7227C3.39083 11.7334 -0.0046057 15.1411 4.68951e-06 19.3382C4.68951e-06 22.2561 3.89743 30.5682 6.429 34.5346C6.67906 34.9338 7.11689 35.1762 7.58785 35.1762C8.05881 35.1762 8.49672 34.9338 8.7467 34.5346C11.2783 30.5682 15.1757 22.2561 15.1757 19.3382C15.1804 15.1411 11.7849 11.7334 7.58793 11.7227ZM7.58793 24.829C4.54015 24.829 2.06945 22.3583 2.06945 19.3105C2.06945 16.2627 4.54015 13.792 7.58793 13.792C10.6357 13.792 13.1064 16.2627 13.1064 19.3105C13.1023 22.3566 10.634 24.825 7.58793 24.829Z" fill="#4D4D4D"/>
<path d="M7.58761 15.1719C5.3018 15.1719 3.44873 17.0249 3.44873 19.3108C3.44873 21.5967 5.30172 23.4496 7.58761 23.4496C9.87343 23.4496 11.7265 21.5967 11.7265 19.3108C11.7246 17.0256 9.87265 15.1737 7.58761 15.1719Z" fill="#4D4D4D"/>
<path d="M33.8004 19.3103C36.4148 19.3103 38.629 18.048 38.629 16.5511C38.629 15.7026 37.8703 14.8749 36.6631 14.3438C36.2561 15.1025 35.8629 15.7785 35.5456 16.2821C35.1662 16.8793 34.5078 17.241 33.8003 17.241C33.0928 17.241 32.4345 16.8792 32.0551 16.2821C31.7378 15.7786 31.3446 15.1026 30.9376 14.3438C29.7304 14.8749 28.9717 15.7026 28.9717 16.5511C28.9718 18.0479 31.186 19.3103 33.8004 19.3103Z" fill="#4D4D4D"/>
<path d="M33.8004 15.8492C34.0321 15.8492 34.2489 15.735 34.3798 15.544C36.0491 12.9158 38.629 7.43876 38.629 5.5349C38.6326 2.86329 36.4719 0.693361 33.8003 0.685547C31.1287 0.693361 28.9681 2.86322 28.9717 5.5349C28.9717 7.43876 31.5515 12.9158 33.2209 15.544C33.3519 15.735 33.5687 15.8492 33.8004 15.8492ZM30.3514 5.51419C30.3514 3.60932 31.8955 2.06515 33.8004 2.06515C35.7053 2.06515 37.2494 3.60932 37.2494 5.51419C37.2487 7.41875 35.705 8.96253 33.8004 8.96323C31.8955 8.96323 30.3514 7.41906 30.3514 5.51419Z" fill="#4D4D4D"/>
<path d="M35.8703 5.51378C35.867 4.37228 34.9425 3.4477 33.8009 3.44434C32.658 3.44434 31.7314 4.37087 31.7314 5.51378C31.7314 6.65669 32.658 7.58322 33.8009 7.58322C34.9438 7.58322 35.8703 6.65669 35.8703 5.51378Z" fill="#4D4D4D"/>
<path d="M17.9349 35.8652H17.245C16.8641 35.8652 16.5552 36.1741 16.5552 36.5551C16.5552 36.936 16.864 37.2449 17.245 37.2449H17.9349C18.3158 37.2449 18.6247 36.9361 18.6247 36.5551C18.6247 36.1741 18.3159 35.8652 17.9349 35.8652Z" fill="#4D4D4D"/>
<path d="M26.2607 35.8652H24.8729C24.492 35.8652 24.1831 36.1741 24.1831 36.5551C24.1831 36.936 24.4919 37.2449 24.8729 37.2449H26.2607C26.6416 37.2449 26.9505 36.9361 26.9505 36.5551C26.9505 36.1741 26.6417 35.8652 26.2607 35.8652Z" fill="#4D4D4D"/>
<path d="M24.8606 22.7592C24.8606 22.3782 24.5518 22.0693 24.1708 22.0693H22.7831C22.4022 22.0693 22.0933 22.3782 22.0933 22.7592C22.0933 23.1401 22.4021 23.449 22.7831 23.449H24.1708C24.5518 23.4489 24.8606 23.1401 24.8606 22.7592Z" fill="#4D4D4D"/>
<path d="M22.0194 17.241H23.4072C23.7881 17.241 24.097 16.9322 24.097 16.5512C24.097 16.1702 23.7882 15.8613 23.4072 15.8613H22.0194C21.6385 15.8613 21.3296 16.1701 21.3296 16.5512C21.3296 16.9322 21.6384 17.241 22.0194 17.241Z" fill="#4D4D4D"/>
<path d="M18.7853 19.3575C19.0818 19.3572 19.3449 19.1679 19.4394 18.8869C19.5548 18.5446 19.7454 18.2325 19.9972 17.9734C20.2626 17.6999 20.2562 17.2631 19.9827 16.9976C19.7092 16.7322 19.2723 16.7387 19.0069 17.0122C18.6121 17.4198 18.313 17.9102 18.1312 18.4477C18.061 18.6582 18.0962 18.8896 18.2257 19.0697C18.3553 19.2499 18.5634 19.3569 18.7853 19.3575Z" fill="#4D4D4D"/>
<path d="M37.9183 25.4472C37.595 25.6487 37.4962 26.0741 37.6977 26.3973C37.9177 26.7507 38.1014 27.1253 38.246 27.5156C38.3461 27.7862 38.6042 27.966 38.8927 27.9662C39.1184 27.9659 39.3296 27.8553 39.4585 27.6701C39.5873 27.4848 39.6176 27.2483 39.5394 27.0366C39.3624 26.5589 39.1375 26.1002 38.8684 25.6677C38.667 25.3445 38.2416 25.2458 37.9183 25.4472Z" fill="#4D4D4D"/>
<path d="M22.0981 35.8652H20.7103C20.3294 35.8652 20.0205 36.1741 20.0205 36.5551C20.0205 36.936 20.3293 37.2449 20.7103 37.2449H22.0981C22.479 37.2449 22.7879 36.9361 22.7879 36.5551C22.7879 36.1741 22.4791 35.8652 22.0981 35.8652Z" fill="#4D4D4D"/>
<path d="M39.3436 29.3163C38.965 29.2977 38.6424 29.5881 38.621 29.9666C38.6009 30.382 38.5384 30.7941 38.4344 31.1967C38.3811 31.4034 38.4266 31.6232 38.5574 31.7918C38.6883 31.9605 38.8898 32.0591 39.1033 32.0589C39.4176 32.0583 39.6918 31.8457 39.7709 31.5415C39.8978 31.048 39.9743 30.5429 39.9992 30.0339C40.015 29.6552 39.7222 29.3347 39.3436 29.3163Z" fill="#4D4D4D"/>
<path d="M28.9976 22.7592C28.9857 22.3733 28.6683 22.0673 28.2822 22.0693H26.9457C26.5648 22.0693 26.2559 22.3782 26.2559 22.7592C26.2559 23.1401 26.5647 23.449 26.9457 23.449H28.3334C28.5138 23.448 28.686 23.3742 28.8111 23.2443C28.9362 23.1143 29.0035 22.9394 28.9976 22.7592Z" fill="#4D4D4D"/>
<path d="M38.3128 33.2982C38.0109 33.0661 37.578 33.1226 37.3458 33.4244C37.0915 33.755 36.8051 34.0597 36.4909 34.3341C36.2742 34.523 36.1973 34.8267 36.2983 35.096C36.3993 35.3654 36.6567 35.5437 36.9443 35.5436C37.1111 35.5439 37.2722 35.4834 37.3977 35.3735C37.7807 35.0393 38.1298 34.668 38.4398 34.2651C38.6716 33.9629 38.6148 33.5302 38.3128 33.2982Z" fill="#4D4D4D"/>
<path d="M33.1899 22.7642C33.1924 22.3832 32.8857 22.0722 32.5048 22.0696L31.1083 22.0693C30.7274 22.0693 30.4185 22.3782 30.4185 22.7592C30.4185 23.1401 30.7273 23.449 31.1083 23.449L32.4859 23.4493H32.4953C32.8763 23.4519 33.1873 23.1452 33.1899 22.7642Z" fill="#4D4D4D"/>
<path d="M20.0954 22.9856C20.4037 22.986 20.6747 22.7817 20.7593 22.4853C20.8439 22.1889 20.7217 21.8723 20.4599 21.7097C20.1529 21.5188 19.8922 21.262 19.6967 20.9579C19.4907 20.6372 19.0638 20.5442 18.7431 20.7501C18.4224 20.9561 18.3293 21.383 18.5353 21.7037C18.8426 22.1799 19.2513 22.5823 19.7324 22.8819C19.8412 22.9498 19.967 22.9857 20.0954 22.9856Z" fill="#4D4D4D"/>
<path d="M30.4228 35.8652H29.0351C28.6541 35.8652 28.3452 36.1741 28.3452 36.5551C28.3452 36.936 28.654 37.2449 29.0351 37.2449H30.4228C30.8037 37.2449 31.1126 36.9361 31.1126 36.5551C31.1125 36.1741 30.8037 35.8652 30.4228 35.8652Z" fill="#4D4D4D"/>
<path d="M36.3923 24.7156C36.6929 24.7159 36.9591 24.5215 37.0504 24.2352C37.1417 23.9488 37.0371 23.6364 36.7918 23.4626C36.3766 23.1688 35.9333 22.9171 35.4682 22.7112C35.2428 22.6116 34.9813 22.6398 34.7824 22.7852C34.5834 22.9305 34.4771 23.171 34.5035 23.416C34.5299 23.661 34.685 23.8733 34.9104 23.9729C35.2913 24.1416 35.6544 24.348 35.9943 24.589C36.1106 24.6713 36.2497 24.7156 36.3923 24.7156Z" fill="#4D4D4D"/>
<path d="M34.3357 35.5616C33.9401 35.6907 33.5325 35.7794 33.1191 35.8264C32.7557 35.8676 32.4875 36.1851 32.5079 36.5503C32.5283 36.9154 32.8301 37.2012 33.1958 37.2016C33.2219 37.2016 33.248 37.2002 33.274 37.1972C33.7803 37.1396 34.2795 37.0311 34.764 36.8732C35.1262 36.7549 35.3239 36.3653 35.2056 36.0031C35.0873 35.641 34.6978 35.4433 34.3357 35.5616Z" fill="#4D4D4D"/>
<path d="M26.2128 17.241H26.9026C27.2836 17.241 27.5925 16.9322 27.5925 16.5512C27.5925 16.1702 27.2837 15.8613 26.9026 15.8613H26.2128C25.8318 15.8613 25.5229 16.1701 25.5229 16.5512C25.523 16.9322 25.8318 17.241 26.2128 17.241Z" fill="#4D4D4D"/>
</svg>
