<svg width="41" height="47" viewBox="0 0 41 47" fill="none" xmlns="http://www.w3.org/2000/svg">
<path d="M40.4737 9.584C40.3988 9.0926 40.1989 8.62868 39.8932 8.23678C39.5874 7.84487 39.1861 7.53813 38.7276 7.346L21.5207 0.22C21.1721 0.0747714 20.7982 0 20.4207 0C20.0431 0 19.6692 0.0747714 19.3207 0.22L2.10665 7.346C1.64822 7.53813 1.24687 7.84487 0.94112 8.23678C0.63537 8.62868 0.435486 9.0926 0.360653 9.584C-0.383696 14.9625 0.0270981 20.4378 1.56565 25.645C2.75465 29.6112 4.66344 33.3247 7.19665 36.6C10.4245 40.6837 14.4469 44.0706 19.0207 46.556C19.4491 46.7934 19.9308 46.918 20.4207 46.918C20.9105 46.918 21.3922 46.7934 21.8207 46.556C26.3933 44.0703 30.4146 40.6834 33.6417 36.6C36.1727 33.3252 38.0798 29.6128 39.2677 25.648C40.8071 20.44 41.2183 14.9635 40.4737 9.584ZM37.9537 25.248C35.3727 33.8 29.7187 40.567 21.1487 45.354C20.9255 45.4774 20.6747 45.5422 20.4197 45.5422C20.1646 45.5422 19.9138 45.4774 19.6907 45.354C11.1197 40.568 5.46565 33.8 2.88465 25.248C1.403 20.2351 1.0072 14.9639 1.72365 9.786C1.76228 9.52865 1.86659 9.2856 2.02651 9.08031C2.18644 8.87502 2.39658 8.71442 2.63665 8.614L19.8437 1.489C20.0261 1.41281 20.2219 1.37358 20.4197 1.37358C20.6174 1.37358 20.8132 1.41281 20.9957 1.489L38.2067 8.614C38.4467 8.71442 38.6569 8.87502 38.8168 9.08031C38.9767 9.2856 39.081 9.52865 39.1197 9.786C39.8361 14.9639 39.4403 20.2351 37.9587 25.248H37.9537Z" fill="#2594A2"/>
<path d="M35.1717 10.5722L28.4467 7.82717C28.3633 7.79309 28.2739 7.77578 28.1838 7.77623C28.0936 7.77668 28.0045 7.79489 27.9213 7.82981C27.8382 7.86472 27.7628 7.91566 27.6994 7.97972C27.636 8.04378 27.5858 8.11971 27.5517 8.20317C27.4829 8.37171 27.4838 8.56069 27.5544 8.72854C27.6249 8.89638 27.7592 9.02934 27.9277 9.09817L34.6527 11.8432C34.8219 11.9119 34.9704 12.0231 35.0839 12.166C35.1974 12.309 35.2721 12.4789 35.3007 12.6592C35.8729 16.7359 35.5564 20.8883 34.3727 24.8312C32.3077 31.5652 27.7927 36.8912 20.9427 40.6622C20.7819 40.7492 20.602 40.7947 20.4192 40.7947C20.2364 40.7947 20.0565 40.7492 19.8957 40.6622C13.0447 36.8912 8.52672 31.5622 6.46472 24.8312C5.28101 20.8883 4.96443 16.7359 5.53672 12.6592C5.56522 12.4788 5.63987 12.3089 5.75341 12.166C5.86695 12.023 6.01553 11.9118 6.18472 11.8432L20.0047 6.20316C20.2702 6.09532 20.5673 6.09532 20.8327 6.20316L24.9837 7.89717C25.1523 7.96599 25.3412 7.96504 25.5091 7.89453C25.6769 7.82401 25.8099 7.68971 25.8787 7.52117C25.9475 7.35262 25.9466 7.16364 25.8761 6.99579C25.8056 6.82795 25.6713 6.69499 25.5027 6.62617L21.3517 4.93217C20.7539 4.68667 20.0835 4.68667 19.4857 4.93217L5.66572 10.5722C5.2766 10.7313 4.9352 10.9882 4.67466 11.3182C4.41412 11.6481 4.24329 12.0398 4.17872 12.4552C3.5779 16.7345 3.90982 21.0932 5.15172 25.2322C6.11424 28.3936 7.65498 31.3489 9.69572 33.9482C12.3088 37.2029 15.5532 39.8955 19.2337 41.8642C19.5975 42.0622 20.005 42.166 20.4192 42.166C20.8334 42.166 21.241 42.0622 21.6047 41.8642C25.2853 39.8956 28.5297 37.203 31.1427 33.9482C33.183 31.3488 34.7234 28.3935 35.6857 25.2322C36.9279 21.0925 37.2599 16.7332 36.6587 12.4532C36.5942 12.0378 36.4233 11.6461 36.1628 11.3162C35.9022 10.9862 35.5608 10.7293 35.1717 10.5702V10.5722Z" fill="#2594A2"/>
<path d="M19.051 31.782H21.787C22.257 31.7828 22.7081 31.597 23.0412 31.2656C23.3744 30.9341 23.5624 30.484 23.564 30.014V26.98C23.564 26.8739 23.6062 26.7721 23.6812 26.6971C23.7562 26.6221 23.8579 26.58 23.964 26.58H27.024C27.494 26.5808 27.9451 26.3951 28.2782 26.0636C28.6114 25.7321 28.7994 25.2819 28.801 24.812V22.097C28.7994 21.627 28.6114 21.1769 28.2782 20.8454C27.9451 20.5139 27.494 20.3282 27.024 20.329H23.966C23.8599 20.329 23.7582 20.2868 23.6832 20.2118C23.6082 20.1368 23.566 20.0351 23.566 19.929V16.894C23.5644 16.424 23.3764 15.9739 23.0432 15.6424C22.7101 15.3109 22.259 15.1252 21.789 15.126H19.053C18.583 15.1252 18.1319 15.3109 17.7988 15.6424C17.4656 15.9739 17.2776 16.424 17.276 16.894V19.929C17.276 20.0351 17.2339 20.1368 17.1589 20.2118C17.0838 20.2868 16.9821 20.329 16.876 20.329H13.818C13.348 20.3282 12.8969 20.5139 12.5638 20.8454C12.2306 21.1769 12.0426 21.627 12.041 22.097V24.812C12.0427 25.2417 12.2003 25.6562 12.4844 25.9786C12.7685 26.3009 13.1599 26.5093 13.586 26.565C13.7665 26.5884 13.9489 26.5393 14.0931 26.4282C14.2373 26.3172 14.3315 26.1535 14.355 25.973C14.3785 25.7925 14.3293 25.6101 14.2183 25.4659C14.1073 25.3217 13.9435 25.2275 13.763 25.204C13.6674 25.1917 13.5794 25.1452 13.5152 25.0732C13.4511 25.0012 13.4152 24.9084 13.414 24.812V22.097C13.414 21.9909 13.4562 21.8891 13.5312 21.8141C13.6062 21.7391 13.7079 21.697 13.814 21.697H16.872C17.342 21.6978 17.7931 21.512 18.1263 21.1806C18.4594 20.8491 18.6474 20.3989 18.649 19.929V16.894C18.649 16.7879 18.6912 16.6861 18.7662 16.6111C18.8412 16.5361 18.9429 16.494 19.049 16.494H21.785C21.8911 16.494 21.9928 16.5361 22.0679 16.6111C22.1429 16.6861 22.185 16.7879 22.185 16.894V19.929C22.1866 20.3988 22.3745 20.8488 22.7074 21.1802C23.0404 21.5117 23.4912 21.6975 23.961 21.697H27.024C27.1301 21.697 27.2318 21.7391 27.3069 21.8141C27.3819 21.8891 27.424 21.9909 27.424 22.097V24.812C27.424 24.9181 27.3819 25.0198 27.3069 25.0948C27.2318 25.1698 27.1301 25.212 27.024 25.212H23.966C23.4962 25.2114 23.0454 25.3973 22.7124 25.7287C22.3795 26.0602 22.1916 26.5102 22.19 26.98V30.014C22.19 30.1201 22.1479 30.2218 22.0729 30.2968C21.9978 30.3718 21.8961 30.414 21.79 30.414H19.054C18.9479 30.414 18.8462 30.3718 18.7712 30.2968C18.6962 30.2218 18.654 30.1201 18.654 30.014V26.98C18.6524 26.51 18.4644 26.0599 18.1312 25.7284C17.7981 25.3969 17.347 25.2112 16.877 25.212C16.6949 25.212 16.5203 25.2843 16.3916 25.413C16.2628 25.5418 16.1905 25.7164 16.1905 25.8985C16.1905 26.0805 16.2628 26.2552 16.3916 26.3839C16.5203 26.5126 16.6949 26.585 16.877 26.585C16.9831 26.585 17.0849 26.6271 17.1599 26.7021C17.2349 26.7772 17.277 26.8789 17.277 26.985V30.019C17.2786 30.4889 17.4666 30.9391 17.7998 31.2706C18.133 31.602 18.584 31.7878 19.054 31.787L19.051 31.782Z" fill="#2594A2"/>
</svg>
