<svg width="16" height="16" viewBox="0 0 16 16" fill="none" xmlns="http://www.w3.org/2000/svg">
<path d="M7.36825 14.3166L7.36721 14.3156C5.29318 12.2658 3.62924 10.6194 2.47487 9.08116C1.33052 7.55628 0.75 6.21756 0.75 4.79564C0.75 2.4622 2.4097 0.75 4.4 0.75C5.53972 0.75 6.66541 1.33237 7.409 2.2841L8 3.04052L8.591 2.2841C9.33459 1.33237 10.4603 0.75 11.6 0.75C13.5903 0.75 15.25 2.4622 15.25 4.79564C15.25 6.21757 14.6695 7.55633 13.525 9.08245C12.3706 10.6218 10.7069 12.2701 8.63305 14.3241C8.63277 14.3244 8.6325 14.3246 8.63222 14.3249L8.002 14.9455L7.36825 14.3166Z" fill="#CE203B" stroke="#CE203B" stroke-width="1.5"/>
</svg>
