<svg width="59" height="47" viewBox="0 0 59 47" fill="none" xmlns="http://www.w3.org/2000/svg">
<path d="M32.2307 5.27908L29.9557 6.38509L29.9197 6.40509L26.6687 5.27908C25.2116 4.77081 23.613 4.85667 22.2187 5.51809L18.8187 7.11808L11.9557 0.259087C11.792 0.107045 11.5757 0.024373 11.3522 0.0284309C11.1288 0.0324889 10.9156 0.122958 10.7575 0.280846C10.5993 0.438734 10.5085 0.651757 10.5041 0.875183C10.4997 1.09861 10.582 1.31506 10.7337 1.47908L17.4177 8.16309L13.9107 11.6701C13.8305 11.7503 13.7669 11.8456 13.7234 11.9504C13.68 12.0553 13.6577 12.1676 13.6577 12.2811C13.6577 12.3946 13.68 12.5069 13.7234 12.6118C13.7669 12.7166 13.8305 12.8118 13.9107 12.8921C13.991 12.9723 14.0862 13.036 14.1911 13.0794C14.2959 13.1228 14.4083 13.1452 14.5217 13.1452C14.6352 13.1452 14.7476 13.1228 14.8524 13.0794C14.9572 13.036 15.0525 12.9723 15.1327 12.8921L19.1437 8.87909L22.9557 7.07909C23.9421 6.6114 25.0729 6.55069 26.1037 6.91008L32.1487 9.00309L34.4327 11.5831C34.5067 11.6722 34.5978 11.7456 34.7006 11.7988C34.8035 11.852 34.916 11.884 35.0315 11.8929C35.1469 11.9018 35.263 11.8874 35.3728 11.8505C35.4826 11.8136 35.5838 11.7551 35.6705 11.6783C35.7572 11.6015 35.8276 11.5081 35.8775 11.4036C35.9274 11.2991 35.9557 11.1856 35.9609 11.0699C35.966 10.9542 35.9479 10.8386 35.9075 10.7301C35.8671 10.6216 35.8053 10.5223 35.7257 10.4381L33.2917 7.68908C33.1934 7.57782 33.068 7.49378 32.9277 7.44508L32.2187 7.20008L32.8437 6.89408C33.8621 6.55265 34.9732 6.61895 35.9437 7.07909L39.8917 8.94009C40.0527 9.01582 40.2331 9.04004 40.4083 9.00943C40.5835 8.97883 40.745 8.89489 40.8707 8.76908L48.1647 1.47509C48.245 1.39485 48.3086 1.29959 48.3521 1.19476C48.3955 1.08992 48.4178 0.977559 48.4178 0.864086C48.4178 0.750613 48.3955 0.638249 48.3521 0.533413C48.3086 0.428577 48.245 0.333324 48.1647 0.253086C48.0845 0.172848 47.9893 0.109197 47.8844 0.065773C47.7796 0.0223487 47.6672 0 47.5537 0C47.4403 0 47.3279 0.0223487 47.2231 0.065773C47.1182 0.109197 47.023 0.172848 46.9427 0.253086L40.0807 7.12309L36.6807 5.52309C35.2863 4.86221 33.6877 4.77671 32.2307 5.28508V5.27908Z" fill="#2594A2"/>
<path d="M1.44119 10.7738C1.27684 10.6263 1.06224 10.5473 0.841459 10.553C0.620679 10.5588 0.410487 10.6489 0.254062 10.8048C0.0976382 10.9607 0.00685883 11.1706 0.000373011 11.3914C-0.0061128 11.6121 0.0721873 11.827 0.219189 11.9918L2.69519 14.4678C2.85724 14.6299 3.07702 14.7209 3.30619 14.7209C3.53536 14.7209 3.75514 14.6299 3.91719 14.4678C4.07924 14.3058 4.17027 14.086 4.17027 13.8568C4.17027 13.6276 4.07924 13.4079 3.91719 13.2458L1.44119 10.7738Z" fill="#2594A2"/>
<path d="M20.2966 21.9044C20.4586 22.0662 20.6781 22.1571 20.9071 22.1571C21.136 22.1571 21.3556 22.0662 21.5176 21.9044C21.5176 21.9044 25.9176 17.4984 25.9426 17.4664C26.8453 17.0612 27.6667 16.4949 28.3666 15.7954L28.6106 15.5514L32.0816 19.0224C33.1601 20.1009 34.6228 20.7068 36.1481 20.7068C37.6733 20.7068 39.136 20.1009 40.2146 19.0224C40.6592 18.5756 40.917 17.9763 40.9356 17.3462C40.9541 16.7162 40.7321 16.1027 40.3146 15.6304L38.4146 13.4834C38.2585 13.3294 38.0498 13.2405 37.8307 13.2346C37.6115 13.2288 37.3984 13.3065 37.2343 13.4519C37.0703 13.5974 36.9677 13.7997 36.9474 14.018C36.927 14.2363 36.9903 14.4541 37.1246 14.6274L39.0246 16.7744C39.1508 16.9173 39.2178 17.103 39.2121 17.2936C39.2063 17.4842 39.1282 17.6654 38.9936 17.8004C38.239 18.5548 37.2156 18.9786 36.1486 18.9786C35.0815 18.9786 34.0582 18.5548 33.3036 17.8004L27.3666 11.8634C27.2863 11.7832 27.1911 11.7195 27.0862 11.6761C26.9814 11.6327 26.869 11.6104 26.7556 11.6104C26.6421 11.6104 26.5297 11.6327 26.4249 11.6761C26.3201 11.7195 26.2248 11.7832 26.1446 11.8634C26.0643 11.9437 26.0007 12.0389 25.9573 12.1438C25.9138 12.2486 25.8915 12.361 25.8915 12.4744C25.8915 12.5879 25.9138 12.7003 25.9573 12.8051C26.0007 12.9099 26.0643 13.0052 26.1446 13.0854L27.3886 14.3294L27.1446 14.5734C26.3325 15.3847 25.3187 15.9646 24.2077 16.2534C23.0968 16.5422 21.9289 16.5294 20.8246 16.2164C20.7145 16.1822 20.5986 16.1704 20.4839 16.1816C20.3691 16.1928 20.2578 16.2269 20.1564 16.2819C20.0551 16.3368 19.9657 16.4115 19.8937 16.5015C19.8216 16.5915 19.7683 16.695 19.7368 16.8059C19.7054 16.9169 19.6965 17.0329 19.7106 17.1474C19.7247 17.2618 19.7616 17.3722 19.8191 17.4722C19.8766 17.5721 19.9535 17.6596 20.0453 17.7293C20.1371 17.7991 20.2419 17.8498 20.3536 17.8784C21.1458 18.1026 21.9675 18.2058 22.7906 18.1844L20.2906 20.6844C20.2103 20.7647 20.1467 20.8599 20.1032 20.9648C20.0598 21.0696 20.0375 21.182 20.0375 21.2954C20.0375 21.4089 20.0598 21.5213 20.1032 21.6261C20.1467 21.731 20.2103 21.8262 20.2906 21.9064L20.2966 21.9044Z" fill="#2594A2"/>
<path d="M58.6814 10.7727C58.6012 10.6924 58.5059 10.6288 58.4011 10.5853C58.2962 10.5419 58.1839 10.5195 58.0704 10.5195C57.9569 10.5195 57.8446 10.5419 57.7397 10.5853C57.6349 10.6288 57.5396 10.6924 57.4594 10.7727L49.5994 18.6327C49.4664 18.7656 49.3803 18.9384 49.3544 19.1246L48.9004 22.3797C48.6353 24.2481 47.8328 25.9992 46.5904 27.4197C45.9157 26.8947 45.0724 26.6344 44.2192 26.6876C43.366 26.7408 42.5616 27.1039 41.9574 27.7086L41.5634 28.1027C41.2368 28.4276 40.9778 28.8141 40.8015 29.2398C40.6253 29.6655 40.5351 30.1219 40.5364 30.5827C40.5364 30.6637 40.5364 30.7447 40.5454 30.8247C40.0455 30.7895 39.5438 30.8621 39.0744 31.0375C38.605 31.213 38.1787 31.4872 37.8244 31.8417L37.4304 32.2357C37.0757 32.5902 36.8013 33.0168 36.6259 33.4866C36.4504 33.9564 36.3779 34.4584 36.4134 34.9586C35.9132 34.9231 35.4113 34.9954 34.9415 35.1707C34.4717 35.3459 34.045 35.6201 33.6904 35.9747L33.2964 36.3687C32.942 36.7229 32.6677 37.1492 32.4923 37.6187C32.3168 38.0881 32.2442 38.5897 32.2794 39.0897C32.1994 39.0847 32.1184 39.0807 32.0374 39.0807C31.5767 39.0794 31.1202 39.1695 30.6946 39.3458C30.2689 39.5221 29.8824 39.781 29.5574 40.1077L29.1634 40.5016C28.5754 41.09 28.2157 41.8682 28.1485 42.6972C28.0813 43.5263 28.3109 44.3523 28.7964 45.0276C28.3563 45.2118 27.8659 45.2374 27.4091 45.1C26.9522 44.9627 26.5572 44.671 26.2915 44.2748C26.0259 43.8785 25.906 43.4023 25.9525 42.9276C25.999 42.4528 26.2089 42.0089 26.5464 41.6717L36.3034 31.9147C36.3869 31.8352 36.4536 31.7398 36.4997 31.6341C36.5457 31.5284 36.5702 31.4146 36.5716 31.2993C36.573 31.1841 36.5513 31.0697 36.5078 30.9629C36.4643 30.8562 36.3999 30.7592 36.3183 30.6777C36.2368 30.5962 36.1398 30.5319 36.033 30.4885C35.9262 30.4451 35.8118 30.4235 35.6965 30.425C35.5812 30.4265 35.4674 30.451 35.3618 30.4971C35.2562 30.5433 35.1608 30.6101 35.0814 30.6936L22.8874 42.8907C22.4983 43.2613 21.9796 43.465 21.4423 43.4585C20.9049 43.4519 20.3915 43.2356 20.0115 42.8556C19.6315 42.4756 19.4151 41.9621 19.4086 41.4248C19.402 40.8874 19.6058 40.3688 19.9764 39.9797L32.4574 27.4987C32.5376 27.4184 32.6013 27.3232 32.6447 27.2183C32.6881 27.1135 32.7105 27.0011 32.7105 26.8876C32.7105 26.7742 32.6881 26.6618 32.6447 26.557C32.6013 26.4522 32.5376 26.3569 32.4574 26.2767C32.3772 26.1964 32.2819 26.1328 32.1771 26.0893C32.0722 26.0459 31.9599 26.0236 31.8464 26.0236C31.7329 26.0236 31.6206 26.0459 31.5157 26.0893C31.4109 26.1328 31.3156 26.1964 31.2354 26.2767L16.7814 40.7307C16.3923 41.1013 15.8736 41.3051 15.3363 41.2985C14.7989 41.292 14.2855 41.0756 13.9055 40.6956C13.5255 40.3156 13.3091 39.8021 13.3026 39.2648C13.296 38.7274 13.4998 38.2088 13.8704 37.8197L28.5244 23.1656C28.6079 23.0862 28.6746 22.9908 28.7207 22.8851C28.7667 22.7794 28.7912 22.6656 28.7926 22.5503C28.794 22.4351 28.7723 22.3207 28.7288 22.2139C28.6853 22.1072 28.6209 22.0102 28.5393 21.9287C28.4578 21.8472 28.3608 21.7829 28.254 21.7395C28.1472 21.6961 28.0328 21.6745 27.9175 21.676C27.8022 21.6775 27.6884 21.702 27.5828 21.7481C27.4772 21.7943 27.3818 21.8611 27.3024 21.9447L16.4134 32.8327C16.224 33.0315 15.9967 33.1905 15.745 33.3002C15.4932 33.4099 15.2221 33.4681 14.9475 33.4715C14.6729 33.4748 14.4004 33.4232 14.1461 33.3197C13.8917 33.2161 13.6606 33.0628 13.4665 32.8686C13.2723 32.6744 13.1189 32.4433 13.0154 32.189C12.9118 31.9346 12.8602 31.6622 12.8636 31.3876C12.8669 31.113 12.9251 30.8418 13.0349 30.5901C13.1446 30.3383 13.3035 30.1111 13.5024 29.9217L18.6364 24.7906C18.7984 24.6286 18.8895 24.4088 18.8895 24.1797C18.8895 23.9505 18.7984 23.7307 18.6364 23.5686C18.4744 23.4066 18.2546 23.3156 18.0254 23.3156C17.7962 23.3156 17.5764 23.4066 17.4144 23.5686L12.9144 28.0686L12.7334 27.8876C11.25 26.3985 10.289 24.4688 9.9944 22.3876L9.5404 19.1327C9.51446 18.9464 9.42844 18.7736 9.2954 18.6407L6.7954 16.1407C6.63335 15.9786 6.41357 15.8876 6.1844 15.8876C5.95523 15.8876 5.73545 15.9786 5.5734 16.1407C5.41135 16.3027 5.32031 16.5225 5.32031 16.7516C5.32031 16.9808 5.41135 17.2006 5.5734 17.3627L7.8734 19.6627L8.2874 22.6317C8.63427 25.0851 9.76684 27.3601 11.5154 29.1157L11.7604 29.3607C11.4328 29.8761 11.2348 30.4633 11.1834 31.0719C11.1319 31.6805 11.2285 32.2925 11.4649 32.8556C11.7013 33.4188 12.0705 33.9164 12.5409 34.306C13.0113 34.6955 13.569 34.9654 14.1664 35.0927L12.6474 36.6116C11.9644 37.2997 11.5714 38.2236 11.5492 39.1928C11.527 40.1621 11.8774 41.1029 12.5282 41.8215C13.179 42.5401 14.0807 42.9818 15.0473 43.0555C16.014 43.1292 16.9722 42.8293 17.7244 42.2177C17.863 42.8863 18.1799 43.5051 18.6415 44.0083C19.1032 44.5115 19.6923 44.8805 20.3466 45.076C21.0009 45.2716 21.6959 45.2865 22.358 45.1192C23.0201 44.9519 23.6246 44.6086 24.1074 44.1257L24.2994 43.9337C24.4268 44.5317 24.6972 45.09 25.0875 45.5607C25.4778 46.0314 25.9763 46.4005 26.5405 46.6364C27.1046 46.8723 27.7175 46.968 28.3267 46.9153C28.9359 46.8626 29.5232 46.663 30.0384 46.3336C30.492 46.7216 31.0695 46.9344 31.6664 46.9337C31.9972 46.9344 32.3249 46.8694 32.6305 46.7426C32.936 46.6157 33.2134 46.4295 33.4464 46.1947L35.2394 44.3997C35.6696 43.9693 35.9281 43.3969 35.9664 42.7897C36.5745 42.7505 37.1474 42.4905 37.5774 42.0587L39.3684 40.2637C39.7984 39.8336 40.0568 39.2616 40.0954 38.6547C40.7019 38.6162 41.2738 38.3585 41.7044 37.9297L43.5044 36.1407C43.9368 35.7113 44.1975 35.1387 44.2374 34.5307C44.8446 34.4934 45.4174 34.236 45.8484 33.8067L47.6484 32.0167C48.0906 31.5768 48.3537 30.9884 48.3868 30.3656C48.4199 29.7428 48.2205 29.1299 47.8274 28.6457C49.3284 26.9591 50.2982 24.867 50.6154 22.6317L51.0294 19.6627L58.6844 12.0077C58.7646 11.9274 58.8283 11.8322 58.8717 11.7273C58.9152 11.6225 58.9375 11.5101 58.9375 11.3967C58.9375 11.2832 58.9152 11.1708 58.8717 11.066C58.8283 10.9611 58.7646 10.8659 58.6844 10.7857L58.6814 10.7727ZM34.0184 43.1647L32.2254 44.9647C32.1522 45.0384 32.0651 45.0969 31.9692 45.1367C31.8732 45.1765 31.7703 45.1969 31.6664 45.1967C31.5627 45.197 31.46 45.1767 31.3643 45.137C31.2685 45.0974 31.1815 45.0391 31.1084 44.9657L30.3884 44.2457C30.223 44.0803 30.0918 43.8841 30.0023 43.6681C29.9128 43.452 29.8667 43.2205 29.8667 42.9866C29.8667 42.7528 29.9128 42.5213 30.0023 42.3053C30.0918 42.0892 30.223 41.893 30.3884 41.7277L30.7824 41.3336C30.9477 41.1683 31.144 41.0371 31.36 40.9475C31.576 40.858 31.8076 40.812 32.0414 40.812C32.2752 40.812 32.5068 40.858 32.7228 40.9475C32.9388 41.0371 33.1351 41.1683 33.3004 41.3336L34.0194 42.0527C34.1672 42.2009 34.2503 42.4018 34.2503 42.6112C34.2503 42.8205 34.1672 43.0214 34.0194 43.1697L34.0184 43.1647ZM38.1484 39.0297L36.3564 40.8297C36.2832 40.9034 36.1961 40.9619 36.1002 41.0018C36.0042 41.0416 35.9013 41.062 35.7974 41.0617C35.6937 41.0619 35.5911 41.0416 35.4953 41.002C35.3995 40.9623 35.3126 40.9041 35.2394 40.8307L34.5214 40.1127C34.1879 39.7786 34.0005 39.3257 34.0005 38.8537C34.0005 38.3816 34.1879 37.9288 34.5214 37.5947L34.9154 37.2007C35.2495 36.8671 35.7023 36.6798 36.1744 36.6798C36.6465 36.6798 37.0993 36.8671 37.4334 37.2007L38.1494 37.9167C38.2972 38.0649 38.3803 38.2658 38.3803 38.4752C38.3803 38.6845 38.2972 38.8854 38.1494 39.0337L38.1484 39.0297ZM42.2854 34.9037L40.4854 36.6936C40.3372 36.8412 40.1365 36.924 39.9274 36.924C39.7183 36.924 39.5176 36.8412 39.3694 36.6936L38.6534 35.9777C38.3199 35.6436 38.1325 35.1908 38.1325 34.7187C38.1325 34.2466 38.3199 33.7938 38.6534 33.4597L39.0474 33.0657C39.3815 32.7321 39.8343 32.5448 40.3064 32.5448C40.7785 32.5448 41.2313 32.7321 41.5654 33.0657L42.2864 33.7867C42.36 33.86 42.4184 33.9472 42.4583 34.0433C42.4982 34.1393 42.5187 34.2422 42.5187 34.3462C42.5187 34.4501 42.4982 34.553 42.4583 34.649C42.4184 34.7451 42.36 34.8323 42.2864 34.9057L42.2854 34.9037ZM46.4274 30.7797L44.6274 32.5697C44.4792 32.7172 44.2785 32.8 44.0694 32.8C43.8603 32.8 43.6596 32.7172 43.5114 32.5697L42.7904 31.8486C42.625 31.6833 42.4938 31.4871 42.4043 31.2711C42.3148 31.055 42.2687 30.8235 42.2687 30.5897C42.2687 30.3558 42.3148 30.1243 42.4043 29.9082C42.4938 29.6922 42.625 29.496 42.7904 29.3307L43.1844 28.9367C43.3497 28.7713 43.546 28.6401 43.762 28.5505C43.978 28.461 44.2096 28.415 44.4434 28.415C44.6772 28.415 44.9088 28.461 45.1248 28.5505C45.3408 28.6401 45.5371 28.7713 45.7024 28.9367L46.4334 29.6676C46.5069 29.741 46.5652 29.8282 46.6049 29.9241C46.6447 30.02 46.6652 30.1228 46.6652 30.2267C46.6652 30.3305 46.6447 30.4333 46.6049 30.5292C46.5652 30.6251 46.5069 30.7123 46.4334 30.7857L46.4274 30.7797Z" fill="#2594A2"/>
</svg>
