<svg width="47" height="47" viewBox="0 0 47 47" fill="none" xmlns="http://www.w3.org/2000/svg">
<path d="M39.708 20.6895H14.69C14.5075 20.6895 14.3325 20.7619 14.2035 20.891C14.0745 21.02 14.002 21.195 14.002 21.3775C14.002 21.5599 14.0745 21.7349 14.2035 21.8639C14.3325 21.993 14.5075 22.0655 14.69 22.0655H39.708C39.8904 22.0655 40.0654 21.993 40.1944 21.8639C40.3235 21.7349 40.396 21.5599 40.396 21.3775C40.396 21.195 40.3235 21.02 40.1944 20.891C40.0654 20.7619 39.8904 20.6895 39.708 20.6895Z" fill="#2594A2"/>
<path d="M39.7072 24.3486H21.9302C21.8398 24.3486 21.7504 24.3664 21.6669 24.401C21.5834 24.4356 21.5076 24.4863 21.4437 24.5501C21.3798 24.614 21.3291 24.6899 21.2946 24.7733C21.26 24.8568 21.2422 24.9463 21.2422 25.0367C21.2422 25.127 21.26 25.2165 21.2946 25.2999C21.3291 25.3834 21.3798 25.4592 21.4437 25.5231C21.5076 25.587 21.5834 25.6377 21.6669 25.6723C21.7504 25.7068 21.8398 25.7246 21.9302 25.7246H39.7072C39.7975 25.7246 39.887 25.7068 39.9705 25.6723C40.0539 25.6377 40.1298 25.587 40.1937 25.5231C40.2576 25.4592 40.3082 25.3834 40.3428 25.2999C40.3774 25.2165 40.3952 25.127 40.3952 25.0367C40.3952 24.9463 40.3774 24.8568 40.3428 24.7733C40.3082 24.6899 40.2576 24.614 40.1937 24.5501C40.1298 24.4863 40.0539 24.4356 39.9705 24.401C39.887 24.3664 39.7975 24.3486 39.7072 24.3486Z" fill="#2594A2"/>
<path d="M39.709 28.0088H24.3149C24.2246 28.0088 24.1351 28.0266 24.0517 28.0612C23.9682 28.0957 23.8923 28.1464 23.8285 28.2103C23.7646 28.2742 23.7139 28.35 23.6793 28.4335C23.6447 28.517 23.627 28.6064 23.627 28.6968C23.627 28.7871 23.6447 28.8766 23.6793 28.9601C23.7139 29.0435 23.7646 29.1194 23.8285 29.1833C23.8923 29.2471 23.9682 29.2978 24.0517 29.3324C24.1351 29.367 24.2246 29.3848 24.3149 29.3848H39.7149C39.8974 29.3848 40.0724 29.3123 40.2014 29.1833C40.3305 29.0542 40.403 28.8792 40.403 28.6968C40.403 28.5143 40.3305 28.3393 40.2014 28.2103C40.0724 28.0813 39.8974 28.0088 39.7149 28.0088H39.709Z" fill="#2594A2"/>
<path d="M28.4299 31.6689H25.3179C25.1354 31.6689 24.9604 31.7414 24.8314 31.8705C24.7024 31.9995 24.6299 32.1745 24.6299 32.3569C24.6299 32.5394 24.7024 32.7144 24.8314 32.8434C24.9604 32.9725 25.1354 33.045 25.3179 33.045H28.4299C28.6123 33.045 28.7873 32.9725 28.9164 32.8434C29.0454 32.7144 29.1179 32.5394 29.1179 32.3569C29.1179 32.1745 29.0454 31.9995 28.9164 31.8705C28.7873 31.7414 28.6123 31.6689 28.4299 31.6689Z" fill="#2594A2"/>
<path d="M14.69 11.9131H23.88C24.0624 11.9131 24.2374 11.8406 24.3665 11.7116C24.4955 11.5826 24.568 11.4076 24.568 11.2251C24.568 11.0426 24.4955 10.8676 24.3665 10.7386C24.2374 10.6096 24.0624 10.5371 23.88 10.5371H14.69C14.5075 10.5371 14.3325 10.6096 14.2035 10.7386C14.0745 10.8676 14.002 11.0426 14.002 11.2251C14.002 11.4076 14.0745 11.5826 14.2035 11.7116C14.3325 11.8406 14.5075 11.9131 14.69 11.9131Z" fill="#2594A2"/>
<path d="M6.49547 40.4803C6.55936 40.5442 6.6352 40.5949 6.71867 40.6295C6.80215 40.6641 6.89162 40.6819 6.98197 40.6819C7.07232 40.6819 7.16179 40.6641 7.24526 40.6295C7.32874 40.5949 7.40458 40.5442 7.46847 40.4803L12.0685 35.8803L16.6685 40.4803C16.7324 40.5442 16.8082 40.5949 16.8917 40.6295C16.9752 40.6641 17.0646 40.6819 17.155 40.6819C17.2453 40.6819 17.3348 40.6641 17.4183 40.6295C17.5017 40.5949 17.5776 40.5442 17.6415 40.4803C17.7054 40.4165 17.756 40.3406 17.7906 40.2571C17.8252 40.1737 17.843 40.0842 17.843 39.9938C17.843 39.9035 17.8252 39.814 17.7906 39.7306C17.756 39.6471 17.7054 39.5712 17.6415 39.5074L13.0415 34.9073L17.6415 30.3073C17.7705 30.1783 17.843 30.0033 17.843 29.8208C17.843 29.6384 17.7705 29.4634 17.6415 29.3344C17.5124 29.2053 17.3374 29.1328 17.155 29.1328C16.9725 29.1328 16.7975 29.2053 16.6685 29.3344L12.0685 33.9343L7.46847 29.3344C7.33944 29.2053 7.16444 29.1328 6.98197 29.1328C6.7995 29.1328 6.6245 29.2053 6.49547 29.3344C6.36644 29.4634 6.29395 29.6384 6.29395 29.8208C6.29395 30.0033 6.36644 30.1783 6.49547 30.3073L11.0955 34.9073L6.49547 39.5074C6.43158 39.5712 6.3809 39.6471 6.34632 39.7306C6.31174 39.814 6.29395 39.9035 6.29395 39.9938C6.29395 40.0842 6.31174 40.1737 6.34632 40.2571C6.3809 40.3406 6.43158 40.4165 6.49547 40.4803Z" fill="#2594A2"/>
<path d="M46.6546 18.191C46.6494 15.7872 45.8757 13.4479 44.4466 11.515C44.3955 11.4356 44.3287 11.3675 44.2502 11.315C44.1718 11.2625 44.0833 11.2267 43.9904 11.2099C43.8975 11.193 43.8021 11.1955 43.7102 11.2171C43.6183 11.2387 43.5318 11.279 43.4562 11.3355C43.3805 11.3919 43.3173 11.4634 43.2704 11.5454C43.2235 11.6273 43.194 11.7181 43.1838 11.8119C43.1735 11.9058 43.1826 12.0008 43.2106 12.0909C43.2386 12.1811 43.2849 12.2645 43.3466 12.336C43.9792 13.1901 44.4692 14.1411 44.7976 15.152C44.1843 14.5186 43.4499 14.0151 42.6379 13.6715C41.826 13.3279 40.9532 13.1512 40.0716 13.152H36.4756C35.688 13.151 34.9331 12.8376 34.3763 12.2806C33.8195 11.7237 33.5064 10.9686 33.5056 10.181V6.58804C33.5061 5.70674 33.3293 4.83434 32.9857 4.02278C32.6421 3.21121 32.1387 2.47707 31.5056 1.86404C32.9747 2.34345 34.3106 3.16144 35.4056 4.25204L41.3126 10.159C41.3764 10.2229 41.4523 10.2736 41.5358 10.3082C41.6192 10.3428 41.7087 10.3606 41.7991 10.3606C41.8894 10.3606 41.9789 10.3428 42.0624 10.3082C42.1458 10.2736 42.2217 10.2229 42.2856 10.159C42.3494 10.0952 42.4001 10.0193 42.4347 9.93584C42.4693 9.85236 42.4871 9.76289 42.4871 9.67254C42.4871 9.58219 42.4693 9.49273 42.4347 9.40925C42.4001 9.32578 42.3494 9.24993 42.2856 9.18604L36.3806 3.27904C35.3433 2.23612 34.1095 1.4093 32.7505 0.846461C31.3916 0.283617 29.9345 -0.00407366 28.4636 4.35746e-05H12.2546C11.1018 0.000837901 9.9965 0.459047 9.18129 1.27407C8.36609 2.08909 7.90762 3.1943 7.90656 4.34704V23.585C6.77896 23.9986 5.71982 24.579 4.76456 25.307C4.6279 25.4205 4.5404 25.5823 4.52035 25.7588C4.5003 25.9352 4.54926 26.1126 4.65699 26.2538C4.76472 26.395 4.92287 26.4891 5.09836 26.5163C5.27385 26.5436 5.45309 26.5019 5.59856 26.4C7.75536 24.763 10.4534 24.0061 13.1469 24.2824C15.8405 24.5587 18.3287 25.8477 20.1081 27.8885C21.8876 29.9294 22.8256 32.5699 22.7325 35.276C22.6394 37.9822 21.522 40.5519 19.6064 42.4656C17.6909 44.3793 15.12 45.4942 12.4138 45.5847C9.70759 45.6751 7.068 44.7345 5.02886 42.9531C2.98973 41.1716 1.70322 38.6822 1.42953 35.9883C1.15584 33.2945 1.91539 30.5972 3.55456 28.442C3.66516 28.2968 3.71354 28.1136 3.68907 27.9328C3.66459 27.7519 3.56927 27.5881 3.42406 27.4775C3.27886 27.3669 3.09567 27.3186 2.91479 27.343C2.73391 27.3675 2.57016 27.4628 2.45956 27.608C1.10006 29.3968 0.267004 31.5297 0.0542327 33.7664C-0.158539 36.0031 0.257423 38.2548 1.25527 40.2678C2.25311 42.2809 3.7932 43.9753 5.70208 45.1603C7.61095 46.3453 9.81278 46.9738 12.0596 46.975H42.3086C43.4611 46.9737 44.5661 46.5151 45.3809 45.7C46.1957 44.8848 46.6538 43.7796 46.6546 42.627V18.191ZM42.3086 45.6H17.6726C20.2753 44.2343 22.2902 41.9656 23.3388 39.2197C24.3874 36.4738 24.3978 33.4395 23.3679 30.6866C22.338 27.9336 20.3386 25.6512 17.7452 24.2677C15.1518 22.8843 12.1426 22.4951 9.28256 23.173V4.34704C9.28336 3.55916 9.59677 2.80378 10.154 2.24675C10.7112 1.68973 11.4667 1.37657 12.2546 1.37604H26.9176C28.2994 1.37763 29.6242 1.92726 30.6013 2.90436C31.5783 3.88145 32.128 5.20622 32.1296 6.58804V10.179C32.1306 11.3314 32.5888 12.4364 33.4036 13.2513C34.2184 14.0663 35.3232 14.5247 36.4756 14.526H40.0676C41.4427 14.5278 42.7615 15.0724 43.7373 16.0412C44.7131 17.0101 45.267 18.325 45.2786 19.7V42.627C45.2778 43.4146 44.9646 44.1697 44.4079 44.7266C43.8511 45.2836 43.0961 45.597 42.3086 45.598V45.6Z" fill="#2594A2"/>
</svg>
