<svg width="16" height="16" viewBox="0 0 16 16" fill="none" xmlns="http://www.w3.org/2000/svg">
<path d="M12.5 0C10.57 0 9 1.57 9 3.5C9 5.296 11.808 8.477 12.128 8.834C12.223 8.939 12.358 9 12.5 9C12.642 9 12.777 8.939 12.872 8.834C13.192 8.477 16 5.296 16 3.5C16 1.57 14.43 0 12.5 0ZM12.5 5C11.672 5 11 4.328 11 3.5C11 2.672 11.672 2 12.5 2C13.328 2 14 2.672 14 3.5C14 4.328 13.328 5 12.5 5Z" fill="#4D4D4D"/>
<path d="M0.314 5.874C0.125 5.95 0 6.134 0 6.339V15.5C0 15.666 0.083 15.821 0.22 15.914C0.304 15.97 0.401 16 0.5 16C0.563 16 0.626 15.988 0.686 15.964L5 14.238V4L0.314 5.874Z" fill="#4D4D4D"/>
<path d="M13.616 9.50155C13.332 9.81755 12.925 9.99955 12.5 9.99955C12.075 9.99955 11.668 9.81755 11.384 9.50155C11.282 9.38855 11.151 9.23955 11 9.06255V15.9995L15.686 14.1255C15.876 14.0505 16 13.8655 16 13.6615V6.31055C15.181 7.69755 14.086 8.97755 13.616 9.50155Z" fill="#4D4D4D"/>
<path d="M8.315 4.926L6 4V14.238L10 15.838V7.808C9.361 6.947 8.694 5.91 8.315 4.926Z" fill="#4D4D4D"/>
</svg>
