<svg width="48" height="47" viewBox="0 0 48 47" fill="none" xmlns="http://www.w3.org/2000/svg">
<path d="M44.39 23.167V13.817C44.3889 12.7777 43.9756 11.7812 43.2407 11.0463C42.5058 10.3114 41.5093 9.89806 40.47 9.897H39.142L39.437 8.874C39.5512 8.47826 39.5862 8.0639 39.5402 7.65461C39.4941 7.24531 39.3678 6.84912 39.1685 6.48867C38.9692 6.12823 38.7008 5.8106 38.3786 5.55396C38.0564 5.29733 37.6869 5.1067 37.291 4.993L28.4 2.433C28.2002 2.37545 27.9856 2.39964 27.8036 2.50025C27.6216 2.60087 27.4871 2.76966 27.4295 2.9695C27.3719 3.16934 27.3961 3.38386 27.4968 3.56586C27.5974 3.74787 27.7662 3.88245 27.966 3.94L33.558 5.55C33.2123 6.222 33.0306 6.96627 33.0276 7.72196C33.0247 8.47765 33.2006 9.22332 33.541 9.898H17.149V3.724C17.149 3.51607 17.0664 3.31666 16.9194 3.16963C16.7723 3.0226 16.5729 2.94 16.365 2.94C16.1571 2.94 15.9577 3.0226 15.8106 3.16963C15.6636 3.31666 15.581 3.51607 15.581 3.724V9.897H12.935V3.724C12.935 3.51607 12.8524 3.31666 12.7054 3.16963C12.5583 3.0226 12.3589 2.94 12.151 2.94C11.9431 2.94 11.7437 3.0226 11.5966 3.16963C11.4496 3.31666 11.367 3.51607 11.367 3.724V9.897H7.937V3.136C7.93726 2.72013 8.10252 2.32135 8.39649 2.02719C8.69046 1.73304 9.08913 1.56753 9.505 1.567H22.734C23.1495 1.56806 23.5477 1.7338 23.8412 2.0279C24.1348 2.322 24.2997 2.72048 24.3 3.136V7.447C24.3 7.65493 24.3826 7.85434 24.5296 8.00137C24.6767 8.1484 24.8761 8.231 25.084 8.231C25.2919 8.231 25.4913 8.1484 25.6384 8.00137C25.7854 7.85434 25.868 7.65493 25.868 7.447V3.136C25.8672 2.30487 25.5368 1.50798 24.9493 0.920096C24.3618 0.332211 23.5651 0.0013235 22.734 0H9.505C8.67352 0.000794277 7.87633 0.331448 7.28839 0.91939C6.70045 1.50733 6.36979 2.30452 6.369 3.136V9.897H3.92C2.88068 9.89806 1.88422 10.3114 1.14931 11.0463C0.414398 11.7812 0.00105891 12.7777 0 13.817L0 43.017C0.00105891 44.0563 0.414398 45.0528 1.14931 45.7877C1.88422 46.5226 2.88068 46.9359 3.92 46.937H40.471C41.5103 46.9359 42.5068 46.5226 43.2417 45.7877C43.9766 45.0528 44.3899 44.0563 44.391 43.017V37.286C44.391 37.0781 44.3084 36.8787 44.1614 36.7316C44.0143 36.5846 43.8149 36.502 43.607 36.502C43.3991 36.502 43.1997 36.5846 43.0526 36.7316C42.9056 36.8787 42.823 37.0781 42.823 37.286V43.019C42.8212 43.6418 42.5726 44.2386 42.1318 44.6787C41.691 45.1187 41.0939 45.3662 40.471 45.367H3.92C3.29645 45.3662 2.69868 45.1182 2.25776 44.6772C1.81685 44.2363 1.56879 43.6385 1.568 43.015V13.817C1.56932 13.1938 1.81761 12.5965 2.25847 12.1561C2.69932 11.7156 3.2968 11.4678 3.92 11.467H40.471C41.0945 11.4678 41.6923 11.7158 42.1332 12.1568C42.5742 12.5977 42.8222 13.1955 42.823 13.819V23.128H36.355C35.5235 23.1288 34.7263 23.4594 34.1384 24.0474C33.5504 24.6353 33.2198 25.4325 33.219 26.264V30.576C33.2198 31.4075 33.5504 32.2047 34.1384 32.7926C34.7263 33.3806 35.5235 33.7112 36.355 33.712H43.9C44.7311 33.7107 45.5278 33.3798 46.1153 32.7919C46.7028 32.204 47.0332 31.4071 47.034 30.576V26.262C47.0327 25.5162 46.7659 24.7951 46.2814 24.228C45.797 23.6609 45.1265 23.2848 44.39 23.167ZM35.1 5.995L36.853 6.495C37.0509 6.55185 37.2356 6.64715 37.3967 6.77543C37.5577 6.90372 37.6919 7.06248 37.7915 7.24265C37.8912 7.42281 37.9543 7.62085 37.9774 7.82544C38.0005 8.03003 37.983 8.23716 37.926 8.435L37.51 9.897H35.41C34.938 9.37036 34.6521 8.7033 34.5961 7.99835C34.5401 7.2934 34.7171 6.58956 35.1 5.995ZM45.468 30.573C45.4675 30.9887 45.3021 31.3872 45.0082 31.6812C44.7142 31.9751 44.3157 32.1405 43.9 32.141H36.355C35.9393 32.1405 35.5408 31.9751 35.2468 31.6812C34.9529 31.3872 34.7875 30.9887 34.787 30.573V26.262C34.7875 25.8463 34.9529 25.4478 35.2468 25.1538C35.5408 24.8599 35.9393 24.6945 36.355 24.694H43.9C44.3157 24.6945 44.7142 24.8599 45.0082 25.1538C45.3021 25.4478 45.4675 25.8463 45.468 26.262V30.573ZM39.295 28.417C39.295 28.6249 39.2124 28.8243 39.0654 28.9714C38.9183 29.1184 38.7189 29.201 38.511 29.201H37.335C37.1271 29.201 36.9277 29.1184 36.7806 28.9714C36.6336 28.8243 36.551 28.6249 36.551 28.417C36.551 28.2091 36.6336 28.0097 36.7806 27.8626C36.9277 27.7156 37.1271 27.633 37.335 27.633H38.511C38.614 27.633 38.7161 27.6533 38.8113 27.6928C38.9064 27.7322 38.9929 27.7901 39.0657 27.863C39.1385 27.9359 39.1963 28.0224 39.2356 28.1177C39.2749 28.2129 39.2951 28.315 39.295 28.418V28.417Z" fill="#2594A2"/>
</svg>
