<svg width="36" height="28" viewBox="0 0 36 28" fill="none" xmlns="http://www.w3.org/2000/svg">
<path d="M35.565 21.7794C30.99 17.4889 24.81 14.8462 18 14.8462C11.19 14.8462 5.01 17.4889 0.435 21.7794C0.165 22.0467 0 22.4178 0 22.8335C0 23.2492 0.165 23.6204 0.435 23.8876L4.155 27.5695C4.425 27.8367 4.8 28 5.22 28C5.625 28 6 27.8367 6.27 27.5843C7.455 26.4857 8.805 25.5652 10.26 24.8378C10.755 24.6002 11.1 24.0954 11.1 23.5016V18.8993C13.275 18.1866 15.6 17.8155 18 17.8155C20.4 17.8155 22.725 18.1866 24.9 18.8844V23.4867C24.9 24.0657 25.245 24.5854 25.74 24.8229C27.21 25.5504 28.545 26.4857 29.73 27.5695C30 27.8367 30.375 27.9852 30.78 27.9852C31.2 27.9852 31.575 27.8218 31.845 27.5546L35.565 23.8727C35.835 23.6055 36 23.2344 36 22.8187C36 22.4178 35.835 22.0467 35.565 21.7794ZM31.74 6.3245L29.625 4.23118L24.285 9.50159L26.4 11.5949C26.4 11.5949 31.575 6.36904 31.74 6.3245ZM19.5 0H16.5V7.42312H19.5V0ZM9.6 11.5949L11.715 9.50159L6.39 4.21633L4.26 6.3245C4.425 6.36904 9.6 11.5949 9.6 11.5949Z" fill="#4D4D4D"/>
</svg>
