<svg width="16" height="16" viewBox="0 0 16 16" fill="none" xmlns="http://www.w3.org/2000/svg">
<path d="M14.8225 2.66663C14.8225 3.86328 13.8525 4.83337 12.6559 4.83337C11.4592 4.83337 10.4893 3.86328 10.4893 2.66663C10.4893 1.47009 11.4592 0.5 12.6559 0.5C13.8525 0.5 14.8225 1.47009 14.8225 2.66663Z" fill="#4D4D4D"/>
<path d="M12.6559 5.33337C11.1852 5.33337 9.98926 4.13733 9.98926 2.66663C9.98926 1.19604 11.1852 0 12.6559 0C14.1266 0 15.3225 1.19604 15.3225 2.66663C15.3225 4.13733 14.1266 5.33337 12.6559 5.33337ZM12.6559 1C11.7366 1 10.9893 1.74805 10.9893 2.66663C10.9893 3.58533 11.7366 4.33337 12.6559 4.33337C13.5752 4.33337 14.3225 3.58533 14.3225 2.66663C14.3225 1.74805 13.5752 1 12.6559 1Z" fill="#4D4D4D"/>
<path d="M14.8225 13.3337C14.8225 14.5303 13.8525 15.5004 12.6559 15.5004C11.4592 15.5004 10.4893 14.5303 10.4893 13.3337C10.4893 12.1371 11.4592 11.167 12.6559 11.167C13.8525 11.167 14.8225 12.1371 14.8225 13.3337Z" fill="#4D4D4D"/>
<path d="M12.6559 16.0004C11.1852 16.0004 9.98926 14.8043 9.98926 13.3337C9.98926 11.863 11.1852 10.667 12.6559 10.667C14.1266 10.667 15.3225 11.863 15.3225 13.3337C15.3225 14.8043 14.1266 16.0004 12.6559 16.0004ZM12.6559 11.667C11.7366 11.667 10.9893 12.415 10.9893 13.3337C10.9893 14.2523 11.7366 15.0004 12.6559 15.0004C13.5752 15.0004 14.3225 14.2523 14.3225 13.3337C14.3225 12.415 13.5752 11.667 12.6559 11.667Z" fill="#4D4D4D"/>
<path d="M5.48962 7.99963C5.48962 9.19629 4.51953 10.1663 3.32288 10.1663C2.12634 10.1663 1.15625 9.19629 1.15625 7.99963C1.15625 6.80298 2.12634 5.83301 3.32288 5.83301C4.51953 5.83301 5.48962 6.80298 5.48962 7.99963Z" fill="#4D4D4D"/>
<path d="M3.32288 10.6663C1.85229 10.6663 0.65625 9.47034 0.65625 7.99963C0.65625 6.52893 1.85229 5.33301 3.32288 5.33301C4.79358 5.33301 5.98962 6.52893 5.98962 7.99963C5.98962 9.47034 4.79358 10.6663 3.32288 10.6663ZM3.32288 6.33301C2.40356 6.33301 1.65625 7.08093 1.65625 7.99963C1.65625 8.91833 2.40356 9.66626 3.32288 9.66626C4.24231 9.66626 4.98962 8.91833 4.98962 7.99963C4.98962 7.08093 4.24231 6.33301 3.32288 6.33301Z" fill="#4D4D4D"/>
<path d="M4.8978 7.68018C4.66574 7.68018 4.4404 7.55946 4.31772 7.34351C4.13572 7.02418 4.24778 6.61683 4.56711 6.43409L10.753 2.90748C11.0724 2.72413 11.4797 2.83619 11.6624 3.15675C11.8445 3.47608 11.7324 3.88343 11.4131 4.06617L5.22702 7.59278C5.12302 7.65211 5.00974 7.68018 4.8978 7.68018Z" fill="#4D4D4D"/>
<path d="M11.0824 13.1801C10.9703 13.1801 10.8571 13.152 10.753 13.0927L4.56702 9.56604C4.24768 9.38403 4.13575 8.97668 4.31775 8.65662C4.49903 8.33667 4.90699 8.224 5.22705 8.40735L11.4131 11.934C11.7324 12.116 11.8444 12.5233 11.6623 12.8434C11.5391 13.0593 11.3137 13.1801 11.0824 13.1801V13.1801Z" fill="#4D4D4D"/>
</svg>
