<svg width="90" height="90" viewBox="0 0 90 90" fill="none" xmlns="http://www.w3.org/2000/svg">
<path d="M45 0C20.1877 0 0 20.186 0 45C0 69.814 20.1877 90 45 90C69.8123 90 90 69.814 90 45C90 20.186 69.8123 0 45 0ZM70.0875 29.9925L42.3952 61.1463C41.7133 61.9131 40.7631 62.3077 39.806 62.3077C39.0462 62.3077 38.2829 62.0585 37.6442 61.5496L20.3365 47.7035C18.8446 46.511 18.6023 44.3319 19.7965 42.8383C20.989 41.3446 23.1698 41.1023 24.6617 42.2965L39.4027 54.0883L64.9125 25.3904C66.1794 23.9608 68.3706 23.8327 69.7985 25.1031C71.2281 26.3752 71.3579 28.5629 70.0875 29.9925Z" fill="#27AE60"/>
</svg>
