<svg width="25" height="18" viewBox="0 0 25 18" fill="none" xmlns="http://www.w3.org/2000/svg">
<path fill-rule="evenodd" clip-rule="evenodd" d="M12.6026 0.0310158C7.12729 0.497024 3.3279 5.49898 4.42854 10.7926C4.46242 10.9555 4.5237 11.2066 4.56475 11.3508L4.63942 11.6129H6.14523H7.65095L6.61755 12.6296C5.79408 13.4398 5.58674 13.6528 5.59677 13.6784C5.60826 13.7081 5.91516 14.1633 5.97713 14.2427C6.00297 14.2759 6.27089 14.0155 11.3741 8.99825C14.3275 6.09465 16.8208 3.6551 16.9149 3.57705C17.6069 3.00264 18.3766 2.59955 19.1926 2.3841C19.3114 2.35273 19.4208 2.32348 19.4357 2.31906C19.4655 2.3103 19.4712 2.31566 19.163 2.06399C17.3531 0.586553 14.9231 -0.166407 12.6026 0.0310158ZM17.2836 11.4733C11.3568 17.306 11.8101 16.8894 10.8766 17.3622C10.7195 17.4418 10.598 17.511 10.6066 17.5159C10.6766 17.557 11.4577 17.7438 11.8013 17.8017C17.9833 18.8424 23.3472 13.5886 22.3332 7.48579C22.2923 7.23914 22.176 6.72237 22.1569 6.70239C22.1501 6.69534 19.9571 8.84224 17.2836 11.4733Z" fill="#EBC304"/>
<path fill-rule="evenodd" clip-rule="evenodd" d="M20.1921 2.19131C19.9696 2.21512 19.4838 2.29682 19.4628 2.314C19.453 2.32208 19.376 2.34588 19.2918 2.36697C18.5025 2.56439 17.7257 2.94878 17.0621 3.47039C16.8823 3.61178 15.474 4.98524 10.4027 9.96518L3.97124 16.2806L4.12828 16.4312C5.51188 17.7579 7.68714 18.3104 9.63027 17.8287C9.97433 17.7433 10.5036 17.5641 10.5695 17.5106C10.58 17.5019 10.6935 17.4438 10.8215 17.3813C11.2462 17.1739 11.6687 16.9005 12.0134 16.6102C12.1052 16.5329 15.0647 13.6362 18.5901 10.1731L25 3.87654L24.8332 3.72682C23.9102 2.89844 22.8764 2.41186 21.6416 2.22438C21.3561 2.18102 20.4756 2.16096 20.1921 2.19131ZM0.340984 11.6492C0.131832 11.7285 -0.000659845 11.9243 0.000636551 12.1521C0.00193295 12.391 -0.0993587 12.2785 1.76512 14.1114L3.44931 15.767L5.53469 13.7034L7.62008 11.6399L5.95213 11.6292C2.18844 11.605 0.441152 11.6113 0.340984 11.6492Z" fill="#343C7B"/>
<path fill-rule="evenodd" clip-rule="evenodd" d="M11.3153 9.05757L6.0127 14.2785L11.3198 9.06199C14.2388 6.19299 16.627 3.84357 16.627 3.8411C16.627 3.82877 16.2455 4.20338 11.3153 9.05757ZM17.2661 11.4754L12.4047 16.2624L17.2707 11.4799C21.7949 7.03327 22.1447 6.6885 22.1321 6.6885C22.1297 6.6885 19.94 8.84263 17.2661 11.4754ZM12.2958 16.3642L12.2246 16.4395L12.3012 16.3695C12.3433 16.331 12.3777 16.2971 12.3777 16.2942C12.3777 16.2808 12.362 16.2942 12.2958 16.3642Z" fill="#94843B"/>
<path fill-rule="evenodd" clip-rule="evenodd" d="M5.39771 11.6259C5.81195 11.6286 6.48444 11.6286 6.8922 11.6259C7.29996 11.6232 6.96108 11.6211 6.13917 11.6211C5.31716 11.6211 4.98356 11.6232 5.39771 11.6259Z" fill="#7A6B4C"/>
</svg>
