<svg width="23" height="21" viewBox="0 0 23 21" fill="none" xmlns="http://www.w3.org/2000/svg">
<path d="M19.5875 10H18.0103V6C18.0103 4.9 17.064 4 15.9073 4H11.7014V2.5C11.7014 1.12 10.5238 0 9.07271 0C7.62167 0 6.44401 1.12 6.44401 2.5V4H2.23809C1.08146 4 0.145647 4.9 0.145647 6V9.8H1.71235C3.27906 9.8 4.55135 11.01 4.55135 12.5C4.55135 13.99 3.27906 15.2 1.71235 15.2H0.135132V19C0.135132 20.1 1.08146 21 2.23809 21H6.23372V19.5C6.23372 18.01 7.50601 16.8 9.07271 16.8C10.6394 16.8 11.9117 18.01 11.9117 19.5V21H15.9073C17.064 21 18.0103 20.1 18.0103 19V15H19.5875C21.0386 15 22.2162 13.88 22.2162 12.5C22.2162 11.12 21.0386 10 19.5875 10Z" fill="#818181"/>
</svg>
