<svg width="44" height="46" viewBox="0 0 44 46" fill="none" xmlns="http://www.w3.org/2000/svg">
<path d="M38.6117 2.5549C37.2565 2.5549 35.9568 3.09325 34.9985 4.05153C34.0403 5.00981 33.5019 6.30952 33.5019 7.66473V15.9716L20.7235 15.3333V6.38823C20.7235 4.69371 20.0504 3.06859 18.8521 1.87038C17.6539 0.67217 16.0288 -0.000976563 14.3343 -0.000976562C12.6398 -0.000976563 11.0146 0.67217 9.81643 1.87038C8.61823 3.06859 7.94508 4.69371 7.94508 6.38823V39.6117C7.94508 43.1441 10.8028 46 14.3333 46C17.8638 46 20.7235 43.1422 20.7235 39.6117V29.3882H33.5019V39.6117C33.5019 40.2828 33.6341 40.9472 33.8909 41.5672C34.1477 42.1871 34.5241 42.7504 34.9985 43.2249C35.473 43.6994 36.0363 44.0758 36.6563 44.3326C37.2763 44.5894 37.9407 44.7216 38.6117 44.7216C39.2828 44.7216 39.9472 44.5894 40.5672 44.3326C41.1871 44.0758 41.7505 43.6994 42.2249 43.2249C42.6994 42.7504 43.0758 42.1871 43.3326 41.5672C43.5894 40.9472 43.7216 40.2828 43.7216 39.6117V7.66665C43.7216 6.31144 43.1832 5.01173 42.2249 4.05345C41.2667 3.09517 39.967 2.55681 38.6117 2.55681V2.5549ZM6.66666 6.38823C6.66666 5.35706 6.87366 4.37382 7.2455 3.4749C6.29316 4.03563 5.50333 4.83479 4.95382 5.79366C4.40432 6.75252 4.1141 7.83799 4.11175 8.94315V38.3352C4.11175 41.0799 5.85208 43.401 8.28625 44.3037C7.23777 42.9651 6.66761 41.314 6.66666 39.6136V6.38823ZM3.41216 6.02981C2.45995 6.59069 1.67023 7.38989 1.12074 8.34872C0.571255 9.30755 0.280952 10.3929 0.278412 11.4981V35.7784C0.278412 38.1129 1.54341 40.1331 3.41216 41.2466C3.02952 40.323 2.83282 39.333 2.83333 38.3333V8.94315C2.83333 7.91198 3.04033 6.93065 3.41216 6.02981ZM32.2235 7.66665C32.2235 6.32881 32.6394 5.09065 33.3428 4.06331C32.2854 4.37059 31.356 5.01208 30.6936 5.89177C30.0313 6.77145 29.6716 7.84199 29.6686 8.94315V14.5015L32.2235 14.6299V7.66665ZM32.2235 30.6666H29.6667V38.3333C29.6667 40.6544 31.223 42.5921 33.3409 43.2151C32.6115 42.155 32.2212 40.8985 32.2216 39.6117L32.2235 30.6666ZM25.8333 37.0549C25.8333 39.376 27.3916 41.3137 29.5133 41.9366C28.7807 40.8778 28.3882 39.6209 28.3882 38.3333V30.6666H25.8333V37.0549ZM28.3902 8.94315C28.3902 7.60723 28.8061 6.36715 29.5095 5.33982C28.4518 5.64718 27.5221 6.28897 26.8597 7.16903C26.1973 8.0491 25.8379 9.12008 25.8352 10.2216V14.3098L28.3902 14.4382V8.94315Z" fill="white"/>
</svg>
