<svg width="24" height="22" viewBox="0 0 24 22" fill="none" xmlns="http://www.w3.org/2000/svg">
<path d="M11.7205 7C9.39678 7 7.51464 8.79 7.51464 11C7.51464 13.21 9.39678 15 11.7205 15C14.0443 15 15.9265 13.21 15.9265 11C15.9265 8.79 14.0443 7 11.7205 7ZM21.1208 10C20.6371 5.83 17.1567 2.52 12.772 2.06V0H10.6691V2.06C6.28441 2.52 2.80402 5.83 2.32034 10H0.154297V12H2.32034C2.80402 16.17 6.28441 19.48 10.6691 19.94V22H12.772V19.94C17.1567 19.48 20.6371 16.17 21.1208 12H23.2868V10H21.1208ZM11.7205 18C7.65133 18 4.36021 14.87 4.36021 11C4.36021 7.13 7.65133 4 11.7205 4C15.7898 4 19.0809 7.13 19.0809 11C19.0809 14.87 15.7898 18 11.7205 18Z" fill="#818181"/>
</svg>
