<svg width="33" height="51" viewBox="0 0 33 51" fill="none" xmlns="http://www.w3.org/2000/svg">
<g filter="url(#filter0_f_11331_127298)">
<ellipse cx="16.2465" cy="45.6598" rx="5.48872" ry="2.89999" fill="black" fill-opacity="0.12"/>
</g>
<mask id="path-2-outside-1_11331_127298" maskUnits="userSpaceOnUse" x="0" y="0" width="33" height="47" fill="black">
<rect fill="white" width="33" height="47"/>
<path fill-rule="evenodd" clip-rule="evenodd" d="M16.2467 30C16.2466 30 16.2466 30 16.2465 30V45.0802H16.1868C15.5461 45.0802 15.0268 44.5609 15.0268 43.9202C15.0268 35.8333 10.2697 30.8785 6.7081 27.1688C5.68141 26.0994 4.75406 25.1335 4.06861 24.2258C2.14225 21.798 1 18.7759 1 15.5C1 7.49187 7.82607 1 16.2465 1C24.6668 1 31.4929 7.49187 31.4929 15.5C31.4929 18.773 30.3527 21.7927 28.4293 24.2195C27.7434 25.129 26.8141 26.0969 25.7851 27.1688C22.2234 30.8785 17.4664 35.8333 17.4664 43.9202C17.4664 44.5609 16.947 45.0802 16.3064 45.0802H16.2467V30Z"/>
</mask>
<path fill-rule="evenodd" clip-rule="evenodd" d="M16.2467 30C16.2466 30 16.2466 30 16.2465 30V45.0802H16.1868C15.5461 45.0802 15.0268 44.5609 15.0268 43.9202C15.0268 35.8333 10.2697 30.8785 6.7081 27.1688C5.68141 26.0994 4.75406 25.1335 4.06861 24.2258C2.14225 21.798 1 18.7759 1 15.5C1 7.49187 7.82607 1 16.2465 1C24.6668 1 31.4929 7.49187 31.4929 15.5C31.4929 18.773 30.3527 21.7927 28.4293 24.2195C27.7434 25.129 26.8141 26.0969 25.7851 27.1688C22.2234 30.8785 17.4664 35.8333 17.4664 43.9202C17.4664 44.5609 16.947 45.0802 16.3064 45.0802H16.2467V30Z" fill="#EA352B"/>
<path d="M16.2465 30V29H15.2465V30H16.2465ZM16.2467 30H17.2467V29H16.2467V30ZM16.2465 45.0802V46.0802H17.2465V45.0802H16.2465ZM6.7081 27.1688L7.42946 26.4762H7.42946L6.7081 27.1688ZM4.06861 24.2258L4.86662 23.6232L4.85941 23.6136L4.85198 23.6043L4.06861 24.2258ZM28.4293 24.2195L27.6456 23.5983L27.6382 23.6077L27.6309 23.6173L28.4293 24.2195ZM25.7851 27.1688L26.5064 27.8613L25.7851 27.1688ZM16.2467 45.0802H15.2467V46.0802H16.2467V45.0802ZM16.2465 31H16.2465C16.2465 31 16.2465 31 16.2465 31C16.2465 31 16.2465 31 16.2465 31C16.2465 31 16.2465 31 16.2465 31C16.2465 31 16.2465 31 16.2465 31H16.2465H16.2465C16.2465 31 16.2465 31 16.2465 31C16.2465 31 16.2465 31 16.2465 31C16.2465 31 16.2465 31 16.2465 31C16.2465 31 16.2465 31 16.2465 31H16.2465H16.2465C16.2465 31 16.2465 31 16.2465 31C16.2465 31 16.2465 31 16.2465 31C16.2465 31 16.2465 31 16.2465 31C16.2465 31 16.2465 31 16.2465 31H16.2465H16.2465C16.2465 31 16.2465 31 16.2465 31C16.2465 31 16.2465 31 16.2465 31C16.2465 31 16.2465 31 16.2465 31C16.2465 31 16.2465 31 16.2465 31H16.2465H16.2465C16.2465 31 16.2465 31 16.2465 31C16.2465 31 16.2465 31 16.2465 31C16.2465 31 16.2465 31 16.2465 31C16.2465 31 16.2465 31 16.2465 31H16.2465H16.2465C16.2465 31 16.2465 31 16.2465 31C16.2465 31 16.2465 31 16.2465 31C16.2465 31 16.2465 31 16.2465 31C16.2465 31 16.2465 31 16.2465 31H16.2465H16.2465C16.2465 31 16.2465 31 16.2465 31C16.2465 31 16.2465 31 16.2465 31C16.2465 31 16.2465 31 16.2465 31C16.2465 31 16.2465 31 16.2465 31H16.2465H16.2465C16.2465 31 16.2465 31 16.2465 31C16.2465 31 16.2465 31 16.2465 31C16.2465 31 16.2465 31 16.2465 31C16.2465 31 16.2465 31 16.2465 31H16.2465H16.2465C16.2465 31 16.2465 31 16.2465 31C16.2465 31 16.2465 31 16.2465 31C16.2465 31 16.2465 31 16.2465 31C16.2465 31 16.2465 31 16.2465 31H16.2465H16.2465C16.2465 31 16.2465 31 16.2465 31C16.2465 31 16.2465 31 16.2465 31C16.2465 31 16.2465 31 16.2465 31C16.2465 31 16.2465 31 16.2465 31H16.2465H16.2465C16.2465 31 16.2465 31 16.2465 31C16.2465 31 16.2465 31 16.2466 31C16.2466 31 16.2466 31 16.2466 31C16.2466 31 16.2466 31 16.2466 31H16.2466H16.2466C16.2466 31 16.2466 31 16.2466 31C16.2466 31 16.2466 31 16.2466 31C16.2466 31 16.2466 31 16.2466 31C16.2466 31 16.2466 31 16.2466 31H16.2466H16.2466C16.2466 31 16.2466 31 16.2466 31C16.2466 31 16.2466 31 16.2466 31C16.2466 31 16.2466 31 16.2466 31C16.2466 31 16.2466 31 16.2466 31H16.2466H16.2466C16.2466 31 16.2466 31 16.2466 31C16.2466 31 16.2466 31 16.2466 31C16.2466 31 16.2466 31 16.2466 31C16.2466 31 16.2466 31 16.2466 31H16.2466H16.2466C16.2466 31 16.2466 31 16.2466 31C16.2466 31 16.2466 31 16.2466 31C16.2466 31 16.2466 31 16.2466 31C16.2466 31 16.2466 31 16.2466 31H16.2466H16.2466C16.2466 31 16.2466 31 16.2466 31C16.2466 31 16.2466 31 16.2466 31C16.2466 31 16.2466 31 16.2466 31C16.2466 31 16.2466 31 16.2466 31H16.2466H16.2466C16.2466 31 16.2466 31 16.2466 31C16.2466 31 16.2466 31 16.2466 31C16.2466 31 16.2466 31 16.2466 31C16.2466 31 16.2466 31 16.2466 31H16.2466H16.2466C16.2466 31 16.2466 31 16.2466 31C16.2466 31 16.2466 31 16.2466 31C16.2466 31 16.2466 31 16.2466 31C16.2466 31 16.2466 31 16.2466 31H16.2466H16.2466C16.2466 31 16.2466 31 16.2466 31C16.2466 31 16.2466 31 16.2466 31C16.2466 31 16.2466 31 16.2466 31C16.2466 31 16.2466 31 16.2466 31H16.2466H16.2466C16.2466 31 16.2466 31 16.2466 31C16.2466 31 16.2466 31 16.2466 31C16.2466 31 16.2466 31 16.2466 31C16.2466 31 16.2466 31 16.2466 31H16.2466H16.2466C16.2466 31 16.2466 31 16.2466 31C16.2466 31 16.2466 31 16.2466 31C16.2466 31 16.2466 31 16.2466 31C16.2466 31 16.2466 31 16.2466 31H16.2466H16.2466C16.2466 31 16.2466 31 16.2466 31C16.2466 31 16.2466 31 16.2466 31C16.2466 31 16.2466 31 16.2466 31C16.2466 31 16.2466 31 16.2466 31H16.2466H16.2466C16.2466 31 16.2466 31 16.2466 31C16.2466 31 16.2466 31 16.2466 31C16.2466 31 16.2466 31 16.2466 31C16.2466 31 16.2466 31 16.2466 31H16.2466H16.2466C16.2466 31 16.2466 31 16.2466 31C16.2466 31 16.2466 31 16.2466 31C16.2466 31 16.2466 31 16.2466 31C16.2466 31 16.2466 31 16.2466 31H16.2466H16.2466C16.2466 31 16.2466 31 16.2466 31C16.2466 31 16.2466 31 16.2466 31C16.2466 31 16.2466 31 16.2466 31C16.2466 31 16.2466 31 16.2466 31H16.2466H16.2466C16.2466 31 16.2466 31 16.2466 31C16.2466 31 16.2466 31 16.2466 31C16.2466 31 16.2466 31 16.2466 31C16.2466 31 16.2466 31 16.2466 31H16.2466H16.2466C16.2466 31 16.2466 31 16.2466 31C16.2466 31 16.2466 31 16.2466 31C16.2466 31 16.2466 31 16.2466 31C16.2466 31 16.2466 31 16.2466 31H16.2466H16.2466C16.2466 31 16.2466 31 16.2466 31C16.2466 31 16.2466 31 16.2466 31C16.2466 31 16.2466 31 16.2466 31C16.2466 31 16.2466 31 16.2466 31H16.2467H16.2467C16.2467 31 16.2467 31 16.2467 31C16.2467 31 16.2467 31 16.2467 31C16.2467 31 16.2467 31 16.2467 31C16.2467 31 16.2467 31 16.2467 31H16.2467H16.2467C16.2467 31 16.2467 31 16.2467 31C16.2467 31 16.2467 31 16.2467 31C16.2467 31 16.2467 31 16.2467 31C16.2467 31 16.2467 31 16.2467 31H16.2467H16.2467C16.2467 31 16.2467 31 16.2467 31C16.2467 31 16.2467 31 16.2467 31C16.2467 31 16.2467 31 16.2467 31C16.2467 31 16.2467 31 16.2467 31H16.2467H16.2467C16.2467 31 16.2467 31 16.2467 31C16.2467 31 16.2467 31 16.2467 31C16.2467 31 16.2467 31 16.2467 31C16.2467 31 16.2467 31 16.2467 31H16.2467V29H16.2467C16.2467 29 16.2467 29 16.2467 29C16.2467 29 16.2467 29 16.2467 29C16.2467 29 16.2467 29 16.2467 29C16.2467 29 16.2467 29 16.2467 29H16.2467H16.2467C16.2467 29 16.2467 29 16.2467 29C16.2467 29 16.2467 29 16.2467 29C16.2467 29 16.2467 29 16.2467 29C16.2467 29 16.2467 29 16.2467 29H16.2467H16.2467C16.2467 29 16.2467 29 16.2467 29C16.2467 29 16.2467 29 16.2467 29C16.2467 29 16.2467 29 16.2467 29C16.2467 29 16.2467 29 16.2467 29H16.2467H16.2467C16.2467 29 16.2467 29 16.2467 29C16.2467 29 16.2467 29 16.2467 29C16.2467 29 16.2467 29 16.2467 29C16.2467 29 16.2467 29 16.2467 29H16.2467H16.2466C16.2466 29 16.2466 29 16.2466 29C16.2466 29 16.2466 29 16.2466 29C16.2466 29 16.2466 29 16.2466 29C16.2466 29 16.2466 29 16.2466 29H16.2466H16.2466C16.2466 29 16.2466 29 16.2466 29C16.2466 29 16.2466 29 16.2466 29C16.2466 29 16.2466 29 16.2466 29C16.2466 29 16.2466 29 16.2466 29H16.2466H16.2466C16.2466 29 16.2466 29 16.2466 29C16.2466 29 16.2466 29 16.2466 29C16.2466 29 16.2466 29 16.2466 29C16.2466 29 16.2466 29 16.2466 29H16.2466H16.2466C16.2466 29 16.2466 29 16.2466 29C16.2466 29 16.2466 29 16.2466 29C16.2466 29 16.2466 29 16.2466 29C16.2466 29 16.2466 29 16.2466 29H16.2466H16.2466C16.2466 29 16.2466 29 16.2466 29C16.2466 29 16.2466 29 16.2466 29C16.2466 29 16.2466 29 16.2466 29C16.2466 29 16.2466 29 16.2466 29H16.2466H16.2466C16.2466 29 16.2466 29 16.2466 29C16.2466 29 16.2466 29 16.2466 29C16.2466 29 16.2466 29 16.2466 29C16.2466 29 16.2466 29 16.2466 29H16.2466H16.2466C16.2466 29 16.2466 29 16.2466 29C16.2466 29 16.2466 29 16.2466 29C16.2466 29 16.2466 29 16.2466 29C16.2466 29 16.2466 29 16.2466 29H16.2466H16.2466C16.2466 29 16.2466 29 16.2466 29C16.2466 29 16.2466 29 16.2466 29C16.2466 29 16.2466 29 16.2466 29C16.2466 29 16.2466 29 16.2466 29H16.2466H16.2466C16.2466 29 16.2466 29 16.2466 29C16.2466 29 16.2466 29 16.2466 29C16.2466 29 16.2466 29 16.2466 29C16.2466 29 16.2466 29 16.2466 29H16.2466H16.2466C16.2466 29 16.2466 29 16.2466 29C16.2466 29 16.2466 29 16.2466 29C16.2466 29 16.2466 29 16.2466 29C16.2466 29 16.2466 29 16.2466 29H16.2466H16.2466C16.2466 29 16.2466 29 16.2466 29C16.2466 29 16.2466 29 16.2466 29C16.2466 29 16.2466 29 16.2466 29C16.2466 29 16.2466 29 16.2466 29H16.2466H16.2466C16.2466 29 16.2466 29 16.2466 29C16.2466 29 16.2466 29 16.2466 29C16.2466 29 16.2466 29 16.2466 29C16.2466 29 16.2466 29 16.2466 29H16.2466H16.2466C16.2466 29 16.2466 29 16.2466 29C16.2466 29 16.2466 29 16.2466 29C16.2466 29 16.2466 29 16.2466 29C16.2466 29 16.2466 29 16.2466 29H16.2466H16.2466C16.2466 29 16.2466 29 16.2466 29C16.2466 29 16.2466 29 16.2466 29C16.2466 29 16.2466 29 16.2466 29C16.2466 29 16.2466 29 16.2466 29H16.2466H16.2466C16.2466 29 16.2466 29 16.2466 29C16.2466 29 16.2466 29 16.2466 29C16.2466 29 16.2466 29 16.2466 29C16.2466 29 16.2466 29 16.2466 29H16.2466H16.2466C16.2466 29 16.2466 29 16.2466 29C16.2466 29 16.2466 29 16.2466 29C16.2466 29 16.2466 29 16.2466 29C16.2466 29 16.2466 29 16.2466 29H16.2466H16.2466C16.2466 29 16.2466 29 16.2466 29C16.2466 29 16.2466 29 16.2466 29C16.2466 29 16.2466 29 16.2466 29C16.2466 29 16.2466 29 16.2466 29H16.2466H16.2466C16.2466 29 16.2466 29 16.2466 29C16.2466 29 16.2466 29 16.2466 29C16.2465 29 16.2465 29 16.2465 29C16.2465 29 16.2465 29 16.2465 29H16.2465H16.2465C16.2465 29 16.2465 29 16.2465 29C16.2465 29 16.2465 29 16.2465 29C16.2465 29 16.2465 29 16.2465 29C16.2465 29 16.2465 29 16.2465 29H16.2465H16.2465C16.2465 29 16.2465 29 16.2465 29C16.2465 29 16.2465 29 16.2465 29C16.2465 29 16.2465 29 16.2465 29C16.2465 29 16.2465 29 16.2465 29H16.2465H16.2465C16.2465 29 16.2465 29 16.2465 29C16.2465 29 16.2465 29 16.2465 29C16.2465 29 16.2465 29 16.2465 29C16.2465 29 16.2465 29 16.2465 29H16.2465H16.2465C16.2465 29 16.2465 29 16.2465 29C16.2465 29 16.2465 29 16.2465 29C16.2465 29 16.2465 29 16.2465 29C16.2465 29 16.2465 29 16.2465 29H16.2465H16.2465C16.2465 29 16.2465 29 16.2465 29C16.2465 29 16.2465 29 16.2465 29C16.2465 29 16.2465 29 16.2465 29C16.2465 29 16.2465 29 16.2465 29H16.2465H16.2465C16.2465 29 16.2465 29 16.2465 29C16.2465 29 16.2465 29 16.2465 29C16.2465 29 16.2465 29 16.2465 29C16.2465 29 16.2465 29 16.2465 29H16.2465H16.2465C16.2465 29 16.2465 29 16.2465 29C16.2465 29 16.2465 29 16.2465 29C16.2465 29 16.2465 29 16.2465 29C16.2465 29 16.2465 29 16.2465 29H16.2465H16.2465C16.2465 29 16.2465 29 16.2465 29C16.2465 29 16.2465 29 16.2465 29C16.2465 29 16.2465 29 16.2465 29C16.2465 29 16.2465 29 16.2465 29H16.2465H16.2465C16.2465 29 16.2465 29 16.2465 29C16.2465 29 16.2465 29 16.2465 29C16.2465 29 16.2465 29 16.2465 29C16.2465 29 16.2465 29 16.2465 29H16.2465H16.2465C16.2465 29 16.2465 29 16.2465 29C16.2465 29 16.2465 29 16.2465 29C16.2465 29 16.2465 29 16.2465 29C16.2465 29 16.2465 29 16.2465 29H16.2465V31ZM17.2465 45.0802V30H15.2465V45.0802H17.2465ZM16.1868 46.0802H16.2465V44.0802H16.1868V46.0802ZM14.0268 43.9202C14.0268 45.1131 14.9938 46.0802 16.1868 46.0802V44.0802C16.0984 44.0802 16.0268 44.0086 16.0268 43.9202H14.0268ZM5.98674 27.8613C9.55929 31.5824 14.0268 36.2745 14.0268 43.9202H16.0268C16.0268 35.3921 10.9802 30.1746 7.42946 26.4762L5.98674 27.8613ZM3.2706 24.8285C3.99922 25.7933 4.97288 26.8053 5.98674 27.8613L7.42946 26.4762C6.38995 25.3935 5.50889 24.4737 4.86662 23.6232L3.2706 24.8285ZM0 15.5C0 19.0138 1.22642 22.2526 3.28525 24.8474L4.85198 23.6043C3.05807 21.3434 2 18.5379 2 15.5H0ZM16.2465 0C7.32168 0 0 6.89288 0 15.5H2C2 8.09087 8.33046 2 16.2465 2V0ZM32.4929 15.5C32.4929 6.89288 25.1712 0 16.2465 0V2C24.1625 2 30.4929 8.09087 30.4929 15.5H32.4929ZM29.2131 24.8406C31.2686 22.247 32.4929 19.0107 32.4929 15.5H30.4929C30.4929 18.5352 29.4367 21.3385 27.6456 23.5983L29.2131 24.8406ZM26.5064 27.8613C27.5226 26.8029 28.4985 25.7886 29.2278 24.8216L27.6309 23.6173C26.9884 24.4693 26.1057 25.3909 25.0637 26.4762L26.5064 27.8613ZM18.4664 43.9202C18.4664 36.2745 22.9339 31.5824 26.5064 27.8613L25.0637 26.4762C21.513 30.1746 16.4664 35.3921 16.4664 43.9202H18.4664ZM16.3064 46.0802C17.4993 46.0802 18.4664 45.1131 18.4664 43.9202H16.4664C16.4664 44.0086 16.3948 44.0802 16.3064 44.0802V46.0802ZM16.2467 46.0802H16.3064V44.0802H16.2467V46.0802ZM15.2467 30V45.0802H17.2467V30H15.2467Z" fill="url(#paint0_linear_11331_127298)" mask="url(#path-2-outside-1_11331_127298)"/>
<ellipse cx="16.2465" cy="15.4998" rx="5.48872" ry="5.22" fill="black" fill-opacity="0.4"/>
<defs>
<filter id="filter0_f_11331_127298" x="8.75781" y="40.7598" width="14.9775" height="9.7998" filterUnits="userSpaceOnUse" color-interpolation-filters="sRGB">
<feFlood flood-opacity="0" result="BackgroundImageFix"/>
<feBlend mode="normal" in="SourceGraphic" in2="BackgroundImageFix" result="shape"/>
<feGaussianBlur stdDeviation="1" result="effect1_foregroundBlur_11331_127298"/>
</filter>
<linearGradient id="paint0_linear_11331_127298" x1="16.2465" y1="1" x2="16.2465" y2="45.0802" gradientUnits="userSpaceOnUse">
<stop stop-color="white"/>
<stop offset="1" stop-color="white" stop-opacity="0.35"/>
</linearGradient>
</defs>
</svg>
