<svg width="14" height="13" viewBox="0 0 14 13" fill="none" xmlns="http://www.w3.org/2000/svg">
<path d="M2.5 0C1.83696 0 1.20107 0.264878 0.732233 0.736363C0.263392 1.20785 0 1.84732 0 2.5141V7.5423C0 7.87246 0.0646644 8.19938 0.190301 8.50441C0.315938 8.80943 0.500087 9.08658 0.732233 9.32004C1.20107 9.79152 1.83696 10.0564 2.5 10.0564H3V12.0094C2.99996 12.1987 3.05415 12.384 3.15608 12.5431C3.25801 12.7023 3.40336 12.8286 3.57476 12.9069C3.74617 12.9851 3.93636 13.0121 4.12261 12.9846C4.30885 12.957 4.48327 12.8761 4.625 12.7515L7.688 10.0564H11.5C11.8283 10.0564 12.1534 9.99137 12.4567 9.86503C12.76 9.73868 13.0356 9.55349 13.2678 9.32004C13.4999 9.08658 13.6841 8.80943 13.8097 8.50441C13.9353 8.19938 14 7.87246 14 7.5423V2.5141C14 1.84732 13.7366 1.20785 13.2678 0.736363C12.7989 0.264878 12.163 0 11.5 0H2.5Z" fill="#BDBFCD"/>
</svg>
