<svg width="16" height="11" viewBox="0 0 16 11" fill="none" xmlns="http://www.w3.org/2000/svg">
<path d="M15.2042 5.26796C14.6161 3.85598 13.5952 2.63489 12.2676 1.75562C10.94 0.876353 9.36391 0.377444 7.73416 0.320557C6.10442 0.377444 4.52836 0.876353 3.20076 1.75562C1.87317 2.63489 0.852243 3.85598 0.264162 5.26796C0.224446 5.36993 0.224446 5.48159 0.264162 5.58356C0.852243 6.99554 1.87317 8.21663 3.20076 9.0959C4.52836 9.97517 6.10442 10.4741 7.73416 10.531C9.36391 10.4741 10.94 9.97517 12.2676 9.0959C13.5952 8.21663 14.6161 6.99554 15.2042 5.58356C15.2439 5.48159 15.2439 5.36993 15.2042 5.26796V5.26796ZM7.73416 8.44247C7.09137 8.44247 6.46302 8.26554 5.92856 7.93406C5.3941 7.60258 4.97754 7.13144 4.73155 6.58021C4.48557 6.02897 4.42121 5.42241 4.54661 4.83723C4.67201 4.25204 4.98155 3.71452 5.43607 3.29262C5.89059 2.87073 6.46968 2.58342 7.10012 2.46701C7.73056 2.35061 8.38402 2.41036 8.97788 2.63868C9.57174 2.86701 10.0793 3.25367 10.4364 3.74977C10.7936 4.24586 10.9842 4.82911 10.9842 5.42576C10.9828 6.22547 10.64 6.99206 10.0308 7.55754C9.42159 8.12302 8.59571 8.44124 7.73416 8.44247V8.44247Z" fill="#BDBFCD"/>
</svg>
