<svg width="23" height="19" viewBox="0 0 23 19" fill="none" xmlns="http://www.w3.org/2000/svg">
<path d="M15.0549 14.8063C15.1143 14.867 15.1844 14.9146 15.2612 14.9463C15.336 14.9816 15.4169 14.9998 15.4987 14.9998C15.5804 14.9998 15.6613 14.9816 15.7362 14.9463C15.8129 14.9146 15.883 14.867 15.9424 14.8063L18.4424 12.1397C18.5601 12.0141 18.6262 11.8439 18.6262 11.6663C18.6262 11.4888 18.5601 11.3185 18.4424 11.193C18.3247 11.0675 18.1651 10.9969 17.9987 10.9969C17.8322 10.9969 17.6726 11.0675 17.5549 11.193L16.1237 12.7263V4.99967C16.1237 4.82286 16.0578 4.65329 15.9406 4.52827C15.8234 4.40325 15.6644 4.33301 15.4987 4.33301C15.3329 4.33301 15.1739 4.40325 15.0567 4.52827C14.9395 4.65329 14.8737 4.82286 14.8737 4.99967V12.7263L13.4424 11.193C13.3841 11.1308 13.3149 11.0815 13.2388 11.0479C13.1627 11.0143 13.0811 10.9969 12.9987 10.9969C12.9162 10.9969 12.8346 11.0143 12.7585 11.0479C12.6824 11.0815 12.6132 11.1308 12.5549 11.193C12.4966 11.2552 12.4504 11.329 12.4189 11.4102C12.3873 11.4914 12.3711 11.5784 12.3711 11.6663C12.3711 11.7542 12.3873 11.8413 12.4189 11.9225C12.4504 12.0037 12.4966 12.0775 12.5549 12.1397L15.0549 14.8063Z" fill="#00294B"/>
<path d="M7.0549 4.19366C7.11434 4.13297 7.18443 4.08539 7.26115 4.05366C7.33596 4.01839 7.41686 4.00017 7.49865 4.00017C7.58045 4.00017 7.66134 4.01839 7.73615 4.05366C7.81287 4.08539 7.88296 4.13297 7.9424 4.19366L10.4424 6.86033C10.5601 6.98586 10.6262 7.15612 10.6262 7.33366C10.6262 7.51119 10.5601 7.68146 10.4424 7.80699C10.3247 7.93253 10.1651 8.00305 9.99865 8.00305C9.83221 8.00305 9.67259 7.93253 9.5549 7.80699L8.12365 6.27366V14.0003C8.12365 14.1771 8.0578 14.3467 7.94059 14.4717C7.82338 14.5968 7.66441 14.667 7.49865 14.667C7.33289 14.667 7.17392 14.5968 7.05671 14.4717C6.9395 14.3467 6.87365 14.1771 6.87365 14.0003V6.27366L5.4424 7.80699C5.38413 7.86915 5.31495 7.91846 5.23881 7.9521C5.16267 7.98574 5.08106 8.00305 4.99865 8.00305C4.91624 8.00305 4.83463 7.98574 4.7585 7.9521C4.68236 7.91846 4.61318 7.86915 4.5549 7.80699C4.49663 7.74483 4.4504 7.67104 4.41886 7.58983C4.38733 7.50861 4.37109 7.42156 4.37109 7.33366C4.37109 7.24575 4.38733 7.15871 4.41886 7.07749C4.4504 6.99628 4.49663 6.92248 4.5549 6.86033L7.0549 4.19366Z" fill="#00294B"/>
</svg>
