<svg width="121" height="120" viewBox="0 0 121 120" fill="none" xmlns="http://www.w3.org/2000/svg">
<g filter="url(#filter0_i_12357_123559)">
<path d="M6.89714 6.84015C4.36116 4.32513 6.14217 7.00967e-06 9.7138 6.85355e-06L117 2.16392e-06C119.209 2.06736e-06 121 1.79086 121 4L121 110.4C121 113.955 116.708 115.743 114.183 113.24L6.89714 6.84015Z" fill="#F4F5FF"/>
</g>
<mask id="mask0_12357_123559" style="mask-type:alpha" maskUnits="userSpaceOnUse" x="0" y="0" width="121" height="120">
<path d="M-5.24537e-06 7.27815e-06L121 1.98908e-06L121 120L-5.24537e-06 7.27815e-06Z" fill="white"/>
</mask>
<g mask="url(#mask0_12357_123559)">
<g filter="url(#filter1_d_12357_123559)">
<rect x="-2" y="8" width="114" height="113" rx="6" fill="url(#paint0_radial_12357_123559)"/>
<path opacity="0.8" d="M90.3333 48.8333C88.3333 48.8333 86.1667 48.5 84.3333 47.8333H83.8333C83.3333 47.8333 83 48 82.6667 48.3333L79 52C74.3333 49.5 70.3333 45.6667 68 41L71.6667 37.3333C72.1667 36.8333 72.3333 36.1667 72 35.6667C71.5 33.8333 71.1667 31.6667 71.1667 29.6667C71.1667 28.8333 70.3333 28 69.5 28H63.6667C62.8333 28 62 28.8333 62 29.6667C62 45.3333 74.6667 58 90.3333 58C91.1667 58 92 57.1667 92 56.3333V50.5C92 49.6667 91.1667 48.8333 90.3333 48.8333ZM65.3333 31.3333H67.8333C68 32.8333 68.3333 34.3333 68.6667 35.6667L66.6667 37.6667C66 35.6667 65.5 33.5 65.3333 31.3333ZM88.6667 54.6667C86.5 54.5 84.3333 54 82.3333 53.3333L84.3333 51.3333C85.6667 51.6667 87.1667 52 88.6667 52V54.6667ZM77 28H80.3333V31.3333H77V28ZM82 28H92V31.3333H82V28ZM77 33H80.3333V36.3333H77V33ZM82 33H92V36.3333H82V33ZM77 38H80.3333V41.3333H77V38ZM82 38H92V41.3333H82V38Z" fill="white"/>
</g>
</g>
<g opacity="0.3" filter="url(#filter2_i_12357_123559)">
<path d="M6.89714 6.84015C4.36116 4.32513 6.14217 7.36091e-06 9.7138 7.20479e-06L117 2.51516e-06C119.209 2.4186e-06 121 1.79086 121 4L121 110.4C121 113.955 116.708 115.743 114.183 113.24L6.89714 6.84015Z" fill="url(#paint1_linear_12357_123559)"/>
</g>
<defs>
<filter id="filter0_i_12357_123559" x="5.70703" y="-4" width="119.293" height="118.408" filterUnits="userSpaceOnUse" color-interpolation-filters="sRGB">
<feFlood flood-opacity="0" result="BackgroundImageFix"/>
<feBlend mode="normal" in="SourceGraphic" in2="BackgroundImageFix" result="shape"/>
<feColorMatrix in="SourceAlpha" type="matrix" values="0 0 0 0 0 0 0 0 0 0 0 0 0 0 0 0 0 0 127 0" result="hardAlpha"/>
<feOffset dx="4" dy="-4"/>
<feGaussianBlur stdDeviation="5"/>
<feComposite in2="hardAlpha" operator="arithmetic" k2="-1" k3="1"/>
<feColorMatrix type="matrix" values="0 0 0 0 0 0 0 0 0 0 0 0 0 0 0 0 0 0 0.2 0"/>
<feBlend mode="normal" in2="shape" result="effect1_innerShadow_12357_123559"/>
</filter>
<filter id="filter1_d_12357_123559" x="-6" y="4" width="130" height="129" filterUnits="userSpaceOnUse" color-interpolation-filters="sRGB">
<feFlood flood-opacity="0" result="BackgroundImageFix"/>
<feColorMatrix in="SourceAlpha" type="matrix" values="0 0 0 0 0 0 0 0 0 0 0 0 0 0 0 0 0 0 127 0" result="hardAlpha"/>
<feOffset dx="4" dy="4"/>
<feGaussianBlur stdDeviation="4"/>
<feColorMatrix type="matrix" values="0 0 0 0 0 0 0 0 0 0 0 0 0 0 0 0 0 0 0.25 0"/>
<feBlend mode="normal" in2="BackgroundImageFix" result="effect1_dropShadow_12357_123559"/>
<feBlend mode="normal" in="SourceGraphic" in2="effect1_dropShadow_12357_123559" result="shape"/>
</filter>
<filter id="filter2_i_12357_123559" x="5.70703" y="-4" width="119.293" height="118.408" filterUnits="userSpaceOnUse" color-interpolation-filters="sRGB">
<feFlood flood-opacity="0" result="BackgroundImageFix"/>
<feBlend mode="normal" in="SourceGraphic" in2="BackgroundImageFix" result="shape"/>
<feColorMatrix in="SourceAlpha" type="matrix" values="0 0 0 0 0 0 0 0 0 0 0 0 0 0 0 0 0 0 127 0" result="hardAlpha"/>
<feOffset dx="4" dy="-4"/>
<feGaussianBlur stdDeviation="5"/>
<feComposite in2="hardAlpha" operator="arithmetic" k2="-1" k3="1"/>
<feColorMatrix type="matrix" values="0 0 0 0 0 0 0 0 0 0 0 0 0 0 0 0 0 0 0.2 0"/>
<feBlend mode="normal" in2="shape" result="effect1_innerShadow_12357_123559"/>
</filter>
<radialGradient id="paint0_radial_12357_123559" cx="0" cy="0" r="1" gradientUnits="userSpaceOnUse" gradientTransform="translate(-1.99999 121) rotate(-44.7476) scale(160.515 125.811)">
<stop stop-color="#708386"/>
<stop offset="1" stop-color="#00E1FD"/>
</radialGradient>
<linearGradient id="paint1_linear_12357_123559" x1="21" y1="76" x2="121" y2="4.25431e-06" gradientUnits="userSpaceOnUse">
<stop stop-color="#535353"/>
<stop offset="1" stop-color="white" stop-opacity="0"/>
</linearGradient>
</defs>
</svg>
