<svg width="47" height="47" viewBox="0 0 47 47" fill="none" xmlns="http://www.w3.org/2000/svg">
<path d="M40.0554 20.6895H15.059C14.8767 20.6895 14.7018 20.7619 14.5729 20.891C14.444 21.02 14.3716 21.195 14.3716 21.3775C14.3716 21.5599 14.444 21.7349 14.5729 21.8639C14.7018 21.993 14.8767 22.0655 15.059 22.0655H40.0554C40.2377 22.0655 40.4126 21.993 40.5415 21.8639C40.6704 21.7349 40.7428 21.5599 40.7428 21.3775C40.7428 21.195 40.6704 21.02 40.5415 20.891C40.4126 20.7619 40.2377 20.6895 40.0554 20.6895Z" fill="#2594A2"/>
<path d="M40.055 24.3486H22.2934C22.2031 24.3486 22.1137 24.3664 22.0303 24.401C21.9469 24.4356 21.8711 24.4863 21.8073 24.5501C21.7435 24.614 21.6928 24.6899 21.6583 24.7733C21.6237 24.8568 21.606 24.9463 21.606 25.0367C21.606 25.127 21.6237 25.2165 21.6583 25.2999C21.6928 25.3834 21.7435 25.4592 21.8073 25.5231C21.8711 25.587 21.9469 25.6377 22.0303 25.6723C22.1137 25.7068 22.2031 25.7246 22.2934 25.7246H40.055C40.1453 25.7246 40.2347 25.7068 40.3181 25.6723C40.4015 25.6377 40.4773 25.587 40.5411 25.5231C40.6049 25.4592 40.6556 25.3834 40.6901 25.2999C40.7247 25.2165 40.7424 25.127 40.7424 25.0367C40.7424 24.9463 40.7247 24.8568 40.6901 24.7733C40.6556 24.6899 40.6049 24.614 40.5411 24.5501C40.4773 24.4863 40.4015 24.4356 40.3181 24.401C40.2347 24.3664 40.1453 24.3486 40.055 24.3486Z" fill="#2594A2"/>
<path d="M40.0564 28.0088H24.6757C24.5854 28.0088 24.496 28.0266 24.4126 28.0612C24.3292 28.0957 24.2534 28.1464 24.1896 28.2103C24.1258 28.2742 24.0751 28.35 24.0406 28.4335C24.0061 28.517 23.9883 28.6064 23.9883 28.6968C23.9883 28.7871 24.0061 28.8766 24.0406 28.9601C24.0751 29.0435 24.1258 29.1194 24.1896 29.1833C24.2534 29.2471 24.3292 29.2978 24.4126 29.3324C24.496 29.367 24.5854 29.3848 24.6757 29.3848H40.0624C40.2447 29.3848 40.4196 29.3123 40.5485 29.1833C40.6774 29.0542 40.7498 28.8792 40.7498 28.6968C40.7498 28.5143 40.6774 28.3393 40.5485 28.2103C40.4196 28.0813 40.2447 28.0088 40.0624 28.0088H40.0564Z" fill="#2594A2"/>
<path d="M28.7874 31.6689H25.6781C25.4958 31.6689 25.321 31.7414 25.1921 31.8705C25.0631 31.9995 24.9907 32.1745 24.9907 32.3569C24.9907 32.5394 25.0631 32.7144 25.1921 32.8434C25.321 32.9725 25.4958 33.045 25.6781 33.045H28.7874C28.9697 33.045 29.1446 32.9725 29.2735 32.8434C29.4024 32.7144 29.4749 32.5394 29.4749 32.3569C29.4749 32.1745 29.4024 31.9995 29.2735 31.8705C29.1446 31.7414 28.9697 31.6689 28.7874 31.6689Z" fill="#2594A2"/>
<path d="M15.059 11.9131H24.2411C24.4234 11.9131 24.5982 11.8406 24.7271 11.7116C24.8561 11.5826 24.9285 11.4076 24.9285 11.2251C24.9285 11.0426 24.8561 10.8676 24.7271 10.7386C24.5982 10.6096 24.4234 10.5371 24.2411 10.5371H15.059C14.8767 10.5371 14.7018 10.6096 14.5729 10.7386C14.444 10.8676 14.3716 11.0426 14.3716 11.2251C14.3716 11.4076 14.444 11.5826 14.5729 11.7116C14.7018 11.8406 14.8767 11.9131 15.059 11.9131Z" fill="#2594A2"/>
<path d="M6.87176 40.4803C6.93559 40.5442 7.01137 40.5949 7.09477 40.6295C7.17817 40.6641 7.26757 40.6819 7.35784 40.6819C7.44812 40.6819 7.5375 40.6641 7.62091 40.6295C7.70431 40.5949 7.78009 40.5442 7.84392 40.4803L12.44 35.8803L17.036 40.4803C17.0998 40.5442 17.1756 40.5949 17.259 40.6295C17.3424 40.6641 17.4318 40.6819 17.5221 40.6819C17.6123 40.6819 17.7017 40.6641 17.7851 40.6295C17.8685 40.5949 17.9443 40.5442 18.0082 40.4803C18.072 40.4165 18.1226 40.3406 18.1572 40.2571C18.1917 40.1737 18.2095 40.0842 18.2095 39.9938C18.2095 39.9035 18.1917 39.814 18.1572 39.7306C18.1226 39.6471 18.072 39.5712 18.0082 39.5074L13.4121 34.9073L18.0082 30.3073C18.1371 30.1783 18.2095 30.0033 18.2095 29.8208C18.2095 29.6384 18.1371 29.4634 18.0082 29.3344C17.8792 29.2053 17.7044 29.1328 17.5221 29.1328C17.3398 29.1328 17.1649 29.2053 17.036 29.3344L12.44 33.9343L7.84392 29.3344C7.715 29.2053 7.54016 29.1328 7.35784 29.1328C7.17553 29.1328 7.00068 29.2053 6.87176 29.3344C6.74284 29.4634 6.67042 29.6384 6.67042 29.8208C6.67042 30.0033 6.74284 30.1783 6.87176 30.3073L11.4678 34.9073L6.87176 39.5074C6.80792 39.5712 6.75729 39.6471 6.72274 39.7306C6.68819 39.814 6.67041 39.9035 6.67041 39.9938C6.67041 40.0842 6.68819 40.1737 6.72274 40.2571C6.75729 40.3406 6.80792 40.4165 6.87176 40.4803Z" fill="#2594A2"/>
<path d="M46.9962 18.191C46.991 15.7872 46.218 13.4479 44.7901 11.515C44.7391 11.4356 44.6723 11.3675 44.5939 11.315C44.5155 11.2625 44.4271 11.2267 44.3343 11.2099C44.2415 11.193 44.1462 11.1955 44.0544 11.2171C43.9625 11.2387 43.8761 11.279 43.8005 11.3355C43.7249 11.3919 43.6617 11.4634 43.6149 11.5454C43.5681 11.6273 43.5386 11.7181 43.5284 11.8119C43.5181 11.9058 43.5272 12.0008 43.5552 12.0909C43.5832 12.1811 43.6294 12.2645 43.691 12.336C44.3231 13.1901 44.8127 14.1411 45.1408 15.152C44.5281 14.5186 43.7943 14.0151 42.983 13.6715C42.1718 13.3279 41.2997 13.1512 40.4189 13.152H36.826C36.0391 13.151 35.2848 12.8376 34.7285 12.2806C34.1722 11.7237 33.8593 10.9686 33.8585 10.181V6.58804C33.859 5.70674 33.6824 4.83434 33.3391 4.02278C32.9958 3.21121 32.4929 2.47707 31.8602 1.86404C33.3281 2.34345 34.6629 3.16144 35.7569 4.25204L41.6588 10.159C41.7226 10.2229 41.7984 10.2736 41.8818 10.3082C41.9652 10.3428 42.0546 10.3606 42.1449 10.3606C42.2351 10.3606 42.3245 10.3428 42.4079 10.3082C42.4913 10.2736 42.5671 10.2229 42.6309 10.159C42.6948 10.0952 42.7454 10.0193 42.78 9.93584C42.8145 9.85236 42.8323 9.76289 42.8323 9.67254C42.8323 9.58219 42.8145 9.49273 42.78 9.40925C42.7454 9.32578 42.6948 9.24993 42.6309 9.18604L36.731 3.27904C35.6947 2.23612 34.4619 1.4093 33.1041 0.846461C31.7463 0.283617 30.2905 -0.00407366 28.8209 4.35746e-05H12.6258C11.4741 0.000837901 10.3697 0.459047 9.55522 1.27407C8.74071 2.08909 8.28264 3.1943 8.28158 4.34704V23.585C7.15495 23.9986 6.09673 24.579 5.14229 25.307C5.00575 25.4205 4.91832 25.5823 4.89829 25.7588C4.87825 25.9352 4.92717 26.1126 5.03481 26.2538C5.14245 26.395 5.30047 26.4891 5.47581 26.5163C5.65114 26.5436 5.83022 26.5019 5.97557 26.4C8.13051 24.763 10.8262 24.0061 13.5174 24.2824C16.2087 24.5587 18.6947 25.8477 20.4726 27.8885C22.2506 29.9294 23.1878 32.5699 23.0947 35.276C23.0017 37.9822 21.8853 40.5519 19.9714 42.4656C18.0574 44.3793 15.4888 45.4942 12.7849 45.5847C10.0811 45.6751 7.44374 44.7345 5.40636 42.9531C3.36899 41.1716 2.08359 38.6822 1.81013 35.9883C1.53668 33.2945 2.29557 30.5972 3.93334 28.442C4.04384 28.2968 4.09218 28.1136 4.06772 27.9328C4.04327 27.7519 3.94803 27.5881 3.80295 27.4775C3.65787 27.3669 3.47483 27.3186 3.29411 27.343C3.11339 27.3675 2.94978 27.4628 2.83928 27.608C1.48094 29.3968 0.64861 31.5297 0.436022 33.7664C0.223434 36.0031 0.639037 38.2548 1.63602 40.2678C2.63301 42.2809 4.17177 43.9753 6.079 45.1603C7.98622 46.3453 10.1862 46.9738 12.431 46.975H42.6539C43.8055 46.9737 44.9095 46.5151 45.7236 45.7C46.5377 44.8848 46.9954 43.7796 46.9962 42.627V18.191ZM42.6539 45.6H18.0392C20.6397 44.2343 22.6528 41.9656 23.7005 39.2197C24.7482 36.4738 24.7586 33.4395 23.7295 30.6866C22.7005 27.9336 20.7029 25.6512 18.1118 24.2677C15.5206 22.8843 12.514 22.4951 9.6564 23.173V4.34704C9.65719 3.55916 9.97033 2.80378 10.5271 2.24675C11.0838 1.68973 11.8386 1.37657 12.6258 1.37604H27.2762C28.6568 1.37763 29.9805 1.92726 30.9567 2.90436C31.933 3.88145 32.4821 5.20622 32.4837 6.58804V10.179C32.4848 11.3314 32.9426 12.4364 33.7566 13.2513C34.5707 14.0663 35.6745 14.5247 36.826 14.526H40.4149C41.7888 14.5278 43.1064 15.0724 44.0814 16.0412C45.0564 17.0101 45.6098 18.325 45.6214 19.7V42.627C45.6206 43.4146 45.3077 44.1697 44.7514 44.7266C44.1951 45.2836 43.4408 45.597 42.6539 45.598V45.6Z" fill="#2594A2"/>
</svg>
