<svg width="30" height="39" viewBox="0 0 30 39" fill="none" xmlns="http://www.w3.org/2000/svg">
<path d="M23.5043 10.1776C23.5121 12.0121 22.9761 13.8078 21.9639 15.3377C20.9517 16.8677 19.5087 18.0634 17.8173 18.7737C16.1259 19.4839 14.2619 19.677 12.4608 19.3283C10.6597 18.9797 9.00238 18.105 7.69816 16.8149C6.39393 15.5248 5.50135 13.8771 5.13316 12.0799C4.76498 10.2827 4.93772 8.41679 5.62955 6.71774C6.32139 5.01869 7.50128 3.56281 9.02017 2.53403C10.5391 1.50525 12.3288 0.949667 14.1633 0.937591C16.6265 0.926681 18.9935 1.89352 20.7447 3.62582C22.4959 5.35813 23.4884 7.71436 23.5043 10.1776ZM7.80426 10.9696V10.9856C7.49026 10.9856 7.17526 10.9996 6.86226 10.9856C6.58626 10.9696 6.52926 11.0856 6.57026 11.3326C6.68267 12.0421 6.88706 12.7339 7.17826 13.3906C7.51526 14.1326 7.51426 14.1317 8.25226 13.7787C8.58626 13.6197 9.08725 13.5496 9.21825 13.2906C9.36425 13.0016 9.19926 12.5396 9.12426 12.1606C9.04926 11.7816 9.23425 11.2606 8.94025 11.0606C8.66825 10.8706 8.19126 10.9866 7.80426 10.9686V10.9696ZM20.6693 10.9856C20.3553 10.9856 20.0413 10.9986 19.7293 10.9856C19.4723 10.9706 19.4093 11.0776 19.3903 11.3206C19.3453 11.9006 19.2793 12.4797 19.1903 13.0537C19.1749 13.0943 19.1685 13.1377 19.1716 13.181C19.1746 13.2243 19.1871 13.2664 19.208 13.3044C19.2289 13.3424 19.2578 13.3754 19.2927 13.4012C19.3277 13.427 19.3677 13.4448 19.4103 13.4536C19.8363 13.6316 20.2583 13.8216 20.6673 14.0366C20.8533 14.1366 20.9273 14.0836 21.0113 13.9256C21.4585 13.0963 21.7554 12.1944 21.8883 11.2616C21.9163 11.0616 21.8573 10.9886 21.6583 10.9926C21.3263 10.9936 20.9983 10.9846 20.6693 10.9846V10.9856ZM7.74425 9.43759C8.07325 9.43759 8.40326 9.42759 8.73226 9.43759C8.95926 9.44659 9.05326 9.36866 9.05826 9.13766C9.07534 8.5537 9.14225 7.97221 9.25825 7.39963C9.30525 7.15863 9.22925 7.05963 9.00525 6.97263C8.60066 6.81677 8.20709 6.63371 7.82725 6.42465C7.61025 6.30465 7.52225 6.35561 7.42125 6.55161C7.0991 7.16025 6.85581 7.80749 6.69726 8.47763C6.48026 9.43663 6.47626 9.43664 7.43226 9.43564L7.74425 9.43759ZM20.5623 9.43759C20.9623 9.43759 21.2923 9.42559 21.6193 9.43759C21.8683 9.44959 21.9193 9.35565 21.8803 9.12265C21.7683 8.41497 21.5666 7.72436 21.2803 7.0676C20.9323 6.2906 20.9333 6.29166 20.1803 6.65366C19.8473 6.81366 19.3623 6.88665 19.2183 7.14865C19.0743 7.41065 19.2673 7.86061 19.3103 8.22861C19.3533 8.59661 19.2653 9.11357 19.4753 9.34457C19.7213 9.61557 20.2403 9.39357 20.5623 9.43857V9.43759ZM13.4543 17.7196C13.4543 16.5536 13.4543 15.4636 13.4543 14.3736C13.4543 14.1436 13.3543 14.0867 13.1543 14.1167C12.5923 14.1977 12.0303 14.2836 11.4663 14.3496C11.2053 14.3806 11.1903 14.4876 11.2723 14.7066C11.5535 15.5459 11.9878 16.3256 12.5533 17.0066C12.797 17.3068 13.103 17.5505 13.4503 17.7207L13.4543 17.7196ZM13.4543 4.5256C13.4543 4.0776 13.4613 3.62559 13.4543 3.18259C13.4543 3.04559 13.5453 2.84556 13.3803 2.78256C13.2403 2.72956 13.1163 2.89464 13.0063 2.98764C12.1845 3.75526 11.5796 4.7258 11.2523 5.80161C11.1683 6.02861 11.3193 6.05366 11.4713 6.08066C12.0153 6.18066 12.5593 6.25958 13.1113 6.30258C13.3993 6.32458 13.4713 6.22661 13.4613 5.95761C13.4393 5.48161 13.4503 5.00358 13.4503 4.52658L13.4543 4.5256ZM15.0003 17.7257C15.0854 17.6864 15.1682 17.6423 15.2483 17.5936C16.186 16.8193 16.868 15.78 17.2053 14.6117C17.2813 14.4117 17.1563 14.3916 17.0143 14.3606C16.443 14.2514 15.8666 14.171 15.2873 14.1196C15.0233 14.0896 14.9953 14.2086 14.9973 14.4196C15.0023 15.4936 14.9983 16.5686 14.9983 17.7216L15.0003 17.7257ZM15.0003 2.70761C15.0003 3.86561 15.0063 4.94167 15.0003 6.01767C15.0003 6.25667 15.0743 6.32566 15.3103 6.30966C15.8783 6.27066 16.4393 6.18262 16.9993 6.08762C17.1993 6.05462 17.2753 5.98759 17.1903 5.76059C16.9009 4.89346 16.4511 4.08855 15.8643 3.38766C15.6239 3.1036 15.3287 2.87087 14.9963 2.70358L15.0003 2.70761ZM12.0373 10.9876C11.6483 10.9876 11.2593 10.9966 10.8703 10.9876C10.6493 10.9806 10.5703 11.0657 10.6013 11.2777C10.6553 11.7077 10.7153 12.1377 10.7453 12.5697C10.7673 12.8697 10.9173 12.8877 11.1643 12.8407C11.6043 12.7577 12.0493 12.6936 12.4943 12.6406C13.4603 12.5166 13.4393 12.5206 13.4683 11.5406C13.4803 11.1206 13.3853 10.9326 12.9343 10.9876C12.6345 11.0047 12.3339 11.0036 12.0343 10.9846L12.0373 10.9876ZM15.0003 11.7616C15.0003 11.9556 15.0003 12.1496 15.0003 12.3436C15.0003 12.4866 15.0493 12.5646 15.2003 12.5716C15.9459 12.6088 16.6875 12.7044 17.4183 12.8576C17.6293 12.8996 17.6773 12.8036 17.6953 12.6256C17.7413 12.1806 17.7953 11.7356 17.8543 11.2916C17.8873 11.0526 17.7953 10.9757 17.5613 10.9807C16.9613 10.9917 16.3663 10.9867 15.7693 10.9807C14.9923 10.9787 14.9923 10.9767 14.9973 11.7577L15.0003 11.7616ZM11.9913 9.44162H12.3043C13.4833 9.43362 13.4713 9.43367 13.4673 8.24167C13.4673 7.94167 13.3493 7.86258 13.0833 7.84958C12.4132 7.82031 11.7471 7.73036 11.0933 7.58066C10.8413 7.52066 10.7783 7.61559 10.7553 7.83359C10.7163 8.20359 10.6713 8.57364 10.6103 8.94064C10.5493 9.30764 10.6163 9.5046 11.0543 9.4476C11.3647 9.42491 11.6764 9.42156 11.9873 9.43759L11.9913 9.44162ZM16.4253 9.44162C16.8133 9.44162 17.2013 9.43262 17.5883 9.44162C17.8013 9.44862 17.8883 9.37964 17.8573 9.15964C17.7963 8.70164 17.7433 8.24266 17.6963 7.78366C17.6763 7.58966 17.5963 7.53663 17.4023 7.57663C16.9793 7.66163 16.5503 7.71765 16.1253 7.79465C15.7553 7.86165 15.2363 7.6846 15.0483 7.9946C14.8763 8.2816 15.0153 8.74861 14.9973 9.13461C14.9863 9.37261 15.0793 9.44867 15.3083 9.43967C15.6763 9.42867 16.0503 9.43759 16.4213 9.43759L16.4253 9.44162ZM10.6623 3.38364C10.1421 3.63385 9.65889 3.95454 9.22625 4.33664C8.98425 4.54664 8.55426 4.75761 8.60926 5.03061C8.66426 5.30361 9.14226 5.33864 9.43126 5.48764C9.63126 5.58764 9.71825 5.54259 9.78425 5.33359C10.0057 4.6532 10.2987 3.99822 10.6583 3.37961L10.6623 3.38364ZM17.8383 3.39462C18.0673 3.89462 18.2823 4.32658 18.4663 4.77158C18.8393 5.67158 18.8473 5.67158 19.7093 5.17758C19.9093 5.06358 19.9323 4.99463 19.7633 4.82663C19.1964 4.25423 18.546 3.77109 17.8343 3.39365L17.8383 3.39462ZM17.9023 16.9557C18.6154 16.6143 19.2594 16.1445 19.8023 15.5697C19.9453 15.4257 19.9023 15.3526 19.7453 15.2826C19.5006 15.1712 19.2566 15.0582 19.0133 14.9436C18.8503 14.8666 18.7453 14.8776 18.6803 15.0816C18.4604 15.7212 18.1991 16.3459 17.8983 16.9516L17.9023 16.9557ZM10.6213 17.0466C10.3953 16.5576 10.2043 16.1736 10.0373 15.7796C9.59725 14.7386 9.60126 14.7366 8.60826 15.3476C8.58056 15.3721 8.55572 15.3996 8.53425 15.4297C9.12715 16.0869 9.83253 16.633 10.6173 17.0426L10.6213 17.0466Z" fill="#2594A2"/>
<path d="M16.5341 29.554C16.5341 27.3086 16.5341 25.0629 16.5341 22.8169C16.5025 22.5769 16.5261 22.333 16.6033 22.1035C16.6805 21.8741 16.8091 21.6654 16.9793 21.4933C17.1496 21.3212 17.3569 21.1904 17.5855 21.1107C17.8141 21.0311 18.0578 21.0049 18.2981 21.034C20.2141 21.034 22.1311 21.023 24.0471 21.034C24.7986 21.0057 25.5477 21.1335 26.2472 21.4093C26.9468 21.6851 27.5816 22.1028 28.1117 22.6363C28.6417 23.1697 29.0554 23.8071 29.3267 24.5084C29.5981 25.2098 29.7211 25.9597 29.6881 26.711C29.7706 28.0988 29.3518 29.47 28.5081 30.575C28.0119 31.2182 27.3737 31.7381 26.6434 32.094C25.9132 32.45 25.1105 32.6324 24.2981 32.627C23.4151 32.636 22.5311 32.647 21.6481 32.621C21.2801 32.61 21.1601 32.7049 21.1691 33.0879C21.1951 34.1799 21.1851 35.274 21.1761 36.367C21.1961 36.5929 21.1662 36.8204 21.0886 37.0335C21.011 37.2466 20.8876 37.44 20.7272 37.6002C20.5667 37.7604 20.373 37.8834 20.1598 37.9606C19.9465 38.0378 19.719 38.0672 19.4931 38.0469C19.0741 38.0549 18.6541 38.0549 18.2351 38.0469C18.0057 38.0687 17.7744 38.0394 17.5577 37.9612C17.341 37.883 17.1443 37.7578 16.9817 37.5945C16.8192 37.4312 16.6948 37.2338 16.6176 37.0167C16.5404 36.7997 16.5122 36.5682 16.5351 36.3389C16.5341 34.0759 16.5341 31.815 16.5341 29.554ZM18.0811 29.5189C18.0811 30.4916 18.0811 31.4642 18.0811 32.4369C18.0811 33.4099 18.0811 34.382 18.0811 35.355C18.0811 36.508 18.0811 36.4929 19.2201 36.4999C19.5671 36.4999 19.6461 36.3919 19.6421 36.0659C19.6251 34.7939 19.6351 33.5219 19.6351 32.2499C19.6351 31.2679 19.8221 31.086 20.8241 31.085C21.9911 31.085 23.1591 31.095 24.3241 31.085C25.154 31.0726 25.9578 30.7938 26.6171 30.2896C27.2763 29.7854 27.7559 29.0826 27.9851 28.2849C28.1095 27.745 28.157 27.1902 28.1261 26.637C28.1533 26.1001 28.0682 25.5634 27.8762 25.0613C27.6842 24.5592 27.3896 24.1027 27.0112 23.7208C26.6328 23.339 26.1789 23.0403 25.6785 22.8439C25.1781 22.6474 24.6422 22.5576 24.1051 22.58C22.2491 22.57 20.3941 22.588 18.5381 22.569C18.1521 22.569 18.0681 22.694 18.0701 23.055C18.0911 25.209 18.0831 27.3639 18.0831 29.5189H18.0811Z" fill="#2594A2"/>
<path d="M0.308043 29.6116C0.308043 28.6536 0.308043 27.6957 0.308043 26.7377C0.282074 26.0024 0.407056 25.2696 0.675276 24.5845C0.943496 23.8994 1.34927 23.2764 1.86754 22.7541C2.38582 22.2319 3.00561 21.8215 3.68868 21.5481C4.37174 21.2747 5.10358 21.1443 5.83905 21.1647C7.80405 21.1127 8.36804 22.0646 8.24904 23.5526C8.20904 24.0586 8.24904 24.5696 8.24004 25.0786C8.24787 25.3117 8.20768 25.5439 8.12195 25.7607C8.03622 25.9776 7.90679 26.1744 7.74172 26.3391C7.57664 26.5038 7.37945 26.6328 7.1624 26.718C6.94535 26.8033 6.71308 26.843 6.48004 26.8346C6.22604 26.8406 5.97104 26.8346 5.71704 26.8346C5.63038 26.8221 5.54203 26.8292 5.45847 26.8553C5.37492 26.8815 5.29828 26.9261 5.2342 26.9857C5.17012 27.0454 5.12023 27.1187 5.08819 27.2002C5.05615 27.2817 5.04277 27.3693 5.04904 27.4567C5.03571 28.8933 5.03571 30.3299 5.04904 31.7666C5.04378 31.8501 5.05633 31.9338 5.08587 32.0121C5.1154 32.0904 5.16125 32.1614 5.22035 32.2206C5.27946 32.2798 5.35047 32.3257 5.42869 32.3553C5.50691 32.385 5.59055 32.3977 5.67404 32.3926C5.97404 32.4086 6.27405 32.3926 6.57405 32.4016C7.01389 32.4011 7.43604 32.5748 7.74808 32.8848C8.06013 33.1947 8.23666 33.6158 8.23904 34.0557C8.26238 34.833 8.26238 35.611 8.23904 36.3896C8.24141 36.7764 8.10431 37.151 7.85287 37.4448C7.60143 37.7387 7.2525 37.9321 6.87004 37.9896C5.34624 38.2536 3.77992 37.903 2.51404 37.0146C1.81707 36.5155 1.2524 35.8539 0.869029 35.0872C0.485653 34.3204 0.295148 33.4717 0.314044 32.6146C0.304044 31.6176 0.308043 30.6146 0.308043 29.6116ZM1.86104 29.5886C1.86104 30.6366 1.86104 31.6886 1.86104 32.7316C1.85257 33.1968 1.94041 33.6589 2.11904 34.0886C2.45919 34.9222 3.07393 35.6147 3.86141 36.0511C4.64889 36.4876 5.56185 36.642 6.44905 36.4886C6.64905 36.4726 6.69305 36.3566 6.69305 36.1886C6.69305 35.7993 6.69305 35.4103 6.69305 35.0216C6.69305 33.9686 6.69305 33.9686 5.65805 33.9426C5.10403 33.9498 4.56919 33.74 4.16781 33.358C3.76644 32.9761 3.53036 32.4522 3.51004 31.8986C3.47704 30.3726 3.48004 28.8456 3.51004 27.3196C3.52507 26.8124 3.72481 26.3282 4.07174 25.9579C4.41866 25.5876 4.88889 25.3566 5.39405 25.3086C5.70679 25.2789 6.02128 25.2719 6.33504 25.2876C6.61204 25.2976 6.70704 25.1876 6.69604 24.9156C6.68104 24.5266 6.68904 24.1377 6.69004 23.7487C6.69004 22.7187 6.69004 22.7186 5.69004 22.7296C5.1835 22.7221 4.68063 22.8168 4.21143 23.0078C3.74223 23.1989 3.31631 23.4823 2.95907 23.8416C2.60183 24.2008 2.32058 24.6283 2.13211 25.0985C1.94363 25.5687 1.85178 26.0721 1.86204 26.5786C1.85804 27.5836 1.86104 28.5866 1.86104 29.5886Z" fill="#2594A2"/>
<path d="M14.9952 29.5564C14.9952 31.8157 14.9952 34.0753 14.9952 36.3353C15.019 36.5648 14.9914 36.7967 14.9145 37.0143C14.8377 37.2318 14.7134 37.4296 14.5506 37.5931C14.3879 37.7567 14.1908 37.8822 13.9737 37.9602C13.7566 38.0382 13.5248 38.0669 13.2952 38.0443C12.9062 38.0493 12.5172 38.0443 12.1282 38.0443C11.8882 38.0763 11.6441 38.0529 11.4147 37.9757C11.1852 37.8986 10.9765 37.7699 10.8047 37.5994C10.6328 37.4289 10.5024 37.2212 10.4234 36.9923C10.3444 36.7635 10.319 36.5196 10.3492 36.2794C10.3458 33.2868 10.3458 30.2941 10.3492 27.3014C10.3492 25.8054 10.3492 24.3091 10.3492 22.8124C10.3186 22.5723 10.3432 22.3285 10.4212 22.0994C10.4993 21.8703 10.6286 21.662 10.7993 21.4905C10.97 21.319 11.1777 21.1887 11.4065 21.1096C11.6352 21.0306 11.879 21.0048 12.1192 21.0343C12.5192 21.0343 12.9272 21.0343 13.3312 21.0343C13.5529 21.0183 13.7755 21.0502 13.9838 21.1277C14.1922 21.2052 14.3814 21.3266 14.5387 21.4837C14.6961 21.6407 14.8178 21.8296 14.8957 22.0379C14.9736 22.2461 15.0058 22.4686 14.9902 22.6903C14.9992 24.9773 14.9952 27.2674 14.9952 29.5564ZM13.4552 29.5564C13.4552 27.5817 13.4552 25.607 13.4552 23.6323C13.4552 22.5713 13.4552 22.5934 12.4152 22.5674C11.9892 22.5574 11.9002 22.7024 11.9022 23.1004C11.9162 27.2004 11.9122 31.3004 11.9112 35.4004C11.9112 36.5054 11.9112 36.4884 12.9992 36.5054C13.3832 36.5114 13.4682 36.3853 13.4662 36.0223C13.4472 33.8643 13.4552 31.7094 13.4552 29.5554V29.5564Z" fill="#2594A2"/>
<path d="M19.6378 26.8587C19.6378 26.2447 19.6298 25.6306 19.6378 25.0176C19.6458 24.4046 19.9138 24.1416 20.5198 24.1376C21.6568 24.1296 22.7948 24.1206 23.9328 24.1376C24.6248 24.1667 25.2791 24.4608 25.7605 24.9588C26.2419 25.4567 26.5134 26.1207 26.5191 26.8133C26.5247 27.5058 26.264 28.1741 25.7909 28.6798C25.3177 29.1856 24.6683 29.4902 23.9768 29.5307C22.8098 29.5637 21.6418 29.5466 20.4768 29.5366C20.3636 29.5492 20.2491 29.536 20.1417 29.4981C20.0343 29.4601 19.9369 29.3984 19.8567 29.3175C19.7765 29.2367 19.7156 29.1387 19.6786 29.031C19.6416 28.9233 19.6293 28.8087 19.6428 28.6956C19.6318 28.0816 19.6428 27.4686 19.6428 26.8546L19.6378 26.8587ZM22.7168 25.6836C22.3168 25.6836 21.9098 25.6906 21.5068 25.6836C21.2938 25.6786 21.1758 25.7197 21.1818 25.9737C21.1958 26.5557 21.1878 27.1386 21.1818 27.7216C21.1818 27.8956 21.2158 28.0067 21.4248 28.0047C22.2758 27.9967 23.1248 28.0256 23.9788 27.9866C24.2744 27.9685 24.5512 27.8357 24.7502 27.6164C24.9492 27.397 25.0546 27.1086 25.0438 26.8126C25.0368 26.5103 24.9108 26.223 24.6933 26.013C24.4757 25.8029 24.1842 25.6871 23.8818 25.6906C23.4938 25.6736 23.1058 25.6836 22.7168 25.6836Z" fill="#2594A2"/>
</svg>
