<svg width="59" height="47" viewBox="0 0 59 47" fill="none" xmlns="http://www.w3.org/2000/svg">
<path d="M32.2312 5.27908L29.9562 6.38509L29.9202 6.40509L26.6692 5.27908C25.2121 4.77081 23.6135 4.85667 22.2192 5.51809L18.8192 7.11808L11.9562 0.259087C11.7925 0.107045 11.5761 0.024373 11.3527 0.0284309C11.1293 0.0324889 10.9161 0.122958 10.758 0.280846C10.5998 0.438734 10.509 0.651757 10.5046 0.875183C10.5001 1.09861 10.5825 1.31506 10.7342 1.47908L17.4182 8.16309L13.9112 11.6701C13.831 11.7503 13.7673 11.8456 13.7239 11.9504C13.6805 12.0553 13.6581 12.1676 13.6581 12.2811C13.6581 12.3946 13.6805 12.5069 13.7239 12.6118C13.7673 12.7166 13.831 12.8118 13.9112 12.8921C13.9915 12.9723 14.0867 13.036 14.1916 13.0794C14.2964 13.1228 14.4088 13.1452 14.5222 13.1452C14.6357 13.1452 14.7481 13.1228 14.8529 13.0794C14.9577 13.036 15.053 12.9723 15.1332 12.8921L19.1442 8.87909L22.9562 7.07909C23.9426 6.6114 25.0734 6.55069 26.1042 6.91008L32.1492 9.00309L34.4332 11.5831C34.5072 11.6722 34.5983 11.7456 34.7011 11.7988C34.804 11.852 34.9165 11.884 35.032 11.8929C35.1474 11.9018 35.2635 11.8874 35.3733 11.8505C35.4831 11.8136 35.5843 11.7551 35.671 11.6783C35.7577 11.6015 35.8281 11.5081 35.878 11.4036C35.9279 11.2991 35.9562 11.1856 35.9614 11.0699C35.9665 10.9542 35.9484 10.8386 35.908 10.7301C35.8676 10.6216 35.8058 10.5223 35.7262 10.4381L33.2922 7.68908C33.1939 7.57782 33.0685 7.49378 32.9282 7.44508L32.2192 7.20008L32.8442 6.89408C33.8626 6.55265 34.9737 6.61895 35.9442 7.07909L39.8922 8.94009C40.0532 9.01582 40.2336 9.04004 40.4088 9.00943C40.584 8.97883 40.7455 8.89489 40.8712 8.76908L48.1652 1.47509C48.2455 1.39485 48.3091 1.29959 48.3525 1.19476C48.396 1.08992 48.4183 0.977559 48.4183 0.864086C48.4183 0.750613 48.396 0.638249 48.3525 0.533413C48.3091 0.428577 48.2455 0.333324 48.1652 0.253086C48.085 0.172848 47.9897 0.109197 47.8849 0.065773C47.7801 0.0223487 47.6677 0 47.5542 0C47.4408 0 47.3284 0.0223487 47.2236 0.065773C47.1187 0.109197 47.0235 0.172848 46.9432 0.253086L40.0812 7.12309L36.6812 5.52309C35.2868 4.86221 33.6882 4.77671 32.2312 5.28508V5.27908Z" fill="#2594A2"/>
<path d="M1.44119 10.7743C1.27684 10.6268 1.06224 10.5478 0.841459 10.5535C0.620679 10.5593 0.410487 10.6494 0.254062 10.8053C0.0976382 10.9612 0.00685883 11.1711 0.000373011 11.3919C-0.0061128 11.6126 0.0721873 11.8275 0.219189 11.9923L2.69519 14.4683C2.85724 14.6303 3.07702 14.7214 3.30619 14.7214C3.53536 14.7214 3.75514 14.6303 3.91719 14.4683C4.07924 14.3062 4.17027 14.0865 4.17027 13.8573C4.17027 13.6281 4.07924 13.4083 3.91719 13.2463L1.44119 10.7743Z" fill="#2594A2"/>
<path d="M20.2961 21.9039C20.4581 22.0657 20.6776 22.1566 20.9066 22.1566C21.1355 22.1566 21.3551 22.0657 21.5171 21.9039C21.5171 21.9039 25.9171 17.4979 25.9421 17.4659C26.8448 17.0607 27.6662 16.4945 28.3661 15.795L28.6101 15.5509L32.0811 19.0219C33.1596 20.1004 34.6224 20.7063 36.1476 20.7063C37.6728 20.7063 39.1356 20.1004 40.2141 19.0219C40.6587 18.5751 40.9165 17.9758 40.9351 17.3457C40.9536 16.7157 40.7316 16.1022 40.3141 15.6299L38.4141 13.4829C38.2581 13.3289 38.0493 13.24 37.8302 13.2341C37.611 13.2283 37.3979 13.306 37.2339 13.4514C37.0698 13.5969 36.9672 13.7992 36.9469 14.0175C36.9265 14.2358 36.9898 14.4536 37.1241 14.6269L39.0241 16.7739C39.1503 16.9169 39.2173 17.1025 39.2116 17.2931C39.2058 17.4837 39.1277 17.6649 38.9931 17.7999C38.2385 18.5543 37.2151 18.9781 36.1481 18.9781C35.081 18.9781 34.0577 18.5543 33.3031 17.7999L27.3661 11.8629C27.2858 11.7827 27.1906 11.7191 27.0857 11.6756C26.9809 11.6322 26.8685 11.6099 26.7551 11.6099C26.6416 11.6099 26.5292 11.6322 26.4244 11.6756C26.3196 11.7191 26.2243 11.7827 26.1441 11.8629C26.0638 11.9432 26.0002 12.0384 25.9568 12.1433C25.9133 12.2481 25.891 12.3605 25.891 12.4739C25.891 12.5874 25.9133 12.6998 25.9568 12.8046C26.0002 12.9094 26.0638 13.0047 26.1441 13.0849L27.3881 14.3289L27.1441 14.573C26.332 15.3842 25.3182 15.9641 24.2072 16.2529C23.0963 16.5417 21.9284 16.5289 20.8241 16.2159C20.714 16.1817 20.5981 16.1699 20.4834 16.1811C20.3686 16.1924 20.2573 16.2265 20.1559 16.2814C20.0546 16.3363 19.9652 16.411 19.8932 16.501C19.8211 16.591 19.7678 16.6945 19.7364 16.8054C19.7049 16.9164 19.696 17.0325 19.7101 17.1469C19.7243 17.2613 19.7611 17.3717 19.8186 17.4717C19.8761 17.5716 19.953 17.6591 20.0448 17.7289C20.1366 17.7986 20.2414 17.8493 20.3531 17.8779C21.1454 18.1021 21.967 18.2053 22.7901 18.1839L20.2901 20.6839C20.2098 20.7642 20.1462 20.8594 20.1027 20.9643C20.0593 21.0691 20.037 21.1815 20.037 21.295C20.037 21.4084 20.0593 21.5208 20.1027 21.6256C20.1462 21.7305 20.2098 21.8257 20.2901 21.9059L20.2961 21.9039Z" fill="#2594A2"/>
<path d="M58.6814 10.7731C58.6012 10.6929 58.5059 10.6292 58.4011 10.5858C58.2962 10.5424 58.1839 10.52 58.0704 10.52C57.9569 10.52 57.8446 10.5424 57.7397 10.5858C57.6349 10.6292 57.5396 10.6929 57.4594 10.7731L49.5994 18.6331C49.4664 18.7661 49.3803 18.9388 49.3544 19.1251L48.9004 22.3801C48.6353 24.2486 47.8328 25.9997 46.5904 27.4202C45.9157 26.8952 45.0724 26.6349 44.2192 26.6881C43.366 26.7413 42.5616 27.1044 41.9574 27.7091L41.5634 28.1031C41.2368 28.4281 40.9778 28.8146 40.8015 29.2403C40.6253 29.666 40.5351 30.1224 40.5364 30.5831C40.5364 30.6641 40.5364 30.7451 40.5454 30.8251C40.0455 30.79 39.5438 30.8626 39.0744 31.038C38.605 31.2135 38.1787 31.4877 37.8244 31.8421L37.4304 32.2361C37.0757 32.5907 36.8013 33.0173 36.6259 33.4871C36.4504 33.9569 36.3779 34.4589 36.4134 34.9591C35.9132 34.9235 35.4113 34.9959 34.9415 35.1711C34.4717 35.3464 34.045 35.6206 33.6904 35.9751L33.2964 36.3691C32.942 36.7234 32.6677 37.1497 32.4923 37.6192C32.3168 38.0886 32.2442 38.5902 32.2794 39.0901C32.1994 39.0851 32.1184 39.0811 32.0374 39.0811C31.5767 39.0799 31.1202 39.17 30.6946 39.3463C30.2689 39.5226 29.8824 39.7815 29.5574 40.1081L29.1634 40.5021C28.5754 41.0905 28.2157 41.8687 28.1485 42.6977C28.0813 43.5268 28.3109 44.3527 28.7964 45.0281C28.3563 45.2123 27.8659 45.2378 27.4091 45.1005C26.9522 44.9632 26.5572 44.6715 26.2915 44.2753C26.0259 43.879 25.906 43.4028 25.9525 42.928C25.999 42.4533 26.2089 42.0093 26.5464 41.6721L36.3034 31.9151C36.3869 31.8357 36.4536 31.7403 36.4997 31.6346C36.5457 31.5289 36.5702 31.4151 36.5716 31.2998C36.573 31.1846 36.5513 31.0702 36.5078 30.9634C36.4643 30.8567 36.3999 30.7597 36.3183 30.6782C36.2368 30.5967 36.1398 30.5324 36.033 30.489C35.9262 30.4456 35.8118 30.424 35.6965 30.4255C35.5812 30.4269 35.4674 30.4515 35.3618 30.4976C35.2562 30.5438 35.1608 30.6106 35.0814 30.6941L22.8874 42.8911C22.4983 43.2618 21.9796 43.4655 21.4423 43.459C20.9049 43.4524 20.3915 43.2361 20.0115 42.8561C19.6315 42.4761 19.4151 41.9626 19.4086 41.4252C19.402 40.8879 19.6058 40.3693 19.9764 39.9801L32.4574 27.4991C32.5376 27.4189 32.6013 27.3236 32.6447 27.2188C32.6881 27.114 32.7105 27.0016 32.7105 26.8881C32.7105 26.7747 32.6881 26.6623 32.6447 26.5575C32.6013 26.4526 32.5376 26.3574 32.4574 26.2771C32.3772 26.1969 32.2819 26.1333 32.1771 26.0898C32.0722 26.0464 31.9599 26.0241 31.8464 26.0241C31.7329 26.0241 31.6206 26.0464 31.5157 26.0898C31.4109 26.1333 31.3156 26.1969 31.2354 26.2771L16.7814 40.7311C16.3923 41.1018 15.8736 41.3055 15.3363 41.299C14.7989 41.2924 14.2855 41.0761 13.9055 40.6961C13.5255 40.3161 13.3091 39.8026 13.3026 39.2652C13.296 38.7279 13.4998 38.2093 13.8704 37.8201L28.5244 23.1661C28.6079 23.0866 28.6746 22.9913 28.7207 22.8856C28.7667 22.7799 28.7912 22.6661 28.7926 22.5508C28.794 22.4356 28.7723 22.3212 28.7288 22.2144C28.6853 22.1077 28.6209 22.0107 28.5393 21.9292C28.4578 21.8477 28.3608 21.7834 28.254 21.74C28.1472 21.6966 28.0328 21.675 27.9175 21.6765C27.8022 21.678 27.6884 21.7025 27.5828 21.7486C27.4772 21.7948 27.3818 21.8616 27.3024 21.9451L16.4134 32.8331C16.224 33.032 15.9967 33.191 15.745 33.3007C15.4932 33.4104 15.2221 33.4686 14.9475 33.472C14.6729 33.4753 14.4004 33.4237 14.1461 33.3202C13.8917 33.2166 13.6606 33.0633 13.4665 32.8691C13.2723 32.6749 13.1189 32.4438 13.0154 32.1895C12.9118 31.9351 12.8602 31.6626 12.8636 31.388C12.8669 31.1134 12.9251 30.8423 13.0349 30.5905C13.1446 30.3388 13.3035 30.1115 13.5024 29.9221L18.6364 24.7911C18.7984 24.6291 18.8895 24.4093 18.8895 24.1801C18.8895 23.951 18.7984 23.7312 18.6364 23.5691C18.4744 23.4071 18.2546 23.3161 18.0254 23.3161C17.7962 23.3161 17.5764 23.4071 17.4144 23.5691L12.9144 28.0691L12.7334 27.8881C11.25 26.399 10.289 24.4693 9.9944 22.3881L9.5404 19.1331C9.51446 18.9469 9.42844 18.7741 9.2954 18.6411L6.7954 16.1411C6.63335 15.9791 6.41357 15.8881 6.1844 15.8881C5.95523 15.8881 5.73545 15.9791 5.5734 16.1411C5.41135 16.3032 5.32031 16.523 5.32031 16.7521C5.32031 16.9813 5.41135 17.2011 5.5734 17.3631L7.8734 19.6631L8.2874 22.6321C8.63427 25.0856 9.76684 27.3605 11.5154 29.1161L11.7604 29.3611C11.4328 29.8766 11.2348 30.4637 11.1834 31.0723C11.1319 31.6809 11.2285 32.293 11.4649 32.8561C11.7013 33.4193 12.0705 33.9169 12.5409 34.3064C13.0113 34.696 13.569 34.9659 14.1664 35.0931L12.6474 36.6121C11.9644 37.3002 11.5714 38.2241 11.5492 39.1933C11.527 40.1626 11.8774 41.1034 12.5282 41.822C13.179 42.5406 14.0807 42.9823 15.0473 43.056C16.014 43.1297 16.9722 42.8298 17.7244 42.2181C17.863 42.8868 18.1799 43.5056 18.6415 44.0088C19.1032 44.512 19.6923 44.881 20.3466 45.0765C21.0009 45.2721 21.6959 45.287 22.358 45.1197C23.0201 44.9524 23.6246 44.6091 24.1074 44.1261L24.2994 43.9341C24.4268 44.5322 24.6972 45.0905 25.0875 45.5612C25.4778 46.0319 25.9763 46.401 26.5405 46.6369C27.1046 46.8728 27.7175 46.9685 28.3267 46.9158C28.9359 46.863 29.5232 46.6635 30.0384 46.3341C30.492 46.7221 31.0695 46.9349 31.6664 46.9341C31.9972 46.9349 32.3249 46.8699 32.6305 46.7431C32.936 46.6162 33.2134 46.43 33.4464 46.1951L35.2394 44.4001C35.6696 43.9698 35.9281 43.3974 35.9664 42.7901C36.5745 42.751 37.1474 42.491 37.5774 42.0591L39.3684 40.2641C39.7984 39.8341 40.0568 39.2621 40.0954 38.6552C40.7019 38.6167 41.2738 38.359 41.7044 37.9301L43.5044 36.1411C43.9368 35.7117 44.1975 35.1392 44.2374 34.5311C44.8446 34.4939 45.4174 34.2364 45.8484 33.8071L47.6484 32.0172C48.0906 31.5773 48.3537 30.9889 48.3868 30.3661C48.4199 29.7433 48.2205 29.1304 47.8274 28.6461C49.3284 26.9596 50.2982 24.8675 50.6154 22.6321L51.0294 19.6631L58.6844 12.0081C58.7646 11.9279 58.8283 11.8327 58.8717 11.7278C58.9152 11.623 58.9375 11.5106 58.9375 11.3971C58.9375 11.2837 58.9152 11.1713 58.8717 11.0665C58.8283 10.9616 58.7646 10.8664 58.6844 10.7861L58.6814 10.7731ZM34.0184 43.1651L32.2254 44.9651C32.1522 45.0389 32.0651 45.0974 31.9692 45.1372C31.8732 45.177 31.7703 45.1974 31.6664 45.1971C31.5627 45.1974 31.46 45.1772 31.3643 45.1375C31.2685 45.0979 31.1815 45.0396 31.1084 44.9661L30.3884 44.2461C30.223 44.0808 30.0918 43.8846 30.0023 43.6685C29.9128 43.4525 29.8667 43.221 29.8667 42.9871C29.8667 42.7533 29.9128 42.5218 30.0023 42.3057C30.0918 42.0897 30.223 41.8934 30.3884 41.7281L30.7824 41.3341C30.9477 41.1687 31.144 41.0375 31.36 40.948C31.576 40.8585 31.8076 40.8124 32.0414 40.8124C32.2752 40.8124 32.5068 40.8585 32.7228 40.948C32.9388 41.0375 33.1351 41.1687 33.3004 41.3341L34.0194 42.0531C34.1672 42.2014 34.2503 42.4023 34.2503 42.6116C34.2503 42.821 34.1672 43.0219 34.0194 43.1702L34.0184 43.1651ZM38.1484 39.0302L36.3564 40.8301C36.2832 40.9039 36.1961 40.9624 36.1002 41.0023C36.0042 41.0421 35.9013 41.0624 35.7974 41.0621C35.6937 41.0624 35.5911 41.0421 35.4953 41.0025C35.3995 40.9628 35.3126 40.9046 35.2394 40.8311L34.5214 40.1131C34.1879 39.779 34.0005 39.3262 34.0005 38.8541C34.0005 38.382 34.1879 37.9292 34.5214 37.5951L34.9154 37.2011C35.2495 36.8676 35.7023 36.6803 36.1744 36.6803C36.6465 36.6803 37.0993 36.8676 37.4334 37.2011L38.1494 37.9171C38.2972 38.0654 38.3803 38.2663 38.3803 38.4756C38.3803 38.685 38.2972 38.8859 38.1494 39.0341L38.1484 39.0302ZM42.2854 34.9041L40.4854 36.6941C40.3372 36.8417 40.1365 36.9245 39.9274 36.9245C39.7183 36.9245 39.5176 36.8417 39.3694 36.6941L38.6534 35.9781C38.3199 35.644 38.1325 35.1912 38.1325 34.7191C38.1325 34.2471 38.3199 33.7942 38.6534 33.4601L39.0474 33.0661C39.3815 32.7326 39.8343 32.5453 40.3064 32.5453C40.7785 32.5453 41.2313 32.7326 41.5654 33.0661L42.2864 33.7871C42.36 33.8605 42.4184 33.9477 42.4583 34.0437C42.4982 34.1398 42.5187 34.2427 42.5187 34.3466C42.5187 34.4506 42.4982 34.5535 42.4583 34.6495C42.4184 34.7455 42.36 34.8328 42.2864 34.9061L42.2854 34.9041ZM46.4274 30.7802L44.6274 32.5701C44.4792 32.7177 44.2785 32.8005 44.0694 32.8005C43.8603 32.8005 43.6596 32.7177 43.5114 32.5701L42.7904 31.8491C42.625 31.6838 42.4938 31.4876 42.4043 31.2715C42.3148 31.0555 42.2687 30.824 42.2687 30.5901C42.2687 30.3563 42.3148 30.1248 42.4043 29.9087C42.4938 29.6927 42.625 29.4964 42.7904 29.3311L43.1844 28.9371C43.3497 28.7718 43.546 28.6405 43.762 28.551C43.978 28.4615 44.2096 28.4155 44.4434 28.4155C44.6772 28.4155 44.9088 28.4615 45.1248 28.551C45.3408 28.6405 45.5371 28.7718 45.7024 28.9371L46.4334 29.6681C46.5069 29.7415 46.5652 29.8287 46.6049 29.9246C46.6447 30.0205 46.6652 30.1233 46.6652 30.2271C46.6652 30.331 46.6447 30.4338 46.6049 30.5297C46.5652 30.6256 46.5069 30.7128 46.4334 30.7861L46.4274 30.7802Z" fill="#2594A2"/>
</svg>
