<svg width="41" height="47" viewBox="0 0 41 47" fill="none" xmlns="http://www.w3.org/2000/svg">
<path d="M40.5677 9.584C40.4929 9.0926 40.2932 8.62868 39.9877 8.23678C39.6822 7.84487 39.2812 7.53813 38.8232 7.346L21.631 0.22C21.2828 0.0747714 20.9092 0 20.532 0C20.1547 0 19.7812 0.0747714 19.4329 0.22L2.23374 7.346C1.77571 7.53813 1.3747 7.84487 1.06921 8.23678C0.763728 8.62868 0.564017 9.0926 0.489248 9.584C-0.254459 14.9625 0.155981 20.4378 1.69321 25.645C2.88118 29.6112 4.78833 33.3247 7.31935 36.6C10.5445 40.6837 14.5634 44.0706 19.1332 46.556C19.5612 46.7934 20.0426 46.918 20.532 46.918C21.0213 46.918 21.5027 46.7934 21.9307 46.556C26.4995 44.0703 30.5173 40.6834 33.7416 36.6C36.2705 33.3252 38.1759 29.6128 39.3627 25.648C40.9009 20.44 41.3117 14.9635 40.5677 9.584ZM38.0498 25.248C35.4711 33.8 29.8219 40.567 21.2593 45.354C21.0364 45.4774 20.7857 45.5422 20.531 45.5422C20.2762 45.5422 20.0255 45.4774 19.8026 45.354C11.239 40.568 5.58985 33.8 3.01107 25.248C1.5307 20.2351 1.13524 14.9639 1.85107 9.786C1.88967 9.52865 1.99389 9.2856 2.15367 9.08031C2.31346 8.87502 2.52342 8.71442 2.76329 8.614L19.9555 1.489C20.1378 1.41281 20.3334 1.37358 20.531 1.37358C20.7285 1.37358 20.9241 1.41281 21.1065 1.489L38.3026 8.614C38.5425 8.71442 38.7524 8.87502 38.9122 9.08031C39.072 9.2856 39.1762 9.52865 39.2148 9.786C39.9307 14.9639 39.5352 20.2351 38.0548 25.248H38.0498Z" fill="#2594A2"/>
<path d="M35.2707 10.5722L28.5515 7.82717C28.4681 7.79309 28.3789 7.77578 28.2888 7.77623C28.1987 7.77668 28.1096 7.79489 28.0266 7.82981C27.9436 7.86472 27.8682 7.91566 27.8048 7.97972C27.7415 8.04378 27.6913 8.11971 27.6573 8.20317C27.5885 8.37171 27.5895 8.56069 27.6599 8.72854C27.7304 8.89638 27.8646 9.02934 28.033 9.09817L34.7522 11.8432C34.9212 11.9119 35.0696 12.0231 35.183 12.166C35.2964 12.309 35.371 12.4789 35.3996 12.6592C35.9713 16.7359 35.655 20.8883 34.4724 24.8312C32.4092 31.5652 27.8981 36.8912 21.054 40.6622C20.8934 40.7492 20.7136 40.7947 20.5309 40.7947C20.3483 40.7947 20.1685 40.7492 20.0079 40.6622C13.1628 36.8912 8.64869 31.5622 6.58847 24.8312C5.40578 20.8883 5.08948 16.7359 5.66127 12.6592C5.68975 12.4788 5.76434 12.3089 5.87778 12.166C5.99122 12.023 6.13967 11.9118 6.30871 11.8432L20.1168 6.20316C20.382 6.09532 20.6789 6.09532 20.9441 6.20316L25.0915 7.89717C25.2599 7.96599 25.4487 7.96504 25.6164 7.89453C25.7841 7.82401 25.917 7.68971 25.9857 7.52117C26.0545 7.35262 26.0536 7.16364 25.9831 6.99579C25.9126 6.82795 25.7785 6.69499 25.6101 6.62617L21.4626 4.93217C20.8654 4.68667 20.1955 4.68667 19.5982 4.93217L5.79016 10.5722C5.40138 10.7313 5.06028 10.9882 4.79996 11.3182C4.53965 11.6481 4.36896 12.0398 4.30445 12.4552C3.70415 16.7345 4.03578 21.0932 5.27661 25.2322C6.2383 28.3936 7.77771 31.3489 9.81669 33.9482C12.4276 37.2029 15.6691 39.8955 19.3465 41.8642C19.7099 42.0622 20.1171 42.166 20.5309 42.166C20.9448 42.166 21.352 42.0622 21.7154 41.8642C25.3928 39.8956 28.6344 37.203 31.2452 33.9482C33.2838 31.3488 34.8228 28.3935 35.7843 25.2322C37.0254 21.0925 37.3571 16.7332 36.7564 12.4532C36.6919 12.0378 36.5212 11.6461 36.2609 11.3162C36.0006 10.9862 35.6595 10.7293 35.2707 10.5702V10.5722Z" fill="#2594A2"/>
<path d="M19.1641 31.782H21.8978C22.3673 31.7828 22.818 31.597 23.1509 31.2656C23.4838 30.9341 23.6716 30.484 23.6732 30.014V26.98C23.6732 26.8739 23.7153 26.7721 23.7903 26.6971C23.8652 26.6221 23.9669 26.58 24.0729 26.58H27.1302C27.5998 26.5808 28.0505 26.3951 28.3834 26.0636C28.7163 25.7321 28.9041 25.2819 28.9057 24.812V22.097C28.9041 21.627 28.7163 21.1769 28.3834 20.8454C28.0505 20.5139 27.5998 20.3282 27.1302 20.329H24.0749C23.9689 20.329 23.8672 20.2868 23.7923 20.2118C23.7173 20.1368 23.6752 20.0351 23.6752 19.929V16.894C23.6736 16.424 23.4858 15.9739 23.1529 15.6424C22.82 15.3109 22.3693 15.1252 21.8998 15.126H19.1661C18.6965 15.1252 18.2458 15.3109 17.913 15.6424C17.5801 15.9739 17.3922 16.424 17.3906 16.894V19.929C17.3906 20.0351 17.3485 20.1368 17.2736 20.2118C17.1986 20.2868 17.097 20.329 16.991 20.329H13.9356C13.4661 20.3282 13.0154 20.5139 12.6825 20.8454C12.3496 21.1769 12.1617 21.627 12.1602 22.097V24.812C12.1619 25.2417 12.3193 25.6562 12.6031 25.9786C12.887 26.3009 13.2781 26.5093 13.7038 26.565C13.8841 26.5884 14.0664 26.5393 14.2105 26.4282C14.3546 26.3172 14.4487 26.1535 14.4722 25.973C14.4956 25.7925 14.4465 25.6101 14.3355 25.4659C14.2246 25.3217 14.061 25.2275 13.8807 25.204C13.7851 25.1917 13.6972 25.1452 13.6331 25.0732C13.569 25.0012 13.5331 24.9084 13.532 24.812V22.097C13.532 21.9909 13.5741 21.8891 13.649 21.8141C13.724 21.7391 13.8256 21.697 13.9316 21.697H16.987C17.4566 21.6978 17.9073 21.512 18.2401 21.1806C18.573 20.8491 18.7609 20.3989 18.7625 19.929V16.894C18.7625 16.7879 18.8046 16.6861 18.8795 16.6111C18.9545 16.5361 19.0561 16.494 19.1621 16.494H21.8958C22.0018 16.494 22.1034 16.5361 22.1784 16.6111C22.2533 16.6861 22.2954 16.7879 22.2954 16.894V19.929C22.297 20.3988 22.4847 20.8488 22.8174 21.1802C23.15 21.5117 23.6005 21.6975 24.0699 21.697H27.1302C27.2362 21.697 27.3379 21.7391 27.4128 21.8141C27.4878 21.8891 27.5299 21.9909 27.5299 22.097V24.812C27.5299 24.9181 27.4878 25.0198 27.4128 25.0948C27.3379 25.1698 27.2362 25.212 27.1302 25.212H24.0749C23.6055 25.2114 23.155 25.3973 22.8224 25.7287C22.4897 26.0602 22.302 26.5102 22.3004 26.98V30.014C22.3004 30.1201 22.2583 30.2218 22.1834 30.2968C22.1084 30.3718 22.0068 30.414 21.9008 30.414H19.1671C19.0611 30.414 18.9595 30.3718 18.8845 30.2968C18.8096 30.2218 18.7675 30.1201 18.7675 30.014V26.98C18.7659 26.51 18.578 26.0599 18.2451 25.7284C17.9123 25.3969 17.4616 25.2112 16.992 25.212C16.8101 25.212 16.6356 25.2843 16.507 25.413C16.3783 25.5418 16.3061 25.7164 16.3061 25.8985C16.3061 26.0805 16.3783 26.2552 16.507 26.3839C16.6356 26.5126 16.8101 26.585 16.992 26.585C17.098 26.585 17.1996 26.6271 17.2746 26.7021C17.3495 26.7772 17.3917 26.8789 17.3917 26.985V30.019C17.3932 30.4889 17.5811 30.9391 17.914 31.2706C18.2468 31.602 18.6975 31.7878 19.1671 31.787L19.1641 31.782Z" fill="#2594A2"/>
</svg>
