<svg width="48" height="47" viewBox="0 0 48 47" fill="none" xmlns="http://www.w3.org/2000/svg">
<path d="M45.0021 23.167V13.817C45.0011 12.7777 44.5881 11.7812 43.8538 11.0463C43.1195 10.3114 42.1239 9.89806 41.0855 9.897H39.7586L40.0534 8.874C40.1675 8.47826 40.2025 8.0639 40.1565 7.65461C40.1104 7.24531 39.9842 6.84912 39.7851 6.48867C39.586 6.12823 39.3178 5.8106 38.9959 5.55396C38.674 5.29733 38.3048 5.1067 37.9092 4.993L29.0259 2.433C28.8262 2.37545 28.6119 2.39964 28.4301 2.50025C28.2482 2.60087 28.1137 2.76966 28.0562 2.9695C27.9987 3.16934 28.0229 3.38386 28.1234 3.56586C28.224 3.74787 28.3926 3.88245 28.5923 3.94L34.1795 5.55C33.8341 6.222 33.6525 6.96627 33.6495 7.72196C33.6466 8.47765 33.8223 9.22332 34.1625 9.898H17.7846V3.724C17.7846 3.51607 17.7021 3.31666 17.5552 3.16963C17.4083 3.0226 17.209 2.94 17.0013 2.94C16.7935 2.94 16.5943 3.0226 16.4474 3.16963C16.3005 3.31666 16.218 3.51607 16.218 3.724V9.897H13.5742V3.724C13.5742 3.51607 13.4917 3.31666 13.3448 3.16963C13.1979 3.0226 12.9987 2.94 12.7909 2.94C12.5832 2.94 12.3839 3.0226 12.237 3.16963C12.0901 3.31666 12.0076 3.51607 12.0076 3.724V9.897H8.58055V3.136C8.58081 2.72013 8.74592 2.32135 9.03964 2.02719C9.33336 1.73304 9.73169 1.56753 10.1472 1.567H23.3648C23.78 1.56806 24.1778 1.7338 24.4711 2.0279C24.7643 2.322 24.9292 2.72048 24.9294 3.136V7.447C24.9294 7.65493 25.012 7.85434 25.1589 8.00137C25.3058 8.1484 25.505 8.231 25.7128 8.231C25.9205 8.231 26.1198 8.1484 26.2667 8.00137C26.4136 7.85434 26.4961 7.65493 26.4961 7.447V3.136C26.4953 2.30487 26.1652 1.50798 25.5782 0.920096C24.9912 0.332211 24.1952 0.0013235 23.3648 0H10.1472C9.31644 0.000794277 8.51993 0.331448 7.9325 0.91939C7.34506 1.50733 7.01469 2.30452 7.0139 3.136V9.897H4.56701C3.52858 9.89806 2.53299 10.3114 1.79871 11.0463C1.06443 11.7812 0.651449 12.7777 0.650391 13.817L0.650391 43.017C0.651449 44.0563 1.06443 45.0528 1.79871 45.7877C2.53299 46.5226 3.52858 46.9359 4.56701 46.937H41.0865C42.1249 46.9359 43.1205 46.5226 43.8548 45.7877C44.5891 45.0528 45.0021 44.0563 45.0031 43.017V37.286C45.0031 37.0781 44.9206 36.8787 44.7737 36.7316C44.6268 36.5846 44.4275 36.502 44.2198 36.502C44.012 36.502 43.8128 36.5846 43.6659 36.7316C43.519 36.8787 43.4365 37.0781 43.4365 37.286V43.019C43.4346 43.6418 43.1863 44.2386 42.7459 44.6787C42.3055 45.1187 41.7088 45.3662 41.0865 45.367H4.56701C3.944 45.3662 3.34674 45.1182 2.90621 44.6772C2.46567 44.2363 2.21783 43.6385 2.21704 43.015V13.817C2.21836 13.1938 2.46643 12.5965 2.90691 12.1561C3.34739 11.7156 3.94435 11.4678 4.56701 11.467H41.0865C41.7095 11.4678 42.3068 11.7158 42.7473 12.1568C43.1878 12.5977 43.4357 13.1955 43.4365 13.819V23.128H36.974C36.1433 23.1288 35.3468 23.4594 34.7593 24.0474C34.1719 24.6353 33.8415 25.4325 33.8408 26.264V30.576C33.8415 31.4075 34.1719 32.2047 34.7593 32.7926C35.3468 33.3806 36.1433 33.7112 36.974 33.712H44.5125C45.343 33.7107 46.139 33.3798 46.726 32.7919C47.313 32.204 47.6431 31.4071 47.6438 30.576V26.262C47.6425 25.5162 47.376 24.7951 46.8919 24.228C46.4079 23.6609 45.738 23.2848 45.0021 23.167ZM35.7201 5.995L37.4716 6.495C37.6693 6.55185 37.8539 6.64715 38.0148 6.77543C38.1757 6.90372 38.3098 7.06248 38.4093 7.24265C38.5089 7.42281 38.572 7.62085 38.5951 7.82544C38.6181 8.03003 38.6007 8.23716 38.5437 8.435L38.1281 9.897H36.0299C35.5583 9.37036 35.2726 8.7033 35.2167 7.99835C35.1607 7.2934 35.3376 6.58956 35.7201 5.995ZM46.0792 30.573C46.0787 30.9887 45.9134 31.3872 45.6198 31.6812C45.3261 31.9751 44.9279 32.1405 44.5125 32.141H36.974C36.5587 32.1405 36.1605 31.9751 35.8668 31.6812C35.5732 31.3872 35.4079 30.9887 35.4074 30.573V26.262C35.4079 25.8463 35.5732 25.4478 35.8668 25.1538C36.1605 24.8599 36.5587 24.6945 36.974 24.694H44.5125C44.9279 24.6945 45.3261 24.8599 45.6198 25.1538C45.9134 25.4478 46.0787 25.8463 46.0792 26.262V30.573ZM39.9115 28.417C39.9115 28.6249 39.829 28.8243 39.6821 28.9714C39.5352 29.1184 39.3359 29.201 39.1282 29.201H37.9532C37.7455 29.201 37.5462 29.1184 37.3993 28.9714C37.2524 28.8243 37.1699 28.6249 37.1699 28.417C37.1699 28.2091 37.2524 28.0097 37.3993 27.8626C37.5462 27.7156 37.7455 27.633 37.9532 27.633H39.1282C39.2311 27.633 39.3331 27.6533 39.4282 27.6928C39.5233 27.7322 39.6097 27.7901 39.6824 27.863C39.7552 27.9359 39.8129 28.0224 39.8522 28.1177C39.8915 28.2129 39.9116 28.315 39.9115 28.418V28.417Z" fill="#2594A2"/>
</svg>
