<svg width="31" height="35" viewBox="0 0 31 35" fill="none" xmlns="http://www.w3.org/2000/svg">
<path d="M3.0717 30.5444H3.0547C2.7787 30.5444 2.50271 30.5444 2.22771 30.5394C2.12938 30.5461 2.03077 30.5315 1.93864 30.4965C1.84651 30.4615 1.76305 30.407 1.69398 30.3367C1.62492 30.2664 1.57186 30.1818 1.5385 30.0891C1.50514 29.9964 1.49226 29.8976 1.50072 29.7994V26.8754C1.50072 24.9267 1.50072 22.9778 1.50072 21.0284C1.50072 19.8284 1.50072 18.6283 1.50072 17.4283V15.6284C1.49188 15.5201 1.50504 15.4111 1.53941 15.308C1.57378 15.2049 1.62863 15.1098 1.7007 15.0284C1.78255 14.9571 1.87772 14.9027 1.9807 14.8684C2.08368 14.8341 2.19244 14.8204 2.3007 14.8284H12.4737V14.8334H14.4207C16.7577 14.8334 19.1737 14.8384 21.5497 14.8164H21.5687C21.8282 14.8194 22.0836 14.8813 22.3158 14.9973C22.5479 15.1134 22.7506 15.2805 22.9087 15.4863C23.4857 16.1143 24.0777 16.7504 24.6507 17.3644L25.5697 18.3514C25.8197 18.6181 26.0687 18.8877 26.3167 19.1604C26.5934 19.4604 26.8707 19.7604 27.1487 20.0604L27.4287 20.3604C27.9527 20.9244 28.4947 21.5084 29.0347 22.0734C29.1729 22.2105 29.2816 22.3745 29.354 22.5553C29.4264 22.7361 29.461 22.9297 29.4557 23.1244C29.4447 24.8244 29.4467 26.5544 29.4497 28.2244C29.4497 28.7444 29.4497 29.2647 29.4497 29.7854C29.4646 29.8884 29.4552 29.9934 29.4222 30.092C29.3893 30.1907 29.3337 30.2803 29.26 30.3536C29.1862 30.427 29.0963 30.4821 28.9975 30.5145C28.8986 30.547 28.7936 30.5558 28.6907 30.5404C28.6257 30.5404 28.5617 30.5404 28.4967 30.5404C28.3887 30.5404 28.2767 30.5404 28.1617 30.5404C28.0671 30.5433 27.973 30.5266 27.8852 30.4913C27.7974 30.4561 27.7178 30.4031 27.6515 30.3357C27.5851 30.2683 27.5334 30.1879 27.4995 30.0996C27.4656 30.0113 27.4504 29.9169 27.4547 29.8224C27.431 29.203 27.2478 28.6002 26.9227 28.0724C26.6538 27.6032 26.2909 27.1947 25.8567 26.8724C25.2051 26.3672 24.4155 26.0718 23.5923 26.0251C22.7691 25.9785 21.9512 26.1829 21.2467 26.6113C20.6556 26.9558 20.1623 27.4457 19.8137 28.0344C19.4806 28.5571 19.289 29.1573 19.2577 29.7764C19.2659 29.8812 19.2508 29.9865 19.2135 30.0848C19.1763 30.1831 19.1178 30.2719 19.0422 30.345C18.9667 30.418 18.8759 30.4736 18.7764 30.5076C18.6769 30.5415 18.5712 30.553 18.4667 30.5414H12.7667C12.6699 30.5515 12.5721 30.5402 12.4801 30.5083C12.3882 30.4764 12.3043 30.4247 12.2345 30.3569C12.1647 30.2891 12.1107 30.2068 12.0761 30.1158C12.0416 30.0249 12.0275 29.9275 12.0347 29.8304C12.0037 29.3586 11.8828 28.8969 11.6787 28.4703C11.4456 27.9244 11.0893 27.4398 10.6377 27.0544C10.3416 26.7909 10.0071 26.5741 9.64571 26.4114C8.97796 26.0909 8.23433 25.9622 7.4977 26.0394C7.09959 26.0866 6.70972 26.1875 6.3387 26.3394C5.68084 26.6099 5.10537 27.0481 4.66969 27.6104C4.44833 27.8904 4.26601 28.1993 4.1277 28.5284C3.94916 28.9596 3.83754 29.4155 3.79671 29.8804C3.79365 29.9719 3.77237 30.0618 3.73408 30.145C3.6958 30.2282 3.6413 30.3029 3.57378 30.3647C3.50625 30.4266 3.42705 30.4744 3.34084 30.5052C3.25462 30.5361 3.16313 30.5494 3.0717 30.5444ZM2.30272 29.7384C2.54272 29.7384 2.78272 29.7384 3.02272 29.7384C3.07422 29.2117 3.20432 28.6956 3.40871 28.2074C3.57559 27.8129 3.79528 27.4428 4.06172 27.1074C4.58471 26.4404 5.27124 25.9199 6.0547 25.5964C6.49259 25.4169 6.95278 25.2974 7.42271 25.2413C8.09916 25.177 8.78161 25.2513 9.42842 25.4595C10.0752 25.6677 10.6728 26.0055 11.1847 26.4524C12.1351 27.2979 12.73 28.472 12.8497 29.7384H18.4667C18.5033 28.9876 18.7335 28.259 19.1347 27.6234C19.5518 26.9182 20.1421 26.3312 20.8497 25.9183C21.6907 25.409 22.6661 25.1661 23.6477 25.2214C24.6294 25.2768 25.5713 25.6278 26.3497 26.2284C26.8711 26.6153 27.3072 27.1054 27.6307 27.6683C28.0115 28.2941 28.2304 29.0048 28.2677 29.7363C28.3437 29.7363 28.4227 29.7363 28.5047 29.7363H28.6607C28.6607 29.2323 28.6607 28.7284 28.6607 28.2244C28.6607 26.5494 28.6557 24.8184 28.6667 23.1144C28.6717 23.0227 28.6565 22.931 28.6219 22.8459C28.5873 22.7609 28.5343 22.6846 28.4667 22.6224C27.9227 22.0524 27.3787 21.4674 26.8537 20.9014L26.5737 20.6014C26.295 20.3014 26.017 20.0014 25.7397 19.7014C25.4917 19.4347 25.2434 19.1657 24.9947 18.8944L24.0777 17.9084C23.5047 17.2934 22.9117 16.6564 22.3317 16.0264C22.2487 15.9031 22.1374 15.8016 22.0071 15.7302C21.8768 15.6589 21.7313 15.6198 21.5827 15.6163H21.5707C19.1907 15.6393 16.7707 15.6364 14.4337 15.6334H12.0867L2.31471 15.6284H2.30971V17.4283C2.30971 18.6283 2.30971 19.8284 2.30971 21.0284C2.30971 22.9778 2.30971 24.9267 2.30971 26.8754L2.30272 29.7384ZM26.1167 23.0984H26.0937H24.4997L21.0467 23.0924H6.80971H6.6967C6.6407 23.0924 6.5847 23.0924 6.5287 23.0924C6.44032 23.0977 6.35181 23.0846 6.26872 23.054C6.18564 23.0234 6.10978 22.9759 6.04591 22.9146C5.98205 22.8532 5.93157 22.7794 5.89763 22.6976C5.86369 22.6159 5.84704 22.5279 5.84871 22.4393C5.84871 22.3613 5.84871 22.2863 5.84871 22.2203C5.84871 22.1893 5.84871 22.1573 5.84871 22.1263V17.2554C5.84062 17.1543 5.85351 17.0526 5.88655 16.9568C5.91959 16.8609 5.97205 16.773 6.04069 16.6984C6.11708 16.6334 6.2058 16.5846 6.3015 16.5547C6.3972 16.5248 6.49793 16.5145 6.5977 16.5244C6.7337 16.5244 6.86972 16.5304 7.00572 16.5304H9.53371C13.1697 16.5304 16.9337 16.5303 20.6277 16.5223H20.6337C20.8479 16.5161 21.0608 16.5589 21.2559 16.6475C21.4511 16.736 21.6234 16.8681 21.7597 17.0334C22.1387 17.4564 22.5407 17.8763 22.9287 18.2823C23.1427 18.5063 23.3567 18.7304 23.5687 18.9554C23.9454 19.3554 24.3207 19.7574 24.6947 20.1614C25.0281 20.52 25.3614 20.8788 25.6947 21.2374C25.9267 21.4844 26.1687 21.7374 26.4027 21.9734L26.5207 22.0934C26.6096 22.1695 26.6743 22.2701 26.7069 22.3826C26.7394 22.495 26.7383 22.6146 26.7037 22.7264C26.6623 22.8456 26.5818 22.9471 26.4751 23.0145C26.3685 23.0819 26.2421 23.1112 26.1167 23.0974V23.0984ZM19.1397 22.2864H21.0467L24.5007 22.2924H25.6007C25.4377 22.1244 25.2727 21.9543 25.1127 21.7823C24.7794 21.4237 24.4444 21.0648 24.1077 20.7054C23.7337 20.3054 23.3591 19.9054 22.9837 19.5054C22.7737 19.2814 22.562 19.0587 22.3487 18.8374C21.9557 18.4264 21.5487 18.0023 21.1617 17.5693C21.1009 17.4879 21.0209 17.4229 20.9287 17.3801C20.8365 17.3374 20.7351 17.3181 20.6337 17.3243C16.9337 17.3353 13.1737 17.3344 9.53371 17.3334H7.00572C6.88772 17.3334 6.76871 17.3334 6.65071 17.3334V22.1334C6.65071 22.1714 6.65071 22.2094 6.65071 22.2474C6.65071 22.2634 6.65071 22.2804 6.65071 22.2964H6.67372H6.81172H19.1397V22.2864Z" fill="#2594A2"/>
<path d="M5.10876 13.9786C4.94507 13.9738 4.78506 13.9289 4.64278 13.8478C4.5005 13.7667 4.38029 13.652 4.29275 13.5136C3.90975 13.0136 3.51175 12.4876 3.07375 11.9006C2.89575 11.6626 2.71909 11.4232 2.54375 11.1825C2.35075 10.9195 2.15675 10.6566 1.96175 10.3956C1.78675 10.1616 1.60277 9.9256 1.42477 9.6956L1.16576 9.36259C1.09399 9.28435 1.04314 9.18925 1.01797 9.0861C0.992792 8.98295 0.994091 8.87514 1.02175 8.77263C1.05941 8.67226 1.12175 8.58302 1.20303 8.51311C1.2843 8.44319 1.38187 8.39484 1.48675 8.3726L1.97277 8.22355C2.57277 8.03855 3.20076 7.84666 3.81176 7.65166C3.99706 7.58141 4.19799 7.56283 4.393 7.59807C4.58801 7.6333 4.76975 7.72096 4.91875 7.85161C5.16475 8.05161 5.42676 8.2336 5.70476 8.4246C5.84276 8.5246 5.98075 8.61554 6.11675 8.71354C6.32409 8.86288 6.53075 9.01295 6.73675 9.16362C6.92608 9.30162 7.11544 9.43925 7.30477 9.57658C7.46077 9.68958 7.61777 9.79957 7.77477 9.91057C7.90277 10.0006 8.03074 10.0909 8.15874 10.1816C8.42074 10.3689 8.6821 10.5579 8.94277 10.7486L8.98476 10.7796L9.16375 10.9126C9.25275 10.9786 9.34277 11.0456 9.43377 11.1126C9.4451 11.1206 9.46943 11.1189 9.50677 11.1076C9.9021 10.9876 10.2974 10.8662 10.6928 10.7436L11.9928 10.3376L12.5198 10.1716L12.4638 10.1036C12.4138 10.0436 12.3638 9.98355 12.3158 9.92155L11.7497 9.19157C11.5497 8.93691 11.3524 8.68263 11.1578 8.42863C10.9958 8.21997 10.8328 8.01194 10.6688 7.80461L10.3018 7.33659L9.80175 6.69365L9.04577 5.72563L8.55376 5.0966L8.19176 4.62956C8.02576 4.41489 7.8591 4.20093 7.69176 3.98759C7.46576 3.69859 7.25676 3.43654 7.05276 3.18754C6.97202 3.10698 6.9127 3.00757 6.88021 2.89824C6.84772 2.7889 6.8431 2.67315 6.86675 2.56157C6.89584 2.45556 6.95378 2.35975 7.03411 2.28471C7.11444 2.20968 7.21403 2.15844 7.32177 2.13664L7.35476 2.12663C7.55476 2.05263 7.75476 1.99464 7.94176 1.93864C8.09476 1.89464 8.24175 1.85253 8.37975 1.80253C8.83475 1.64453 9.30076 1.51459 9.75176 1.38859L9.90575 1.34563C10.0498 1.31436 10.1992 1.31736 10.3418 1.35454C10.4844 1.39171 10.6163 1.46201 10.7268 1.55961L10.7478 1.57463C11.0788 1.80663 11.4268 2.03063 11.7648 2.24663L11.7967 2.26762C11.9897 2.39062 12.1787 2.52055 12.3617 2.64555C12.4777 2.72555 12.5948 2.80461 12.7118 2.88261C12.8924 3.00328 13.0741 3.12295 13.2568 3.24162L13.5998 3.46562L13.9827 3.71855C14.1861 3.85188 14.3898 3.98524 14.5938 4.11857C14.7544 4.22324 14.9154 4.32694 15.0767 4.42961L15.5427 4.72954C15.8107 4.90454 16.0778 5.08159 16.3428 5.25859L16.4058 5.30058L16.9368 5.65458L17.5897 6.08964C17.8477 6.26064 18.1048 6.43261 18.3638 6.60161C18.5198 6.70161 18.6778 6.80166 18.8348 6.90166C18.9918 7.00166 19.1538 7.10164 19.3128 7.20964L19.4458 7.29655C19.6768 7.44655 19.9157 7.60258 20.1457 7.76958C20.1767 7.79257 20.1868 7.79965 20.2558 7.77666C20.4708 7.70466 20.6878 7.63958 20.8978 7.57658C21.1318 7.50558 21.3748 7.43258 21.6058 7.35258C21.8058 7.28358 22.0058 7.22562 22.2058 7.16862C22.4158 7.10762 22.6147 7.04963 22.8057 6.98063C23.0387 6.89863 23.2748 6.82854 23.5058 6.76054C23.6318 6.72354 23.7588 6.68565 23.8838 6.64665C23.9328 6.63065 23.9838 6.61157 24.0308 6.59257C24.1038 6.56457 24.1867 6.53261 24.2757 6.50761C25.0484 6.23515 25.8712 6.13443 26.6868 6.21257C27.2361 6.27434 27.7668 6.44872 28.2458 6.72465C28.6915 7.00912 29.076 7.37966 29.3768 7.81462C29.5305 8.04553 29.6643 8.2891 29.7768 8.54265C29.8098 8.61165 29.8428 8.6796 29.8768 8.7476C29.9454 8.85028 29.9866 8.96875 29.9966 9.09184C30.0066 9.21493 29.985 9.33859 29.9338 9.45097C29.8826 9.56336 29.8035 9.66078 29.7041 9.73405C29.6047 9.80732 29.4882 9.85392 29.3657 9.86955C28.9157 9.98555 28.4598 10.1296 28.0188 10.2696C27.8038 10.3376 27.5888 10.4056 27.3728 10.4696L26.8128 10.6376C26.2388 10.8096 25.6448 10.9876 25.0698 11.1796C24.7638 11.2796 24.4538 11.3796 24.1538 11.4666C23.8168 11.5666 23.4687 11.6746 23.1327 11.7896C22.7667 11.9156 22.3938 12.0226 22.0328 12.1266C21.7328 12.2116 21.4327 12.3006 21.1327 12.3976C20.8847 12.4786 20.6327 12.5566 20.3877 12.6336C20.1937 12.6946 19.9998 12.7546 19.8068 12.8166C19.0348 13.0646 18.2358 13.3166 17.4198 13.5566C17.2698 13.5996 17.1198 13.6477 16.9678 13.6987C16.7248 13.7787 16.4727 13.8606 16.2107 13.9216C16.07 13.9534 15.926 13.9682 15.7818 13.9656H10.8758H10.4758H9.18874C7.82808 13.9656 6.4671 13.9656 5.10577 13.9656L5.10876 13.9786ZM1.94976 9.06865L2.05575 9.20561C2.23575 9.43661 2.42177 9.67557 2.60177 9.91557C2.80177 10.1786 2.99374 10.4446 3.18874 10.7096C3.36341 10.9476 3.53874 11.1849 3.71474 11.4216C4.15074 12.0046 4.54776 12.5307 4.92776 13.0217C5.04276 13.1727 5.07175 13.1697 5.10775 13.1727C6.46975 13.1687 7.83175 13.1687 9.19375 13.1727H10.0798H15.7878C15.8697 13.1749 15.9516 13.1674 16.0318 13.1506C16.2608 13.0966 16.4857 13.0236 16.7237 12.9456C16.8787 12.8946 17.0398 12.8456 17.2028 12.7956C18.0028 12.5636 18.8028 12.3085 19.5668 12.0625C19.7668 11.9995 19.9587 11.9386 20.1547 11.8776C20.3997 11.8016 20.6448 11.7246 20.8888 11.6456C21.1978 11.5456 21.5118 11.4536 21.8158 11.3666C22.1668 11.2666 22.5298 11.1605 22.8768 11.0415C23.2238 10.9225 23.5768 10.8136 23.9258 10.7096C24.2208 10.6206 24.5258 10.5276 24.8208 10.4286C25.4068 10.2286 26.0068 10.0526 26.5868 9.87858L27.1448 9.71062C27.3578 9.64662 27.5698 9.57854 27.7818 9.51054C28.2288 9.36954 28.6917 9.22258 29.1587 9.10258C29.1247 9.03458 29.0918 8.96565 29.0588 8.89665C28.9637 8.6833 28.8509 8.47822 28.7218 8.28361C28.4837 7.9346 28.1776 7.63729 27.8218 7.40959C27.4362 7.19191 27.0101 7.05574 26.5698 7.00957C25.8662 6.95303 25.1587 7.04614 24.4938 7.28264C24.4418 7.29764 24.3828 7.31955 24.3218 7.34355C24.2608 7.36755 24.1918 7.39359 24.1218 7.41459C23.9918 7.45559 23.8608 7.49464 23.7308 7.53264C23.5018 7.60064 23.2858 7.66455 23.0718 7.73955C22.8578 7.81455 22.6358 7.87962 22.4238 7.93962C22.2298 7.99562 22.0468 8.04962 21.8648 8.11162C21.6188 8.19562 21.3648 8.27165 21.1278 8.34465C20.9278 8.40665 20.7108 8.47062 20.5068 8.53862C20.3688 8.59047 20.22 8.60678 20.074 8.58598C19.9281 8.56518 19.7897 8.50793 19.6717 8.4196C19.4577 8.2646 19.2378 8.11965 19.0058 7.96965L18.8718 7.88261C18.7158 7.78261 18.5577 7.68256 18.4007 7.58256C18.2437 7.48256 18.0818 7.38258 17.9228 7.27458C17.6618 7.10358 17.4028 6.93059 17.1428 6.75859L16.4898 6.32365L15.9598 5.97062L15.8968 5.92961C15.6318 5.75361 15.3668 5.57758 15.0968 5.40458L14.6358 5.10454L14.1478 4.79057C13.9418 4.65724 13.7364 4.52221 13.5318 4.38554L13.1507 4.13359L12.8097 3.91057C12.6257 3.79057 12.4421 3.66965 12.2588 3.54765C12.1388 3.46765 12.0197 3.38659 11.9007 3.30559C11.7217 3.18359 11.5378 3.0576 11.3548 2.9406L11.3227 2.92058C10.9787 2.69958 10.6228 2.47154 10.2778 2.22954L10.2548 2.21354C10.2072 2.17716 10.1563 2.14538 10.1027 2.11857L9.95776 2.15959C9.51876 2.28159 9.06475 2.40861 8.63375 2.55961C8.47275 2.61561 8.31176 2.65956 8.15676 2.70756C8.02676 2.74556 7.90075 2.78155 7.77975 2.82255C7.95275 3.03655 8.12777 3.2556 8.31277 3.4926C8.48077 3.70726 8.64743 3.92259 8.81277 4.13859L9.17275 4.60356L9.66375 5.23161L10.4208 6.20158L10.9208 6.84355L11.2868 7.30961C11.4508 7.51828 11.6144 7.72723 11.7778 7.93657L12.3708 8.70158L12.9347 9.42961C12.9777 9.48361 13.0218 9.53762 13.0658 9.59062C13.1603 9.7004 13.2487 9.81523 13.3308 9.93461C13.3894 10.0103 13.429 10.0988 13.4464 10.1929C13.4638 10.287 13.4584 10.384 13.4307 10.4756C13.3964 10.5672 13.3407 10.6494 13.2684 10.7153C13.1961 10.7811 13.1092 10.8288 13.0148 10.8545C12.9728 10.8685 12.9308 10.8816 12.8888 10.8936L12.8308 10.9106L12.2178 11.1026L10.9177 11.5086C10.5177 11.6319 10.1204 11.7539 9.72576 11.8746C9.59939 11.9193 9.4642 11.9337 9.33126 11.9163C9.19832 11.8989 9.07137 11.8503 8.96075 11.7746C8.86075 11.7066 8.76775 11.6346 8.67174 11.5636L8.49975 11.4366L8.45776 11.4056C8.19842 11.2176 7.93876 11.0299 7.67876 10.8426L7.29977 10.5746C7.13977 10.4616 6.98077 10.3496 6.82177 10.2356C6.63044 10.0976 6.43975 9.95896 6.24975 9.81962C6.04508 9.67029 5.84009 9.52127 5.63476 9.3726C5.50276 9.2776 5.36876 9.18557 5.23476 9.09257C4.95676 8.90057 4.66876 8.70263 4.39776 8.48063C4.35197 8.43491 4.29296 8.40462 4.22909 8.39421C4.16521 8.3838 4.09971 8.39382 4.04177 8.42265C3.42677 8.62265 2.79975 8.8116 2.19375 8.9976L1.94976 9.06865Z" fill="#2594A2" stroke="#2594A2"/>
<path d="M23.3636 33.6795C22.894 33.6874 22.4276 33.6017 21.9915 33.4275C21.5554 33.2533 21.1583 32.994 20.8235 32.6647C20.4886 32.3354 20.2227 31.9428 20.0411 31.5097C19.8596 31.0765 19.7661 30.6116 19.7661 30.142C19.7661 29.6724 19.8596 29.2074 20.0411 28.7743C20.2227 28.3412 20.4886 27.9485 20.8235 27.6193C21.1583 27.29 21.5554 27.0307 21.9915 26.8565C22.4276 26.6822 22.894 26.5966 23.3636 26.6045C23.8314 26.602 24.2951 26.6922 24.7278 26.87C25.1606 27.0478 25.5537 27.3098 25.8846 27.6405C26.2142 27.9678 26.4754 28.3573 26.6529 28.7865C26.8304 29.2157 26.9207 29.676 26.9186 30.1405C26.9143 31.081 26.5379 31.9815 25.8715 32.6453C25.2052 33.309 24.3031 33.682 23.3626 33.6825L23.3636 33.6795ZM23.3636 27.4065C23 27.3996 22.6386 27.4652 22.3006 27.5995C21.9626 27.7338 21.6548 27.9343 21.3952 28.189C21.1356 28.4437 20.9294 28.7476 20.7886 29.0829C20.6478 29.4182 20.5753 29.7783 20.5753 30.142C20.5753 30.5057 20.6478 30.8657 20.7886 31.2011C20.9294 31.5364 21.1356 31.8403 21.3952 32.095C21.6548 32.3497 21.9626 32.5501 22.3006 32.6845C22.6386 32.8188 23 32.8844 23.3636 32.8775C24.0919 32.8777 24.7907 32.5895 25.307 32.0758C25.8233 31.5621 26.1152 30.8648 26.1186 30.1365C26.1196 29.778 26.0494 29.4228 25.9121 29.0917C25.7748 28.7605 25.573 28.46 25.3186 28.2074C25.0621 27.9515 24.7575 27.7491 24.4222 27.6116C24.087 27.4741 23.7279 27.4044 23.3656 27.4065H23.3636Z" fill="#2594A2" stroke="#2594A2"/>
<path d="M7.93387 33.6835C7.01251 33.677 6.12939 33.3143 5.46936 32.6714C4.80933 32.0285 4.42356 31.1553 4.39285 30.2344C4.37817 29.7712 4.45657 29.3099 4.62335 28.8776C4.79013 28.4452 5.04193 28.0507 5.36386 27.7174C5.68763 27.3712 6.07789 27.0939 6.51132 26.902C6.94475 26.7101 7.41245 26.6075 7.88641 26.6005C8.36038 26.5935 8.83089 26.6822 9.2698 26.8612C9.70871 27.0403 10.107 27.306 10.4409 27.6425C10.7715 27.9694 11.034 28.3587 11.213 28.7879C11.3921 29.217 11.4841 29.6775 11.4839 30.1425C11.4768 31.0635 11.1136 31.9461 10.4703 32.6052C9.82695 33.2644 8.95347 33.6491 8.03287 33.6785L7.93387 33.6835ZM7.91986 27.4025H7.90787C7.53903 27.4081 7.17508 27.4877 6.83768 27.6369C6.50028 27.786 6.19633 28.0014 5.94388 28.2704C5.69547 28.526 5.50096 28.8289 5.37195 29.1612C5.24293 29.4934 5.18204 29.8482 5.19287 30.2045V30.2184C5.20193 30.5725 5.2809 30.9214 5.42523 31.2449C5.56956 31.5684 5.7764 31.8601 6.03387 32.1034C6.29406 32.3589 6.60301 32.5594 6.94232 32.6929C7.28164 32.8264 7.64438 32.8901 8.00888 32.8804C8.72103 32.8582 9.39695 32.5614 9.89505 32.0519C10.3931 31.5424 10.6748 30.86 10.6809 30.1475C10.6814 29.7874 10.6103 29.4308 10.4718 29.0984C10.3333 28.766 10.13 28.4645 9.87387 28.2114C9.61751 27.9545 9.3129 27.7508 8.97757 27.612C8.64224 27.4731 8.28279 27.402 7.91986 27.4025Z" fill="#2594A2" stroke="#2594A2"/>
</svg>
