<svg width="47" height="47" viewBox="0 0 47 47" fill="none" xmlns="http://www.w3.org/2000/svg">
<path d="M23.7124 0.500314H41.9204C42.2961 0.474593 42.6728 0.529438 43.0255 0.661203C43.3782 0.792967 43.6987 0.998584 43.9655 1.26429C44.2322 1.53 44.4391 1.84968 44.5722 2.20185C44.7054 2.55403 44.7617 2.93062 44.7374 3.30634C44.7374 9.94634 44.7374 16.5866 44.7374 23.2273C44.7374 23.7543 44.7375 23.7543 45.2495 23.7553C45.4945 23.7553 45.7404 23.7453 45.9854 23.7553C46.1572 23.7483 46.3247 23.8095 46.4514 23.9257C46.5781 24.0419 46.6537 24.2036 46.6615 24.3753C46.6785 25.4853 46.7235 26.5973 46.6405 27.7053C46.5865 28.3054 46.3062 28.8624 45.8565 29.2633C45.7115 29.4013 45.6485 29.4833 45.8175 29.6633C46.1097 29.9749 46.3364 30.3418 46.4843 30.7426C46.6322 31.1433 46.6982 31.5696 46.6784 31.9963C46.6718 36.505 46.6718 41.0136 46.6784 45.5223C46.6784 46.2683 46.4505 46.5013 45.7135 46.5013H25.5315C24.8945 46.5013 24.7315 46.3743 24.5315 45.7583C24.0595 44.2833 23.5835 42.8103 23.1145 41.3353C22.8884 40.6063 22.9364 39.8199 23.2495 39.1238C23.5625 38.4277 24.1191 37.8699 24.8145 37.5553C24.8385 37.5453 24.8634 37.5383 24.8864 37.5273C25.1994 37.3773 25.6434 37.3763 25.8194 37.1053C25.9954 36.8343 25.8754 36.4053 25.8764 36.0413C25.8764 34.1943 25.8654 32.3463 25.8884 30.4993C25.8934 30.0993 25.7764 30.0073 25.3884 30.0083C18.1438 30.0196 10.8995 30.0233 3.65548 30.0193C3.05978 30.0574 2.46608 29.9183 1.94942 29.6193C1.56522 29.3878 1.24792 29.0602 1.02858 28.6689C0.809253 28.2776 0.695461 27.8359 0.698445 27.3873C0.678445 26.4443 0.690445 25.5013 0.698445 24.5583C0.698445 24.0133 0.964438 23.7633 1.51644 23.7583C1.80044 23.7583 2.08543 23.7483 2.36843 23.7583C2.57443 23.7673 2.64742 23.6803 2.63442 23.4843C2.62542 23.3433 2.63442 23.2003 2.63442 23.0583C2.63442 16.4583 2.63442 9.85831 2.63442 3.25831C2.61776 2.89218 2.67768 2.52663 2.81026 2.18495C2.94285 1.84326 3.14519 1.53294 3.40444 1.27387C3.66369 1.01481 3.97416 0.812643 4.31594 0.680307C4.65772 0.54797 5.02331 0.488394 5.38942 0.505319C11.5001 0.501319 17.6078 0.499647 23.7124 0.500314ZM23.7254 1.9253H5.44545C5.25787 1.89996 5.06697 1.91831 4.88765 1.97895C4.70834 2.03959 4.54546 2.14086 4.41176 2.27485C4.27806 2.40884 4.17715 2.57197 4.1169 2.75141C4.05665 2.93086 4.03872 3.12181 4.06447 3.30933C4.06447 9.872 4.06447 16.4347 4.06447 22.9973C4.06447 23.1393 4.07447 23.2823 4.06447 23.4233C4.04247 23.6673 4.12647 23.7763 4.38747 23.7593C4.68747 23.7403 4.98146 23.7593 5.27846 23.7593H20.6124C21.1664 23.7593 21.4504 23.9493 21.4804 24.4213C21.4994 24.7213 21.6354 24.7443 21.8704 24.7433C23.0704 24.7363 24.2704 24.7303 25.4704 24.7433C25.7924 24.7433 25.8885 24.6513 25.8855 24.3293C25.8715 22.6293 25.8745 20.9193 25.8795 19.2133C25.863 18.658 25.9949 18.1084 26.2617 17.6211C26.5285 17.1338 26.9205 16.7265 27.3972 16.4412C27.8739 16.1559 28.418 16.0029 28.9735 15.998C29.529 15.9931 30.0758 16.1365 30.5575 16.4133C30.6295 16.4626 30.7158 16.4869 30.803 16.4826C30.8902 16.4782 30.9736 16.4455 31.0404 16.3893C31.4076 16.1425 31.8391 16.0087 32.2815 16.0043C34.2955 15.9983 36.3104 15.9863 38.3244 16.0043C39.0264 16.0343 39.6878 16.3419 40.163 16.8595C40.6383 17.3771 40.8884 18.0623 40.8584 18.7643C40.8284 19.4663 40.5209 20.1277 40.0033 20.6029C39.4857 21.0781 38.8005 21.3283 38.0985 21.2983C36.2258 21.3063 34.3535 21.3043 32.4815 21.2923C32.2105 21.2923 32.1194 21.3543 32.1284 21.6303C32.1464 22.1983 32.1554 22.7683 32.1284 23.3303C32.1104 23.6863 32.2434 23.7543 32.5714 23.7533C36.0061 23.742 39.4394 23.742 42.8714 23.7533C43.2334 23.7533 43.3174 23.6463 43.3164 23.2993C43.3071 16.6593 43.3048 10.019 43.3095 3.3783C43.3095 2.3533 42.8704 1.91334 41.8524 1.91334L23.7254 1.9253ZM27.3034 28.9853C27.3034 32.2793 27.3034 35.5736 27.3034 38.8683C27.3034 39.3783 27.0544 39.6773 26.6334 39.6983C26.2124 39.7193 25.9254 39.4633 25.8864 38.9513C25.8694 38.7223 25.8015 38.7023 25.6035 38.7663C25.1674 38.9042 24.8039 39.2096 24.5929 39.6154C24.382 40.0212 24.3408 40.4942 24.4785 40.9303C24.8785 42.1983 25.2924 43.4603 25.6784 44.7303C25.6877 44.7857 25.7079 44.8387 25.7378 44.8863C25.7676 44.9339 25.8065 44.9751 25.8523 45.0076C25.8981 45.0401 25.9499 45.0633 26.0047 45.0758C26.0594 45.0882 26.1161 45.0898 26.1715 45.0803C32.3955 45.0723 38.6195 45.0723 44.8435 45.0803C45.1685 45.0803 45.2524 44.9863 45.2514 44.6673C45.2414 40.404 45.2391 36.1407 45.2445 31.8773C45.2575 31.6446 45.2229 31.4116 45.143 31.1926C45.063 30.9736 44.9392 30.7732 44.7792 30.6036C44.6192 30.434 44.4263 30.2989 44.2124 30.2063C43.9984 30.1138 43.7678 30.0658 43.5346 30.0653C43.3015 30.0648 43.0707 30.1118 42.8563 30.2035C42.642 30.2952 42.4486 30.4296 42.2879 30.5985C42.1272 30.7674 42.0026 30.9673 41.9217 31.186C41.8408 31.4046 41.8054 31.6375 41.8175 31.8703C41.8085 33.0843 41.8175 34.2993 41.8175 35.5133C41.8175 36.0433 41.8264 36.5733 41.8104 37.1023C41.8103 37.1899 41.7927 37.2766 41.7587 37.3573C41.7246 37.438 41.6748 37.5111 41.6121 37.5723C41.5494 37.6335 41.4751 37.6816 41.3936 37.7137C41.3121 37.7458 41.225 37.7613 41.1375 37.7593C41.047 37.7652 40.9562 37.7529 40.8707 37.7228C40.7851 37.6928 40.7066 37.6458 40.6397 37.5846C40.5728 37.5234 40.519 37.4493 40.4815 37.3668C40.444 37.2842 40.4236 37.195 40.4215 37.1043C40.4125 36.9883 40.4215 36.8723 40.4215 36.7553C40.4215 35.166 40.4215 33.577 40.4215 31.9883C40.4276 31.7425 40.3938 31.4973 40.3214 31.2623C40.205 30.8691 39.9504 30.5311 39.6044 30.3108C39.2584 30.0905 38.8445 30.0028 38.4389 30.0637C38.0333 30.1246 37.6634 30.33 37.3974 30.6422C37.1314 30.9544 36.9873 31.3522 36.9915 31.7623C36.9785 33.1623 36.9865 34.5523 36.9915 35.9473C37.0045 36.0631 36.9926 36.1802 36.9566 36.291C36.9205 36.4017 36.8611 36.5034 36.7824 36.5893C36.6846 36.6946 36.5557 36.766 36.4145 36.793C36.2733 36.82 36.1272 36.8012 35.9975 36.7393C35.8546 36.6759 35.7355 36.5687 35.6577 36.4331C35.5798 36.2975 35.5472 36.1407 35.5645 35.9853C35.5645 34.2673 35.5715 32.5493 35.5645 30.8303C35.5764 30.3999 35.4246 29.981 35.1397 29.6582C34.8548 29.3354 34.458 29.1326 34.0295 29.091C33.601 29.0494 33.1725 29.1719 32.8308 29.4338C32.4891 29.6958 32.2595 30.0777 32.1884 30.5023C32.1537 30.6792 32.1373 30.8591 32.1394 31.0393C32.1394 32.7183 32.1395 34.3983 32.1325 36.0773C32.1378 36.1714 32.1237 36.2655 32.0913 36.354C32.0588 36.4424 32.0086 36.5232 31.9436 36.5914C31.8787 36.6596 31.8004 36.7138 31.7137 36.7506C31.627 36.7874 31.5337 36.806 31.4395 36.8053C31.3457 36.8054 31.2528 36.7866 31.1664 36.75C31.08 36.7135 31.0018 36.6599 30.9365 36.5926C30.8712 36.5252 30.8201 36.4455 30.7863 36.358C30.7524 36.2705 30.7365 36.1771 30.7395 36.0833C30.7345 35.9673 30.7395 35.8513 30.7395 35.7343C30.7395 30.257 30.7395 24.7796 30.7395 19.3023C30.7536 19.0238 30.7033 18.7457 30.5922 18.4899C30.4812 18.234 30.3126 18.0073 30.0994 17.8273C29.8634 17.6116 29.5675 17.4725 29.2508 17.4284C28.9341 17.3843 28.6114 17.4373 28.3255 17.5803C28.0123 17.7105 27.7467 17.9338 27.5648 18.22C27.3828 18.5063 27.2933 18.8415 27.3084 19.1803C27.3064 22.445 27.3078 25.713 27.3125 28.9843L27.3034 28.9853ZM14.4594 28.6143H18.1765C20.6025 28.6143 23.0295 28.6073 25.4555 28.6223C25.8005 28.6223 25.9035 28.5223 25.8855 28.1833C25.8585 27.6683 25.8794 27.1503 25.8784 26.6343C25.8784 26.1343 25.8785 26.1343 25.3665 26.1343C23.8665 26.1343 22.3724 26.1343 20.8754 26.1343C20.4154 26.1343 20.1154 25.9413 20.0944 25.5543C20.0734 25.1673 19.8815 25.1773 19.6015 25.1773C14.2841 25.182 8.96677 25.182 3.64943 25.1773C3.24943 25.1773 2.84942 25.1893 2.44942 25.1773C2.20342 25.1673 2.10646 25.2433 2.11446 25.5033C2.13146 26.0323 2.11447 26.5623 2.11947 27.0913C2.11947 28.1613 2.57545 28.6133 3.65645 28.6133L14.4594 28.6143ZM38.7265 25.1813C36.6875 25.1813 34.6484 25.1933 32.6104 25.1713C32.2034 25.1713 32.1105 25.2933 32.1245 25.6713C32.1535 26.3713 32.1435 27.0653 32.1245 27.7623C32.1185 28.0793 32.1564 28.1703 32.4964 28.0073C32.9596 27.7552 33.4841 27.6377 34.0105 27.6681C34.537 27.6985 35.0444 27.8756 35.4754 28.1793C35.9413 28.5177 36.5156 28.6725 37.0885 28.6143C37.2685 28.6013 37.4495 28.6143 37.6305 28.6143C39.6824 28.6143 41.7341 28.6143 43.7854 28.6143C43.9825 28.6435 44.1836 28.6263 44.3729 28.5643C44.5623 28.5023 44.7345 28.3971 44.8762 28.257C45.0178 28.1169 45.1249 27.9458 45.189 27.7572C45.2531 27.5686 45.2724 27.3677 45.2454 27.1703C45.2454 26.6413 45.2255 26.1103 45.2525 25.5823C45.2695 25.2523 45.1525 25.1733 44.8385 25.1763C42.8125 25.1873 40.7705 25.1773 38.7315 25.1773L38.7265 25.1813ZM35.3264 17.4293C34.3844 17.4293 33.4425 17.4293 32.4995 17.4293C32.306 17.4197 32.1129 17.4538 31.9345 17.5293C31.8085 17.5883 31.7604 17.6713 31.8344 17.8053C32.0885 18.3316 32.1923 18.9178 32.1344 19.4993C32.1184 19.7933 32.2514 19.8823 32.5244 19.8813C34.4084 19.8753 36.2934 19.8813 38.1774 19.8733C38.3422 19.8783 38.5062 19.85 38.6597 19.7901C38.8133 19.7302 38.953 19.6399 39.0708 19.5246C39.1886 19.4093 39.2819 19.2715 39.3451 19.1193C39.4083 18.9671 39.4401 18.8037 39.4386 18.6389C39.4371 18.4741 39.4024 18.3113 39.3364 18.1602C39.2705 18.0092 39.1748 17.873 39.055 17.7599C38.9351 17.6468 38.7937 17.559 38.6391 17.5018C38.4845 17.4447 38.3201 17.4193 38.1555 17.4273C37.2125 17.4263 36.2725 17.4293 35.3305 17.4283L35.3264 17.4293Z" fill="#2594A2"/>
<path d="M8.34564 32.3625C9.6363 32.3625 10.9267 32.3625 12.2167 32.3625C13.0721 32.3494 13.9043 32.6414 14.564 33.1862C15.2236 33.731 15.6677 34.493 15.8166 35.3355C15.8504 35.5524 15.9669 35.7477 16.1417 35.8804C17.227 36.7764 18.3103 37.6765 19.3917 38.5805C19.5116 38.6447 19.6122 38.7396 19.6834 38.8555C19.7546 38.9714 19.7938 39.1042 19.7968 39.2402C19.7999 39.3761 19.7667 39.5106 19.7008 39.6296C19.6349 39.7486 19.5385 39.8478 19.4216 39.9174C18.3496 40.9074 17.2743 41.8938 16.1957 42.8765C15.9894 43.0513 15.8513 43.2931 15.8057 43.5595C15.6479 44.3933 15.2017 45.145 14.5453 45.6829C13.889 46.2208 13.0642 46.5107 12.2156 46.5015C9.62163 46.5015 7.02765 46.5015 4.43365 46.5015C3.95333 46.5078 3.47658 46.4181 3.03125 46.2381C2.58591 46.058 2.18091 45.7911 1.8399 45.4528C1.49889 45.1145 1.22868 44.7116 1.0451 44.2677C0.861516 43.8238 0.768193 43.3478 0.770625 42.8675C0.763958 40.5735 0.763958 38.2791 0.770625 35.9844C0.767962 35.5076 0.86008 35.0351 1.04156 34.5942C1.22304 34.1532 1.49029 33.7527 1.82781 33.4159C2.16534 33.0792 2.56642 32.8127 3.00775 32.6322C3.44907 32.4517 3.92188 32.3607 4.39868 32.3644C5.71268 32.3611 7.0283 32.3605 8.34564 32.3625ZM8.31964 45.0624C9.6103 45.0624 10.9007 45.0624 12.1907 45.0624C12.764 45.0737 13.3194 44.862 13.7398 44.472C14.1602 44.0819 14.4129 43.5441 14.4446 42.9715C14.4499 42.8168 14.4876 42.665 14.5555 42.5259C14.6234 42.3869 14.7199 42.2637 14.8386 42.1645C15.7946 41.2985 16.7386 40.4155 17.6946 39.5545C17.9216 39.3545 17.9596 39.2465 17.6946 39.0335C16.7396 38.2675 15.8096 37.4694 14.8616 36.6934C14.7368 36.6015 14.6346 36.4826 14.5625 36.3454C14.4904 36.2082 14.4505 36.0563 14.4457 35.9014C14.4192 35.3212 14.167 34.7744 13.7429 34.3776C13.3187 33.9808 12.7563 33.7654 12.1757 33.7775C9.60832 33.7728 7.04164 33.7728 4.47564 33.7775C4.18096 33.7667 3.88715 33.8155 3.61181 33.9211C3.33647 34.0266 3.08527 34.1867 2.87329 34.3916C2.66131 34.5966 2.4929 34.8423 2.37817 35.1139C2.26344 35.3856 2.20475 35.6776 2.20562 35.9725C2.17962 38.2791 2.17962 40.5861 2.20562 42.8935C2.20571 43.1848 2.26446 43.473 2.37835 43.7411C2.49225 44.0093 2.65899 44.2517 2.86859 44.454C3.07818 44.6563 3.32634 44.8144 3.59832 44.9187C3.8703 45.0231 4.16052 45.0716 4.45166 45.0614C5.73866 45.0634 7.02964 45.0614 8.31964 45.0614V45.0624Z" fill="#2594A2"/>
<path d="M15.1126 21.4932H7.5686C6.7836 21.4932 6.5686 21.2772 6.5686 20.4932C6.5686 16.3886 6.5686 12.2842 6.5686 8.18023C6.54939 7.68016 6.63365 7.18151 6.81609 6.71551C6.99854 6.24951 7.27521 5.8262 7.62884 5.4721C7.98247 5.118 8.40545 4.84071 8.87121 4.65765C9.33696 4.47458 9.83547 4.38972 10.3356 4.40826C13.5402 4.40826 16.7452 4.40826 19.9506 4.40826C20.4377 4.39922 20.9216 4.48824 21.3736 4.67004C21.8257 4.85184 22.2365 5.12269 22.5817 5.46649C22.9269 5.81028 23.1994 6.22 23.383 6.67126C23.5666 7.12252 23.6576 7.60612 23.6506 8.09326C23.6539 12.2266 23.6539 16.3569 23.6506 20.4842C23.6506 21.2702 23.4346 21.4902 22.6576 21.4902L15.1126 21.4932ZM8.07555 12.9192C8.7291 12.4646 9.50746 12.2235 10.3036 12.2292C10.4766 12.2292 10.4776 12.1082 10.4776 11.9872C10.4776 11.6352 10.4716 11.2872 10.4776 10.9312C10.4901 10.2388 10.7724 9.57874 11.2643 9.09143C11.7563 8.60411 12.4191 8.32814 13.1116 8.32226C14.4406 8.31626 15.7706 8.32226 17.0996 8.32226C17.585 8.32047 18.0605 8.45937 18.4686 8.72222C18.9168 9.00816 19.2744 9.41578 19.4994 9.89746C19.7245 10.3791 19.8078 10.915 19.7396 11.4423C19.7286 11.6853 19.6446 11.9743 19.7856 12.1663C19.9146 12.3423 20.2036 12.1953 20.4146 12.2573C20.4394 12.2645 20.4649 12.2695 20.4906 12.2722C21.0966 12.3711 21.6742 12.5989 22.1846 12.9402C22.1936 12.7662 22.2056 12.6402 22.2056 12.5172C22.2056 11.0705 22.2056 9.62391 22.2056 8.17724C22.2237 7.86671 22.1758 7.55589 22.0649 7.26525C21.9541 6.97461 21.7829 6.71076 21.5626 6.49114C21.3423 6.27153 21.078 6.1011 20.787 5.99114C20.496 5.88119 20.185 5.83416 19.8746 5.85321C16.6819 5.85321 13.4889 5.85321 10.2956 5.85321C9.99175 5.83998 9.68847 5.8899 9.4049 5.99981C9.12133 6.10972 8.86363 6.27722 8.64806 6.49176C8.4325 6.70629 8.26373 6.96323 8.15246 7.24627C8.04119 7.52931 7.98982 7.83233 8.00158 8.13623C7.99825 9.59623 7.99825 11.0559 8.00158 12.5153C7.97771 12.6548 8.00389 12.7982 8.07555 12.9202V12.9192ZM15.1106 20.0552C17.3256 20.0552 19.5406 20.0492 21.7566 20.0612C22.0946 20.0612 22.2465 19.9982 22.2215 19.6172C22.1889 19.0968 22.1889 18.5747 22.2215 18.0543C22.2425 17.6883 22.1466 17.5662 21.7556 17.5712C19.9186 17.5932 18.0806 17.5812 16.2436 17.5812C13.6763 17.5812 11.1096 17.5812 8.54357 17.5812C7.95257 17.5812 8.01357 17.5072 8.00957 18.1332C8.00957 18.6022 8.00957 19.0712 8.00957 19.5402C8.00957 20.0522 8.00957 20.0522 8.50957 20.0522L15.1106 20.0552ZM15.0686 16.1453C17.3216 16.1453 19.5746 16.1392 21.8276 16.1512C22.1386 16.1512 22.2276 16.0602 22.2136 15.7512C22.1816 15.2068 21.9495 14.6934 21.5618 14.3097C21.1742 13.9261 20.6583 13.6994 20.1136 13.6732C16.7802 13.6619 13.4469 13.6619 10.1136 13.6732C9.57481 13.6981 9.06366 13.9188 8.67608 14.2939C8.28849 14.6689 8.05114 15.1726 8.0086 15.7103C7.9826 16.0543 8.08257 16.1532 8.43157 16.1502C10.6406 16.1372 12.8546 16.1432 15.0686 16.1432V16.1453ZM15.0846 12.2322C15.7616 12.2322 16.4386 12.2442 17.1156 12.2322C17.4996 12.2232 18.0156 12.4112 18.2336 12.1442C18.4516 11.8772 18.3045 11.3693 18.2945 10.9683C18.2939 10.8084 18.2615 10.6502 18.1992 10.503C18.1368 10.3558 18.0458 10.2225 17.9314 10.1108C17.817 9.99915 17.6816 9.91135 17.533 9.85253C17.3843 9.79372 17.2254 9.76506 17.0656 9.76824C15.7636 9.76091 14.4616 9.76091 13.1596 9.76824C12.9963 9.76473 12.8341 9.79417 12.6824 9.85479C12.5308 9.91541 12.3929 10.0059 12.2771 10.121C12.1613 10.2361 12.0698 10.3734 12.0082 10.5247C11.9466 10.6759 11.9161 10.8379 11.9186 11.0012C11.9106 11.3012 11.9336 11.6012 11.9116 11.9012C11.8896 12.2012 12.0116 12.2512 12.2716 12.2472C13.2096 12.2262 14.1476 12.2342 15.0846 12.2332V12.2322Z" fill="#2594A2"/>
<path d="M33.2865 4.41036C35.5131 4.41036 37.7398 4.41036 39.9665 4.41036C40.0961 4.3964 40.2272 4.41433 40.3484 4.46261C40.4695 4.51089 40.577 4.58803 40.6615 4.68734C40.7314 4.77773 40.7785 4.88358 40.7989 4.996C40.8193 5.10841 40.8125 5.22408 40.7788 5.33328C40.7452 5.44247 40.6859 5.54198 40.6057 5.62344C40.5256 5.70489 40.4271 5.76593 40.3184 5.80136C40.1558 5.84632 39.9867 5.86291 39.8184 5.85037H26.6905C26.5733 5.85497 26.456 5.85125 26.3394 5.83932C26.1554 5.82275 25.9849 5.73548 25.8639 5.59579C25.7428 5.4561 25.6807 5.27493 25.6905 5.09036C25.697 4.90556 25.7764 4.73086 25.9113 4.6044C26.0462 4.47793 26.2257 4.40997 26.4105 4.41537C26.6315 4.40537 26.8535 4.41537 27.0745 4.41537L33.2865 4.41036Z" fill="#2594A2"/>
<path d="M31.8945 12.1252C33.6545 12.1252 35.4141 12.1252 37.1735 12.1252C37.6555 12.1252 37.9314 12.3483 37.9734 12.7483C37.989 12.8354 37.9871 12.9248 37.968 13.0112C37.9489 13.0976 37.9129 13.1794 37.8621 13.2519C37.8112 13.3244 37.7466 13.3861 37.6718 13.4336C37.5971 13.481 37.5137 13.5131 37.4265 13.5282C37.2861 13.5551 37.1432 13.5662 37.0004 13.5612C33.6004 13.5612 30.1981 13.5612 26.7935 13.5612C26.7285 13.5612 26.6634 13.5612 26.5934 13.5612C26.492 13.5694 26.3899 13.5564 26.2936 13.5233C26.1973 13.4903 26.1089 13.4377 26.0338 13.3689C25.9587 13.3001 25.8987 13.2167 25.8573 13.1236C25.8159 13.0306 25.7942 12.93 25.7935 12.8282C25.7954 12.7269 25.8187 12.6272 25.8619 12.5355C25.905 12.4438 25.9671 12.3622 26.0439 12.2962C26.1207 12.2301 26.2106 12.1809 26.3077 12.152C26.4049 12.1231 26.507 12.115 26.6074 12.1283C28.3728 12.1236 30.1351 12.1225 31.8945 12.1252Z" fill="#2594A2"/>
<path d="M28.5255 8.32235C29.1495 8.32235 29.7735 8.32235 30.3965 8.32235C30.497 8.30984 30.5989 8.3189 30.6956 8.3489C30.7923 8.37891 30.8814 8.42917 30.9572 8.49636C31.0329 8.56355 31.0934 8.64613 31.1346 8.73855C31.1759 8.83098 31.197 8.93115 31.1965 9.03238C31.1966 9.13406 31.1754 9.23464 31.1342 9.3276C31.093 9.42057 31.0327 9.50382 30.9573 9.57205C30.8819 9.64028 30.7931 9.69198 30.6965 9.72372C30.5999 9.75547 30.4977 9.76658 30.3965 9.75637C29.1492 9.76437 27.9015 9.76437 26.6535 9.75637C26.5528 9.76593 26.4512 9.75448 26.3552 9.72274C26.2591 9.69101 26.1707 9.63966 26.0955 9.57199C26.0203 9.50431 25.9599 9.42175 25.9183 9.32956C25.8766 9.23736 25.8546 9.1375 25.8535 9.03634C25.8535 8.60334 26.1755 8.32535 26.6935 8.32235C27.3035 8.32035 27.9145 8.32235 28.5255 8.32235Z" fill="#2594A2"/>
<path d="M38.6205 9.75914C38.1645 9.75914 37.7075 9.76814 37.2525 9.75914C36.7525 9.74714 36.4575 9.47212 36.4585 9.03612C36.4595 8.60012 36.7415 8.32712 37.2505 8.32512C38.1758 8.32045 39.1012 8.32045 40.0265 8.32512C40.1243 8.31426 40.2233 8.32395 40.3172 8.3535C40.4111 8.38305 40.4978 8.43182 40.5717 8.49675C40.6457 8.56168 40.7053 8.64132 40.7468 8.73057C40.7882 8.81983 40.8106 8.91672 40.8125 9.01512C40.8143 9.11671 40.7949 9.21758 40.7556 9.31126C40.7163 9.40495 40.6579 9.48942 40.5842 9.55931C40.5104 9.6292 40.4229 9.68298 40.3273 9.71721C40.2316 9.75144 40.1298 9.7654 40.0285 9.75816C39.5585 9.76916 39.0895 9.75914 38.6205 9.75914Z" fill="#2594A2"/>
<path d="M33.8393 8.32427C34.0213 8.32427 34.2053 8.31427 34.3863 8.32427C34.5579 8.33062 34.7213 8.39986 34.8452 8.51879C34.9691 8.63772 35.0449 8.79806 35.0583 8.96929C35.0776 9.14012 35.032 9.31198 34.9304 9.45073C34.8289 9.58949 34.6789 9.68495 34.5103 9.71825C34.0867 9.79564 33.6528 9.79834 33.2283 9.72625C33.1402 9.71445 33.0555 9.68508 32.979 9.63988C32.9025 9.59468 32.8359 9.53458 32.7831 9.46312C32.7303 9.39167 32.6924 9.31031 32.6717 9.22393C32.6509 9.13754 32.6477 9.04789 32.6623 8.96025C32.6715 8.78894 32.7457 8.6276 32.8699 8.50921C32.9941 8.39081 33.1587 8.32426 33.3303 8.32323C33.4963 8.31523 33.6703 8.32427 33.8393 8.32427Z" fill="#2594A2"/>
<path d="M6.80627 42.0842C6.60266 42.0814 6.40818 41.9992 6.26428 41.8552C5.79728 41.3832 5.32127 40.9212 4.85827 40.4472C4.78378 40.3832 4.72335 40.3043 4.68084 40.2158C4.63833 40.1272 4.61464 40.0307 4.61126 39.9326C4.60788 39.8344 4.62487 39.7366 4.66119 39.6453C4.6975 39.554 4.75235 39.4712 4.82226 39.4022C4.89227 39.3337 4.97529 39.28 5.0664 39.2442C5.15751 39.2084 5.25485 39.1912 5.35272 39.1937C5.45059 39.1961 5.547 39.2181 5.63622 39.2584C5.72545 39.2987 5.80571 39.3564 5.87225 39.4282C6.08609 39.6174 6.28654 39.8212 6.47222 40.0381C6.69322 40.3051 6.84726 40.3212 7.10626 40.0522C8.05426 39.0692 9.03125 38.1132 9.99725 37.1522C10.0767 37.0665 10.1619 36.9863 10.2523 36.9122C10.3969 36.7987 10.5791 36.7439 10.7624 36.7587C10.9457 36.7736 11.1167 36.8568 11.2413 36.9921C11.36 37.1248 11.4242 37.2975 11.4211 37.4755C11.4179 37.6535 11.3476 37.8238 11.2242 37.9522C9.91524 39.2752 8.59624 40.5872 7.28124 41.9022C7.15057 42.019 6.98156 42.0838 6.80627 42.0842Z" fill="#2594A2"/>
</svg>
