<svg width="47" height="47" viewBox="0 0 47 47" fill="none" xmlns="http://www.w3.org/2000/svg">
<path d="M40.3222 46.4998H6.67823C5.15697 46.481 3.70515 45.8601 2.64087 44.7729C1.57658 43.6858 0.986619 42.221 1.00023 40.6997V6.30786C0.986619 4.78654 1.57658 3.32177 2.64087 2.23462C3.70515 1.14747 5.15697 0.526541 6.67823 0.507812H40.3222C41.8435 0.526541 43.2953 1.14747 44.3596 2.23462C45.4239 3.32177 46.0138 4.78654 46.0002 6.30786V40.6997C46.0138 42.221 45.4239 43.6858 44.3596 44.7729C43.2953 45.8601 41.8435 46.481 40.3222 46.4998ZM6.67823 1.2998C5.36492 1.31537 4.11142 1.85135 3.19279 2.79004C2.27415 3.72873 1.76543 4.9933 1.77823 6.30664V40.6987C1.76569 42.0119 2.27454 43.2764 3.19314 44.2148C4.11175 45.1533 5.36509 45.6893 6.67823 45.7048H40.3222C41.6354 45.6893 42.8887 45.1533 43.8073 44.2148C44.7259 43.2764 45.2348 42.0119 45.2222 40.6987V6.30664C45.235 4.9933 44.7263 3.72873 43.8077 2.79004C42.889 1.85135 41.6355 1.31537 40.3222 1.2998H6.67823Z" fill="#2594A2" stroke="#2594A2"/>
<path d="M41.984 11.8564C41.8809 11.8564 41.7819 11.8156 41.709 11.7427C41.636 11.6697 41.595 11.5707 41.595 11.4675V7.36743C41.5942 6.71498 41.3347 6.08953 40.8733 5.62817C40.412 5.16682 39.7865 4.90729 39.134 4.90649H35.034C34.9308 4.90649 34.8319 4.86543 34.759 4.79248C34.686 4.71953 34.645 4.62075 34.645 4.51758C34.645 4.41441 34.686 4.31538 34.759 4.24243C34.8319 4.16948 34.9308 4.12842 35.034 4.12842H39.134C39.9927 4.12948 40.816 4.47117 41.4232 5.07837C42.0304 5.68557 42.372 6.50872 42.373 7.36743V11.4675C42.373 11.5707 42.332 11.6697 42.2591 11.7427C42.1861 11.8156 42.0872 11.8564 41.984 11.8564Z" fill="#2594A2" stroke="#2594A2"/>
<path d="M5.01644 11.8564C4.91327 11.8564 4.81433 11.8156 4.74138 11.7427C4.66843 11.6697 4.62744 11.5707 4.62744 11.4675V7.36743C4.6285 6.50872 4.97009 5.68557 5.57729 5.07837C6.18449 4.47117 7.00773 4.12948 7.86644 4.12842H11.9664C12.0696 4.12842 12.1686 4.16948 12.2415 4.24243C12.3145 4.31538 12.3554 4.41441 12.3554 4.51758C12.3556 4.5687 12.3456 4.61925 12.3261 4.6665C12.3066 4.71376 12.2779 4.75682 12.2418 4.79297C12.2057 4.82912 12.1627 4.85769 12.1155 4.8772C12.0682 4.8967 12.0176 4.90663 11.9664 4.90649H7.86644C7.21399 4.90729 6.58848 5.16682 6.12713 5.62817C5.66577 6.08953 5.40624 6.71498 5.40544 7.36743V11.4675C5.40544 11.5707 5.36446 11.6697 5.29151 11.7427C5.21856 11.8156 5.11961 11.8564 5.01644 11.8564Z" fill="#2594A2" stroke="#2594A2"/>
<path d="M45.61 23.8879H1.39C1.33892 23.8881 1.28831 23.8781 1.24106 23.8586C1.19381 23.8392 1.15086 23.8107 1.11464 23.7747C1.07843 23.7386 1.04966 23.6958 1.02999 23.6487C1.01032 23.6015 1.00013 23.5511 1 23.5C1 23.4488 1.01009 23.3981 1.02971 23.3508C1.04932 23.3036 1.07806 23.2607 1.11429 23.2246C1.15052 23.1885 1.19352 23.1596 1.24083 23.1401C1.28814 23.1206 1.33883 23.1107 1.39 23.1108H45.61C45.6612 23.1107 45.7119 23.1206 45.7592 23.1401C45.8065 23.1596 45.8495 23.1885 45.8857 23.2246C45.9219 23.2607 45.9507 23.3036 45.9703 23.3508C45.9899 23.3981 46 23.4488 46 23.5C45.9999 23.5511 45.9897 23.6015 45.97 23.6487C45.9503 23.6958 45.9216 23.7386 45.8854 23.7747C45.8491 23.8107 45.8062 23.8392 45.7589 23.8586C45.7117 23.8781 45.6611 23.8881 45.61 23.8879Z" fill="#2594A2" stroke="#2594A2"/>
<path d="M14.7164 15.7007L12.3994 8.60059H13.3894L14.4954 12.1006C14.8014 13.0586 15.0644 13.9226 15.2544 14.7546H15.2754C15.4754 13.9326 15.7754 13.0376 16.0864 12.1106L17.2864 8.60376H18.2664L15.7274 15.7036H14.7164" fill="#2594A2"/>
<path d="M15.7324 15.7017H14.7194L12.4014 8.60181H13.3944L14.5004 12.1018C14.8234 13.1158 15.0764 13.9546 15.2584 14.7546H15.2774C15.4854 13.9006 15.8054 12.9428 16.0884 12.1128L17.2884 8.60376H18.2714L15.7324 15.7017ZM14.7214 15.7017H15.7274L18.2654 8.60181H17.2884L16.0884 12.1077C15.8054 12.9387 15.4884 13.8967 15.2774 14.7517H15.2534C15.0714 13.9517 14.8184 13.1117 14.4954 12.0977L13.3894 8.59766H12.4024L14.7214 15.7017Z" fill="#2594A2"/>
<path d="M20.769 8.60156V15.7017H19.853V8.60156H20.769Z" fill="#2594A2"/>
<path d="M20.7711 15.7014H19.8521V8.60156H20.7711V15.7014ZM19.8551 15.7014H20.7691V8.60156H19.8551V15.7014Z" fill="#2594A2"/>
<path d="M23.0552 14.5806C23.5518 14.8787 24.119 15.0387 24.6982 15.0438C25.6352 15.0438 26.1832 14.5488 26.1832 13.8328C26.1832 13.1698 25.8042 12.7907 24.8452 12.4217C23.6862 12.0107 22.9702 11.4107 22.9702 10.4097C22.9841 10.1283 23.056 9.85272 23.1814 9.6004C23.3068 9.34809 23.4831 9.12462 23.699 8.94367C23.915 8.76271 24.1661 8.62819 24.4365 8.54889C24.7068 8.46959 24.9907 8.4471 25.2702 8.48273C25.8142 8.46438 26.354 8.584 26.8392 8.83063L26.5862 9.57868C26.1719 9.35595 25.7086 9.2402 25.2382 9.24176C24.2692 9.24176 23.9002 9.82073 23.9002 10.3057C23.9002 10.9697 24.3322 11.2958 25.3112 11.6758C26.5112 12.1388 27.1232 12.7178 27.1232 13.7608C27.1232 14.8608 26.3122 15.8038 24.6372 15.8038C24.0043 15.8116 23.3802 15.6558 22.8252 15.3516L23.0572 14.5828" fill="#2594A2"/>
<path d="M24.6343 15.8038C24.2898 15.8022 23.9469 15.7577 23.6133 15.6717C23.3338 15.6078 23.0664 15.4996 22.8213 15.3509L23.0533 14.5799C23.2844 14.7195 23.5324 14.829 23.7913 14.9059C24.0831 14.995 24.3862 15.0411 24.6913 15.0428C25.0838 15.062 25.4707 14.9428 25.7843 14.7059C25.9108 14.5991 26.0116 14.465 26.0791 14.3138C26.1466 14.1627 26.1792 13.9984 26.1743 13.8329C26.1807 13.6832 26.1566 13.5338 26.1035 13.3937C26.0503 13.2536 25.9693 13.1258 25.8653 13.0179C25.5693 12.7481 25.2187 12.5452 24.8373 12.423C24.3273 12.2665 23.8586 11.9982 23.4653 11.6378C23.3068 11.4805 23.1801 11.294 23.0923 11.0887C23.0042 10.8733 22.96 10.6425 22.9623 10.4098C22.9606 10.1448 23.0169 9.88287 23.1273 9.64196C23.2366 9.407 23.3956 9.19845 23.5933 9.03088C23.8072 8.85243 24.0533 8.71674 24.3183 8.63098C24.622 8.53174 24.9398 8.48219 25.2593 8.48474C25.8038 8.464 26.3445 8.58399 26.8293 8.83288L26.5763 9.5819C26.1625 9.35866 25.6994 9.24263 25.2293 9.24475C25.0194 9.24229 24.8107 9.27622 24.6123 9.34484C24.4581 9.39884 24.3171 9.48465 24.1983 9.5968C24.0975 9.6934 24.0184 9.81033 23.9663 9.93981C23.9185 10.0573 23.8937 10.1831 23.8933 10.3099C23.8903 10.4608 23.9185 10.6105 23.9763 10.7499C24.0351 10.8835 24.1221 11.003 24.2313 11.1C24.5507 11.3565 24.9144 11.5522 25.3043 11.6779C25.8145 11.8443 26.279 12.127 26.6613 12.5038C26.8111 12.6661 26.9273 12.8564 27.0033 13.0638C27.0823 13.2886 27.1209 13.5256 27.1173 13.7638C27.1191 14.0321 27.0671 14.298 26.9643 14.5458C26.86 14.7944 26.7023 15.0171 26.5023 15.1979C26.277 15.3983 26.0129 15.5502 25.7263 15.6439C25.3734 15.7564 25.0046 15.8103 24.6343 15.8038ZM22.8243 15.3487C23.0689 15.4967 23.3356 15.6048 23.6143 15.6688C23.9476 15.7547 24.2901 15.7991 24.6343 15.8009C25.0058 15.8061 25.3757 15.7503 25.7293 15.6359C26.0154 15.5423 26.2792 15.3907 26.5043 15.1908C26.7042 15.0104 26.862 14.7882 26.9663 14.5399C27.0691 14.2925 27.1211 14.0269 27.1193 13.7589C27.123 13.5207 27.0844 13.2837 27.0053 13.059C26.9295 12.852 26.8137 12.6619 26.6643 12.4999C26.2822 12.1237 25.818 11.8413 25.3083 11.6749C24.9181 11.5493 24.5541 11.3533 24.2343 11.0968C24.1248 10.9995 24.0375 10.8799 23.9783 10.746C23.9206 10.6062 23.8923 10.4559 23.8953 10.3048C23.8958 10.1776 23.9206 10.0519 23.9683 9.93395C24.0208 9.80411 24.1002 9.68687 24.2013 9.58996C24.3204 9.47777 24.4618 9.39171 24.6163 9.33776C24.815 9.26902 25.0241 9.23534 25.2343 9.23791C25.7043 9.23578 26.1673 9.35123 26.5813 9.57385L26.8333 8.82897C26.349 8.58068 25.8091 8.46101 25.2653 8.48181C24.9458 8.47916 24.628 8.52846 24.3243 8.6278C24.0596 8.71357 23.8138 8.84951 23.6003 9.02795C23.4026 9.1951 23.2436 9.40311 23.1343 9.63781C23.024 9.87837 22.9676 10.1403 22.9693 10.4049C22.967 10.6373 23.0112 10.8678 23.0993 11.0829C23.1871 11.2879 23.3138 11.4741 23.4723 11.631C23.8652 11.9914 24.3336 12.2595 24.8433 12.4159C25.2254 12.5398 25.5763 12.7443 25.8723 13.0157C25.9765 13.1239 26.0578 13.252 26.1111 13.3924C26.1644 13.5329 26.1886 13.6828 26.1823 13.8329C26.1872 13.9989 26.1545 14.1638 26.0866 14.3153C26.0188 14.4668 25.9174 14.6011 25.7903 14.7079C25.476 14.945 25.0885 15.0642 24.6953 15.0448C24.3902 15.0431 24.087 14.997 23.7953 14.9078C23.5368 14.8309 23.2891 14.7214 23.0583 14.5819L22.8243 15.3487Z" fill="#2594A2"/>
<path d="M32.6702 12.7517L31.9702 10.7078C31.8122 10.2448 31.7072 9.82271 31.6012 9.40771H31.5802C31.4752 9.82871 31.3592 10.2606 31.2222 10.6926L30.5222 12.7466L32.6702 12.7517ZM30.3422 13.4678L29.6052 15.7007H28.6572L31.0692 8.60059H32.1752L34.5972 15.7007H33.6182L32.8602 13.4678H30.3462" fill="#2594A2"/>
<path d="M34.5992 15.7014H33.6162L32.8582 13.4695H30.3422L29.6052 15.7024H28.6562L31.0682 8.60254H32.1762L34.5992 15.7014ZM33.6192 15.7014H34.5952L32.1742 8.60156H31.0742L28.6632 15.7014H29.6082L30.3452 13.4685H32.8652L33.6192 15.7014ZM32.6722 12.7544H30.5302L31.2302 10.7004C31.3472 10.3304 31.4612 9.9215 31.5882 9.4165H31.6122L31.6302 9.4856C31.7302 9.8736 31.8302 10.2744 31.9812 10.7124L32.6722 12.7544ZM30.5342 12.7544H32.6682L31.9733 10.7124C31.8243 10.2744 31.7212 9.8736 31.6222 9.4856L31.6052 9.41748H31.5862C31.4592 9.92348 31.3462 10.3314 31.2282 10.7014L30.5342 12.7544Z" fill="#2594A2"/>
<path d="M9.22433 33.3101C8.49285 33.3093 7.79154 33.0182 7.2743 32.501C6.75706 31.9837 6.46613 31.2825 6.46533 30.551C6.46613 29.8195 6.75706 29.1181 7.2743 28.6008C7.79154 28.0836 8.49285 27.7928 9.22433 27.792C9.95582 27.7928 10.6571 28.0836 11.1744 28.6008C11.6916 29.1181 11.9825 29.8195 11.9833 30.551C11.9825 31.2825 11.6916 31.9837 11.1744 32.501C10.6571 33.0182 9.95582 33.3093 9.22433 33.3101ZM9.22433 28.5701C8.69901 28.5706 8.19534 28.7793 7.82378 29.1506C7.45223 29.522 7.24313 30.0257 7.24233 30.551C7.24286 31.0765 7.45185 31.5803 7.82343 31.9519C8.19502 32.3235 8.69884 32.5324 9.22433 32.533C9.74983 32.5324 10.2537 32.3235 10.6252 31.9519C10.9968 31.5803 11.2058 31.0765 11.2063 30.551C11.2058 30.0255 10.9968 29.5217 10.6252 29.1501C10.2537 28.7786 9.74983 28.5696 9.22433 28.5691V28.5701Z" fill="#2594A2" stroke="#2594A2"/>
<path d="M12.8454 38.7416C12.7943 38.7416 12.7437 38.7316 12.6965 38.712C12.6493 38.6925 12.6064 38.6638 12.5703 38.6277C12.5342 38.5916 12.5055 38.5487 12.486 38.5015C12.4664 38.4543 12.4564 38.4037 12.4564 38.3527V37.4977C12.4558 36.9024 12.2192 36.3317 11.7982 35.9108C11.3773 35.4899 10.8066 35.2531 10.2114 35.2526H8.23638C7.64113 35.2531 7.07041 35.4899 6.64951 35.9108C6.22861 36.3317 5.99191 36.9024 5.99138 37.4977V38.3527C5.99138 38.4558 5.95039 38.5547 5.87744 38.6277C5.80449 38.7006 5.70555 38.7416 5.60238 38.7416C5.49921 38.7416 5.40027 38.7006 5.32731 38.6277C5.25436 38.5547 5.21338 38.4558 5.21338 38.3527V37.4977C5.21444 36.6965 5.53316 35.9284 6.09967 35.3619C6.66618 34.7954 7.43422 34.4766 8.23538 34.4756H10.2104C11.0115 34.4766 11.7796 34.7954 12.3461 35.3619C12.9126 35.9284 13.2313 36.6965 13.2324 37.4977V38.3527C13.2324 38.4555 13.1917 38.5541 13.1192 38.627C13.0466 38.6998 12.9482 38.741 12.8454 38.7416Z" fill="#2594A2" stroke="#2594A2"/>
<path d="M26.0442 28.9241H15.8612C15.7582 28.9241 15.6594 28.883 15.5865 28.8103C15.5135 28.7376 15.4724 28.6389 15.4722 28.5359C15.4722 28.4327 15.5132 28.3339 15.5861 28.261C15.6591 28.188 15.758 28.147 15.8612 28.147H26.0442C26.1473 28.147 26.2463 28.188 26.3192 28.261C26.3922 28.3339 26.4332 28.4327 26.4332 28.5359C26.4329 28.6389 26.3918 28.7376 26.3189 28.8103C26.246 28.883 26.1472 28.9241 26.0442 28.9241Z" fill="#2594A2" stroke="#2594A2"/>
<path d="M26.0604 33.2498H22.7464C22.6953 33.2498 22.6448 33.2398 22.5976 33.2202C22.5504 33.2007 22.5075 33.1719 22.4714 33.1357C22.4352 33.0996 22.4066 33.0567 22.387 33.0095C22.3675 32.9623 22.3574 32.9117 22.3574 32.8606C22.3574 32.8095 22.3675 32.7591 22.387 32.7119C22.4066 32.6647 22.4352 32.6218 22.4714 32.5857C22.5075 32.5496 22.5504 32.5208 22.5976 32.5012C22.6448 32.4817 22.6953 32.4717 22.7464 32.4717H26.0604C26.1636 32.4717 26.2625 32.5127 26.3355 32.5857C26.4084 32.6586 26.4494 32.7574 26.4494 32.8606C26.4494 32.9638 26.4084 33.0628 26.3355 33.1357C26.2625 33.2087 26.1636 33.2498 26.0604 33.2498Z" fill="#2594A2" stroke="#2594A2"/>
<path d="M19.6895 33.2498H15.8494C15.7463 33.2498 15.6473 33.2087 15.5744 33.1357C15.5014 33.0628 15.4604 32.9638 15.4604 32.8606C15.4604 32.7574 15.5014 32.6586 15.5744 32.5857C15.6473 32.5127 15.7463 32.4717 15.8494 32.4717H19.6905C19.7936 32.4717 19.8926 32.5127 19.9655 32.5857C20.0385 32.6586 20.0795 32.7574 20.0795 32.8606C20.0795 32.9118 20.0694 32.9625 20.0497 33.0098C20.0301 33.057 20.0014 33.1001 19.9652 33.1362C19.9289 33.1724 19.8859 33.201 19.8386 33.2205C19.7913 33.2399 19.7406 33.2499 19.6895 33.2498Z" fill="#2594A2" stroke="#2594A2"/>
<path d="M26.0442 37.5769H15.8612C15.758 37.5769 15.6591 37.5358 15.5861 37.4629C15.5132 37.3899 15.4722 37.291 15.4722 37.1879C15.4722 37.1368 15.4822 37.0863 15.5018 37.0392C15.5214 36.992 15.55 36.9491 15.5862 36.9131C15.6223 36.877 15.6652 36.8485 15.7124 36.8291C15.7596 36.8097 15.8101 36.7997 15.8612 36.7998H26.0442C26.0952 36.7997 26.1458 36.8097 26.193 36.8291C26.2401 36.8485 26.283 36.877 26.3192 36.9131C26.3553 36.9491 26.384 36.992 26.4035 37.0392C26.4231 37.0863 26.4332 37.1368 26.4332 37.1879C26.4332 37.291 26.3922 37.3899 26.3192 37.4629C26.2463 37.5358 26.1473 37.5769 26.0442 37.5769Z" fill="#2594A2" stroke="#2594A2"/>
<path d="M26.0442 42.0216H15.8612C15.758 42.0216 15.6591 41.9807 15.5861 41.9077C15.5132 41.8348 15.4722 41.7359 15.4722 41.6327C15.4724 41.5297 15.5135 41.4309 15.5865 41.3582C15.6594 41.2854 15.7582 41.2446 15.8612 41.2446H26.0442C26.1472 41.2446 26.246 41.2854 26.3189 41.3582C26.3918 41.4309 26.4329 41.5297 26.4332 41.6327C26.4332 41.7359 26.3922 41.8348 26.3192 41.9077C26.2463 41.9807 26.1473 42.0216 26.0442 42.0216Z" fill="#2594A2" stroke="#2594A2"/>
<path d="M12.8454 42.0216H5.60336C5.50019 42.0216 5.40124 41.9807 5.32829 41.9077C5.25534 41.8348 5.21436 41.7359 5.21436 41.6327C5.21462 41.5297 5.25572 41.4309 5.32864 41.3582C5.40157 41.2854 5.50036 41.2446 5.60336 41.2446H12.8454C12.9484 41.2446 13.0471 41.2854 13.1201 41.3582C13.193 41.4309 13.2341 41.5297 13.2344 41.6327C13.2344 41.7359 13.1934 41.8348 13.1204 41.9077C13.0475 41.9807 12.9485 42.0216 12.8454 42.0216Z" fill="#2594A2" stroke="#2594A2"/>
<path d="M35.8784 41.5947C34.1545 41.5947 32.5012 40.9099 31.2822 39.6909C30.0632 38.4719 29.3784 36.8186 29.3784 35.0947C29.3784 33.3708 30.0632 31.7175 31.2822 30.4985C32.5012 29.2795 34.1545 28.5947 35.8784 28.5947C37.6023 28.5947 39.2556 29.2795 40.4746 30.4985C41.6936 31.7175 42.3784 33.3708 42.3784 35.0947C42.3784 36.8186 41.6936 38.4719 40.4746 39.6909C39.2556 40.9099 37.6023 41.5947 35.8784 41.5947ZM35.8784 29.3809C34.3625 29.3827 32.9092 29.9857 31.8372 31.0576C30.7653 32.1295 30.1623 33.5829 30.1604 35.0989C30.162 36.615 30.7649 38.0685 31.8369 39.1406C32.9088 40.2128 34.3623 40.816 35.8784 40.8179C37.3947 40.8163 38.8484 40.213 39.9206 39.1409C40.9928 38.0687 41.5958 36.6152 41.5974 35.0989C41.5956 33.5828 40.9924 32.1291 39.9203 31.0571C38.8481 29.9852 37.3945 29.3824 35.8784 29.3809Z" fill="#2594A2" stroke="#2594A2"/>
<path d="M35.2411 37.0879C35.1901 37.0879 35.1395 37.0779 35.0923 37.0583C35.0451 37.0388 35.0022 37.0102 34.9662 36.974L33.0992 35.1069C33.0629 35.0709 33.0342 35.0281 33.0146 34.981C32.995 34.9338 32.9849 34.8831 32.9849 34.832C32.9849 34.7809 32.995 34.7303 33.0146 34.6831C33.0342 34.6359 33.0629 34.5929 33.0992 34.5569C33.1721 34.484 33.271 34.4431 33.3742 34.4431C33.4773 34.4431 33.5762 34.484 33.6492 34.5569L35.2411 36.1489L38.7001 32.6899C38.7731 32.617 38.872 32.5762 38.9752 32.5762C39.0783 32.5762 39.1772 32.617 39.2502 32.6899C39.3231 32.7629 39.364 32.8617 39.364 32.9648C39.364 33.068 39.3231 33.167 39.2502 33.24L35.5162 36.974C35.4801 37.0102 35.4372 37.0388 35.39 37.0583C35.3428 37.0779 35.2922 37.0879 35.2411 37.0879Z" fill="#2594A2" stroke="#2594A2"/>
</svg>
