<svg width="130" height="130" viewBox="0 0 130 130" fill="none" xmlns="http://www.w3.org/2000/svg">
<g filter="url(#filter0_d)">
<circle cx="65" cy="53" r="41" fill="white"/>
</g>
<path d="M64.4995 71.8545C74.6367 71.8545 82.8545 63.6367 82.8545 53.4995C82.8545 43.3623 74.6367 35.1445 64.4995 35.1445C54.3623 35.1445 46.1445 43.3623 46.1445 53.4995C46.1445 63.6367 54.3623 71.8545 64.4995 71.8545Z" fill="#D7EDE7"/>
<path d="M66.697 57.5049H65.958V63.9469H66.697V57.5049Z" fill="#344A53"/>
<path d="M66.822 64.0709H65.833V57.3789H66.822V64.0709ZM66.083 63.8209H66.572V57.6289H66.083V63.8209Z" fill="#231F20"/>
<path d="M76.8888 57.5049H76.1768V63.9469H76.8888V57.5049Z" fill="#344A53"/>
<path d="M77.0138 64.0709H76.0518V57.3789H77.0138V64.0709ZM76.3018 63.8209H76.7638V57.6289H76.3018V63.8209Z" fill="#231F20"/>
<path d="M68.8604 61.1396H68.1934V63.9466H68.8604V61.1396Z" fill="#344A53"/>
<path d="M68.9844 64.0707H68.0674V61.0137H68.9844V64.0707ZM68.3184 63.8207H68.7354V61.2637H68.3184V63.8207Z" fill="#231F20"/>
<path d="M74.8521 60.3799H74.1621V63.9459H74.8521V60.3799Z" fill="#344A53"/>
<path d="M74.9781 64.0709H74.0381V60.2549H74.9781V64.0709ZM74.2871 63.8209H74.7271V60.5049H74.2871V63.8209Z" fill="#231F20"/>
<path d="M77.1288 60.1973H65.7178V61.6933H77.1288V60.1973Z" fill="#00B9BB"/>
<path d="M77.3788 61.9442H65.4678V59.9482H77.3798V61.9442H77.3788ZM65.9678 61.4442H76.8798V60.4482H65.9678V61.4442Z" fill="#231F20"/>
<path d="M71.4234 55.2259C65.4624 55.1889 65.7174 58.6719 65.7174 58.6719H77.1284C77.1294 58.6719 77.3344 55.2259 71.4234 55.2259Z" fill="#00B9BB"/>
<path d="M77.365 58.9216H65.485L65.468 58.6906C65.465 58.6446 65.396 57.5556 66.328 56.5586C67.31 55.5076 68.993 54.9756 71.328 54.9756C71.36 54.9756 71.391 54.9756 71.423 54.9756C73.791 54.9756 75.499 55.5146 76.501 56.5776C77.434 57.5676 77.382 58.6416 77.379 58.6866L77.365 58.9216ZM65.976 58.4216H76.868C76.829 58.0976 76.681 57.4906 76.128 56.9096C75.223 55.9576 73.64 55.4746 71.424 55.4746H71.423C69.177 55.4816 67.603 55.9376 66.704 56.8896C66.148 57.4786 66.009 58.0956 65.976 58.4216Z" fill="#231F20"/>
<path d="M56.6233 64.1201H47.9473C47.8093 64.1201 47.6973 64.0081 47.6973 63.8701C47.6973 63.7321 47.8093 63.6201 47.9473 63.6201H56.6233C56.7613 63.6201 56.8733 63.7321 56.8733 63.8701C56.8733 64.0081 56.7613 64.1201 56.6233 64.1201Z" fill="#231F20"/>
<path d="M81.1 64.1201H60.416C60.278 64.1201 60.166 64.0081 60.166 63.8701C60.166 63.7321 60.278 63.6201 60.416 63.6201H81.1C81.238 63.6201 81.35 63.7321 81.35 63.8701C81.35 64.0081 81.238 64.1201 81.1 64.1201Z" fill="#231F20"/>
<path d="M62.9077 42.8329C64.1376 42.8329 65.1347 41.8358 65.1347 40.6059C65.1347 39.376 64.1376 38.3789 62.9077 38.3789C61.6777 38.3789 60.6807 39.376 60.6807 40.6059C60.6807 41.8358 61.6777 42.8329 62.9077 42.8329Z" fill="#EC8C22"/>
<path d="M62.9123 43.084C62.7113 43.084 62.5083 43.06 62.3083 43.009C61.6663 42.849 61.1253 42.448 60.7843 41.881C60.4433 41.314 60.3443 40.648 60.5043 40.006C60.8353 38.68 62.1843 37.868 63.5073 38.202C64.1493 38.362 64.6903 38.763 65.0313 39.33C65.3723 39.897 65.4713 40.563 65.3113 41.205C65.1513 41.847 64.7503 42.389 64.1833 42.729C63.7933 42.964 63.3553 43.084 62.9123 43.084ZM62.9073 38.628C62.0213 38.628 61.2133 39.23 60.9893 40.127C60.8613 40.64 60.9413 41.171 61.2133 41.624C61.4853 42.076 61.9173 42.396 62.4293 42.524C62.9403 42.65 63.4733 42.572 63.9263 42.3C64.3793 42.028 64.6983 41.596 64.8263 41.083C64.9543 40.57 64.8743 40.039 64.6023 39.586C64.3303 39.134 63.8983 38.814 63.3863 38.686C63.2263 38.648 63.0653 38.628 62.9073 38.628Z" fill="#231F20"/>
<path d="M62.8712 38.6133C62.8712 38.6133 62.2742 42.5463 63.1412 42.5443C60.7152 43.0463 59.8972 38.9223 62.8712 38.6133Z" fill="#EB6724"/>
<path d="M63.5209 37.8781C63.5009 37.8781 63.4809 37.8761 63.4599 37.8701C63.3259 37.8371 63.2449 37.7011 63.2779 37.5671L63.5389 36.5201C63.5719 36.3861 63.7059 36.3001 63.8419 36.3381C63.9759 36.3711 64.0569 36.5071 64.0239 36.6411L63.7629 37.6881C63.7359 37.8021 63.6339 37.8781 63.5209 37.8781Z" fill="#231F20"/>
<path d="M60.0747 40.195C60.0547 40.195 60.0347 40.193 60.0137 40.187L58.9667 39.926C58.8327 39.893 58.7517 39.757 58.7847 39.623C58.8177 39.489 58.9517 39.402 59.0877 39.441L60.1347 39.702C60.2687 39.735 60.3497 39.871 60.3167 40.005C60.2897 40.118 60.1877 40.195 60.0747 40.195Z" fill="#231F20"/>
<path d="M66.9634 41.9121C66.9434 41.9121 66.9234 41.9102 66.9024 41.9042L65.8554 41.6432C65.7214 41.6102 65.6404 41.4742 65.6734 41.3402C65.7074 41.2062 65.8394 41.1182 65.9764 41.1582L67.0234 41.4192C67.1574 41.4522 67.2384 41.5882 67.2054 41.7222C67.1774 41.8362 67.0754 41.9121 66.9634 41.9121Z" fill="#231F20"/>
<path d="M65.3162 39.1212C65.2462 39.1212 65.1762 39.0922 65.1272 39.0342C65.0372 38.9302 65.0482 38.7722 65.1532 38.6812L65.9702 37.9762C66.0742 37.8862 66.2322 37.8962 66.3232 38.0022C66.4132 38.1062 66.4022 38.2642 66.2972 38.3552L65.4802 39.0602C65.4322 39.1022 65.3742 39.1212 65.3162 39.1212Z" fill="#231F20"/>
<path d="M61.2125 38.1479C61.1235 38.1479 61.0365 38.0999 60.9915 38.0149L60.4865 37.0619C60.4215 36.9399 60.4675 36.7889 60.5905 36.7239C60.7125 36.6609 60.8635 36.7049 60.9285 36.8279L61.4335 37.7809C61.4985 37.9029 61.4525 38.0539 61.3295 38.1189C61.2925 38.1379 61.2525 38.1479 61.2125 38.1479Z" fill="#231F20"/>
<path d="M59.4721 43.1468C59.4021 43.1468 59.3321 43.1178 59.2831 43.0598C59.1931 42.9558 59.2051 42.7968 59.3091 42.7068L60.1261 42.0028C60.2301 41.9128 60.3891 41.9248 60.4791 42.0288C60.5691 42.1328 60.5571 42.2918 60.4531 42.3818L59.6361 43.0858C59.5881 43.1268 59.5301 43.1468 59.4721 43.1468Z" fill="#231F20"/>
<path d="M64.8971 44.369C64.8081 44.369 64.7211 44.321 64.6761 44.236L64.1711 43.283C64.1061 43.161 64.1521 43.01 64.2751 42.945C64.3981 42.881 64.5471 42.926 64.6131 43.049L65.1181 44.002C65.1831 44.124 65.1371 44.275 65.0141 44.34C64.9771 44.36 64.9371 44.369 64.8971 44.369Z" fill="#231F20"/>
<path d="M61.7504 44.9426C61.7304 44.9426 61.7104 44.9406 61.6894 44.9346C61.5554 44.9016 61.4744 44.7656 61.5074 44.6316L61.7684 43.5846C61.8014 43.4506 61.9344 43.3616 62.0714 43.4026C62.2054 43.4356 62.2864 43.5716 62.2534 43.7056L61.9924 44.7526C61.9644 44.8656 61.8624 44.9426 61.7504 44.9426Z" fill="#231F20"/>
<path d="M56.3713 40.983C57.8133 40.092 61.6443 38.077 61.6393 41.806C61.6393 42.1 61.9353 42.331 62.2003 42.203C63.3643 41.641 64.2373 42.575 64.6033 43.201C65.5183 42.779 67.1373 43.504 66.5293 44.462C65.9533 45.37 52.9753 44.286 52.9753 44.286C52.9753 44.286 51.4643 40.856 55.2073 41.243C55.6133 41.286 56.0263 41.196 56.3713 40.983Z" fill="#D7EDE7"/>
<path d="M63.1019 45.0743C59.9049 45.0743 55.4089 44.7403 52.9559 44.5353L52.8079 44.5223L52.7479 44.3863C52.7189 44.3193 52.0289 42.7233 52.7619 41.7163C53.2009 41.1123 54.0329 40.8733 55.2349 40.9943C55.5949 41.0343 55.9479 40.9503 56.2409 40.7683C57.4399 40.0283 59.6439 38.8933 60.9359 39.6163C61.5699 39.9703 61.8919 40.7073 61.8899 41.8043C61.8899 41.8683 61.9249 41.9323 61.9779 41.9653C62.0169 41.9903 62.0559 41.9923 62.0919 41.9763C63.2109 41.4333 64.1709 42.1003 64.7079 42.8953C65.3659 42.7073 66.2299 42.9193 66.6609 43.4113C66.9679 43.7623 66.9969 44.1923 66.7419 44.5953C66.5179 44.9503 65.0509 45.0743 63.1019 45.0743ZM53.1509 44.0503C59.2499 44.5543 65.8089 44.7893 66.3299 44.3163C66.4559 44.1153 66.4439 43.9233 66.2859 43.7423C65.9579 43.3673 65.1759 43.2133 64.7099 43.4293L64.5029 43.5253L64.3889 43.3293C64.2439 43.0813 63.4669 41.8723 62.3099 42.4303C62.1199 42.5213 61.8959 42.5073 61.7129 42.3933C61.5139 42.2673 61.3899 42.0433 61.3909 41.8083C61.3919 40.9053 61.1569 40.3153 60.6929 40.0563C59.5859 39.4373 57.3949 40.6483 56.5049 41.1983C56.1179 41.4383 55.6489 41.5423 55.1849 41.4963C54.1739 41.3923 53.4939 41.5643 53.1669 42.0153C52.7429 42.5923 52.9769 43.5783 53.1509 44.0503Z" fill="#231F20"/>
<path d="M57.8919 59.6662C57.8919 59.6662 49.2459 62.7362 45.7419 57.5052C42.2379 52.2742 50.2419 41.5892 51.4459 41.0282C52.6499 40.4672 56.8709 38.4422 61.1129 50.3792C64.0129 59.2382 57.8919 59.6662 57.8919 59.6662Z" fill="#00B9BB"/>
<path d="M53.3745 56.9317L50.0785 53.5407C49.9825 53.4417 49.9845 53.2837 50.0835 53.1867C50.1835 53.0927 50.3415 53.0927 50.4375 53.1927L53.3825 56.2197L56.4485 53.1887C56.5475 53.0917 56.7045 53.0917 56.8025 53.1907C56.9005 53.2897 56.8985 53.4477 56.8005 53.5447L53.3745 56.9317Z" fill="#231F20"/>
<path d="M53.377 64.1202C53.239 64.1202 53.127 64.0082 53.127 63.8702V56.5762C53.127 56.4382 53.239 56.3262 53.377 56.3262C53.515 56.3262 53.627 56.4382 53.627 56.5762V63.8702C53.627 64.0082 53.516 64.1202 53.377 64.1202Z" fill="#231F20"/>
<path d="M53.1264 40.5576C53.1264 40.5576 45.5144 54.1556 50.4134 60.3806C44.8624 59.5526 43.7864 55.0316 46.0574 49.1036C47.1824 46.1636 49.5214 41.0006 53.1264 40.5576Z" fill="#009E9C"/>
<path d="M51.5172 60.6321C51.0082 60.6321 50.0802 60.5891 49.0242 60.3331C47.4312 59.9471 46.0922 58.9471 45.2522 57.5181C44.3952 56.0581 44.1642 54.2821 44.6192 52.6451C45.9912 47.7101 48.6772 42.0501 51.5862 40.5321C52.4252 40.0941 53.2472 40.0121 54.0302 40.2861C58.5422 41.8681 62.8882 51.3951 61.6532 56.9971C60.9212 60.3151 55.6092 60.0971 55.3892 60.0911C55.2512 60.0841 55.1442 59.9671 55.1512 59.8291C55.1572 59.6911 55.2792 59.5891 55.4122 59.5911C55.4692 59.6011 60.5232 59.7971 61.1642 56.8901C62.4252 51.1701 57.7522 42.1211 53.8642 40.7591C53.2152 40.5301 52.5282 40.6051 51.8172 40.9761C49.0402 42.4241 46.4422 47.9471 45.0992 52.7801C44.6812 54.2871 44.8932 55.9221 45.6822 57.2641C46.4532 58.5761 47.6812 59.4931 49.1402 59.8471C50.6282 60.2061 51.8792 60.1241 51.8902 60.1221C52.0302 60.0921 52.1472 60.2161 52.1582 60.3531C52.1682 60.4911 52.0642 60.6101 51.9272 60.6201C51.9102 60.6221 51.7622 60.6321 51.5172 60.6321Z" fill="#231F20"/>
<path d="M62.7666 71.9293C62.1676 71.1633 63.8836 69.8473 65.8886 69.3813C65.9616 67.0113 68.0526 66.2483 68.5666 66.1963C69.6126 66.0903 70.8506 66.6353 72.4636 68.2603C76.4276 68.2433 76.2046 71.8183 76.2046 71.8183C76.2046 71.8183 67.1686 77.5523 62.7666 71.9293Z" fill="#00B9BB"/>
<path d="M68.1064 74.6318C66.0794 74.6318 64.0644 73.9928 62.5694 72.0838C62.3864 71.8508 62.3464 71.5678 62.4524 71.2678C62.7354 70.4638 64.0924 69.5858 65.6484 69.1838C65.8304 66.7548 67.9984 66.0028 68.5414 65.9478C69.7294 65.8298 71.0504 66.5028 72.5674 68.0108C73.8274 68.0258 74.8084 68.3958 75.4864 69.1148C76.5404 70.2308 76.4574 71.7688 76.4534 71.8348L76.4454 71.9618L76.3374 72.0298C76.2764 72.0688 72.1684 74.6318 68.1064 74.6318ZM68.8134 66.4338C68.7384 66.4338 68.6644 66.4378 68.5904 66.4458C68.2014 66.4858 66.2054 67.1588 66.1374 69.3898L66.1314 69.5818L65.9434 69.6248C64.3404 69.9978 63.1274 70.8538 62.9224 71.4348C62.8594 71.6148 62.9144 71.7148 62.9614 71.7758C66.9124 76.8208 74.9024 72.3048 75.9534 71.6768C75.9474 71.3138 75.8624 70.2398 75.1174 69.4528C74.5254 68.8278 73.6404 68.5108 72.4904 68.5108C72.4814 68.5108 72.4714 68.5108 72.4624 68.5108H72.3584L72.2844 68.4368C70.9504 67.0918 69.8124 66.4338 68.8134 66.4338Z" fill="#231F20"/>
<path d="M70.6278 74.0201C71.5158 73.6431 69.5108 72.0351 67.5058 71.5911C67.4328 69.3321 65.3418 68.6041 64.8278 68.5551C63.7818 68.4541 62.5438 68.9741 60.9308 70.5231C56.9668 70.5061 57.1898 73.9151 57.1898 73.9151C57.1898 73.9151 61.8348 77.7521 70.6278 74.0201Z" fill="#00B9BB"/>
<path d="M63.3175 75.9154C59.2865 75.9154 57.1605 74.2144 57.0305 74.1064L56.9475 74.0384L56.9405 73.9314C56.9365 73.8704 56.8565 72.4464 57.8575 71.3804C58.5365 70.6584 59.5365 70.2864 60.8305 70.2734C62.3485 68.8354 63.6625 68.1894 64.8515 68.3064C65.3935 68.3594 67.5575 69.0744 67.7445 71.3914C69.3655 71.8054 71.0215 72.9274 71.0915 73.6854C71.1145 73.9364 70.9815 74.1424 70.7255 74.2514C67.7945 75.4944 65.3205 75.9154 63.3175 75.9154ZM57.4375 73.7884C58.1175 74.2724 62.6465 77.1374 70.5295 73.7904C70.5955 73.7624 70.5945 73.7464 70.5925 73.7294C70.5545 73.3164 69.1085 72.2024 67.4505 71.8344L67.2615 71.7924L67.2555 71.5984C67.1875 69.4794 65.1935 68.8414 64.8035 68.8034C63.7505 68.6894 62.5405 69.3234 61.1035 70.7024L61.0305 70.7714H60.9295C60.9205 70.7714 60.9105 70.7714 60.9015 70.7714C59.7185 70.7714 58.8185 71.0894 58.2245 71.7174C57.5195 72.4664 57.4435 73.4594 57.4375 73.7884Z" fill="#231F20"/>
<path d="M64.5 76C52.08 75.986 42.014 65.92 42 53.5C42.014 41.08 52.08 31.014 64.5 31C76.921 31.014 86.986 41.079 87 53.5C86.986 65.921 76.921 75.986 64.5 76ZM64.5 31.795C52.518 31.809 42.809 41.518 42.795 53.5C42.809 65.482 52.518 75.191 64.5 75.205C76.482 75.191 86.191 65.482 86.205 53.5C86.192 41.518 76.482 31.807 64.5 31.793V31.795Z" fill="#DADADA"/>
<path d="M71.7897 42.4164L70.5157 40.8264C70.4297 40.7194 70.4467 40.5614 70.5547 40.4744C70.6617 40.3894 70.8187 40.4054 70.9067 40.5134L71.7567 41.5744L72.4657 40.5294C72.5437 40.4154 72.6977 40.3854 72.8137 40.4634C72.9277 40.5414 72.9577 40.6964 72.8797 40.8114L71.7897 42.4164Z" fill="#231F20"/>
<path d="M74.4918 43.8383L73.2178 42.2473C73.1318 42.1403 73.1488 41.9823 73.2568 41.8953C73.3638 41.8093 73.5228 41.8273 73.6088 41.9343L74.4588 42.9963L75.1678 41.9503C75.2458 41.8363 75.4008 41.8063 75.5148 41.8843C75.6288 41.9613 75.6588 42.1173 75.5818 42.2323L74.4918 43.8383Z" fill="#231F20"/>
<path d="M78.1576 48.1637H85.6986C85.7656 48.1637 85.8205 48.1087 85.8205 48.0417C85.8205 47.9747 85.7656 47.9197 85.6986 47.9197H78.1576C77.3836 47.9197 76.7135 47.4277 76.4895 46.6947C76.4155 46.4547 76.3956 46.2047 76.4286 45.9537C76.5276 45.2007 77.2215 44.6687 77.9745 44.7677C78.2595 44.8057 78.5135 44.9517 78.6885 45.1807C78.8635 45.4087 78.9396 45.6917 78.9016 45.9777C78.8726 46.1997 78.7586 46.3967 78.5806 46.5327C78.4026 46.6687 78.1825 46.7277 77.9615 46.6987C77.7905 46.6757 77.6386 46.5887 77.5336 46.4517C77.4286 46.3147 77.3835 46.1457 77.4055 45.9747C77.4225 45.8447 77.4895 45.7287 77.5935 45.6487C77.6975 45.5687 77.8275 45.5337 77.9575 45.5517C78.0555 45.5647 78.1425 45.6147 78.2025 45.6927C78.2625 45.7707 78.2695 45.7617 78.2565 45.8587C78.2475 45.9307 78.2105 45.9947 78.1525 46.0387C78.0955 46.0827 78.0836 46.0827 78.0116 46.0727C77.9446 46.0637 77.9045 46.1067 77.8955 46.1737C77.8865 46.2407 77.9465 46.3297 78.0135 46.3387C78.1495 46.3567 78.2625 46.3357 78.3715 46.2517C78.4805 46.1677 78.5125 46.0567 78.5305 45.9207C78.5515 45.7587 78.4945 45.6747 78.3955 45.5447C78.2965 45.4147 78.1515 45.3317 77.9885 45.3097C77.7935 45.2837 77.6005 45.3357 77.4445 45.4557C77.2885 45.5757 77.1885 45.7487 77.1625 45.9437C77.1315 46.1797 77.1936 46.4127 77.3386 46.6017C77.4836 46.7907 77.6926 46.9117 77.9286 46.9427C78.2146 46.9807 78.4995 46.9047 78.7285 46.7287C78.9575 46.5527 79.1045 46.2987 79.1425 46.0117C79.1885 45.6617 79.0956 45.3147 78.8806 45.0347C78.6656 44.7547 78.3546 44.5747 78.0046 44.5287C77.1176 44.4117 76.3015 45.0377 76.1845 45.9247C76.1465 46.2107 76.1705 46.4947 76.2535 46.7687C76.3785 47.1767 76.6275 47.5267 76.9735 47.7797C77.3205 48.0297 77.7296 48.1637 78.1576 48.1637Z" fill="#2B2422"/>
<path d="M85.6985 48.2873H78.1575C77.7015 48.2873 77.2675 48.1453 76.9025 47.8773C76.5345 47.6083 76.2695 47.2373 76.1355 46.8033C76.0465 46.5103 76.0215 46.2083 76.0615 45.9053C76.1225 45.4433 76.3605 45.0323 76.7305 44.7483C77.1005 44.4643 77.5575 44.3433 78.0225 44.4023C78.4055 44.4533 78.7455 44.6493 78.9805 44.9563C79.2155 45.2633 79.3175 45.6433 79.2665 46.0263C79.2245 46.3453 79.0605 46.6303 78.8045 46.8263C78.5475 47.0223 78.2285 47.1053 77.9115 47.0643C77.6425 47.0283 77.4045 46.8903 77.2395 46.6753C77.0745 46.4603 77.0035 46.1943 77.0385 45.9243C77.0695 45.6953 77.1865 45.4933 77.3695 45.3543C77.5505 45.2143 77.7755 45.1543 78.0055 45.1833C78.2005 45.2093 78.3745 45.3103 78.4945 45.4663C78.5875 45.5873 78.6845 45.7123 78.6555 45.9353C78.6355 46.0823 78.5975 46.2353 78.4485 46.3493C78.3175 46.4483 78.1755 46.4793 77.9975 46.4613C77.8635 46.4433 77.7535 46.2953 77.7715 46.1553C77.7905 46.0143 77.8915 45.9333 78.0275 45.9473C78.0425 45.9493 78.0495 45.9493 78.0655 45.9513C78.1075 45.9133 78.1275 45.8803 78.1315 45.8413C78.1345 45.8203 78.1365 45.8073 78.1365 45.7963L78.1035 45.7673C78.0635 45.7153 78.0055 45.6823 77.9405 45.6733C77.8435 45.6603 77.7475 45.6873 77.6695 45.7463C77.5915 45.8063 77.5415 45.8923 77.5285 45.9893C77.5105 46.1273 77.5475 46.2633 77.6315 46.3743C77.7165 46.4843 77.8395 46.5563 77.9765 46.5733C78.1645 46.5953 78.3525 46.5483 78.5035 46.4323C78.6545 46.3163 78.7515 46.1483 78.7765 45.9593C78.8095 45.7073 78.7425 45.4573 78.5885 45.2553C78.4345 45.0533 78.2095 44.9233 77.9565 44.8903C77.2755 44.8023 76.6405 45.2853 76.5515 45.9693C76.5205 46.2013 76.5395 46.4333 76.6085 46.6563C76.8165 47.3363 77.4385 47.7933 78.1565 47.7933H85.6975C85.8335 47.7933 85.9445 47.9033 85.9445 48.0403C85.9445 48.1773 85.8345 48.2873 85.6985 48.2873ZM78.0265 46.1983C78.0295 46.2063 78.0355 46.2133 78.0395 46.2163C78.1405 46.2263 78.2195 46.2093 78.2965 46.1513C78.3605 46.1023 78.3895 46.0373 78.4075 45.9023C78.4165 45.8333 78.4085 45.7883 78.3765 45.7333C78.3885 45.7703 78.3875 45.8103 78.3795 45.8743C78.3655 45.9783 78.3125 46.0723 78.2275 46.1373C78.1495 46.1963 78.1035 46.2073 78.0265 46.1983Z" fill="#231F20"/>
<path d="M73.3599 51.496C73.4029 51.496 73.4469 51.493 73.4909 51.487C73.7079 51.458 73.8999 51.347 74.0329 51.174C74.1659 51.001 74.2229 50.786 74.1949 50.569C74.1459 50.201 73.8079 49.941 73.4399 49.99C73.2929 50.009 73.1609 50.085 73.0709 50.203C72.9809 50.321 72.9409 50.467 72.9609 50.615C72.9679 50.666 73.0139 50.702 73.0649 50.695C73.1159 50.688 73.1519 50.642 73.1449 50.591C73.1319 50.493 73.1579 50.395 73.2179 50.316C73.2779 50.237 73.3659 50.187 73.4639 50.174C73.7299 50.139 73.9759 50.327 74.0109 50.593C74.0329 50.76 73.9889 50.927 73.8859 51.061C73.7829 51.195 73.6339 51.281 73.4669 51.303C73.0219 51.362 72.6129 51.048 72.5539 50.603C72.5339 50.454 72.5459 50.306 72.5899 50.163C72.7229 49.728 73.1209 49.436 73.5799 49.436H80.1159C80.1669 49.436 80.2089 49.394 80.2089 49.343C80.2089 49.292 80.1669 49.25 80.1159 49.25H73.5799C73.3169 49.25 73.0659 49.332 72.8549 49.487C72.6419 49.643 72.4889 49.858 72.4129 50.108C72.3619 50.276 72.3469 50.451 72.3699 50.626C72.4369 51.129 72.8669 51.495 73.3599 51.496Z" fill="#2B2422"/>
<path d="M73.36 51.62C72.798 51.62 72.319 51.2 72.246 50.643C72.221 50.45 72.236 50.257 72.293 50.072C72.378 49.795 72.546 49.557 72.781 49.386C73.014 49.215 73.29 49.124 73.58 49.124H80.117C80.237 49.124 80.335 49.222 80.335 49.342C80.335 49.462 80.237 49.56 80.117 49.56H73.58C73.176 49.56 72.827 49.817 72.709 50.199C72.671 50.324 72.66 50.455 72.677 50.586C72.727 50.963 73.079 51.227 73.45 51.179C73.584 51.161 73.703 51.092 73.786 50.985C73.868 50.878 73.904 50.745 73.886 50.61C73.873 50.514 73.824 50.428 73.747 50.37C73.67 50.311 73.575 50.287 73.479 50.299C73.414 50.308 73.356 50.341 73.315 50.393C73.275 50.445 73.258 50.51 73.267 50.575C73.282 50.695 73.198 50.804 73.079 50.82C72.958 50.838 72.85 50.752 72.834 50.632C72.81 50.451 72.858 50.273 72.969 50.128C73.08 49.983 73.241 49.891 73.421 49.866C73.863 49.807 74.26 50.118 74.317 50.553C74.35 50.803 74.284 51.05 74.13 51.251C73.976 51.451 73.754 51.579 73.505 51.611C73.459 51.617 73.409 51.62 73.36 51.62Z" fill="#231F20"/>
<path d="M72.1201 48.6643H76.6871C76.7381 48.6643 76.7801 48.6223 76.7801 48.5713C76.7801 48.5203 76.7381 48.4783 76.6871 48.4783H72.1201C71.8161 48.4783 71.5431 48.2773 71.4551 47.9903C71.4261 47.8943 71.4181 47.7953 71.4311 47.6953C71.4501 47.5523 71.5231 47.4253 71.6381 47.3373C71.7531 47.2493 71.8941 47.2113 72.0381 47.2303C72.1481 47.2443 72.2451 47.3013 72.3121 47.3883C72.3791 47.4763 72.4081 47.5843 72.3941 47.6943C72.3871 47.7453 72.4231 47.7913 72.4741 47.7983C72.5251 47.8053 72.5711 47.7693 72.5781 47.7183C72.5991 47.5593 72.5571 47.4023 72.4591 47.2753C72.3621 47.1483 72.2201 47.0663 72.0621 47.0453C71.8701 47.0203 71.6791 47.0713 71.5251 47.1893C71.3711 47.3073 71.2721 47.4783 71.2471 47.6703C71.2301 47.7973 71.2411 47.9233 71.2781 48.0443C71.3331 48.2253 71.4441 48.3803 71.5971 48.4923C71.7491 48.6053 71.9301 48.6643 72.1201 48.6643Z" fill="#2B2422"/>
<path d="M76.687 48.7886H72.12C71.903 48.7886 71.696 48.7216 71.523 48.5936C71.347 48.4656 71.221 48.2876 71.158 48.0806C71.116 47.9416 71.104 47.7986 71.123 47.6536C71.153 47.4276 71.269 47.2276 71.449 47.0906C71.629 46.9516 71.852 46.8916 72.078 46.9216C72.271 46.9476 72.441 47.0466 72.558 47.1986C72.676 47.3526 72.727 47.5436 72.702 47.7346C72.686 47.8536 72.579 47.9356 72.457 47.9226C72.399 47.9146 72.348 47.8856 72.313 47.8386C72.277 47.7926 72.262 47.7346 72.27 47.6776C72.28 47.6016 72.26 47.5266 72.213 47.4646C72.167 47.4036 72.099 47.3636 72.022 47.3546C71.913 47.3366 71.804 47.3686 71.715 47.4366C71.627 47.5036 71.57 47.6016 71.556 47.7116C71.545 47.7936 71.552 47.8756 71.576 47.9546C71.648 48.1886 71.872 48.3526 72.121 48.3526H76.688C76.808 48.3526 76.906 48.4506 76.906 48.5706C76.906 48.6906 76.807 48.7886 76.687 48.7886Z" fill="#231F20"/>
<path d="M77.2829 53.8668C77.3529 53.8668 77.4249 53.8618 77.4959 53.8528C77.8459 53.8068 78.1569 53.6268 78.3719 53.3468C78.5869 53.0668 78.6799 52.7198 78.6339 52.3698C78.6249 52.3028 78.5639 52.2558 78.4969 52.2648C78.4299 52.2738 78.3829 52.3348 78.3919 52.4018C78.4299 52.6868 78.3539 52.9698 78.1789 53.1988C78.0039 53.4268 77.7499 53.5738 77.4649 53.6118C77.4039 53.6198 77.3439 53.6238 77.2839 53.6238C76.6039 53.6238 76.0099 53.1188 75.9189 52.4258C75.8859 52.1748 75.9059 51.9248 75.9799 51.6848C76.2039 50.9518 76.8749 50.4598 77.6479 50.4598H82.4419C82.5089 50.4598 82.5639 50.4048 82.5639 50.3378C82.5639 50.2708 82.5089 50.2158 82.4419 50.2158H77.6479C77.2199 50.2158 76.8109 50.3488 76.4659 50.6018C76.1199 50.8558 75.8709 51.2048 75.7459 51.6128C75.6619 51.8868 75.6389 52.1708 75.6769 52.4568C75.7829 53.2718 76.4819 53.8668 77.2829 53.8668Z" fill="#2B2422"/>
<path d="M77.2827 53.9918C76.4097 53.9918 75.6657 53.3388 75.5517 52.4728C75.5117 52.1678 75.5367 51.8658 75.6257 51.5758C75.7597 51.1398 76.0237 50.7688 76.3917 50.5008C76.7587 50.2308 77.1927 50.0898 77.6467 50.0898H82.4407C82.5767 50.0898 82.6877 50.2008 82.6877 50.3378C82.6877 50.4748 82.5767 50.5848 82.4407 50.5848H77.6467C76.9277 50.5848 76.3057 51.0418 76.0977 51.7208C76.0297 51.9448 76.0107 52.1758 76.0417 52.4088C76.1307 53.0838 76.7487 53.5868 77.4457 53.4868C77.6987 53.4548 77.9237 53.3248 78.0787 53.1228C78.2337 52.9208 78.3007 52.6708 78.2667 52.4188C78.2577 52.3548 78.2747 52.2898 78.3147 52.2368C78.3547 52.1838 78.4137 52.1498 78.4797 52.1408C78.6127 52.1308 78.7387 52.2178 78.7567 52.3528C78.8077 52.7368 78.7057 53.1168 78.4707 53.4228C78.2357 53.7298 77.8947 53.9258 77.5117 53.9768C77.4357 53.9878 77.3577 53.9918 77.2827 53.9918Z" fill="#231F20"/>
<defs>
<filter id="filter0_d" x="0" y="0" width="130" height="130" filterUnits="userSpaceOnUse" color-interpolation-filters="sRGB">
<feFlood flood-opacity="0" result="BackgroundImageFix"/>
<feColorMatrix in="SourceAlpha" type="matrix" values="0 0 0 0 0 0 0 0 0 0 0 0 0 0 0 0 0 0 127 0" result="hardAlpha"/>
<feOffset dy="12"/>
<feGaussianBlur stdDeviation="12"/>
<feColorMatrix type="matrix" values="0 0 0 0 0 0 0 0 0 0 0 0 0 0 0 0 0 0 0.1 0"/>
<feBlend mode="normal" in2="BackgroundImageFix" result="effect1_dropShadow"/>
<feBlend mode="normal" in="SourceGraphic" in2="effect1_dropShadow" result="shape"/>
</filter>
</defs>
</svg>
