<svg width="130" height="130" viewBox="0 0 130 130" fill="none" xmlns="http://www.w3.org/2000/svg">
<g filter="url(#filter0_d)">
<circle cx="65" cy="53" r="41" fill="white"/>
</g>
<path d="M64.4996 70.8545C74.6368 70.8545 82.8546 62.6367 82.8546 52.4995C82.8546 42.3623 74.6368 34.1445 64.4996 34.1445C54.3624 34.1445 46.1445 42.3623 46.1445 52.4995C46.1445 62.6367 54.3624 70.8545 64.4996 70.8545Z" fill="#D7EDE7"/>
<path d="M66.697 56.5049H65.958V62.9469H66.697V56.5049Z" fill="#344A53"/>
<path d="M66.822 63.0709H65.833V56.3789H66.822V63.0709ZM66.083 62.8209H66.572V56.6289H66.083V62.8209Z" fill="#231F20"/>
<path d="M76.8888 56.5049H76.1768V62.9469H76.8888V56.5049Z" fill="#344A53"/>
<path d="M77.0137 63.0709H76.0527V56.3789H77.0137V63.0709ZM76.3017 62.8209H76.7627V56.6289H76.3017V62.8209Z" fill="#231F20"/>
<path d="M68.8604 60.1396H68.1934V62.9466H68.8604V60.1396Z" fill="#344A53"/>
<path d="M68.9844 63.0707H68.0674V60.0137H68.9844V63.0707ZM68.3184 62.8207H68.7354V60.2637H68.3184V62.8207Z" fill="#231F20"/>
<path d="M74.8521 59.3799H74.1621V62.9459H74.8521V59.3799Z" fill="#344A53"/>
<path d="M74.9771 63.0709H74.0371V59.2549H74.9771V63.0709ZM74.2871 62.8209H74.7271V59.5049H74.2871V62.8209Z" fill="#231F20"/>
<path d="M77.1288 59.1973H65.7178V60.6933H77.1288V59.1973Z" fill="#00B9BB"/>
<path d="M77.3788 60.9442H65.4668V58.9482H77.3788V60.9442ZM65.9678 60.4442H76.8798V59.4482H65.9678V60.4442Z" fill="#231F20"/>
<path d="M71.4234 54.2259C65.4624 54.1889 65.7174 57.6719 65.7174 57.6719H77.1284C77.1294 57.6719 77.3334 54.2259 71.4234 54.2259Z" fill="#00B9BB"/>
<path d="M77.365 57.9216H65.485L65.468 57.6906C65.465 57.6446 65.396 56.5556 66.328 55.5586C67.31 54.5076 68.993 53.9756 71.328 53.9756C71.36 53.9756 71.391 53.9756 71.423 53.9756C73.791 53.9756 75.499 54.5146 76.501 55.5776C77.434 56.5676 77.382 57.6416 77.379 57.6866L77.365 57.9216ZM65.975 57.4216H76.867C76.828 57.0976 76.68 56.4906 76.127 55.9096C75.222 54.9576 73.639 54.4746 71.423 54.4746H71.422C71.39 54.4746 71.359 54.4746 71.327 54.4746C69.144 54.4746 67.589 54.9506 66.703 55.8896C66.148 56.4786 66.009 57.0956 65.975 57.4216Z" fill="#231F20"/>
<path d="M56.6223 63.1201H47.9463C47.8083 63.1201 47.6963 63.0081 47.6963 62.8701C47.6963 62.7321 47.8083 62.6201 47.9463 62.6201H56.6223C56.7603 62.6201 56.8723 62.7321 56.8723 62.8701C56.8723 63.0081 56.7613 63.1201 56.6223 63.1201Z" fill="#231F20"/>
<path d="M81.1 63.1201H60.415C60.277 63.1201 60.165 63.0081 60.165 62.8701C60.165 62.7321 60.277 62.6201 60.415 62.6201H81.1C81.238 62.6201 81.35 62.7321 81.35 62.8701C81.35 63.0081 81.238 63.1201 81.1 63.1201Z" fill="#231F20"/>
<path d="M57.8919 58.6662C57.8919 58.6662 49.2459 61.7362 45.7419 56.5052C42.2379 51.2742 50.2419 40.5892 51.4459 40.0282C52.6489 39.4672 56.8709 37.4422 61.1129 49.3792C64.0129 58.2382 57.8919 58.6662 57.8919 58.6662Z" fill="#EC8C22"/>
<path d="M53.3745 55.9317L50.0775 52.5407C49.9815 52.4417 49.9835 52.2837 50.0825 52.1867C50.1825 52.0927 50.3405 52.0927 50.4365 52.1927L53.3815 55.2197L56.4475 52.1887C56.5455 52.0917 56.7035 52.0917 56.8015 52.1907C56.8985 52.2897 56.8975 52.4477 56.7995 52.5447L53.3745 55.9317Z" fill="#231F20"/>
<path d="M53.377 63.1202C53.239 63.1202 53.127 63.0082 53.127 62.8702V55.5762C53.127 55.4382 53.239 55.3262 53.377 55.3262C53.515 55.3262 53.627 55.4382 53.627 55.5762V62.8702C53.627 63.0082 53.516 63.1202 53.377 63.1202Z" fill="#231F20"/>
<path d="M53.1254 39.5576C53.1254 39.5576 45.5134 53.1556 50.4124 59.3806C44.8614 58.5526 43.7854 54.0316 46.0564 48.1036C47.1824 45.1636 49.5214 40.0006 53.1254 39.5576Z" fill="#EB6724"/>
<path d="M62.7666 70.9293C62.1676 70.1633 63.8836 68.8473 65.8886 68.3813C65.9616 66.0113 68.0525 65.2483 68.5665 65.1963C69.6125 65.0903 70.8505 65.6353 72.4635 67.2603C76.4275 67.2433 76.2045 70.8183 76.2045 70.8183C76.2045 70.8183 67.1686 76.5523 62.7666 70.9293Z" fill="#00B9BB"/>
<path d="M68.1064 73.6318C66.0794 73.6318 64.0644 72.9928 62.5694 71.0838C62.3864 70.8508 62.3464 70.5678 62.4524 70.2678C62.7364 69.4638 64.0924 68.5858 65.6484 68.1838C65.8304 65.7548 67.9984 65.0028 68.5414 64.9478C69.7294 64.8298 71.0504 65.5028 72.5674 67.0108C73.8274 67.0258 74.8084 67.3958 75.4864 68.1148C76.5404 69.2308 76.4574 70.7688 76.4534 70.8348L76.4454 70.9618L76.3374 71.0298C76.2764 71.0688 72.1674 73.6318 68.1064 73.6318ZM62.9624 70.7758C66.9114 75.8208 74.9024 71.3048 75.9554 70.6768C75.9494 70.3138 75.8644 69.2398 75.1194 68.4528C74.5274 67.8278 73.6424 67.5108 72.4924 67.5108C72.4834 67.5108 72.4734 67.5108 72.4644 67.5108H72.3604L72.2864 67.4368C70.8494 65.9908 69.6404 65.3308 68.5914 65.4458C68.2024 65.4858 66.2064 66.1588 66.1384 68.3898L66.1324 68.5818L65.9444 68.6248C64.3414 68.9978 63.1284 69.8538 62.9234 70.4348C62.8604 70.6138 62.9154 70.7148 62.9624 70.7758Z" fill="#231F20"/>
<path d="M70.6288 73.0201C71.5168 72.6431 69.5118 71.0351 67.5068 70.5911C67.4338 68.3321 65.3428 67.6041 64.8288 67.5551C63.7828 67.4541 62.5448 67.9741 60.9318 69.5231C56.9678 69.5061 57.1908 72.9151 57.1908 72.9151C57.1908 72.9151 61.8358 76.7521 70.6288 73.0201Z" fill="#EB6724"/>
<path d="M63.3185 74.915C59.2875 74.915 57.1615 73.214 57.0315 73.106L56.9485 73.038L56.9415 72.931C56.9375 72.87 56.8575 71.445 57.8585 70.38C58.5375 69.658 59.5375 69.286 60.8315 69.273C62.3495 67.835 63.6625 67.191 64.8535 67.306C65.3955 67.359 67.5595 68.074 67.7465 70.391C69.3675 70.805 71.0235 71.927 71.0935 72.685C71.1165 72.936 70.9835 73.142 70.7275 73.251C67.7955 74.494 65.3215 74.915 63.3185 74.915ZM57.4385 72.788C58.1195 73.272 62.6485 76.137 70.5305 72.79C70.5965 72.762 70.5955 72.746 70.5935 72.729C70.5555 72.316 69.1095 71.202 67.4515 70.834L67.2625 70.792L67.2565 70.598C67.1885 68.479 65.1945 67.841 64.8045 67.803C63.7505 67.689 62.5425 68.323 61.1045 69.702L61.0315 69.771H60.9305C60.9215 69.771 60.9115 69.771 60.9025 69.771C59.7195 69.771 58.8195 70.089 58.2265 70.717C57.5205 71.466 57.4445 72.459 57.4385 72.788Z" fill="#231F20"/>
<path d="M64.5 75C52.08 74.986 42.014 64.92 42 52.5C42.014 40.08 52.08 30.014 64.5 30C76.921 30.014 86.986 40.079 87 52.5C86.986 64.921 76.921 74.986 64.5 75ZM64.5 30.795C52.518 30.809 42.809 40.518 42.795 52.5C42.809 64.482 52.518 74.191 64.5 74.205C76.482 74.191 86.191 64.482 86.205 52.5C86.192 40.518 76.482 30.807 64.5 30.793V30.795Z" fill="#DADADA"/>
<path d="M51.5172 59.8047C51.0082 59.8047 50.0802 59.7617 49.0242 59.5057C47.4312 59.1197 46.0912 58.1197 45.2512 56.6897C44.3942 55.2307 44.1632 53.4557 44.6182 51.8187C45.9902 46.8827 48.6762 41.2227 51.5852 39.7047C52.4242 39.2657 53.2472 39.1837 54.0292 39.4587C58.5412 41.0417 62.8872 50.5677 61.6522 56.1697C60.9202 59.4897 55.6142 59.2747 55.3882 59.2647C55.2502 59.2577 55.1432 59.1407 55.1502 59.0027C55.1572 58.8647 55.2852 58.7597 55.4112 58.7647C55.4672 58.7737 60.5222 58.9707 61.1632 56.0627C62.4242 50.3437 57.7512 41.2947 53.8632 39.9317C53.2162 39.7047 52.5262 39.7777 51.8162 40.1487C49.0402 41.5977 46.4422 47.1227 45.0992 51.9547C44.6812 53.4607 44.8932 55.0947 45.6822 56.4377C46.4532 57.7497 47.6822 58.6667 49.1412 59.0207C50.6292 59.3807 51.8802 59.2967 51.8912 59.2957C52.0322 59.2747 52.1482 59.3897 52.1592 59.5267C52.1692 59.6647 52.0652 59.7837 51.9282 59.7937C51.9102 59.7947 51.7622 59.8047 51.5172 59.8047Z" fill="#231F20"/>
<path d="M64.1407 40.9269C64.0787 40.9269 64.0157 40.9039 63.9677 40.8569C63.8677 40.7609 63.8647 40.6029 63.9607 40.5029L65.1027 39.3189C65.1997 39.2199 65.3567 39.2179 65.4567 39.3129C65.5567 39.4089 65.5597 39.5669 65.4637 39.6669L64.3217 40.8509C64.2707 40.9019 64.2057 40.9269 64.1407 40.9269Z" fill="#231F20"/>
<path d="M68.2754 43.3389C68.2134 43.3389 68.1504 43.3159 68.1024 43.2689C68.0024 43.1729 67.9994 43.0149 68.0954 42.9149L69.2364 41.7298C69.3334 41.6298 69.4914 41.6279 69.5904 41.7239C69.6904 41.8199 69.6934 41.9778 69.5974 42.0778L68.4564 43.2629C68.4064 43.3139 68.3404 43.3389 68.2754 43.3389Z" fill="#231F20"/>
<path d="M68.2754 47.1236C68.2134 47.1236 68.1504 47.1006 68.1024 47.0536C68.0024 46.9576 67.9994 46.7996 68.0954 46.6996L69.2364 45.5156C69.3334 45.4166 69.4914 45.4136 69.5904 45.5096C69.6904 45.6056 69.6934 45.7636 69.5974 45.8636L68.4564 47.0476C68.4064 47.0986 68.3404 47.1236 68.2754 47.1236Z" fill="#231F20"/>
<path d="M73.6045 45.4973C73.5425 45.4973 73.4795 45.4743 73.4315 45.4273C73.3315 45.3313 73.3285 45.1733 73.4245 45.0733L74.5665 43.8883C74.6635 43.7893 74.8205 43.7873 74.9205 43.8823C75.0205 43.9783 75.0235 44.1363 74.9275 44.2363L73.7855 45.4213C73.7355 45.4723 73.6705 45.4973 73.6045 45.4973Z" fill="#231F20"/>
<path d="M72.4229 41.5201C72.3609 41.5201 72.2979 41.4971 72.2499 41.4501C72.1499 41.3541 72.1469 41.1961 72.2429 41.0961L73.3849 39.9111C73.4819 39.8121 73.6399 39.8091 73.7389 39.9051C73.8389 40.0011 73.8419 40.1591 73.7459 40.2591L72.6039 41.4441C72.5539 41.4941 72.4879 41.5201 72.4229 41.5201Z" fill="#231F20"/>
<path d="M71.0147 49.8639C70.9527 49.8639 70.8897 49.8409 70.8417 49.7939C70.7417 49.6979 70.7387 49.5398 70.8347 49.4398L71.9757 48.2558C72.0727 48.1568 72.2307 48.1539 72.3297 48.2499C72.4297 48.3459 72.4327 48.5038 72.3367 48.6038L71.1957 49.7878C71.1457 49.8388 71.0797 49.8639 71.0147 49.8639Z" fill="#231F20"/>
<path d="M63.5704 44.3134C63.5084 44.3134 63.4454 44.2904 63.3974 44.2434C63.2974 44.1474 63.2944 43.9894 63.3904 43.8894L64.5314 42.7054C64.6284 42.6054 64.7864 42.6034 64.8854 42.6994C64.9854 42.7954 64.9884 42.9534 64.8924 43.0534L63.7514 44.2374C63.7014 44.2874 63.6364 44.3134 63.5704 44.3134Z" fill="#231F20"/>
<path d="M59.169 46.09C59.107 46.09 59.044 46.067 58.996 46.02C58.896 45.924 58.893 45.766 58.989 45.666L60.131 44.482C60.228 44.383 60.386 44.381 60.485 44.476C60.585 44.572 60.588 44.73 60.492 44.83L59.35 46.014C59.3 46.065 59.234 46.09 59.169 46.09Z" fill="#231F20"/>
<path d="M62.7686 48.3088C62.7066 48.3088 62.6436 48.2858 62.5956 48.2388C62.4956 48.1428 62.4926 47.9848 62.5886 47.8848L63.7306 46.6998C63.8276 46.6008 63.9856 46.5988 64.0846 46.6938C64.1846 46.7898 64.1876 46.9478 64.0916 47.0478L62.9496 48.2328C62.8996 48.2828 62.8346 48.3088 62.7686 48.3088Z" fill="#231F20"/>
<path d="M66.4629 51.4938C66.4009 51.4938 66.3379 51.4708 66.2899 51.4238C66.1899 51.3278 66.1869 51.1698 66.2829 51.0698L67.4239 49.8848C67.5209 49.7858 67.6789 49.7828 67.7779 49.8788C67.8779 49.9748 67.8809 50.1328 67.7849 50.2328L66.6439 51.4178C66.5939 51.4688 66.5289 51.4938 66.4629 51.4938Z" fill="#231F20"/>
<path d="M60.9581 52.6773C60.8961 52.6773 60.8331 52.6543 60.7851 52.6073C60.6851 52.5113 60.6821 52.3533 60.7781 52.2533L61.9201 51.0693C62.0171 50.9703 62.1751 50.9673 62.2741 51.0633C62.3741 51.1593 62.3771 51.3173 62.2811 51.4173L61.1391 52.6013C61.0891 52.6523 61.0231 52.6773 60.9581 52.6773Z" fill="#231F20"/>
<path d="M59.169 42.1119C59.107 42.1119 59.044 42.0889 58.996 42.0419C58.896 41.9459 58.893 41.7879 58.989 41.6879L60.131 40.5029C60.228 40.4039 60.386 40.4009 60.485 40.4969C60.585 40.5929 60.588 40.7509 60.492 40.8509L59.35 42.0359C59.3 42.0859 59.234 42.1119 59.169 42.1119Z" fill="#231F20"/>
<path d="M65.1629 33.4758C66.9979 32.4258 70.3409 30.9358 71.1709 33.4448C71.4659 34.3378 70.9229 35.8758 73.1989 35.1408C74.0829 34.8548 74.8079 36.0408 75.1479 36.6248C76.3169 36.0858 78.3849 37.0118 77.6089 38.2358C77.0179 39.1668 66.2129 38.4578 61.9779 38.1428C60.6359 38.0428 59.6219 36.7448 60.0139 35.4578C60.2569 34.6608 60.9809 34.0068 62.7429 34.0938C63.5909 34.1348 64.4269 33.8968 65.1629 33.4758Z" fill="#D7EDE7"/>
<path d="M73.3984 38.9457C70.7514 38.9457 66.9334 38.7607 61.9604 38.3897C61.2124 38.3337 60.5124 37.9307 60.0874 37.3107C59.6914 36.7337 59.5784 36.0317 59.7754 35.3827C60.0264 34.5607 60.8194 33.6347 63.1734 33.8737C63.6384 33.9237 64.1124 33.8167 64.5014 33.5767C66.0204 32.6387 68.8084 31.1997 70.4284 32.1047C71.2154 32.5427 71.6134 33.4627 71.6124 34.8357C71.6124 34.9397 71.6624 35.0337 71.7474 35.0877C71.7944 35.1177 71.8904 35.1587 72.0064 35.1047C73.4024 34.4577 74.5754 35.2747 75.2524 36.3147C76.0774 36.0557 77.1814 36.3177 77.7244 36.9387C78.0934 37.3617 78.1284 37.8817 77.8204 38.3677C77.5774 38.7537 76.0964 38.9457 73.3984 38.9457ZM62.4354 34.3347C61.2284 34.3347 60.4964 34.7347 60.2534 35.5297C60.0984 36.0387 60.1864 36.5707 60.4994 37.0287C60.8394 37.5247 61.3984 37.8467 61.9974 37.8917C72.7934 38.6957 77.0414 38.5027 77.4024 38.0967C77.5904 37.7987 77.5744 37.5267 77.3484 37.2687C76.9064 36.7617 75.8894 36.5607 75.2534 36.8497L75.0474 36.9457L74.9334 36.7497C74.7454 36.4267 73.7304 34.8567 72.2184 35.5597C71.9774 35.6717 71.7014 35.6537 71.4794 35.5117C71.2504 35.3657 71.1124 35.1137 71.1134 34.8377C71.1144 33.6587 70.8024 32.8867 70.1864 32.5427C68.7364 31.7337 65.9134 33.2947 64.7654 34.0037C64.2834 34.3007 63.6984 34.4287 63.1224 34.3727C62.8784 34.3477 62.6494 34.3347 62.4354 34.3347ZM64.6334 33.7907H64.6394H64.6334Z" fill="#231F20"/>
<defs>
<filter id="filter0_d" x="0" y="0" width="130" height="130" filterUnits="userSpaceOnUse" color-interpolation-filters="sRGB">
<feFlood flood-opacity="0" result="BackgroundImageFix"/>
<feColorMatrix in="SourceAlpha" type="matrix" values="0 0 0 0 0 0 0 0 0 0 0 0 0 0 0 0 0 0 127 0" result="hardAlpha"/>
<feOffset dy="12"/>
<feGaussianBlur stdDeviation="12"/>
<feColorMatrix type="matrix" values="0 0 0 0 0 0 0 0 0 0 0 0 0 0 0 0 0 0 0.1 0"/>
<feBlend mode="normal" in2="BackgroundImageFix" result="effect1_dropShadow"/>
<feBlend mode="normal" in="SourceGraphic" in2="effect1_dropShadow" result="shape"/>
</filter>
</defs>
</svg>
