<svg width="130" height="130" viewBox="0 0 130 130" fill="none" xmlns="http://www.w3.org/2000/svg">
<g filter="url(#filter0_d)">
<circle cx="65" cy="53" r="41" fill="white"/>
</g>
<path d="M65.4995 70.8545C75.6367 70.8545 83.8545 62.6367 83.8545 52.4995C83.8545 42.3623 75.6367 34.1445 65.4995 34.1445C55.3623 34.1445 47.1445 42.3623 47.1445 52.4995C47.1445 62.6367 55.3623 70.8545 65.4995 70.8545Z" fill="#D7EDE7"/>
<path d="M67.697 56.5049H66.958V62.9469H67.697V56.5049Z" fill="#344A53"/>
<path d="M67.822 63.0719H66.833V56.3799H67.822V63.0719ZM67.083 62.8219H67.572V56.6299H67.083V62.8219Z" fill="#231F20"/>
<path d="M77.8888 56.5049H77.1768V62.9469H77.8888V56.5049Z" fill="#344A53"/>
<path d="M78.0137 63.0719H77.0527V56.3799H78.0137V63.0719ZM77.3017 62.8219H77.7627V56.6299H77.3017V62.8219Z" fill="#231F20"/>
<path d="M69.8604 60.1396H69.1934V62.9466H69.8604V60.1396Z" fill="#344A53"/>
<path d="M69.9844 63.0716H69.0674V60.0146H69.9844V63.0716ZM69.3184 62.8216H69.7354V60.2646H69.3184V62.8216Z" fill="#231F20"/>
<path d="M75.8521 59.3809H75.1621V62.9469H75.8521V59.3809Z" fill="#344A53"/>
<path d="M75.9771 63.0719H75.0371V59.2559H75.9771V63.0719ZM75.2871 62.8219H75.7271V59.5059H75.2871V62.8219Z" fill="#231F20"/>
<path d="M78.1288 59.1973H66.7178V60.6933H78.1288V59.1973Z" fill="#00B9BB"/>
<path d="M78.3788 60.9442H66.4678V58.9482H78.3798V60.9442H78.3788ZM66.9678 60.4442H77.8798V59.4482H66.9678V60.4442Z" fill="#231F20"/>
<path d="M72.4234 54.2259C66.4624 54.1889 66.7174 57.6719 66.7174 57.6719H78.1284C78.1294 57.6719 78.3344 54.2259 72.4234 54.2259Z" fill="#00B9BB"/>
<path d="M78.365 57.9216H66.485L66.468 57.6906C66.465 57.6446 66.396 56.5556 67.328 55.5586C68.31 54.5076 69.993 53.9756 72.328 53.9756C72.36 53.9756 72.391 53.9756 72.423 53.9756C74.791 53.9756 76.499 54.5146 77.501 55.5776C78.434 56.5676 78.382 57.6416 78.379 57.6866L78.365 57.9216ZM66.976 57.4216H77.867C77.828 57.0976 77.68 56.4906 77.127 55.9096C76.222 54.9576 74.639 54.4746 72.423 54.4746H72.422C70.168 54.4766 68.602 54.9376 67.703 55.8896C67.148 56.4786 67.009 57.0956 66.976 57.4216Z" fill="#231F20"/>
<path d="M57.6233 63.1211H48.9473C48.8093 63.1211 48.6973 63.0091 48.6973 62.8711C48.6973 62.7331 48.8093 62.6211 48.9473 62.6211H57.6233C57.7613 62.6211 57.8733 62.7331 57.8733 62.8711C57.8733 63.0091 57.7613 63.1211 57.6233 63.1211Z" fill="#231F20"/>
<path d="M82.1 63.1211H61.415C61.277 63.1211 61.165 63.0091 61.165 62.8711C61.165 62.7331 61.277 62.6211 61.415 62.6211H82.1C82.238 62.6211 82.35 62.7331 82.35 62.8711C82.35 63.0091 82.238 63.1211 82.1 63.1211Z" fill="#231F20"/>
<path d="M58.8919 58.6662C58.8919 58.6662 50.2459 61.7362 46.7419 56.5052C43.2379 51.2742 51.2419 40.5892 52.4459 40.0282C53.6489 39.4672 57.8709 37.4422 62.1129 49.3792C65.0129 58.2382 58.8919 58.6662 58.8919 58.6662Z" fill="#00B9BB"/>
<path d="M54.3745 55.9323L51.0785 52.5413C50.9825 52.4423 50.9845 52.2843 51.0835 52.1873C51.1835 52.0923 51.3415 52.0933 51.4375 52.1933L54.3825 55.2203L57.4475 52.1903C57.5465 52.0933 57.7045 52.0933 57.8015 52.1923C57.8985 52.2913 57.8975 52.4493 57.7995 52.5463L54.3745 55.9323Z" fill="#231F20"/>
<path d="M54.377 63.1211C54.239 63.1211 54.127 63.0091 54.127 62.8711V55.5771C54.127 55.4391 54.239 55.3271 54.377 55.3271C54.515 55.3271 54.627 55.4391 54.627 55.5771V62.8711C54.627 63.0081 54.516 63.1211 54.377 63.1211Z" fill="#231F20"/>
<path d="M54.1264 39.5586C54.1264 39.5586 46.5144 53.1566 51.4134 59.3816C45.8624 58.5536 44.7864 54.0326 47.0574 48.1046C48.1824 45.1646 50.5214 40.0006 54.1264 39.5586Z" fill="#009E9C"/>
<path d="M52.5165 59.6316C52.0075 59.6316 51.0795 59.5886 50.0235 59.3326C48.4305 58.9466 47.0915 57.9466 46.2515 56.5176C45.3945 55.0576 45.1635 53.2826 45.6175 51.6446C46.9895 46.7096 49.6755 41.0496 52.5845 39.5316C53.4235 39.0936 54.2455 39.0106 55.0285 39.2856C59.5405 40.8686 63.8865 50.3946 62.6515 55.9966C61.9195 59.3146 56.6095 59.0946 56.3875 59.0906C56.2495 59.0836 56.1425 58.9666 56.1495 58.8286C56.1565 58.6906 56.2805 58.5846 56.4105 58.5906C56.4635 58.5986 61.5215 58.7966 62.1625 55.8896C63.4235 50.1706 58.7505 41.1216 54.8625 39.7586C54.2145 39.5296 53.5255 39.6046 52.8145 39.9756C50.0385 41.4246 47.4405 46.9486 46.0975 51.7806C45.6795 53.2876 45.8915 54.9226 46.6805 56.2656C47.4515 57.5776 48.6795 58.4946 50.1385 58.8476C51.6265 59.2066 52.8775 59.1226 52.8885 59.1226C53.0295 59.1016 53.1455 59.2166 53.1565 59.3536C53.1665 59.4916 53.0625 59.6106 52.9255 59.6206C52.9095 59.6216 52.7615 59.6316 52.5165 59.6316Z" fill="#231F20"/>
<path d="M57.7377 47.8817C58.3226 47.8817 58.7967 47.4075 58.7967 46.8227C58.7967 46.2378 58.3226 45.7637 57.7377 45.7637C57.1528 45.7637 56.6787 46.2378 56.6787 46.8227C56.6787 47.4075 57.1528 47.8817 57.7377 47.8817Z" fill="#EB6724"/>
<path d="M57.7377 48.1317C57.0157 48.1317 56.4277 47.5447 56.4277 46.8227C56.4277 46.1007 57.0147 45.5127 57.7377 45.5127C58.4597 45.5127 59.0467 46.1007 59.0467 46.8227C59.0467 47.5447 58.4597 48.1317 57.7377 48.1317ZM57.7377 46.0137C57.2917 46.0137 56.9277 46.3767 56.9277 46.8237C56.9277 47.2707 57.2907 47.6327 57.7377 47.6327C58.1847 47.6327 58.5467 47.2707 58.5467 46.8237C58.5467 46.3767 58.1847 46.0137 57.7377 46.0137Z" fill="#231F20"/>
<path d="M50.0326 47.8817C50.6175 47.8817 51.0916 47.4075 51.0916 46.8227C51.0916 46.2378 50.6175 45.7637 50.0326 45.7637C49.4478 45.7637 48.9736 46.2378 48.9736 46.8227C48.9736 47.4075 49.4478 47.8817 50.0326 47.8817Z" fill="#EB6724"/>
<path d="M50.0326 48.1317C49.3106 48.1317 48.7236 47.5447 48.7236 46.8227C48.7236 46.1007 49.3106 45.5127 50.0326 45.5127C50.7546 45.5127 51.3426 46.1007 51.3426 46.8227C51.3426 47.5447 50.7546 48.1317 50.0326 48.1317ZM50.0326 46.0137C49.5866 46.0137 49.2236 46.3767 49.2236 46.8237C49.2236 47.2707 49.5866 47.6327 50.0326 47.6327C50.4786 47.6327 50.8426 47.2707 50.8426 46.8237C50.8426 46.3767 50.4786 46.0137 50.0326 46.0137Z" fill="#231F20"/>
<path d="M54.1264 44.4373C54.7113 44.4373 55.1854 43.9632 55.1854 43.3783C55.1854 42.7935 54.7113 42.3193 54.1264 42.3193C53.5415 42.3193 53.0674 42.7935 53.0674 43.3783C53.0674 43.9632 53.5415 44.4373 54.1264 44.4373Z" fill="#EB6724"/>
<path d="M54.1254 44.6884C53.4034 44.6884 52.8164 44.1004 52.8164 43.3784C52.8164 42.6564 53.4034 42.0684 54.1254 42.0684C54.8474 42.0684 55.4354 42.6564 55.4354 43.3784C55.4354 44.1004 54.8484 44.6884 54.1254 44.6884ZM54.1254 42.5694C53.6794 42.5694 53.3164 42.9324 53.3164 43.3794C53.3164 43.8264 53.6794 44.1894 54.1254 44.1894C54.5714 44.1894 54.9354 43.8264 54.9354 43.3794C54.9354 42.9324 54.5724 42.5694 54.1254 42.5694Z" fill="#231F20"/>
<path d="M54.1264 51.1805C54.7113 51.1805 55.1854 50.7064 55.1854 50.1215C55.1854 49.5366 54.7113 49.0625 54.1264 49.0625C53.5415 49.0625 53.0674 49.5366 53.0674 50.1215C53.0674 50.7064 53.5415 51.1805 54.1264 51.1805Z" fill="#EB6724"/>
<path d="M54.1254 51.4305C53.4034 51.4305 52.8164 50.8425 52.8164 50.1205C52.8164 49.3985 53.4034 48.8105 54.1254 48.8105C54.8474 48.8105 55.4354 49.3985 55.4354 50.1205C55.4354 50.8425 54.8484 51.4305 54.1254 51.4305ZM54.1254 49.3115C53.6794 49.3115 53.3164 49.6745 53.3164 50.1215C53.3164 50.5685 53.6794 50.9315 54.1254 50.9315C54.5714 50.9315 54.9354 50.5685 54.9354 50.1215C54.9354 49.6745 54.5724 49.3115 54.1254 49.3115Z" fill="#231F20"/>
<path d="M48.9467 52.9998C49.5316 52.9998 50.0057 52.5257 50.0057 51.9408C50.0057 51.356 49.5316 50.8818 48.9467 50.8818C48.3618 50.8818 47.8877 51.356 47.8877 51.9408C47.8877 52.5257 48.3618 52.9998 48.9467 52.9998Z" fill="#EB6724"/>
<path d="M48.9467 53.2499C48.2247 53.2499 47.6367 52.6619 47.6367 51.9399C47.6367 51.2179 48.2237 50.6299 48.9467 50.6299C49.6687 50.6299 50.2557 51.2179 50.2557 51.9399C50.2557 52.6619 49.6677 53.2499 48.9467 53.2499ZM48.9467 51.1309C48.5007 51.1309 48.1367 51.4939 48.1367 51.9409C48.1367 52.3879 48.4997 52.7509 48.9467 52.7509C49.3937 52.7509 49.7557 52.3879 49.7557 51.9409C49.7557 51.4939 49.3927 51.1309 48.9467 51.1309Z" fill="#231F20"/>
<path d="M60.3559 52.9998C60.9408 52.9998 61.4149 52.5257 61.4149 51.9408C61.4149 51.356 60.9408 50.8818 60.3559 50.8818C59.771 50.8818 59.2969 51.356 59.2969 51.9408C59.2969 52.5257 59.771 52.9998 60.3559 52.9998Z" fill="#EB6724"/>
<path d="M60.3559 53.2499C59.6339 53.2499 59.0469 52.6619 59.0469 51.9399C59.0469 51.2179 59.6339 50.6299 60.3559 50.6299C61.0779 50.6299 61.6649 51.2179 61.6649 51.9399C61.6649 52.6619 61.0779 53.2499 60.3559 53.2499ZM60.3559 51.1309C59.9099 51.1309 59.5469 51.4939 59.5469 51.9409C59.5469 52.3879 59.9099 52.7509 60.3559 52.7509C60.8019 52.7509 61.1649 52.3879 61.1649 51.9409C61.1649 51.4939 60.8029 51.1309 60.3559 51.1309Z" fill="#231F20"/>
<path d="M64.6347 70.9303C64.0357 70.1643 65.7517 68.8483 67.7567 68.3823C67.8297 66.0123 69.9207 65.2493 70.4347 65.1973C71.4807 65.0913 72.7187 65.6363 74.3317 67.2613C78.2957 67.2443 78.0727 70.8193 78.0727 70.8193C78.0727 70.8193 69.0367 76.5533 64.6347 70.9303Z" fill="#009E9C"/>
<path d="M69.9746 73.6323C67.9476 73.6323 65.9326 72.9933 64.4376 71.0843C64.2546 70.8513 64.2146 70.5683 64.3206 70.2683C64.6046 69.4643 65.9606 68.5863 67.5166 68.1843C67.6986 65.7553 69.8656 65.0033 70.4086 64.9483C71.5996 64.8273 72.9176 65.5043 74.4356 67.0113C75.6956 67.0263 76.6766 67.3963 77.3546 68.1153C78.4086 69.2313 78.3256 70.7693 78.3216 70.8353L78.3136 70.9623L78.2056 71.0303C78.1446 71.0693 74.0366 73.6323 69.9746 73.6323ZM64.8306 70.7763C68.7796 75.8213 76.7716 71.3043 77.8236 70.6773C77.8176 70.3143 77.7326 69.2403 76.9876 68.4533C76.3956 67.8283 75.5106 67.5113 74.3606 67.5113C74.3516 67.5113 74.3416 67.5113 74.3326 67.5113H74.2286L74.1546 67.4373C72.7186 65.9913 71.5096 65.3333 70.4596 65.4463C70.0706 65.4863 68.0756 66.1593 68.0066 68.3903L68.0006 68.5823L67.8126 68.6253C66.2096 68.9983 64.9966 69.8543 64.7916 70.4353C64.7286 70.6153 64.7836 70.7153 64.8306 70.7763Z" fill="#231F20"/>
<path d="M72.4969 73.0211C73.3849 72.6441 71.3799 71.0361 69.3749 70.5921C69.3019 68.3331 67.2109 67.6051 66.6969 67.5561C65.6509 67.4551 64.4129 67.9751 62.7999 69.5241C58.8359 69.5071 59.0589 72.9161 59.0589 72.9161C59.0589 72.9161 63.7039 76.7531 72.4969 73.0211Z" fill="#009E9C"/>
<path d="M65.1867 74.9154C61.1557 74.9154 59.0297 73.2144 58.8997 73.1064L58.8167 73.0384L58.8097 72.9314C58.8057 72.8704 58.7257 71.4454 59.7267 70.3804C60.4057 69.6584 61.4057 69.2864 62.6997 69.2734C64.2187 67.8354 65.5357 67.1894 66.7217 67.3064C67.2637 67.3594 69.4277 68.0744 69.6147 70.3914C71.2357 70.8054 72.8917 71.9274 72.9607 72.6844C72.9837 72.9364 72.8507 73.1424 72.5947 73.2514C69.6637 74.4954 67.1897 74.9154 65.1867 74.9154ZM59.3077 72.7884C59.9867 73.2714 64.5157 76.1354 72.3997 72.7904C72.4667 72.7624 72.4647 72.7464 72.4637 72.7294C72.4257 72.3164 70.9797 71.2024 69.3217 70.8344L69.1327 70.7924L69.1267 70.5984C69.0587 68.4794 67.0647 67.8414 66.6747 67.8034C65.6227 67.6904 64.4117 68.3234 62.9747 69.7024L62.9017 69.7714H62.8007C62.7917 69.7714 62.7817 69.7714 62.7727 69.7714C61.5897 69.7714 60.6897 70.0894 60.0967 70.7174C59.3887 71.4664 59.3127 72.4594 59.3077 72.7884Z" fill="#231F20"/>
<path d="M65.5 75C53.08 74.986 43.014 64.92 43 52.5C43.014 40.08 53.08 30.014 65.5 30C77.921 30.014 87.986 40.079 88 52.5C87.986 64.921 77.921 74.987 65.5 75ZM65.5 30.795C53.518 30.809 43.809 40.518 43.795 52.5C43.809 64.482 53.518 74.191 65.5 74.205C77.482 74.191 87.191 64.482 87.205 52.5C87.192 40.518 77.482 30.807 65.5 30.793V30.795Z" fill="#DADADA"/>
<path d="M67.5952 47.5829C68.8251 47.5829 69.8222 46.5858 69.8222 45.3559C69.8222 44.126 68.8251 43.1289 67.5952 43.1289C66.3652 43.1289 65.3682 44.126 65.3682 45.3559C65.3682 46.5858 66.3652 47.5829 67.5952 47.5829Z" fill="#EC8C22"/>
<path d="M67.5952 47.833C66.2292 47.833 65.1182 46.722 65.1182 45.355C65.1182 43.988 66.2292 42.877 67.5952 42.877C68.9612 42.877 70.0732 43.988 70.0732 45.355C70.0732 46.722 68.9612 47.833 67.5952 47.833ZM67.5952 43.378C66.5052 43.378 65.6182 44.265 65.6182 45.356C65.6182 46.447 66.5052 47.334 67.5952 47.334C68.6852 47.334 69.5732 46.447 69.5732 45.356C69.5732 44.265 68.6852 43.378 67.5952 43.378Z" fill="#231F20"/>
<path d="M67.0785 43.4316C67.0785 43.4316 67.4505 47.3916 68.2915 47.1806C66.0595 48.2556 64.2675 44.4516 67.0785 43.4316Z" fill="#EB6724"/>
<path d="M67.4707 42.5692C67.3327 42.5692 67.2207 42.4572 67.2207 42.3192V41.2402C67.2207 41.1022 67.3327 40.9902 67.4707 40.9902C67.6087 40.9902 67.7207 41.1022 67.7207 41.2402V42.3192C67.7207 42.4562 67.6087 42.5692 67.4707 42.5692Z" fill="#231F20"/>
<path d="M64.6874 45.6504H63.6084C63.4704 45.6504 63.3584 45.5384 63.3584 45.4004C63.3584 45.2624 63.4704 45.1504 63.6084 45.1504H64.6874C64.8254 45.1504 64.9374 45.2624 64.9374 45.4004C64.9374 45.5384 64.8254 45.6504 64.6874 45.6504Z" fill="#231F20"/>
<path d="M71.786 45.6504H70.707C70.569 45.6504 70.457 45.5384 70.457 45.4004C70.457 45.2624 70.569 45.1504 70.707 45.1504H71.786C71.924 45.1504 72.036 45.2624 72.036 45.4004C72.036 45.5384 71.924 45.6504 71.786 45.6504Z" fill="#231F20"/>
<path d="M69.037 42.9873C68.998 42.9873 68.959 42.9783 68.922 42.9593C68.799 42.8963 68.752 42.7453 68.815 42.6223L69.312 41.6643C69.376 41.5413 69.527 41.4933 69.649 41.5583C69.772 41.6213 69.819 41.7723 69.756 41.8953L69.259 42.8533C69.214 42.9383 69.127 42.9873 69.037 42.9873Z" fill="#231F20"/>
<path d="M65.8856 42.9869C65.7956 42.9869 65.7086 42.9379 65.6636 42.8519L65.1666 41.8939C65.1036 41.7709 65.1506 41.6209 65.2736 41.5569C65.3956 41.4929 65.5466 41.5399 65.6106 41.6629L66.1076 42.6209C66.1706 42.7439 66.1236 42.8939 66.0006 42.9579C65.9636 42.9779 65.9246 42.9869 65.8856 42.9869Z" fill="#231F20"/>
<path d="M64.9 43.8775C64.861 43.8775 64.821 43.8685 64.784 43.8495L63.827 43.3505C63.704 43.2875 63.657 43.1355 63.721 43.0135C63.785 42.8905 63.937 42.8435 64.058 42.9075L65.015 43.4065C65.138 43.4695 65.185 43.6215 65.121 43.7435C65.078 43.8295 64.99 43.8775 64.9 43.8775Z" fill="#231F20"/>
<path d="M70.2655 43.9365C70.1865 43.9365 70.1085 43.8995 70.0605 43.8295C69.9815 43.7165 70.0095 43.5605 70.1225 43.4815L71.0085 42.8655C71.1205 42.7865 71.2775 42.8135 71.3565 42.9275C71.4355 43.0405 71.4075 43.1965 71.2945 43.2755L70.4096 43.8915C70.3646 43.9215 70.3145 43.9365 70.2655 43.9365Z" fill="#231F20"/>
<path d="M71.15 47.8697C71.111 47.8697 71.071 47.8607 71.034 47.8417L70.077 47.3427C69.954 47.2797 69.907 47.1277 69.971 47.0057C70.035 46.8827 70.187 46.8357 70.308 46.8997L71.265 47.3987C71.388 47.4617 71.435 47.6137 71.371 47.7357C71.327 47.8207 71.24 47.8697 71.15 47.8697Z" fill="#231F20"/>
<path d="M63.9443 47.9277C63.8653 47.9277 63.7873 47.8907 63.7393 47.8207C63.6603 47.7077 63.6883 47.5517 63.8013 47.4727L64.6863 46.8567C64.8003 46.7777 64.9553 46.8047 65.0343 46.9187C65.1133 47.0317 65.0853 47.1877 64.9723 47.2667L64.0863 47.8827C64.0433 47.9137 63.9933 47.9277 63.9443 47.9277Z" fill="#231F20"/>
<path d="M67.4609 49.8524C67.3229 49.8524 67.2109 49.7404 67.2109 49.6024V48.5234C67.2109 48.3854 67.3229 48.2734 67.4609 48.2734C67.5989 48.2734 67.7109 48.3854 67.7109 48.5234V49.6024C67.7109 49.7404 67.5999 49.8524 67.4609 49.8524Z" fill="#231F20"/>
<path d="M65.397 49.3125C65.358 49.3125 65.319 49.3035 65.282 49.2845C65.159 49.2215 65.112 49.0705 65.176 48.9475L65.673 47.9905C65.736 47.8675 65.886 47.8195 66.01 47.8845C66.133 47.9475 66.18 48.0985 66.116 48.2215L65.619 49.1785C65.575 49.2635 65.488 49.3125 65.397 49.3125Z" fill="#231F20"/>
<path d="M69.5423 49.3121C69.4523 49.3121 69.3653 49.2631 69.3203 49.1771L68.8233 48.2201C68.7593 48.0971 68.8073 47.9471 68.9293 47.8831C69.0533 47.8191 69.2023 47.8661 69.2663 47.9891L69.7633 48.9461C69.8273 49.0691 69.7793 49.2191 69.6573 49.2831C69.6213 49.3031 69.5813 49.3121 69.5423 49.3121Z" fill="#231F20"/>
<defs>
<filter id="filter0_d" x="0" y="0" width="130" height="130" filterUnits="userSpaceOnUse" color-interpolation-filters="sRGB">
<feFlood flood-opacity="0" result="BackgroundImageFix"/>
<feColorMatrix in="SourceAlpha" type="matrix" values="0 0 0 0 0 0 0 0 0 0 0 0 0 0 0 0 0 0 127 0" result="hardAlpha"/>
<feOffset dy="12"/>
<feGaussianBlur stdDeviation="12"/>
<feColorMatrix type="matrix" values="0 0 0 0 0 0 0 0 0 0 0 0 0 0 0 0 0 0 0.1 0"/>
<feBlend mode="normal" in2="BackgroundImageFix" result="effect1_dropShadow"/>
<feBlend mode="normal" in="SourceGraphic" in2="effect1_dropShadow" result="shape"/>
</filter>
</defs>
</svg>
