<svg width="130" height="130" viewBox="0 0 130 130" fill="none" xmlns="http://www.w3.org/2000/svg">
<g filter="url(#filter0_d)">
<circle cx="65" cy="53" r="41" fill="white"/>
</g>
<path d="M65.4995 70.8545C75.6367 70.8545 83.8546 62.6367 83.8546 52.4995C83.8546 42.3623 75.6367 34.1445 65.4995 34.1445C55.3623 34.1445 47.1445 42.3623 47.1445 52.4995C47.1445 62.6367 55.3623 70.8545 65.4995 70.8545Z" fill="#D7EDE7"/>
<path d="M67.697 56.5049H66.958V62.9469H67.697V56.5049Z" fill="#344A53"/>
<path d="M67.822 63.0709H66.833V56.3789H67.822V63.0709ZM67.083 62.8209H67.572V56.6289H67.083V62.8209Z" fill="#231F20"/>
<path d="M77.8888 56.5049H77.1768V62.9469H77.8888V56.5049Z" fill="#344A53"/>
<path d="M78.0138 63.0709H77.0518V56.3789H78.0138V63.0709ZM77.3018 62.8209H77.7638V56.6289H77.3018V62.8209Z" fill="#231F20"/>
<path d="M69.8604 60.1396H69.1934V62.9466H69.8604V60.1396Z" fill="#344A53"/>
<path d="M69.9844 63.0707H69.0684V60.0137H69.9844V63.0707ZM69.3184 62.8207H69.7344V60.2637H69.3184V62.8207Z" fill="#231F20"/>
<path d="M75.8521 59.3799H75.1621V62.9459H75.8521V59.3799Z" fill="#344A53"/>
<path d="M75.9771 63.0709H75.0371V59.2549H75.9771V63.0709ZM75.2871 62.8209H75.7271V59.5049H75.2871V62.8209Z" fill="#231F20"/>
<path d="M78.1297 59.1973H66.7188V60.6933H78.1297V59.1973Z" fill="#00B9BB"/>
<path d="M78.3808 60.9442H66.4688V58.9482H78.3808V60.9442ZM66.9677 60.4442H77.8797V59.4482H66.9677V60.4442Z" fill="#231F20"/>
<path d="M72.4234 54.2259C66.4624 54.1889 66.7174 57.6719 66.7174 57.6719H78.1284C78.1294 57.6719 78.3344 54.2259 72.4234 54.2259Z" fill="#00B9BB"/>
<path d="M78.3654 57.9216H66.4854L66.4684 57.6906C66.4644 57.6446 66.3964 56.5556 67.3284 55.5586C68.3114 54.5076 69.9934 53.9756 72.3284 53.9756C72.3594 53.9756 72.3904 53.9756 72.4234 53.9756C74.7904 53.9756 76.4994 54.5146 77.5004 55.5776C78.4344 56.5676 78.3813 57.6416 78.3793 57.6866L78.3654 57.9216ZM66.9763 57.4216H77.8683C77.8293 57.0976 77.6804 56.4906 77.1284 55.9096C76.2234 54.9576 74.6403 54.4746 72.4243 54.4746H72.4223C72.3913 54.4746 72.3603 54.4746 72.3273 54.4746C70.1383 54.4746 68.5794 54.9536 67.6944 55.8996C67.1494 56.4826 67.0103 57.0976 66.9763 57.4216Z" fill="#231F20"/>
<path d="M57.6223 63.1201H48.9473C48.8093 63.1201 48.6973 63.0081 48.6973 62.8701C48.6973 62.7321 48.8093 62.6201 48.9473 62.6201H57.6223C57.7603 62.6201 57.8723 62.7321 57.8723 62.8701C57.8723 63.0081 57.7603 63.1201 57.6223 63.1201Z" fill="#231F20"/>
<path d="M82.1001 63.1201H61.415C61.277 63.1201 61.165 63.0081 61.165 62.8701C61.165 62.7321 61.277 62.6201 61.415 62.6201H82.1001C82.2381 62.6201 82.3501 62.7321 82.3501 62.8701C82.3501 63.0081 82.2381 63.1201 82.1001 63.1201Z" fill="#231F20"/>
<path d="M58.8919 58.6663C58.8919 58.6663 50.2459 61.7363 46.7419 56.5053C43.2379 51.2743 51.2419 40.5893 52.4459 40.0283C53.6489 39.4673 57.4189 37.3633 62.1129 49.3793C65.0129 58.2383 58.8919 58.6663 58.8919 58.6663Z" fill="white"/>
<path d="M54.3744 55.9317L51.0785 52.5407C50.9825 52.4417 50.9845 52.2837 51.0835 52.1867C51.1835 52.0927 51.3415 52.0927 51.4375 52.1927L54.3825 55.2197L57.4485 52.1887C57.5475 52.0917 57.7055 52.0917 57.8025 52.1907C57.8995 52.2897 57.8985 52.4477 57.8005 52.5447L54.3744 55.9317Z" fill="#231F20"/>
<path d="M54.377 63.1202C54.239 63.1202 54.127 63.0082 54.127 62.8702V55.5762C54.127 55.4382 54.239 55.3262 54.377 55.3262C54.515 55.3262 54.627 55.4382 54.627 55.5762V62.8702C54.627 63.0082 54.515 63.1202 54.377 63.1202Z" fill="#231F20"/>
<path d="M54.1264 39.5576C54.1264 39.5576 46.5144 53.1556 51.4134 59.3806C45.8624 58.5526 44.7864 54.0316 47.0574 48.1036C48.1824 45.1636 50.5214 40.0006 54.1264 39.5576Z" fill="#D2D3DD"/>
<path d="M63.7666 70.9303C63.1676 70.1643 64.8836 68.8483 66.8886 68.3823C66.9616 66.0123 69.0525 65.2493 69.5665 65.1973C70.6125 65.0913 71.8505 65.6363 73.4635 67.2613C77.4275 67.2443 77.2045 70.8193 77.2045 70.8193C77.2045 70.8193 68.1686 76.5533 63.7666 70.9303Z" fill="#00B9BB"/>
<path d="M69.1074 73.6323C67.0804 73.6323 65.0644 72.9933 63.5694 71.0843C63.3864 70.8513 63.3464 70.5683 63.4524 70.2683C63.7364 69.4643 65.0924 68.5863 66.6474 68.1843C66.8304 65.7553 68.9984 65.0033 69.5414 64.9483C70.7364 64.8323 72.0504 65.5043 73.5664 67.0113C74.8274 67.0263 75.8084 67.3963 76.4864 68.1153C77.5404 69.2323 77.4584 70.7693 77.4544 70.8353L77.4454 70.9623L77.3384 71.0303C77.2764 71.0693 73.1684 73.6323 69.1074 73.6323ZM69.8134 65.4343C69.7394 65.4343 69.6654 65.4383 69.5914 65.4463C69.2014 65.4863 67.2054 66.1593 67.1374 68.3903L67.1314 68.5823L66.9434 68.6253C65.3404 68.9983 64.1284 69.8543 63.9224 70.4353C63.8594 70.6153 63.9144 70.7153 63.9624 70.7763C67.9094 75.8213 75.9024 71.3053 76.9544 70.6773C76.9474 70.3143 76.8624 69.2403 76.1174 68.4543C75.5194 67.8223 74.6034 67.5123 73.4624 67.5113H73.3584L73.2844 67.4373C71.9514 66.0923 70.8124 65.4343 69.8134 65.4343Z" fill="#231F20"/>
<path d="M71.6278 73.0201C72.5158 72.6431 70.5108 71.0351 68.5058 70.5911C68.4328 68.3321 66.3418 67.6041 65.8278 67.5551C64.7818 67.4541 63.5438 67.9741 61.9308 69.5231C57.9668 69.5061 58.1898 72.9151 58.1898 72.9151C58.1898 72.9151 62.8348 76.7521 71.6278 73.0201Z" fill="#EB6724"/>
<path d="M64.3185 74.9148C60.2875 74.9148 58.1605 73.2138 58.0305 73.1058L57.9475 73.0378L57.9405 72.9308C57.9365 72.8698 57.8565 71.4448 58.8575 70.3798C59.5365 69.6578 60.5365 69.2858 61.8305 69.2728C63.3495 67.8348 64.6695 67.1918 65.8525 67.3058C66.3945 67.3588 68.5575 68.0738 68.7455 70.3908C70.3655 70.8048 72.0215 71.9268 72.0925 72.6848C72.1145 72.9358 71.9825 73.1418 71.7265 73.2508C68.7945 74.4938 66.3205 74.9148 64.3185 74.9148ZM58.4385 72.7878C59.1195 73.2708 63.6485 76.1348 71.5305 72.7898C71.5965 72.7618 71.5945 72.7458 71.5935 72.7298C71.5555 72.3158 70.1095 71.2018 68.4515 70.8338L68.2625 70.7918L68.2555 70.5978C68.1875 68.4788 66.1935 67.8398 65.8035 67.8028C64.7555 67.6948 63.5425 68.3218 62.1035 69.7018L62.0315 69.7708H61.9295C61.9205 69.7708 61.9105 69.7708 61.9015 69.7708C60.7185 69.7708 59.8185 70.0888 59.2255 70.7168C58.5195 71.4658 58.4435 72.4588 58.4385 72.7878Z" fill="#231F20"/>
<path d="M65.5 75C53.08 74.986 43.014 64.92 43 52.5C43.014 40.08 53.08 30.014 65.5 30C77.921 30.014 87.986 40.079 88 52.5C87.986 64.921 77.921 74.986 65.5 75ZM65.5 30.795C53.518 30.809 43.809 40.518 43.795 52.5C43.809 64.482 53.518 74.191 65.5 74.205C77.482 74.191 87.191 64.482 87.205 52.5C87.192 40.518 77.482 30.807 65.5 30.793V30.795Z" fill="#DADADA"/>
<path d="M52.5163 59.8054C52.0073 59.8054 51.0792 59.7624 50.0232 59.5064C48.4302 59.1204 47.0902 58.1204 46.2502 56.6904C45.3932 55.2314 45.1622 53.4564 45.6172 51.8194C46.9892 46.8834 49.6752 41.2234 52.5842 39.7054C53.4232 39.2674 54.2452 39.1844 55.0282 39.4594C59.5412 41.0424 63.8862 50.5684 62.6512 56.1704C61.9202 59.4904 56.6092 59.2724 56.3872 59.2654C56.2492 59.2584 56.1422 59.1414 56.1492 59.0034C56.1552 58.8654 56.2752 58.7604 56.4102 58.7654C56.4652 58.7744 61.5212 58.9714 62.1622 56.0634C63.4242 50.3444 58.7503 41.2954 54.8633 39.9324C54.2153 39.7054 53.5272 39.7784 52.8152 40.1494C50.0392 41.5984 47.4413 47.1234 46.0983 51.9554C45.6803 53.4614 45.8922 55.0954 46.6812 56.4384C47.4522 57.7504 48.6812 58.6674 50.1402 59.0214C51.6272 59.3814 52.8792 59.2974 52.8902 59.2964C53.0372 59.2754 53.1473 59.3904 53.1583 59.5274C53.1683 59.6654 53.0642 59.7844 52.9272 59.7944C52.9092 59.7954 52.7613 59.8054 52.5163 59.8054Z" fill="#231F20"/>
<path d="M67.0553 33.4758C65.2203 32.4258 61.8773 30.9358 61.0473 33.4448C60.7523 34.3378 61.2953 35.8758 59.0193 35.1408C58.1353 34.8548 57.4103 36.0408 57.0703 36.6248C55.9013 36.0858 53.8333 37.0118 54.6093 38.2358C55.2003 39.1668 66.0053 38.4578 70.2403 38.1428C71.5823 38.0428 72.5963 36.7448 72.2043 35.4578C71.9613 34.6608 71.2373 34.0068 69.4753 34.0938C68.6283 34.1348 67.7913 33.8968 67.0553 33.4758Z" fill="#D7EDE7"/>
<path d="M58.8207 38.9457C56.1217 38.9457 54.6417 38.7537 54.3977 38.3687C54.0897 37.8837 54.1247 37.3627 54.4937 36.9397C55.0367 36.3187 56.1407 36.0527 56.9657 36.3157C57.6437 35.2757 58.8157 34.4577 60.2117 35.1057C60.2977 35.1447 60.3907 35.1387 60.4717 35.0887C60.5567 35.0347 60.6067 34.9417 60.6067 34.8377C60.6057 33.4637 61.0037 32.5437 61.7907 32.1057C63.4087 31.2007 66.1997 32.6397 67.7187 33.5777H67.7177C68.1067 33.8177 68.5787 33.9247 69.0457 33.8747C71.4047 33.6397 72.1937 34.5617 72.4437 35.3847C72.6407 36.0307 72.5277 36.7347 72.1327 37.3117C71.7067 37.9317 71.0067 38.3347 70.2587 38.3907C65.2867 38.7607 61.4677 38.9457 58.8207 38.9457ZM56.2857 36.7167C55.7497 36.7167 55.1747 36.9217 54.8707 37.2697C54.6447 37.5277 54.6287 37.7997 54.8197 38.1017C55.1777 38.5057 59.4267 38.6957 70.2217 37.8927C70.8207 37.8477 71.3797 37.5257 71.7197 37.0287C72.0327 36.5717 72.1197 36.0397 71.9647 35.5307C71.6807 34.5937 70.7117 34.2067 69.0967 34.3737C68.5277 34.4287 67.9377 34.3027 67.4547 34.0047H67.4537C66.3067 33.2947 63.4787 31.7337 62.0337 32.5437C61.4167 32.8877 61.1047 33.6597 61.1057 34.8387C61.1067 35.1127 60.9697 35.3657 60.7407 35.5127C60.5167 35.6557 60.2397 35.6717 59.9997 35.5607C58.4897 34.8587 57.4727 36.4287 57.2847 36.7507L57.1707 36.9467L56.9647 36.8507C56.7667 36.7597 56.5307 36.7167 56.2857 36.7167Z" fill="#231F20"/>
<path d="M69.4841 35.4544C71.3191 34.4044 74.6622 32.9144 75.4922 35.4234C75.7872 36.3164 75.2442 37.8544 77.5202 37.1194C78.4042 36.8334 79.1291 38.0194 79.4691 38.6034C80.6381 38.0644 82.7061 38.9904 81.9301 40.2144C81.3391 41.1454 70.5341 40.4364 66.2991 40.1214C64.9571 40.0214 63.9432 38.7234 64.3352 37.4364C64.5782 36.6394 65.3021 35.9854 67.0641 36.0724C67.9111 36.1144 68.7471 35.8764 69.4841 35.4544Z" fill="#D7EDE7"/>
<path d="M77.7138 40.9263C75.0678 40.9263 71.2498 40.7403 66.2788 40.3703C65.5298 40.3143 64.8298 39.9103 64.4048 39.2903C64.0098 38.7133 63.8968 38.0113 64.0938 37.3623C64.3438 36.5403 65.1448 35.6143 67.4908 35.8543C67.9628 35.9033 68.4318 35.7953 68.8188 35.5563H68.8198C70.3388 34.6183 73.1278 33.1803 74.7468 34.0853C75.5328 34.5243 75.9318 35.4433 75.9308 36.8163C75.9308 36.9203 75.9818 37.0133 76.0658 37.0683C76.1468 37.1193 76.2418 37.1253 76.3258 37.0853C77.7218 36.4333 78.8938 37.2533 79.5718 38.2953C80.3988 38.0323 81.4998 38.2973 82.0428 38.9183C82.4128 39.3403 82.4488 39.8603 82.1408 40.3473C81.8968 40.7343 80.4148 40.9263 77.7138 40.9263ZM66.7548 36.3153C65.5468 36.3153 64.8158 36.7153 64.5738 37.5083C64.4188 38.0183 64.5058 38.5503 64.8188 39.0073C65.1588 39.5043 65.7178 39.8273 66.3168 39.8723C77.1128 40.6743 81.3628 40.4853 81.7218 40.0763C81.9098 39.7783 81.8938 39.5063 81.6668 39.2483C81.2228 38.7403 80.2068 38.5373 79.5728 38.8303L79.3668 38.9263L79.2528 38.7303C79.0648 38.4073 78.0498 36.8353 76.5368 37.5403C76.2958 37.6523 76.0188 37.6343 75.7978 37.4913C75.5688 37.3453 75.4318 37.0943 75.4318 36.8183C75.4328 35.6393 75.1208 34.8673 74.5048 34.5233C73.0558 33.7153 70.2308 35.2753 69.0828 35.9833C68.6038 36.2803 68.0248 36.4113 67.4408 36.3533C67.1978 36.3273 66.9678 36.3153 66.7548 36.3153Z" fill="#231F20"/>
<path d="M66.1545 67.8753C65.9895 67.8143 64.8005 67.2373 61.8395 69.7133C59.0895 70.0193 58.7045 71.0973 58.3945 72.7133C60.8335 75.2503 67.4645 69.5063 67.6425 68.9343C67.3265 68.3823 66.5295 68.0143 66.1545 67.8753Z" fill="white"/>
<path d="M67.1816 67.8559C67.1816 67.8559 67.3186 66.8559 68.1286 66.1719C69.3916 65.1059 70.9746 64.8569 73.3786 67.5429C74.9446 69.2929 70.9966 69.0009 70.9966 69.0009C70.9966 69.0009 69.3136 69.8929 67.1816 67.8559Z" fill="white"/>
<path d="M76.0436 54.8664C78.3096 55.6884 74.7876 52.7564 73.7466 53.2694C72.5876 52.8004 71.5896 52.3684 71.1956 53.3434C68.5506 52.8304 68.2246 55.1484 68.2246 55.1484C68.2246 55.1484 71.5366 53.2324 76.0436 54.8664Z" fill="white"/>
<path d="M67.9062 55.6204L67.9762 55.1134C67.9832 55.0714 68.1322 54.0654 68.9832 53.4594C69.5272 53.0714 70.2212 52.9374 71.0512 53.0644C71.2822 52.6564 71.6552 52.4704 72.1722 52.5114C72.6362 52.5494 73.1772 52.7684 73.7492 52.9994C74.6292 52.7334 76.3062 53.8764 76.8212 54.4744C76.9032 54.5694 77.1522 54.8574 76.9802 55.1064C76.8142 55.3504 76.4503 55.2804 75.9583 55.1014C71.6213 53.5274 68.3812 55.3454 68.3492 55.3654L67.9062 55.6204ZM76.1292 54.6314C76.2202 54.6644 76.2962 54.6894 76.3592 54.7084C76.0472 54.3974 75.3912 53.9124 74.7452 53.6394C74.1672 53.3944 73.9332 53.4554 73.8572 53.4934L73.7562 53.5424L73.5682 53.4664C73.0302 53.2484 72.5222 53.0424 72.1312 53.0104C71.7622 52.9894 71.5612 53.1044 71.4262 53.4374L71.3492 53.6284L71.1472 53.5884C70.3772 53.4404 69.7472 53.5304 69.2782 53.8634C68.9512 54.0944 68.7522 54.4104 68.6332 54.6754C69.7622 54.1974 72.5682 53.3414 76.1292 54.6314Z" fill="#231F20"/>
<path d="M61.4162 42.6175C61.8569 42.6175 62.2142 42.2602 62.2142 41.8195C62.2142 41.3788 61.8569 41.0215 61.4162 41.0215C60.9754 41.0215 60.6182 41.3788 60.6182 41.8195C60.6182 42.2602 60.9754 42.6175 61.4162 42.6175Z" fill="white"/>
<path d="M61.4162 42.8675C60.8382 42.8675 60.3682 42.3975 60.3682 41.8195C60.3682 41.2415 60.8382 40.7705 61.4162 40.7705C61.9942 40.7705 62.4652 41.2415 62.4652 41.8195C62.4652 42.3975 61.9942 42.8675 61.4162 42.8675ZM61.4162 41.2715C61.1142 41.2715 60.8682 41.5175 60.8682 41.8205C60.8682 42.1225 61.1142 42.3685 61.4162 42.3685C61.7192 42.3685 61.9652 42.1225 61.9652 41.8205C61.9642 41.5175 61.7182 41.2715 61.4162 41.2715Z" fill="#231F20"/>
<path d="M65.5002 45.2493C65.9409 45.2493 66.2982 44.892 66.2982 44.4513C66.2982 44.0106 65.9409 43.6533 65.5002 43.6533C65.0594 43.6533 64.7021 44.0106 64.7021 44.4513C64.7021 44.892 65.0594 45.2493 65.5002 45.2493Z" fill="white"/>
<path d="M65.5002 45.4993C64.9222 45.4993 64.4521 45.0283 64.4521 44.4503C64.4521 43.8723 64.9222 43.4023 65.5002 43.4023C66.0782 43.4023 66.5491 43.8723 66.5491 44.4503C66.5491 45.0283 66.0782 45.4993 65.5002 45.4993ZM65.5002 43.9033C65.1982 43.9033 64.9521 44.1493 64.9521 44.4513C64.9521 44.7543 65.1982 45.0003 65.5002 45.0003C65.8032 45.0003 66.0491 44.7543 66.0491 44.4513C66.0481 44.1493 65.8022 43.9033 65.5002 43.9033Z" fill="#231F20"/>
<path d="M64.756 49.8206C65.1967 49.8206 65.554 49.4633 65.554 49.0226C65.554 48.5819 65.1967 48.2246 64.756 48.2246C64.3153 48.2246 63.958 48.5819 63.958 49.0226C63.958 49.4633 64.3153 49.8206 64.756 49.8206Z" fill="white"/>
<path d="M64.7551 50.0706C64.1771 50.0706 63.7061 49.5996 63.7061 49.0216C63.7061 48.4436 64.1771 47.9736 64.7551 47.9736C65.3331 47.9736 65.8041 48.4436 65.8041 49.0216C65.8041 49.5996 65.3341 50.0706 64.7551 50.0706ZM64.7551 48.4746C64.4521 48.4746 64.2061 48.7206 64.2061 49.0226C64.2061 49.3256 64.4521 49.5716 64.7551 49.5716C65.0581 49.5716 65.3041 49.3256 65.3041 49.0226C65.3041 48.7206 65.0581 48.4746 64.7551 48.4746Z" fill="#231F20"/>
<path d="M69.8585 44.2698C70.2993 44.2698 70.6565 43.9126 70.6565 43.4718C70.6565 43.0311 70.2993 42.6738 69.8585 42.6738C69.4178 42.6738 69.0605 43.0311 69.0605 43.4718C69.0605 43.9126 69.4178 44.2698 69.8585 44.2698Z" fill="white"/>
<path d="M69.8585 44.5199C69.2805 44.5199 68.8105 44.0499 68.8105 43.4719C68.8105 42.8939 69.2805 42.4229 69.8585 42.4229C70.4365 42.4229 70.9075 42.8939 70.9075 43.4719C70.9075 44.0499 70.4365 44.5199 69.8585 44.5199ZM69.8585 42.9229C69.5565 42.9229 69.3105 43.1689 69.3105 43.4719C69.3105 43.7739 69.5565 44.0199 69.8585 44.0199C70.1615 44.0199 70.4075 43.7739 70.4075 43.4719C70.4075 43.1689 70.1615 42.9229 69.8585 42.9229Z" fill="#231F20"/>
<path d="M74.5451 43.678C74.9858 43.678 75.3431 43.3208 75.3431 42.88C75.3431 42.4393 74.9858 42.082 74.5451 42.082C74.1044 42.082 73.7471 42.4393 73.7471 42.88C73.7471 43.3208 74.1044 43.678 74.5451 43.678Z" fill="white"/>
<path d="M74.5461 43.9281C73.9681 43.9281 73.4971 43.4581 73.4971 42.8801C73.4971 42.3021 73.9681 41.8311 74.5461 41.8311C75.1241 41.8311 75.5941 42.3021 75.5941 42.8801C75.5941 43.4581 75.1241 43.9281 74.5461 43.9281ZM74.5461 42.3311C74.2431 42.3311 73.9971 42.5771 73.9971 42.8801C73.9971 43.1821 74.2431 43.4281 74.5461 43.4281C74.8481 43.4281 75.0941 43.1821 75.0941 42.8801C75.0931 42.5771 74.8471 42.3311 74.5461 42.3311Z" fill="#231F20"/>
<path d="M72.7579 48.2649C73.1987 48.2649 73.556 47.9077 73.556 47.4669C73.556 47.0262 73.1987 46.6689 72.7579 46.6689C72.3172 46.6689 71.96 47.0262 71.96 47.4669C71.96 47.9077 72.3172 48.2649 72.7579 48.2649Z" fill="white"/>
<path d="M72.757 48.515C72.179 48.515 71.709 48.045 71.709 47.467C71.709 46.889 72.179 46.418 72.757 46.418C73.335 46.418 73.806 46.889 73.806 47.467C73.806 48.045 73.336 48.515 72.757 48.515ZM72.757 46.918C72.455 46.918 72.209 47.164 72.209 47.467C72.209 47.769 72.455 48.015 72.757 48.015C73.06 48.015 73.306 47.769 73.306 47.467C73.306 47.164 73.06 46.918 72.757 46.918Z" fill="#231F20"/>
<path d="M69.5255 50.4544C69.9663 50.4544 70.3235 50.0971 70.3235 49.6564C70.3235 49.2157 69.9663 48.8584 69.5255 48.8584C69.0848 48.8584 68.7275 49.2157 68.7275 49.6564C68.7275 50.0971 69.0848 50.4544 69.5255 50.4544Z" fill="white"/>
<path d="M69.5256 50.7044C68.9476 50.7044 68.4766 50.2334 68.4766 49.6554C68.4766 49.0774 68.9476 48.6074 69.5256 48.6074C70.1036 48.6074 70.5746 49.0774 70.5746 49.6554C70.5746 50.2334 70.1036 50.7044 69.5256 50.7044ZM69.5256 49.1084C69.2226 49.1084 68.9766 49.3544 68.9766 49.6564C68.9766 49.9594 69.2226 50.2054 69.5256 50.2054C69.8286 50.2054 70.0746 49.9594 70.0746 49.6564C70.0746 49.3544 69.8286 49.1084 69.5256 49.1084Z" fill="#231F20"/>
<defs>
<filter id="filter0_d" x="0" y="0" width="130" height="130" filterUnits="userSpaceOnUse" color-interpolation-filters="sRGB">
<feFlood flood-opacity="0" result="BackgroundImageFix"/>
<feColorMatrix in="SourceAlpha" type="matrix" values="0 0 0 0 0 0 0 0 0 0 0 0 0 0 0 0 0 0 127 0" result="hardAlpha"/>
<feOffset dy="12"/>
<feGaussianBlur stdDeviation="12"/>
<feColorMatrix type="matrix" values="0 0 0 0 0 0 0 0 0 0 0 0 0 0 0 0 0 0 0.1 0"/>
<feBlend mode="normal" in2="BackgroundImageFix" result="effect1_dropShadow"/>
<feBlend mode="normal" in="SourceGraphic" in2="effect1_dropShadow" result="shape"/>
</filter>
</defs>
</svg>
