<svg width="76" height="100" viewBox="0 0 76 100" fill="none" xmlns="http://www.w3.org/2000/svg">
<path d="M46.0612 7.19936C46.0612 7.19936 41.7749 5.14346 40.5558 9.81709C39.3368 14.4907 42.4593 18.3101 42.4593 18.3101C42.4593 18.3101 44.8467 19.4849 46.4218 17.9614C48.9097 15.555 50.5009 9.73744 46.0612 7.19936Z" fill="#F4D6BE"/>
<path d="M46.4219 7.87857C46.4219 7.87857 48.2415 9.70139 47.6709 12.1349C47.1002 14.5684 46.6899 17.5745 47.6709 18.2528C48.6518 18.9317 51.948 13.4157 51.948 13.4157C51.948 13.4157 51.8513 1.86706 46.4219 7.87857Z" fill="#F7B67C"/>
<path d="M17.9984 21.7489C17.9984 21.7489 14.845 19.6833 18.0274 18.9322C21.2098 18.1806 24.9236 15.5177 24.9236 15.5177C24.9236 15.5177 26.1423 13.7616 27.821 16.4438C29.4996 19.126 37.8213 24.969 35.9068 26.0329C33.9923 27.0963 28.4938 31.0542 25.5426 30.6167C23.828 29.137 17.9984 21.7489 17.9984 21.7489Z" fill="#00BABD"/>
<path d="M18.0281 18.9319C18.0281 18.9319 16.2656 20.442 16.2656 18.9476C16.2656 17.4531 16.5092 14.1436 17.1466 14.7501C17.7845 15.3567 22.0445 18.0108 18.0281 18.9319Z" fill="#009F9D"/>
<path d="M25.9412 40.4404C25.9412 40.4404 18.9119 31.0029 18.5595 29.1363C18.2072 27.2697 20.2322 23.0138 22.6616 27.0809C25.091 31.1479 24.5029 26.6419 24.5029 26.6419C24.5029 26.6419 26.5344 21.1785 28.1882 25.2907C29.842 29.4029 29.2244 31.0682 31.7146 32.8533C34.2047 34.6384 30.9602 39.4552 25.9412 40.4404Z" fill="#F4D6BE"/>
<path d="M32.6839 34.3477C32.6839 34.3477 28.4685 39.9714 24.5 38.6137C24.5 38.6137 26.7268 43.1704 29.0907 41.5493C31.4543 39.9286 37.5648 36.4809 32.6839 34.3477Z" fill="#F7B67C"/>
<path d="M41.2461 37.64C41.2461 37.64 44.131 38.3644 44.487 32.8535C44.843 27.3426 44.843 22.9932 44.843 22.9932C44.843 22.9932 47.8973 17.3078 49.3513 19.4162C50.8057 21.525 48.309 36.6056 46.879 36.9224C45.449 37.2398 44.9213 38.1203 41.2461 37.64Z" fill="#F7B67C"/>
<path d="M47.669 24.2642C47.669 24.2642 48.2622 34.1701 47.1955 35.5195C46.1289 36.8689 44.6045 38.7576 38.645 36.3489C34.7852 33.0634 35.254 36.2632 35.254 36.2632C35.254 36.2632 31.3067 41.262 30.258 41.1727C29.2094 41.0833 25.0538 43.2958 26.9573 44.8759C28.8612 46.4561 38.447 52.1374 47.669 50.5872C52.3827 49.0853 53.1099 48.4286 53.1099 48.4286C53.1099 48.4286 61.5876 46.6127 61.3965 44.5766C61.2058 42.5405 63.7043 17.0893 47.669 24.2642Z" fill="#ED8D1D"/>
<path d="M53.0114 24.9414C53.0114 24.9414 52.042 26.1061 53.8841 26.009C55.7263 25.9123 58.829 25.3302 59.7018 29.9844C60.5745 34.6387 61.6411 40.0985 60.5745 43.2827C59.5079 46.467 52.7567 44.6247 52.7567 44.6247C52.7567 44.6247 50.4425 50.4423 41.4982 49.0847C36.82 49.0847 42.3019 51.5702 44.9035 51.1033C47.5051 50.6363 52.6126 48.3027 54.8085 48.4293C61.3957 48.4279 62.2924 52.5788 62.6594 49.0847C63.0265 45.5905 61.6227 30.1815 61.6227 30.1815C61.6227 30.1815 61.8249 19.9298 53.0114 24.9414Z" fill="#EC6608"/>
<path d="M61.4668 29.4031C61.4668 29.4031 60.8902 27.0013 63.0852 27.4264C65.2802 27.8515 68.755 26.9488 65.5993 29.509C62.4437 32.0692 62.6864 34.716 62.1286 33.5015C61.5709 32.287 61.4668 29.4031 61.4668 29.4031Z" fill="#009F9D"/>
<path d="M62.6592 49.085L62.8006 63.3375C62.8006 63.3375 64.6561 68.0641 59.0273 68.0899C53.3985 68.1157 44.5791 68.0204 44.5791 68.0204C44.5791 68.0204 35.4064 66.4398 34.3678 76.3779C30.3542 69.4361 33.1741 69.239 33.6203 69.0304C34.0666 68.8217 49.6423 67.0725 49.6423 67.0725C49.6423 67.0725 56.1337 67.1674 58.4995 60.9376C60.8654 54.7087 62.3548 51.6092 62.6592 49.085Z" fill="#009F9D"/>
<path d="M74.738 52.2845L74.6445 70.0279C74.6445 70.0279 76.2817 79.045 70.9491 79.045C65.6164 79.045 38.644 78.9653 38.644 78.9653C38.644 78.9653 34.1058 79.7234 34.7358 75.3606C35.3658 70.9974 37.6009 67.8565 44.5795 68.0209C51.5582 68.1853 60.187 68.4764 60.187 68.4764C60.187 68.4764 62.8011 68.5735 62.8011 64.5981C62.8011 60.6226 62.8011 50.3313 62.8011 50.3313L63.0014 33.5015C63.0014 33.5015 65.2291 27.4481 70.2707 27.4075C75.3123 27.367 75.0249 31.3591 74.8817 32.8535C74.738 34.3471 74.738 52.2845 74.738 52.2845Z" fill="#00BABD"/>
<path d="M41.7147 95.6197H41.1431C40.2032 95.6197 39.4414 94.8575 39.4414 93.9175V87.3326C39.4414 86.3926 40.2036 85.6309 41.1431 85.6309H41.7147C42.6547 85.6309 43.4164 86.3931 43.4164 87.3326V93.9175C43.4164 94.8579 42.6547 95.6197 41.7147 95.6197Z" fill="#00BABD"/>
<path d="M67.8905 95.6197H67.3189C66.3789 95.6197 65.6172 94.8575 65.6172 93.9175V87.3326C65.6172 86.3926 66.3794 85.6309 67.3189 85.6309H67.8905C68.8304 85.6309 69.5922 86.3931 69.5922 87.3326V93.9175C69.5922 94.8579 68.8304 95.6197 67.8905 95.6197Z" fill="#00BABD"/>
<path d="M43.4169 79.0742H39.4414V86.8036H43.4169V79.0742Z" fill="#009F9D"/>
<path d="M58.3465 79.0742H54.3711V85.631H58.3465V79.0742Z" fill="#009F9D"/>
<path d="M69.5926 79.0742H65.6172V86.2192H69.5926V79.0742Z" fill="#009F9D"/>
<path d="M0.922441 91.6647C0.922441 91.6647 9.48262 94.7383 10.9647 94.0286C10.9647 94.0286 9.60283 96.3079 9.93995 96.9384C10.2771 97.5689 29.013 97.2967 28.173 93.1154C27.3329 88.9341 9.45454 86.6659 7.88408 87.3204C6.31361 87.9748 -0.386894 89.3053 0.922441 91.6647Z" fill="#ED8D1D"/>
<path d="M11.902 93.1157C11.902 93.1157 12.9774 87.7756 7.88281 86.8038C9.93869 85.6382 11.902 85.9247 11.902 85.9247C11.902 85.9247 14.2333 86.0766 14.5156 86.8038C14.7979 87.531 15.3013 89.5519 20.5308 89.4032C25.7603 89.2544 27.6356 88.2435 27.813 89.5045C27.9903 90.7655 28.1713 94.314 28.1713 94.314C28.1713 94.314 27.5601 94.9703 26.3724 93.1157C25.1846 91.2615 17.9849 90.6171 15.9612 91.424C13.9381 92.2309 11.902 93.1157 11.902 93.1157Z" fill="#EC6608"/>
<path d="M38.6622 84.5471H31.9723C31.7176 84.5471 31.5117 84.3412 31.5117 84.0865C31.5117 83.8318 31.7176 83.626 31.9723 83.626H38.6622C38.9168 83.626 39.1227 83.8318 39.1227 84.0865C39.1227 84.3412 38.9168 84.5471 38.6622 84.5471Z" fill="#1D1D1B"/>
<path d="M53.936 84.5471H45.3551C45.1004 84.5471 44.8945 84.3412 44.8945 84.0865C44.8945 83.8318 45.1004 83.626 45.3551 83.626H53.936C54.1907 83.626 54.3965 83.8318 54.3965 84.0865C54.3965 84.3412 54.1907 84.5471 53.936 84.5471Z" fill="#1D1D1B"/>
<path d="M65.132 84.5471H60.1871C59.9324 84.5471 59.7266 84.3412 59.7266 84.0865C59.7266 83.8318 59.9324 83.626 60.1871 83.626H65.132C65.3867 83.626 65.5925 83.8318 65.5925 84.0865C65.5925 84.3412 65.3867 84.5471 65.132 84.5471Z" fill="#1D1D1B"/>
<path d="M16.2652 20.4663C16.0106 20.4663 15.8047 20.2605 15.8047 20.0058V12.8369L20.4622 17.2789C20.6464 17.4544 20.6538 17.7459 20.4783 17.9301C20.3029 18.1143 20.0109 18.1208 19.8271 17.9462L16.7253 14.9849V20.0058C16.7258 20.2605 16.5199 20.4663 16.2652 20.4663Z" fill="#1D1D1B"/>
<path d="M29.8398 29.863C29.6776 29.863 29.5211 29.7774 29.4368 29.6258C29.3129 29.4039 29.393 29.1229 29.6159 28.9999L36.0659 25.4169L26.1586 15.4189L17.218 19.8461C17.1508 19.8793 17.1301 19.9383 17.1236 19.9705C17.1172 20.0027 17.1144 20.0645 17.165 20.1211L24.1718 27.9812C24.3413 28.1709 24.3247 28.462 24.1345 28.631C23.9452 28.8001 23.6541 28.784 23.4847 28.5938L16.4779 20.7336C16.2481 20.4757 16.1542 20.134 16.2196 19.795C16.285 19.4565 16.4996 19.1742 16.809 19.0208L26.3456 14.2988L37.5751 25.6315L30.0627 29.805C29.9922 29.8446 29.9153 29.863 29.8398 29.863Z" fill="#1D1D1B"/>
<path d="M27.3805 42.9603L27.1571 42.6872C27.0995 42.6172 21.3901 35.6385 18.9782 31.7801C16.361 27.5923 20.4078 24.4703 20.4492 24.4394L20.7877 24.1843L21.0696 24.5012C21.0857 24.5191 22.6824 26.3134 23.9125 27.9216C24.0244 24.6172 25.483 22.9813 26.7997 22.8588C27.6536 22.7755 28.3421 23.3299 28.5452 24.2635L28.5553 24.3616C28.5553 26.0578 30.0115 29.9231 30.2391 30.5163L35.3535 36.2331L35.1789 36.5242C32.8057 40.4807 27.9092 42.7222 27.7019 42.8153L27.3805 42.9603ZM20.6813 25.4536C19.8735 26.2135 17.9775 28.4411 19.7589 31.2919C21.8654 34.6622 26.5496 40.4789 27.6397 41.8214C28.7156 41.2788 32.2724 39.3252 34.2108 36.3363L29.4419 31.0054L29.4115 30.9281C29.3401 30.7448 27.6655 26.4428 27.6356 24.4155C27.5255 23.9738 27.2464 23.7412 26.8858 23.7753C26.136 23.8453 24.9156 25.0575 24.8322 28.0123C24.8212 28.4019 24.5757 28.7303 24.2073 28.8482C23.8435 28.9657 23.4584 28.8436 23.2254 28.5378C22.325 27.3565 21.2068 26.0555 20.6813 25.4536Z" fill="#1D1D1B"/>
<path d="M42.1541 75.2881H38.6641V76.2092H42.1541V75.2881Z" fill="#1D1D1B"/>
<path d="M57.5702 75.2881H43.9961V76.2092H57.5702V75.2881Z" fill="#1D1D1B"/>
<path d="M68.1376 75.2881H61.7383V76.2092H68.1376V75.2881Z" fill="#1D1D1B"/>
<path d="M42.9495 96.1252L42.7288 96.1211C41.9602 96.1068 40.7195 96.0934 40.4538 96.1192C39.8868 96.1717 39.371 95.4749 39.039 94.879L38.9805 94.7739V79.0444H39.9016V94.5303C40.0816 94.8287 40.3101 95.1179 40.4293 95.1971C40.836 95.1727 41.9994 95.1875 42.5143 95.1958C42.7247 94.9043 42.9554 94.4971 42.9554 94.2664V79.0439H43.8765V94.2664C43.8765 94.9793 43.2216 95.7987 43.0908 95.9557L42.9495 96.1252Z" fill="#1D1D1B"/>
<path d="M69.1252 96.1252L68.9046 96.1211C68.1355 96.1068 66.8953 96.0934 66.6295 96.1192C66.0589 96.1708 65.5463 95.474 65.2147 94.879L65.1562 94.7739V79.0444H66.0773V94.5303C66.2574 94.8287 66.4858 95.1179 66.6051 95.1971C67.0118 95.1723 68.1751 95.1875 68.69 95.1958C68.9005 94.9043 69.1312 94.4971 69.1312 94.2664V79.0439H70.0523V94.2664C70.0523 94.9793 69.3974 95.7987 69.2666 95.9557L69.1252 96.1252Z" fill="#1D1D1B"/>
<path d="M57.7695 86.0996L57.6641 86.0987C57.6452 86.0982 55.7302 86.0844 55.3577 86.0982C54.834 86.1116 54.222 85.6985 54.1041 85.6142L53.9102 85.476V79.0449H54.8312V84.9851C55.021 85.0924 55.2434 85.1882 55.3231 85.1776C55.6662 85.1647 57.1363 85.173 57.5591 85.1762C57.6862 85.1085 57.8156 85.0265 57.8852 84.969V79.0449H58.8062V85.0845C58.8062 85.2135 58.8062 85.6063 57.8644 86.0535L57.7695 86.0996Z" fill="#1D1D1B"/>
<path d="M57.5699 35.487C57.3152 35.487 57.1094 35.2812 57.1094 35.0265V32.8531C57.1094 32.5984 57.3152 32.3926 57.5699 32.3926C57.8246 32.3926 58.0305 32.5984 58.0305 32.8531V35.0265C58.0305 35.2812 57.8241 35.487 57.5699 35.487Z" fill="#1D1D1B"/>
<path d="M44.0822 51.5638C43.4476 51.5638 42.7853 51.5215 42.0936 51.4326C31.3545 50.0496 26.0435 45.7665 24.7586 42.5192C24.3095 41.3848 24.3704 40.3869 24.929 39.7089C25.0902 39.5123 25.3799 39.4851 25.577 39.6463C25.7736 39.808 25.8013 40.0981 25.6396 40.2943C25.3089 40.6959 25.3002 41.383 25.6147 42.1802C26.5754 44.6073 31.151 49.0944 42.211 50.5184C47.4488 51.1959 51.5435 49.14 54.3768 44.4148C56.5234 40.8341 57.1069 36.9852 57.1125 36.947C57.1488 36.6955 57.3814 36.5201 57.6347 36.5579C57.8866 36.5947 58.0607 36.8282 58.0239 37.0801C58.0022 37.2326 55.7695 51.5638 44.0822 51.5638Z" fill="#1D1D1B"/>
<path d="M43.091 38.1127C41.1387 38.1127 38.2917 37.4058 35.3547 34.2281C35.0001 33.844 34.4194 33.75 33.9418 33.9968C33.2519 34.3542 32.7706 34.3961 32.7181 34.3998C32.4653 34.4168 32.2451 34.2252 32.2276 33.971C32.2106 33.7173 32.4026 33.4981 32.6564 33.4806C32.6555 33.4806 33.0018 33.4469 33.5176 33.1793C34.3623 32.7414 35.3953 32.915 36.0317 33.6031C40.7436 38.7013 45.0856 36.8987 45.268 36.8181C45.5006 36.7173 45.7723 36.8232 45.8736 37.0553C45.9759 37.2879 45.8709 37.5587 45.6392 37.661C45.5494 37.7006 44.5809 38.1127 43.091 38.1127Z" fill="#1D1D1B"/>
<path d="M42.343 38.0608C42.1404 38.0608 41.9543 37.9259 41.899 37.7205C41.8323 37.4755 41.9778 37.2222 42.2232 37.1558C44.6499 36.4991 44.0724 31.4091 43.645 29.5034C43.5892 29.2556 43.7454 29.0093 43.9936 28.9535C44.24 28.8983 44.4878 29.0539 44.5435 29.3017C44.614 29.6167 46.2341 37.0251 42.4632 38.0447C42.4236 38.0558 42.3831 38.0608 42.343 38.0608Z" fill="#1D1D1B"/>
<path d="M44.1915 26.8574C44.1846 26.8574 44.1777 26.8569 44.1707 26.8569C43.9165 26.8459 43.7199 26.6308 43.7309 26.3771C43.7433 26.0888 44.0888 19.3113 48.5667 18.4787C48.8158 18.4354 49.0567 18.5975 49.1037 18.8476C49.1502 19.0977 48.9848 19.3376 48.7347 19.3846C44.9762 20.0837 44.6538 26.354 44.6511 26.4176C44.64 26.664 44.436 26.8574 44.1915 26.8574Z" fill="#1D1D1B"/>
<path d="M18.5576 60.9861C18.489 60.9861 18.4185 60.9709 18.3526 60.9377C18.1251 60.8244 18.0326 60.5477 18.1463 60.3202C18.3347 59.942 22.9848 51.0498 42.1413 50.5146C42.3959 50.5156 42.6073 50.708 42.6147 50.9623C42.6216 51.2169 42.4213 51.4288 42.1671 51.4357C23.5578 51.9552 19.0144 60.6434 18.9702 60.7314C18.8892 60.8926 18.7266 60.9861 18.5576 60.9861Z" fill="#1D1D1B"/>
<path d="M62.1279 51.9691C61.9188 51.9691 61.7295 51.8254 61.6797 51.6131C60.9617 48.5288 54.0531 48.7296 51.4533 49.0672C51.1995 49.0994 50.9702 48.9221 50.9375 48.6702C50.9048 48.4178 51.0821 48.1871 51.3345 48.1544C51.7499 48.0991 61.5245 46.8814 62.5764 51.4049C62.634 51.6527 62.4802 51.9 62.2324 51.9576C62.1979 51.9658 62.1624 51.9691 62.1279 51.9691Z" fill="#1D1D1B"/>
<path d="M11.9015 61.3989C11.8398 61.3989 11.7767 61.3865 11.7168 61.3603C11.4842 61.2576 11.3783 60.9863 11.4801 60.7533C11.6915 60.2729 16.8814 48.9974 38.6818 49.9254C38.9361 49.936 39.1327 50.151 39.1221 50.4052C39.1115 50.6599 38.8896 50.8708 38.6422 50.8455C17.4856 49.9359 12.3726 61.0121 12.3238 61.1235C12.2478 61.2962 12.0788 61.3989 11.9015 61.3989Z" fill="#1D1D1B"/>
<path d="M14.2059 86.6799C14.1907 86.6799 14.1755 86.679 14.1599 86.6776C10.0955 86.2728 8.01018 85.5797 6.96243 84.2856C6.28681 83.4511 6.04731 82.3853 6.20851 80.9332C6.5949 77.4556 9.30247 65.7674 9.4176 65.2719C9.47471 65.0241 9.72662 64.8689 9.96979 64.9274C10.2176 64.9845 10.3719 65.2323 10.3143 65.4796C10.2862 65.6007 7.50404 77.6108 7.12409 81.0345C6.99145 82.226 7.16784 83.0752 7.67813 83.7057C8.54257 84.7737 10.5082 85.3886 14.2506 85.7612C14.5039 85.7865 14.6886 86.0121 14.6632 86.265C14.6402 86.5026 14.4399 86.6799 14.2059 86.6799Z" fill="#1D1D1B"/>
<path d="M23.2496 85.1287C22.9949 85.1287 22.7891 84.9229 22.7891 84.6682V79.6266C22.7891 79.3719 22.9949 79.166 23.2496 79.166C23.5043 79.166 23.7102 79.3719 23.7102 79.6266V84.6682C23.7102 84.9229 23.5043 85.1287 23.2496 85.1287Z" fill="#1D1D1B"/>
<path d="M23.2496 77.8571C22.9949 77.8571 22.7891 77.6512 22.7891 77.3966V75.36C22.7891 75.1053 22.9949 74.8994 23.2496 74.8994C23.5043 74.8994 23.7102 75.1053 23.7102 75.36V77.3966C23.7102 77.6512 23.5043 77.8571 23.2496 77.8571Z" fill="#1D1D1B"/>
<path d="M23.2502 74.076C23.2396 74.076 23.229 74.0755 23.2184 74.0746C22.9647 74.0575 22.7731 73.8374 22.7901 73.5841C22.797 73.4856 22.967 71.1367 23.947 68.4637C25.2633 64.8747 27.4264 62.4495 30.2022 61.4506C36.6986 59.1119 43.763 60.0302 44.06 60.0698C44.3119 60.1039 44.4888 60.336 44.4547 60.5879C44.4206 60.8403 44.1853 61.0135 43.9366 60.9826C43.8652 60.9725 36.793 60.0564 30.5139 62.3163C24.4108 64.5136 23.7154 73.5556 23.7094 73.6467C23.6923 73.8899 23.4902 74.076 23.2502 74.076Z" fill="#1D1D1B"/>
<path d="M46.0351 60.2594C45.861 60.2594 45.6948 60.1604 45.6169 59.9918C45.5101 59.7611 45.6105 59.4876 45.8417 59.3807C45.8776 59.3641 49.4726 57.6822 50.3606 55.5724C50.4596 55.3371 50.7318 55.2298 50.9639 55.3265C51.1988 55.4255 51.3084 55.6954 51.2098 55.9298C50.1828 58.3693 46.3884 60.1429 46.2276 60.2175C46.165 60.2461 46.0991 60.2594 46.0351 60.2594Z" fill="#1D1D1B"/>
<path d="M8.41137 96.1269C7.2531 96.1269 3.8013 95.9846 1.93148 94.3731C0.772742 93.3742 0.273052 92.2155 0.524511 91.1111C0.745573 90.1412 1.6547 88.8102 4.73023 87.9803C8.90094 86.8552 9.5024 85.4924 9.50793 85.4781C9.60234 85.2488 9.86625 85.1272 10.0961 85.2133C10.3286 85.299 10.4548 85.5454 10.3774 85.7807C10.3176 85.9635 9.65624 87.6049 4.97017 88.8696C2.91522 89.4236 1.65561 90.2922 1.42257 91.3155C1.25032 92.0718 1.64456 92.9095 2.53295 93.6749C4.48106 95.3541 8.71442 95.2003 8.75771 95.2003C9.00456 95.1726 9.22654 95.3873 9.23667 95.6415C9.2468 95.8957 9.04968 96.1103 8.79546 96.1204C8.76599 96.1218 8.62921 96.1269 8.41137 96.1269Z" fill="#1D1D1B"/>
<path d="M8.77553 94.1937C8.7677 94.1937 8.75986 94.1938 8.75203 94.1933C7.26815 94.1191 2.88328 92.9913 2.69722 92.9434C2.45129 92.8794 2.30299 92.6284 2.36609 92.382C2.43011 92.1356 2.68202 91.9873 2.92749 92.0508C2.97217 92.0624 7.40771 93.2036 8.7981 93.2727C9.05232 93.2851 9.24804 93.5016 9.23515 93.7558C9.22271 94.0022 9.01962 94.1937 8.77553 94.1937Z" fill="#1D1D1B"/>
<path d="M8.77658 89.8639C8.75723 89.8639 8.73742 89.8625 8.71715 89.8602C8.46477 89.8275 8.28653 89.5968 8.31923 89.3444C8.39799 88.7369 7.1863 88.2607 6.85793 88.1668C6.61384 88.0968 6.47154 87.8421 6.54108 87.598C6.61016 87.3539 6.86437 87.2093 7.10892 87.2812C7.9706 87.5248 9.38726 88.2585 9.23251 89.4623C9.20304 89.694 9.00501 89.8639 8.77658 89.8639Z" fill="#1D1D1B"/>
<path d="M10.959 89.0232C10.9374 89.0232 10.9157 89.0218 10.8936 89.0186C10.6417 88.9832 10.4667 88.7497 10.5022 88.4978C10.5537 88.1335 9.5645 87.5343 8.64524 87.2418C8.40346 87.1649 8.26897 86.9061 8.34588 86.6634C8.42325 86.4211 8.6807 86.2857 8.92387 86.364C9.37336 86.5063 11.6047 87.2838 11.4145 88.6272C11.3818 88.8574 11.1847 89.0232 10.959 89.0232Z" fill="#1D1D1B"/>
<path d="M16.4056 100C15.21 100 14.1037 99.9064 13.1882 99.7112C10.9034 99.2239 9.46328 97.9597 9.33663 96.328C9.23485 95.0242 10.0542 93.8084 11.3741 93.3041C13.7468 92.3972 17.749 89.0827 17.789 89.0495C17.9857 88.8865 18.2758 88.9137 18.4375 89.1089C18.6005 89.3047 18.5738 89.5952 18.3781 89.7574C18.2095 89.8978 14.2184 93.2032 11.7034 94.1644C10.7675 94.5218 10.1854 95.3632 10.255 96.2566C10.3485 97.4586 11.5164 98.4133 13.3798 98.8099C18.6894 99.9419 26.7029 97.7681 27.5964 95.5469C27.9745 92.7233 27.2957 89.2135 27.2883 89.1785C27.2395 88.9289 27.402 88.687 27.6512 88.6373C27.9049 88.5894 28.1431 88.7511 28.1923 89.0003C28.2218 89.1513 28.9163 92.7371 28.5018 95.7247L28.4788 95.8177C27.5241 98.4585 21.2408 100 16.4056 100Z" fill="#1D1D1B"/>
<path d="M18.9805 92.9584C18.8364 92.9584 18.694 92.8911 18.6047 92.764C17.9622 91.859 17.23 91.0153 16.9338 90.8315C16.7712 90.8587 16.5963 90.7984 16.4885 90.6565C16.3347 90.4544 16.3738 90.1651 16.576 90.0113C16.7068 89.9123 16.8735 89.8722 17.043 89.8985C17.6532 89.992 18.6374 91.2189 19.3554 92.2316C19.5023 92.4389 19.4539 92.7263 19.2462 92.8736C19.1661 92.9312 19.0731 92.9584 18.9805 92.9584Z" fill="#1D1D1B"/>
<path d="M16.8574 94.1938C16.6986 94.1938 16.5443 94.1118 16.4591 93.9649C15.9819 93.1447 15.3929 92.341 15.1331 92.1467C14.9692 92.1729 14.7923 92.0997 14.6906 91.9519C14.5464 91.7423 14.5994 91.4554 14.8085 91.3113C14.9512 91.2127 15.1276 91.1809 15.3031 91.221C15.8986 91.3545 16.6935 92.5354 17.2549 93.5016C17.3825 93.7217 17.3079 94.0036 17.0886 94.1311C17.0159 94.1735 16.9362 94.1938 16.8574 94.1938Z" fill="#1D1D1B"/>
<path d="M23.2496 96.8855C22.9949 96.8855 22.7891 96.6797 22.7891 96.425C22.7891 96.1703 22.9949 95.9644 23.2496 95.9644C24.0929 95.9644 25.6154 95.123 26.1313 94.7988C26.3468 94.6643 26.631 94.7284 26.7664 94.9435C26.9018 95.1585 26.8368 95.4427 26.6222 95.5781C26.4094 95.7121 24.5101 96.8855 23.2496 96.8855Z" fill="#1D1D1B"/>
<path d="M16.0493 97.9626C14.6036 97.9626 13.0774 97.8148 11.7556 97.3708C11.5148 97.2893 11.3844 97.0286 11.4655 96.7873C11.547 96.5469 11.8081 96.4175 12.049 96.4971C15.6666 97.7144 21.1996 96.4967 21.2549 96.4847C21.5026 96.4304 21.749 96.5855 21.8047 96.8333C21.8605 97.0816 21.7044 97.328 21.4561 97.3833C21.3009 97.4183 18.8246 97.9626 16.0493 97.9626Z" fill="#1D1D1B"/>
<path d="M37.0017 79.5361C35.4543 79.5361 34.4263 77.7036 34.3803 77.6193L34.3573 77.5714L31.5461 70.6872C31.4498 70.4519 31.5627 70.1829 31.7985 70.0867C32.0343 69.9899 32.3023 70.1028 32.399 70.339L35.1982 77.1938C35.3074 77.3767 36.1879 78.7984 37.2145 78.5939C38.6749 78.3028 59.7352 78.5557 62.1319 78.5847H71.3783C71.7601 78.487 74.4207 77.734 74.271 75.7845C74.0776 73.2713 74.2613 60.3419 74.2696 59.7925C74.2733 59.5383 74.4663 59.3435 74.7371 59.3389C74.9913 59.3426 75.1944 59.5516 75.1907 59.8063C75.1889 59.9403 74.9991 73.2428 75.1893 75.7136C75.4109 78.5999 71.6915 79.4597 71.5335 79.4952L71.4336 79.5058H62.1259C52.7473 79.3888 38.4276 79.2912 37.395 79.4966C37.2606 79.5233 37.1293 79.5361 37.0017 79.5361Z" fill="#1D1D1B"/>
<path d="M75.1984 53.5215H74.2773V55.7519H75.1984V53.5215Z" fill="#1D1D1B"/>
<path d="M75.2004 51.5087H74.2793V29.215C74.1803 28.964 73.6949 27.9531 72.2907 27.9002C70.3836 27.8283 61.1321 27.8997 61.0386 27.9006L61.0312 26.9795C61.4126 26.9768 70.3969 26.9058 72.3252 26.98C74.5667 27.0647 75.1558 28.9235 75.1802 29.0027L75.2 29.1363V51.5087H75.2004Z" fill="#1D1D1B"/>
<path d="M62.9519 35.5012L62.0469 35.3276C63.3295 28.6359 68.3485 27.0322 68.5613 26.9678L68.8312 27.8483C68.7842 27.8626 64.1258 29.375 62.9519 35.5012Z" fill="#1D1D1B"/>
<path d="M34.3271 77.4316C34.066 73.9393 34.8337 71.2994 36.6086 69.5857C39.1274 67.1541 42.7127 67.5179 42.8647 67.5345C42.9831 67.5345 58.8309 67.8191 60.9753 67.5358C61.4445 67.4737 61.7849 67.2913 62.017 66.9763C62.5162 66.2997 62.3514 65.2266 62.349 65.2165L62.3426 65.1392V48.1201H63.2637V65.1046C63.2987 65.3556 63.4332 66.6088 62.758 67.5234C62.3748 68.0429 61.8157 68.3542 61.0959 68.4491C58.8834 68.7411 43.4616 68.4643 42.8057 68.4533C42.7321 68.4473 39.4442 68.1221 37.2423 70.2545C35.6783 71.7692 35.0064 74.1613 35.2454 77.3639L34.3271 77.4316Z" fill="#1D1D1B"/>
<path d="M44.1588 13.3742C44.5701 13.3742 44.9035 13.0407 44.9035 12.6294C44.9035 12.2182 44.5701 11.8848 44.1588 11.8848C43.7475 11.8848 43.4141 12.2182 43.4141 12.6294C43.4141 13.0407 43.7475 13.3742 44.1588 13.3742Z" fill="#1D1D1B"/>
<path d="M44.9064 15.7315C44.7705 15.7315 44.6365 15.6721 44.5458 15.5579C44.3873 15.3594 44.42 15.0706 44.6176 14.9122C44.7231 14.8279 45.6713 14.0961 46.5616 14.3825C46.8038 14.4604 46.9369 14.7197 46.8591 14.9619C46.7808 15.2046 46.522 15.3368 46.2797 15.2594C45.9514 15.1563 45.4047 15.4648 45.1919 15.6325C45.1072 15.6992 45.0063 15.7315 44.9064 15.7315Z" fill="#1D1D1B"/>
<path d="M41.4992 11.6354C41.4343 11.6354 41.3685 11.6216 41.3054 11.5921C41.0746 11.4852 40.9747 11.2112 41.0824 10.9805C41.3408 10.4255 41.7134 10.0598 42.19 9.89359C42.9021 9.64628 43.5501 9.95207 43.6214 9.98753C43.849 10.1013 43.941 10.3781 43.8273 10.6056C43.7145 10.8317 43.4404 10.9243 43.2129 10.8133C43.2 10.8068 42.8367 10.6397 42.4867 10.7654C42.2568 10.8483 42.0648 11.0514 41.917 11.3692C41.8391 11.5368 41.6729 11.6354 41.4992 11.6354Z" fill="#1D1D1B"/>
<path d="M61.0336 17.154C61.0474 9.81749 57.6421 14.3986 57.0604 9.23583C56.4787 4.0731 53.2793 -0.0718228 46.4195 0.000943625C39.5596 0.07371 39.3667 6.32745 39.3667 6.32745C39.3667 6.32745 39.8263 10.3996 39.0673 11.8849C38.3083 13.3701 40.7718 16.8717 39.8991 17.744C39.0263 18.6167 38.6445 23.1452 38.6445 23.1452H44.1596C44.1596 23.1452 46.0589 18.9312 49.4255 18.3984C46.9533 19.4162 47.3166 24.846 47.3166 24.846C47.3166 24.846 63.0834 25.2909 64.2601 24.2644C64.4047 22.4222 64.4775 21 61.0336 17.154ZM50.6611 11.1752L48.6494 13.3743C48.6494 13.3743 50.4433 17.0167 47.3162 17.1489C44.1895 17.2811 43.4149 15.0244 43.4149 15.0244L41.6639 14.8595L42.0807 13.3743L41.2471 8.41188L47.0256 9.23583C47.0256 9.23583 47.8983 6.61807 49.7161 7.19974C51.5338 7.78141 50.6611 11.1752 50.6611 11.1752Z" fill="#1D1D1B"/>
<path d="M25.9419 44.1436C25.7738 44.1436 25.6112 44.0515 25.5301 43.8908C25.4154 43.6637 25.5062 43.3865 25.7332 43.2718C35.9979 38.0856 35.2532 34.0608 35.244 34.0208C35.1905 33.7753 35.343 33.5285 35.5875 33.4709C35.8335 33.4124 36.0766 33.5584 36.1388 33.8025C36.1867 33.9922 37.1875 38.5166 26.1486 44.0943C26.0828 44.1279 26.0114 44.1436 25.9419 44.1436Z" fill="#1D1D1B"/>
</svg>
