<svg width="20" height="15" viewBox="0 0 20 15" fill="none" xmlns="http://www.w3.org/2000/svg">
<path d="M5.44031 9.74967H8.20059C8.44462 9.74967 8.67865 9.6531 8.8512 9.48119C9.02375 9.30928 9.12069 9.07612 9.12069 8.83301C9.12069 8.58989 9.02375 8.35673 8.8512 8.18483C8.67865 8.01292 8.44462 7.91634 8.20059 7.91634H5.44031C5.19629 7.91634 4.96226 8.01292 4.78971 8.18483C4.61716 8.35673 4.52022 8.58989 4.52022 8.83301C4.52022 9.07612 4.61716 9.30928 4.78971 9.48119C4.96226 9.6531 5.19629 9.74967 5.44031 9.74967ZM16.4814 0.583008H3.60012C2.86805 0.583008 2.16596 0.872739 1.64831 1.38846C1.13066 1.90419 0.839844 2.60366 0.839844 3.33301V11.583C0.839844 12.3124 1.13066 13.0118 1.64831 13.5276C2.16596 14.0433 2.86805 14.333 3.60012 14.333H16.4814C17.2135 14.333 17.9156 14.0433 18.4332 13.5276C18.9509 13.0118 19.2417 12.3124 19.2417 11.583V3.33301C19.2417 2.60366 18.9509 1.90419 18.4332 1.38846C17.9156 0.872739 17.2135 0.583008 16.4814 0.583008ZM17.4015 11.583C17.4015 11.8261 17.3046 12.0593 17.132 12.2312C16.9595 12.4031 16.7255 12.4997 16.4814 12.4997H3.60012C3.3561 12.4997 3.12207 12.4031 2.94952 12.2312C2.77697 12.0593 2.68003 11.8261 2.68003 11.583V6.08301H17.4015V11.583ZM17.4015 4.24967H2.68003V3.33301C2.68003 3.08989 2.77697 2.85673 2.94952 2.68483C3.12207 2.51292 3.3561 2.41634 3.60012 2.41634H16.4814C16.7255 2.41634 16.9595 2.51292 17.132 2.68483C17.3046 2.85673 17.4015 3.08989 17.4015 3.33301V4.24967Z" fill="#00294B"/>
</svg>
