<svg width="42" height="64" viewBox="0 0 42 64" fill="none" xmlns="http://www.w3.org/2000/svg">
<path d="M35.4795 47.6569C33.5499 54.3235 28.8643 58.2738 22.916 58.2738C15.2609 58.2738 9.05469 50.3211 9.05469 40.5128C9.05469 30.7046 15.2609 22.752 22.916 22.752C27.4715 22.752 31.5269 24.863 34.0555 29.1443" stroke="#4D4D4D" stroke-width="11.4511" stroke-linecap="round" stroke-linejoin="round"/>
<path d="M3.69922 29.7588L4.13234 24.4531L7.7258 25.5679L8.712 30.7037L4.84978 31.813L3.69922 29.7588Z" fill="#4D4D4D"/>
<path d="M23.4922 62.098C21.1783 62.0896 18.88 61.719 16.6808 60.9997C17.3647 61.5792 17.3577 61.7358 17.3554 61.8059C17.3499 61.9142 17.2775 62.0443 16.9659 62.0443C15.9999 62.0443 13.1161 61.1477 10.836 58.4828C7.81667 54.9547 6.3958 51.4353 5.77962 49.4465C5.73366 49.8625 5.62927 50.2567 5.4205 50.495C5.35463 50.5732 5.27245 50.636 5.17973 50.6791C5.08702 50.7221 4.98601 50.7444 4.88378 50.7443C4.74108 50.7407 4.6006 50.7081 4.47092 50.6485C2.5032 49.7916 1.75148 43.0573 1.72032 42.7714C1.53803 41.0927 1.7359 38.9902 1.96102 37.4252C1.63073 38.1263 1.23501 38.7339 0.843957 38.783C0.828377 38.783 0.812018 38.783 0.797217 38.783C0.733422 38.7819 0.670833 38.7654 0.614804 38.7349C0.558775 38.7044 0.510978 38.6607 0.475498 38.6077C-0.0869304 37.8622 0.264391 33.9938 0.936657 31.6506C1.69149 29.0192 3.45902 24.8391 3.47693 24.7955L3.56574 24.5859L4.98661 25.4709L4.94766 25.6111C4.94766 25.622 4.65242 26.732 4.92663 28.3835C5.39402 31.2167 7.13973 33.8746 7.99583 34.8841C8.09243 34.9986 8.22486 35.1474 8.3791 35.3196C9.20404 36.2435 10.5852 37.7898 10.8407 38.8951C10.9731 39.4646 10.942 39.893 10.7511 40.133C10.6969 40.201 10.6275 40.2556 10.5486 40.2922C10.4696 40.3288 10.3832 40.3466 10.2962 40.3441C10.0887 40.3328 9.88734 40.2699 9.71038 40.161C10.0539 40.5653 10.445 41.007 10.8547 41.4409C12.2429 42.9085 13.7596 45.6419 13.5601 46.8354C13.5173 47.0932 13.3459 47.2474 13.1005 47.2474C12.7305 47.2474 12.133 46.8502 11.5317 46.3547C12.7648 47.8348 14.4513 49.7044 15.8613 50.6687C17.3312 51.676 19.0014 52.0156 20.2236 52.2633C21.2051 52.4628 21.914 52.6076 22.1711 53.0096C22.2543 53.1303 22.3074 53.2692 22.3259 53.4146C22.3445 53.56 22.328 53.7077 22.2778 53.8455C22.1796 54.1189 21.9529 54.3837 21.618 54.6244C22.7358 54.4001 24.184 54.101 24.9497 53.9117C25.8845 53.678 27.2181 53.3749 28.047 53.3749C28.2268 53.3699 28.4065 53.3906 28.5806 53.4365C28.6364 53.4497 28.6872 53.4788 28.7269 53.5203C28.7665 53.5618 28.7934 53.6138 28.8041 53.6702C28.8098 53.7896 28.7719 53.907 28.6974 54.0005C30.2803 53.2215 32.9538 52.1052 35.1981 52.1052C35.4428 52.1045 35.6874 52.1193 35.9303 52.1496C36.763 52.2555 37.2312 52.5492 37.3216 53.0229C37.5755 54.3565 34.4237 56.5026 34.0584 56.7043C33.6689 56.9209 32.4911 57.5425 31.353 58.0722C31.6086 58.0446 31.8655 58.03 32.1226 58.0286C32.9873 58.0286 33.5637 58.2296 33.8364 58.6269C33.9031 58.7163 33.9457 58.8213 33.9602 58.932C33.9747 59.0426 33.9605 59.1551 33.919 59.2586C33.8099 59.5367 33.4781 60.3819 28.4131 61.5177C26.8001 61.8971 25.1492 62.0918 23.4922 62.098Z" fill="#FCDEBB"/>
<path d="M3.65868 24.8776L4.76251 25.5655C4.76251 25.5655 4.45091 26.7012 4.7368 28.4212C5.26105 31.58 7.24825 34.3073 7.85274 35.0162C8.45724 35.725 10.3642 37.6818 10.6571 38.9454C10.8293 39.6885 10.7077 40.1551 10.3019 40.1551C10.0183 40.1551 9.59612 39.9277 9.03914 39.4073C8.35052 38.7654 8.26016 38.6727 8.26016 38.6727C8.26016 38.6727 9.37956 40.1621 10.7202 41.5799C12.0608 42.9977 13.5604 45.6992 13.3758 46.8085C13.3469 46.9829 13.2511 47.0585 13.1078 47.0585C12.3413 47.0585 10.2131 44.8999 9.66701 44.3025C9.66701 44.3025 13.1499 49.048 15.7587 50.8358C18.3675 52.6236 21.506 52.3354 22.0147 53.1214C22.5234 53.9074 21.4905 54.6926 20.135 55.1241C20.135 55.1241 23.6327 54.4464 25.0037 54.1115C26.099 53.8404 27.2978 53.5802 28.0542 53.5802C28.2153 53.5759 28.3762 53.5938 28.5325 53.6332C28.9999 53.7718 27.4419 54.9021 27.4419 54.9021C27.4419 54.9021 31.8627 52.312 35.2084 52.312C35.4451 52.3111 35.6816 52.3254 35.9165 52.3548C39.3059 52.7856 34.7301 56.1298 33.9745 56.5458C33.2189 56.9618 30.7238 58.2596 29.4907 58.6413C29.4907 58.6413 30.917 58.2354 32.133 58.2354C32.8084 58.2354 33.4199 58.3608 33.6871 58.7488C34.4372 59.8393 30.5851 60.845 28.3814 61.3381C26.7811 61.7102 25.144 61.9007 23.501 61.906C21.3144 61.906 18.6472 61.5617 15.6387 60.4259C15.6387 60.4259 17.1796 61.5617 17.1694 61.7977C17.1694 61.8304 17.1001 61.8499 16.9778 61.8499C16.2198 61.8499 13.3578 61.1169 10.9952 58.3562C6.42408 53.0146 5.56175 47.776 5.56175 47.776C5.56175 47.776 5.9341 50.5523 4.89571 50.5523C4.7796 50.5499 4.66526 50.5233 4.55997 50.4744C3.11183 49.8426 2.20275 45.3128 1.92543 42.7554C1.64812 40.198 2.2791 36.4838 2.52603 35.4204C2.52603 35.4204 1.571 38.5021 0.830959 38.5948H0.808368C0.0971528 38.5948 0.382261 34.333 1.13398 31.7109C1.89427 29.0624 3.66647 24.88 3.66647 24.88L3.65868 24.8776ZM3.48185 24.3066L3.30346 24.7257C3.28555 24.7678 1.51179 28.9595 0.756177 31.6019C0.42355 32.7594 0.16181 34.301 0.0550888 35.725C-0.0648751 37.3212 0.0262648 38.3323 0.326175 38.7304C0.380302 38.8072 0.451864 38.8702 0.535 38.914C0.618136 38.9579 0.710482 38.9814 0.804474 38.9827C0.828179 38.9827 0.851859 38.9812 0.875362 38.9781C1.08569 38.9516 1.33263 38.8449 1.64656 38.3962C1.48531 39.803 1.38638 41.4342 1.5336 42.7936C1.70432 44.3648 2.00262 45.9196 2.42554 47.4426C2.98797 49.39 3.63375 50.4946 4.40028 50.8288C4.55472 50.8994 4.72202 50.9376 4.89182 50.941C5.02156 50.9422 5.15 50.915 5.26806 50.8612C5.38611 50.8073 5.49089 50.7282 5.57499 50.6294C5.68171 50.5003 5.7643 50.3531 5.81881 50.1947C5.92709 50.5063 6.05251 50.8475 6.19584 51.2074C7.28284 53.9023 8.80207 56.4019 10.6937 58.6078C11.7201 59.8166 12.9872 60.7982 14.4142 61.49C15.4977 62.0073 16.4792 62.2394 16.9716 62.2394C17.4935 62.2394 17.548 61.9146 17.5519 61.8149C17.5574 61.6964 17.5278 61.5812 17.3961 61.4215C20.9959 62.4742 24.8072 62.5754 28.4577 61.7151C33.0888 60.6791 33.8974 59.8635 34.103 59.34C34.1557 59.2066 34.1738 59.062 34.1557 58.9197C34.1376 58.7774 34.0838 58.642 33.9994 58.526C33.7073 58.1022 33.1355 57.874 32.2989 57.8467C33.0896 57.4572 33.8016 57.0786 34.1545 56.8846C34.4512 56.7211 35.3292 56.1173 36.1105 55.3976C37.1761 54.416 37.6357 53.63 37.5127 52.9959C37.4052 52.4304 36.8809 52.0837 35.9547 51.9661C35.7035 51.9349 35.4506 51.9196 35.1975 51.9202C33.0943 51.9202 30.6218 52.8861 28.996 53.6511C28.9795 53.5584 28.9367 53.4725 28.8728 53.4035C28.8088 53.3344 28.7264 53.2852 28.6353 53.2616C28.4436 53.2107 28.2455 53.1873 28.0472 53.1922C27.3913 53.1922 26.4215 53.359 24.9032 53.7375C24.2855 53.8933 23.2198 54.1146 22.2453 54.314C22.337 54.196 22.41 54.0646 22.4619 53.9245C22.5223 53.7586 22.5423 53.5807 22.5203 53.4055C22.4982 53.2303 22.4346 53.063 22.3349 52.9173C22.0303 52.4499 21.2872 52.2941 20.2597 52.0861C19.0561 51.8415 17.4094 51.5065 15.9752 50.5219C14.9119 49.7935 13.6874 48.5448 12.6256 47.3397C12.776 47.4122 12.9401 47.4517 13.107 47.4558C13.4498 47.4558 13.6998 47.2353 13.759 46.8809C13.8876 46.1113 13.3976 44.9638 12.9645 44.1373C12.4192 43.095 11.6846 42.0418 11.0022 41.3205C10.7599 41.0642 10.5247 40.8048 10.3011 40.5524C10.4175 40.5546 10.5328 40.53 10.6381 40.4806C10.7435 40.4312 10.836 40.3582 10.9087 40.2673C11.1424 39.9752 11.1837 39.5031 11.0357 38.8651C10.7685 37.7115 9.36709 36.1387 8.52968 35.2039C8.37389 35.0325 8.2438 34.8837 8.14876 34.7723C7.30512 33.7768 5.58667 31.1563 5.12395 28.3652C4.85754 26.762 5.13798 25.6854 5.14109 25.6753L5.21899 25.3964L4.97439 25.2406L3.86979 24.552L3.48029 24.3113L3.48185 24.3066Z" fill="#4D4D4D"/>
<path d="M35.9079 52.3512C32.5427 51.9228 27.5073 54.8557 27.4341 54.8977C27.4754 54.8681 28.9921 53.7674 28.5247 53.6303C27.9015 53.4457 26.3677 53.769 24.9959 54.1079C23.6467 54.4413 20.2363 55.1042 20.1295 55.1205C21.4842 54.689 22.5156 53.903 22.0069 53.1178C21.4982 52.3325 18.3605 52.62 15.7509 50.8322C13.1802 49.0733 9.76747 44.4445 9.66153 44.302C10.3151 45.0163 13.1833 47.9133 13.3679 46.8056C13.5526 45.6979 12.053 42.9948 10.7124 41.5771C9.39667 40.1858 8.29752 38.726 8.25389 38.6714C8.26636 38.6839 8.38788 38.8023 9.03288 39.4045C10.3875 40.668 10.9437 40.2053 10.6508 38.9418C10.3579 37.6782 8.44708 35.7214 7.84649 35.0125C7.24589 34.3037 5.25791 31.5764 4.73054 28.4176C4.44543 26.6984 4.75624 25.5619 4.75624 25.5619L3.65787 24.8779C3.65787 24.8779 1.88568 29.0588 1.12539 31.7089C0.365097 34.359 0.0831024 38.6839 0.822361 38.5912C1.56162 38.4985 2.48783 35.5134 2.51666 35.42C2.2705 36.4856 1.63952 40.1959 1.91684 42.7518C2.19416 45.3076 3.10323 49.8406 4.55137 50.4715C5.94342 51.0792 5.58509 48.0263 5.55549 47.7895C5.61079 48.1011 6.55804 53.1809 10.9874 58.3557C13.7317 61.5628 17.1507 62.0333 17.1608 61.7965C17.171 61.5596 15.6808 60.4605 15.6309 60.4262C21.5629 62.6596 26.1698 61.8284 28.3728 61.3345C30.5758 60.8406 34.4286 59.835 33.6785 58.7459C32.9439 57.6787 29.6192 58.5987 29.486 58.6369C30.7207 58.2583 33.2119 56.9574 33.9659 56.5422C34.72 56.127 39.2973 52.7828 35.9079 52.3512ZM36.2195 53.7846C36.0887 54.2309 35.2645 55.4586 32.6362 56.8662C30.0079 58.2739 28.1181 59.1253 28.1181 59.1253C28.1181 59.1253 32.4734 58.365 33.0794 58.9812C33.3645 59.2718 31.1997 60.4013 29.0965 60.9178C26.9932 61.4342 23.8656 61.5955 21.6182 61.3337C19.3708 61.072 15.6714 60.5018 14.0534 59.5008C14.0986 59.5358 15.5468 60.6529 15.5468 60.9481C15.5468 61.2434 14.4297 60.656 13.5822 59.9549C12.7346 59.2538 9.8664 56.3209 8.63404 53.9785C7.40168 51.6361 5.83982 48.0512 5.0694 45.3092C5.0694 45.3092 5.45422 50.209 3.92896 48.6066C2.4037 47.0043 1.88412 38.3778 2.77996 34.6153C2.74802 34.683 1.66445 36.9522 1.16356 36.7559C0.662669 36.5596 1.7439 32.3025 2.21675 30.9462C2.68959 29.59 3.10012 28.5836 3.81912 28.6872C4.53813 28.7908 4.88789 31.9332 6.22308 33.9469C7.55826 35.9606 9.87964 37.7889 10.1468 38.8545C10.414 39.9202 9.14038 39.2347 8.49304 38.68C7.8644 38.141 6.89067 37.2381 6.83614 37.1875C6.91949 37.295 9.59921 40.7326 10.809 42.1317C12.0951 43.6188 12.9792 45.6449 12.1574 45.5904C11.2561 45.532 9.66464 44.3113 8.75167 43.3368C8.83346 43.4832 11.4641 48.1603 12.9504 49.3739C14.4609 50.6063 16.131 52.7797 20.1615 53.0103C21.2404 53.0718 21.7413 53.5704 21.4663 53.9341C21.0246 54.5199 19.402 55.362 19.3295 55.362C19.3295 55.362 23.6443 55.147 25.6674 54.5916C27.6904 54.0362 27.5883 54.4997 25.9408 55.7367C26.0288 55.6985 31.6453 53.2221 33.1854 53.0508C36.0544 52.7368 36.3465 53.3374 36.2156 53.7846H36.2195Z" fill="#EBA44D"/>
<path d="M16.7416 25.2946L14.7381 31.0793L14.6765 31.2569C13.5673 31.5031 12.5811 29.7878 11.9548 28.3396C11.5824 27.4923 11.3206 26.6005 11.1758 25.6864L12.6255 23.4912L14.0635 24.1206L16.7416 25.2946Z" fill="#FCDEBB"/>
<path d="M14.7381 31.0793L14.6765 31.2569C13.5673 31.5031 12.5811 29.7878 11.9548 28.3396C11.5824 27.4923 11.3206 26.6005 11.1758 25.6864L12.6255 23.4912L14.0635 24.1206L13.7971 24.5997C13.7971 24.5997 12.6473 25.6436 12.5024 26.0323C12.162 26.9468 12.5491 27.5271 12.7797 28.1745C13.0103 28.8218 13.9832 30.7319 14.7381 31.0793Z" fill="#EBA44D"/>
<path d="M8.38995 27.0596C7.81506 27.0596 6.9574 26.9038 6.25553 26.6701C6.08337 26.6132 5.84578 26.554 5.57002 26.4855C4.65082 26.2572 3.38886 25.9449 2.84357 25.2679C1.92436 24.1399 1.4375 23.4762 1.22327 21.8318C0.999705 20.1032 1.12356 17.2693 2.1417 14.5023C3.15984 11.7354 3.79393 10.2506 3.80406 10.2335L3.80795 10.2233L5.15248 7.7041L17.8835 12.9833L15.2739 20.5566L10.1325 25.8537C10.092 25.9121 9.97675 26.0781 9.8155 26.2658C9.42055 26.7332 9.05677 26.9918 8.73582 27.0393C8.62115 27.0542 8.50558 27.061 8.38995 27.0596Z" fill="#616663"/>
<path d="M5.27436 8.0517L17.5403 13.1361L15.0335 20.4095L14.4664 20.9938L9.92257 25.6802C9.82599 25.8216 9.72198 25.9579 9.61097 26.0884C9.36559 26.3774 9.01349 26.7217 8.69878 26.7684C8.59551 26.7823 8.49138 26.7889 8.38719 26.7879C7.80684 26.7879 6.97411 26.6243 6.33845 26.414C5.57816 26.1624 3.69769 25.896 3.05191 25.099C2.18412 24.0272 1.70037 23.3853 1.49393 21.7969C1.2875 20.2086 1.37008 17.3902 2.39756 14.596C3.42504 11.8017 4.05135 10.3435 4.05135 10.3435L5.27436 8.0517ZM5.02586 7.3584L4.79216 7.79463L3.56993 10.0856L3.55903 10.1059L3.54968 10.1269C3.54345 10.1417 2.90546 11.6311 1.88498 14.4067C0.85049 17.2204 0.725073 20.1042 0.9502 21.8655C1.16987 23.5792 1.70192 24.3029 2.62346 25.441C3.22952 26.1896 4.53977 26.5145 5.49637 26.7521C5.76668 26.819 6.00037 26.8767 6.1624 26.9304C6.9001 27.175 7.77179 27.3324 8.38251 27.3324C8.5128 27.3333 8.64297 27.3247 8.77201 27.3067C9.16617 27.2483 9.57436 26.9647 10.0184 26.4405C10.1742 26.2621 10.2856 26.1008 10.3385 26.026L14.8606 21.3724L15.4269 20.7881L15.5118 20.7009L15.5515 20.5864L18.0583 13.313L18.2258 12.8277L17.7514 12.6314L5.48546 7.54847L5.0282 7.35918L5.02586 7.3584Z" fill="#4D4D4D"/>
<path d="M15.1404 15.6653L14.4642 20.9951L9.92037 25.6807C9.82379 25.8222 9.71978 25.9584 9.60877 26.0889C7.34348 26.3226 2.71085 25.1541 2.30032 21.1603C1.8898 17.1664 4.88889 10.376 4.88889 10.376L9.60877 10.3027L15.1404 15.6653Z" fill="#4D4D4D"/>
<path d="M3.28906 7.43177L5.08463 3.91309L8.14682 4.69285L5.73742 7.43177H3.28906Z" fill="#4D4D4D"/>
<path d="M5.23057 4.23525L7.6501 4.85143L5.61617 7.16269H3.73647L5.23057 4.23525ZM4.94312 3.5996L4.74526 3.9891L3.24882 6.91107L2.84375 7.70408H5.86077L6.02357 7.51946L8.05751 5.20821L8.64642 4.53906L7.78331 4.31938L5.36377 3.7032L4.94156 3.5957L4.94312 3.5996Z" fill="#4D4D4D"/>
<path d="M8.62891 2.39789L11.4566 0.328125L13.8582 1.80197L10.0786 3.74944L8.62891 2.39789Z" fill="#4D4D4D"/>
<path d="M11.471 0.656292L13.3047 1.78115L10.1257 3.41702L9.05689 2.4207L11.4718 0.653957L11.471 0.656292ZM11.4453 -0.00195312L11.15 0.213828L8.73517 1.98057L8.20312 2.37006L8.68532 2.81954L9.75331 3.81586L10.0345 4.0776L10.3749 3.90155L13.5548 2.26568L14.4116 1.82244L13.5867 1.3161L11.753 0.191239L11.4414 0.000386118L11.4453 -0.00195312Z" fill="#4D4D4D"/>
<path d="M11.0543 12.0442C11.0255 12.0294 8.06535 10.547 2.76357 10.2658L2.32422 10.2432L2.54 9.85991C2.62491 9.70956 4.64872 6.15115 7.478 3.89442C10.2465 1.68522 13.0922 0.898438 14.8324 0.898438C14.9422 0.898438 15.0497 0.898437 15.1526 0.907785H15.2071L15.2562 0.931933C15.4299 1.01762 19.5328 3.05 21.0986 5.78736L21.2544 6.05377L20.9724 6.17374C20.9069 6.20178 14.3728 9.00302 11.3768 11.992L11.2366 12.1314L11.0543 12.0442Z" fill="#4D4D4D"/>
<path d="M14.8327 1.17127C14.9365 1.17127 15.0378 1.17438 15.1365 1.18061C15.1365 1.18061 19.3196 3.22935 20.8605 5.92621C20.8605 5.92621 14.2476 8.74068 11.1792 11.8021C11.1792 11.8021 8.21127 10.2815 2.77784 9.99407C2.77784 9.99407 4.82813 6.35776 7.64806 4.10805C10.3067 1.98687 13.0932 1.17127 14.8327 1.17127ZM14.8327 0.625977C13.0464 0.625977 10.1315 1.42912 7.30764 3.68195C4.43786 5.97139 2.38912 9.5742 2.30343 9.7261L1.87109 10.4918L2.74901 10.5386C7.98147 10.8151 10.9019 12.2726 10.9284 12.2874L11.2805 12.4666L11.5609 12.1877C14.5211 9.23768 21.0061 6.45592 21.0716 6.42787L21.6348 6.18794L21.331 5.65589C19.7255 2.84609 15.5501 0.777101 15.3733 0.690634L15.2751 0.642337L15.1661 0.636104C15.0578 0.629093 14.9448 0.625977 14.8295 0.625977H14.8327Z" fill="#4D4D4D"/>
<path d="M11.6281 26.0139C11.5689 26.0139 10.1574 25.936 8.4888 25.0791C6.95108 24.2853 4.90546 22.6424 3.87097 19.3208L3.82812 19.183L8.10476 13.8079L10.4659 12.0248C10.7144 11.8044 15.7583 7.36962 21.5399 5.3427L21.5524 5.3388C21.7479 5.2796 26.365 3.90625 28.3662 3.90625C28.4589 3.90625 28.5454 3.90625 28.6248 3.9156C29.1577 3.95455 29.9717 4.23264 30.8255 5.33958C31.5788 6.31565 32.1786 7.69835 32.6093 9.44874L32.667 9.68243L32.4395 9.76579C32.4154 9.77513 30.0247 10.6702 28.4013 11.3238L15.2364 22.88L15.2091 22.8948C15.1912 22.905 13.3902 23.8927 11.8595 25.9017L11.773 26.0154L11.6281 26.0139Z" fill="#C3BFB3"/>
<path d="M28.3661 4.17615C28.451 4.17615 28.5313 4.17615 28.6053 4.18472C29.8688 4.27664 31.44 5.83305 32.3444 9.51065C32.3444 9.51065 29.8992 10.4252 28.2563 11.0928L15.0766 22.6592C15.0766 22.6592 13.2273 23.6555 11.6405 25.7408C11.6405 25.7408 6.07307 25.4947 4.13106 19.2386L8.29708 14L10.6387 12.2332C10.6387 12.2332 15.7123 7.67224 21.6326 5.59702C21.6326 5.59702 26.3844 4.17615 28.3685 4.17615H28.3661ZM28.3685 3.63086C26.3283 3.63086 21.6738 5.0159 21.4768 5.07432L21.4643 5.07822H21.4518C18.3359 6.1688 15.4661 7.94567 13.6059 9.2419C12.4559 10.0357 11.3504 10.892 10.2944 11.8071L7.97068 13.5606L7.91538 13.6019L7.87253 13.6564L3.70651 18.8951L3.52734 19.121L3.61303 19.396C4.08042 20.8971 4.78619 22.1941 5.7163 23.2504C6.46228 24.0985 7.36065 24.7993 8.36485 25.3163C10.0856 26.2043 11.5587 26.2791 11.6171 26.2822L11.9022 26.2947L12.0752 26.0672C13.5732 24.0987 15.3189 23.1445 15.336 23.1351L15.3905 23.1063L15.4373 23.065L28.5468 11.5594C30.1632 10.905 32.5119 10.0263 32.536 10.0178L32.9902 9.84795L32.8749 9.37667C32.4355 7.58889 31.8186 6.17269 31.0419 5.17014C30.1235 3.98374 29.2331 3.68383 28.6434 3.64099C28.5577 3.63398 28.4635 3.63086 28.3646 3.63086H28.3685Z" fill="#4D4D4D"/>
<path d="M11.6014 25.8943C11.5071 25.8904 9.17015 25.7509 6.91888 23.8899C4.6676 22.0289 4.08103 19.6125 4.05688 19.5113L4.00391 19.2861L4.23293 19.3212C4.32641 19.336 6.54574 19.6881 8.33975 20.8114C10.2592 22.0141 11.2002 23.2823 11.6956 25.335V25.3443L11.7946 25.9044L11.6014 25.8943Z" fill="#A8A496"/>
<path d="M4.20819 19.4762C4.20819 19.4762 6.46725 19.8252 8.25892 20.9446C10.0506 22.064 11.0321 23.2458 11.5462 25.3716L11.6109 25.7401C11.6109 25.7401 9.25369 25.6201 7.02034 23.7708C4.78698 21.9215 4.21053 19.4762 4.21053 19.4762H4.20819ZM3.80156 19.0977L3.9075 19.5471C3.93165 19.6515 4.53069 22.1178 6.82169 24.0107C9.11269 25.9037 11.4956 26.0462 11.5953 26.0509L11.9848 26.0711L11.9163 25.6855L11.8508 25.3179V25.3077V25.2992C11.3445 23.2021 10.3848 21.9075 8.42329 20.6806C6.6028 19.5401 4.35231 19.1826 4.25727 19.1678L3.80078 19.0977H3.80156Z" fill="#4D4D4D"/>
<path d="M11.6078 25.74C11.5846 25.5556 11.5385 25.3748 11.4707 25.2018C11.4056 25.0286 11.3302 24.8595 11.2448 24.6954C11.0715 24.3686 10.8702 24.0575 10.6434 23.7653L10.4728 23.548L10.2921 23.3376L10.2025 23.2325L10.1082 23.1304L9.91972 22.9279C9.79119 22.7955 9.65798 22.6669 9.53023 22.5384C9.40247 22.4099 9.2568 22.2922 9.1158 22.1754C8.54599 21.7137 7.91728 21.33 7.24624 21.0342C6.90865 20.8877 6.56207 20.7628 6.20863 20.6603C6.03335 20.6088 5.85574 20.5644 5.67814 20.5255C5.50245 20.4859 5.32488 20.4552 5.14609 20.4336L5.29332 20.2116L5.75292 20.9968C5.92274 21.2476 6.09022 21.5 6.26471 21.7469L6.54281 22.1045L6.68225 22.2837C6.72899 22.3429 6.78274 22.3966 6.83181 22.4535L7.13562 22.7892C7.23922 22.8983 7.35218 22.998 7.45968 23.1008C7.89528 23.5148 8.38286 23.8704 8.91015 24.1587L9.11191 24.2568C9.17788 24.2918 9.24576 24.323 9.31522 24.3503C9.45388 24.4064 9.59099 24.4648 9.73432 24.5061C9.87523 24.5531 10.0188 24.5916 10.1643 24.6214C10.2368 24.6339 10.3092 24.6518 10.3824 24.658C10.4526 24.6683 10.5234 24.6743 10.5943 24.6759L10.4876 24.8317C10.4153 24.6414 10.3316 24.4557 10.2368 24.2755C10.141 24.094 10.0389 23.9149 9.92517 23.7419C9.70137 23.3955 9.44242 23.0731 9.15242 22.7799C8.86221 22.4842 8.53491 22.2273 8.17868 22.0157C8.09144 21.9604 7.99796 21.9152 7.90604 21.8654C7.81412 21.8155 7.71908 21.7742 7.62249 21.736C7.43055 21.6542 7.23327 21.5855 7.03201 21.5304C7.44522 21.6106 7.84442 21.751 8.21685 21.9471C8.59194 22.1442 8.93992 22.389 9.25213 22.6755C9.56458 22.9632 9.8446 23.2842 10.0872 23.6329C10.336 23.9816 10.545 24.3571 10.7104 24.7523L10.7743 24.9081H10.6037C10.5214 24.9082 10.4393 24.9038 10.3575 24.8948C10.2796 24.8894 10.2017 24.8722 10.1238 24.8613C9.96823 24.834 9.81447 24.797 9.66343 24.7507C9.36188 24.6601 9.0691 24.5425 8.78863 24.3994C8.23038 24.1121 7.71449 23.749 7.25558 23.3205C7.14341 23.213 7.02578 23.1094 6.9175 22.9972L6.60201 22.6521C6.5506 22.5937 6.49529 22.5384 6.44622 22.4776L6.30132 22.2946L6.0131 21.9277C5.9204 21.8038 5.83861 21.6714 5.75058 21.5436C5.66255 21.4159 5.57687 21.2866 5.49196 21.1541L5.02456 20.3494L4.875 20.0908L5.17179 20.1274C5.36275 20.1508 5.55231 20.1843 5.73968 20.2279C5.92507 20.2692 6.10736 20.3206 6.28886 20.3752C6.65051 20.4876 7.00485 20.6224 7.34984 20.7787C8.03745 21.0959 8.67724 21.5078 9.25057 22.0025C9.39312 22.1255 9.52633 22.2603 9.66343 22.392C9.80053 22.5236 9.92205 22.6638 10.0482 22.8033C10.2993 23.0825 10.5322 23.3776 10.7454 23.6866C10.9596 23.9949 11.147 24.3209 11.3055 24.6611C11.4613 25.0055 11.5891 25.3661 11.6078 25.74Z" fill="#4D4D4D"/>
<path d="M12.8808 18.7036C12.8535 18.6747 11.6056 17.4058 6.30378 15.7551L5.99219 15.6569L6.14798 15.3672C6.20329 15.2628 7.50576 12.8043 8.36342 12.0261C8.58076 11.829 8.88223 11.7285 9.26004 11.7285C10.3506 11.7285 11.8354 12.5768 11.8985 12.6134L13.2757 13.4571L13.3077 13.5007C13.3287 13.5295 15.3868 16.4305 13.2874 18.7043L13.0841 18.9248L12.8808 18.7036Z" fill="#6B716F"/>
<path d="M9.25499 12.0013C10.2887 12.0013 11.7571 12.8497 11.7571 12.8497L13.0814 13.6614C13.0814 13.6614 15.053 16.3831 13.0814 18.5199C13.0814 18.5199 11.9129 17.2151 6.38208 15.4943C6.38208 15.4943 7.70636 12.9829 8.5391 12.228C8.71827 12.0652 8.9691 12.0021 9.25265 12.0013H9.25499ZM9.25265 11.4561C8.80473 11.4561 8.44173 11.5799 8.17297 11.8245C7.29506 12.6206 6.04011 14.9747 5.89989 15.2404L5.59375 15.8199L6.21694 16.0155C11.2936 17.596 12.5976 18.8136 12.674 18.8876L13.0689 19.3597L13.4771 18.8923C14.4158 17.8749 14.7157 16.5826 14.3433 15.1531C14.1725 14.5073 13.8933 13.8952 13.5176 13.3428L13.4537 13.2547L13.361 13.1979L12.0368 12.3862H12.0305H12.0251C11.8615 12.2919 10.3978 11.4646 9.25031 11.4646L9.25265 11.4561Z" fill="#4D4D4D"/>
<path d="M7.37136 13.79C7.37136 13.79 10.4546 14.6983 12.3756 15.7461C12.3756 15.7461 13.8003 16.5632 13.8221 17.2589C13.8221 17.2589 13.6048 17.9849 13.1 18.5052C13.1 18.5052 11.7672 17.4497 9.33518 16.5243C6.90319 15.5988 6.38672 15.4976 6.38672 15.4976C6.38672 15.4976 7.29969 13.8415 7.37136 13.79Z" fill="#4D4D4D"/>
<path d="M21.5539 8.5736C21.0086 8.5736 20.8396 8.5292 20.743 8.48168L20.6931 8.45753L18.5898 6.03333L18.8594 5.86428C18.9466 5.80898 21.0164 4.52209 22.3072 4.52209C22.5326 4.51524 22.7561 4.56647 22.9561 4.67088C24.0264 5.2707 25.494 7.80864 25.5555 7.91614L25.7659 8.28148L25.346 8.32355C25.2471 8.33367 22.8252 8.5736 21.5539 8.5736Z" fill="#6B716F"/>
<path d="M22.3083 4.79529C22.4878 4.7885 22.6661 4.82764 22.8263 4.90902C23.8437 5.47924 25.3191 8.05301 25.3191 8.05301C25.3191 8.05301 22.8263 8.30151 21.5488 8.30151C21.2052 8.30151 20.9513 8.28359 20.8578 8.23763L19.0015 6.09542C19.0015 6.09542 21.0775 4.79529 22.3044 4.79529H22.3083ZM22.3044 4.25C20.9591 4.25 18.9376 5.49171 18.7117 5.63348L18.1719 5.97156L18.5894 6.45297L20.4496 8.59753L20.5221 8.68166L20.6218 8.72995C20.7721 8.80785 20.9801 8.84992 21.5566 8.84992C22.8427 8.84992 25.2778 8.60843 25.3806 8.5983L26.2196 8.51495L25.7997 7.78426C25.64 7.50694 24.2129 5.06248 23.0974 4.43462C22.8559 4.30661 22.5854 4.24327 22.3122 4.25078L22.3044 4.25Z" fill="#4D4D4D"/>
<path d="M23.8562 8.18159C23.1656 6.99001 22.2876 5.91738 21.256 5.00488C21.256 5.00488 19.733 5.56653 19.0039 6.09546L20.5292 7.85597L20.8602 8.23768C20.8602 8.23768 21.1819 8.33895 21.9158 8.30156C22.6496 8.26416 23.8562 8.18159 23.8562 8.18159Z" fill="#4D4D4D"/>
<path d="M29.4519 21.797C29.4267 21.9436 29.3905 22.0882 29.3436 22.2294L29.3187 22.3073C28.9526 23.3862 27.6501 25.7714 23.3875 25.1334H23.3641L23.2792 25.1178L22.0391 24.8841L24.5973 19.0908L29.4519 21.797Z" fill="#FCDEBB"/>
<path d="M29.3429 22.2291L29.3179 22.307C28.9518 23.3859 27.6493 25.7712 23.3867 25.1332L24.2202 24.0083L25.3342 21.165C25.2921 23.7684 24.221 24.8777 24.221 24.8777C28.0731 25.0109 28.6893 22.3405 28.6893 22.3405L29.3429 22.2291Z" fill="#EBA44D"/>
<path d="M20.0399 26.188C16.8741 26.188 13.4964 24.5786 12.6255 23.9928L12.2812 23.7591L12.7323 23.6267L14.5387 23.0915L11.7344 22.0477L12.6466 21.6177L14.1266 20.9213L13.7013 19.9413L32.154 11.4395L32.7234 12.7263L35.1866 11.7386L34.0555 14.5024L36.133 13.2903L36.0208 13.739C35.9796 13.9018 34.998 17.7508 33.2243 19.9374C31.9615 21.4954 30.6186 22.251 29.119 22.251C27.9505 22.251 26.712 21.8078 25.3238 20.8971L25.2934 20.8769L25.2716 20.8465C25.2607 20.8328 25.2465 20.822 25.2303 20.8153C25.2079 20.8273 25.1887 20.8444 25.1742 20.8652C25.1419 21.2679 25.0768 21.6673 24.9795 22.0594C24.925 22.2837 24.8658 22.4886 24.7995 22.6826C24.2986 24.1891 23.1582 26.0174 20.5728 26.1701C20.399 26.1826 20.2199 26.188 20.0399 26.188Z" fill="#FCDEBB"/>
<path d="M32.0575 11.6989L32.623 12.9725L34.8314 12.0891L33.663 14.9589L35.8356 13.6915C35.8356 13.6915 34.8416 17.6332 33.0748 19.8144C32.0053 21.1324 30.7457 22.0555 29.1207 22.0555C28.062 22.0555 26.8492 21.666 25.4322 20.7312C25.4089 20.6992 25.3791 20.6726 25.3447 20.653C25.3103 20.6333 25.2722 20.6213 25.2328 20.6175C25.1611 20.6175 25.077 20.6588 24.9851 20.7928C24.9568 21.2035 24.8922 21.611 24.7919 22.0103C24.7451 22.202 24.6883 22.4076 24.6166 22.6203C24.1398 24.0528 23.0477 25.8281 20.5659 25.9754C20.3929 25.9858 20.2192 25.9907 20.0447 25.9902C16.8945 25.9902 13.5854 24.3971 12.7386 23.8285L12.7916 23.8129L13.3205 23.6571L15.1581 23.1118L15.1114 23.0947L12.2408 22.0259L12.7339 21.7922L14.3877 21.0132L13.9632 20.0348L32.0575 11.6989ZM32.253 11.1793L31.8947 11.3444L13.7972 19.6858L13.4514 19.8416L13.6025 20.1914L13.8767 20.8231L12.5649 21.4393L12.0718 21.673L11.2344 22.0734L12.1022 22.3967L13.9258 23.076L13.2068 23.2886L12.6778 23.4444L12.6256 23.46L11.8295 23.6937L12.5181 24.1611C13.1764 24.6028 16.5821 26.389 20.0416 26.389C20.2254 26.389 20.4085 26.3836 20.5869 26.3734C21.7998 26.301 22.8195 25.8609 23.6187 25.0647C24.2131 24.4719 24.6735 23.6937 24.9874 22.7519C25.0544 22.5517 25.1151 22.3414 25.1712 22.1116C25.2487 21.7911 25.3067 21.4662 25.3449 21.1386C26.7152 22.0158 27.9514 22.4427 29.1207 22.4427C30.6787 22.4427 32.0746 21.6637 33.3771 20.0574C35.1781 17.8373 36.1697 13.9486 36.211 13.7834L36.4369 12.8861L35.6369 13.3534L34.4544 14.0436L35.1921 12.234L35.5388 11.3849L34.6866 11.7254L32.8271 12.4693L32.4135 11.5392L32.253 11.1777V11.1793Z" fill="#4D4D4D"/>
<path d="M24.6163 22.623C24.1395 24.0556 23.0474 25.8309 20.5655 25.9781C17.2681 26.1729 13.6326 24.4319 12.7383 23.8313L12.7913 23.8157L13.3202 23.6599C14.6445 24.5947 17.159 25.7102 20.3949 25.7406C23.1323 25.7663 24.3179 23.36 24.6163 22.623Z" fill="#EBA44D"/>
<path d="M23.7539 20.1945C23.7539 20.1945 24.5929 21.0615 25.2028 20.873C25.8128 20.6845 25.5573 19.2699 25.5573 19.2699C25.5573 19.2699 24.3857 19.2239 23.7539 20.1945Z" fill="#4D4D4D"/>
<path d="M13.4299 17.7487C13.3388 17.5617 11.9085 14.5322 13.6106 12.5092C15.3127 10.4862 17.7182 9.0723 20.9798 8.16946C22.0198 7.88279 22.9881 7.74023 23.8668 7.74023C25.082 7.74023 25.903 8.02067 26.3774 8.25514C26.4999 8.31624 26.6188 8.38438 26.7334 8.45924C27.3644 8.87366 27.8302 9.63317 28.0577 10.2057L28.7089 11.9468L28.4706 12.0496C28.4137 12.0745 22.7497 14.5166 18.512 16.6074C16.4017 17.6482 14.9925 18.4303 14.3226 18.9312L14.0492 19.1353L13.4299 17.7487Z" fill="white"/>
<path d="M23.8682 8.01013C25.0141 8.01013 25.7884 8.26486 26.2574 8.497C26.3702 8.55317 26.4797 8.61585 26.5853 8.68474C27.1711 9.06955 27.6027 9.79401 27.8029 10.3027L28.3637 11.8022C28.3637 11.8022 22.6857 14.2475 18.3927 16.3655C16.527 17.2863 14.9223 18.1463 14.1605 18.7157L13.6783 17.6337C13.6783 17.6337 12.1982 14.6167 13.8208 12.6856C15.4435 10.7545 17.7874 9.33597 21.0537 8.43312C22.1708 8.12153 23.1025 8.01013 23.8682 8.01013ZM23.8682 7.46484C22.8661 7.47909 21.8705 7.62791 20.9081 7.90731C17.5919 8.82495 15.1365 10.2731 13.4033 12.3343C11.6023 14.4742 13.0675 17.6236 13.1836 17.8651L13.6619 18.9393L13.94 19.5625L14.4853 19.1535C15.142 18.6628 16.5372 17.89 18.6326 16.8555C22.8641 14.7678 28.5211 12.3288 28.578 12.3047L29.0547 12.099L28.8763 11.6106L28.3154 10.1111V10.1064C28.0747 9.49566 27.5738 8.6824 26.8899 8.23292C26.7662 8.15234 26.638 8.07899 26.5059 8.01325C26.0034 7.76397 25.1411 7.46796 23.8729 7.46796L23.8682 7.46484Z" fill="#4D4D4D"/>
<path d="M28.3624 11.8016C28.3624 11.8016 22.6843 14.2468 18.3913 16.3649L13.9581 18.0413C13.9581 18.0413 12.7117 14.842 14.4785 13.2396C16.2452 11.6372 20.3723 9.33608 23.8559 8.57579C24.8195 8.36546 25.6125 8.37403 26.256 8.49789C26.3688 8.55405 26.4784 8.61674 26.5839 8.68563C27.1697 9.07045 27.6013 9.7949 27.8015 10.3036L28.3624 11.8016Z" fill="#F58422"/>
<path d="M28.394 11.7765C28.394 11.7765 22.7074 14.2311 18.4035 16.3569C16.5339 17.2808 14.9261 18.1439 14.1627 18.7157L13.6797 17.6337C13.6797 17.6337 15.7175 14.9353 22.0577 12.2345C25.5686 10.7389 27.1343 10.3369 27.8315 10.2754L28.394 11.7765Z" fill="#4D4D4D"/>
<path d="M29.8142 6.27637L31.4929 9.89788L28.5039 11.0368L29.8142 6.27637Z" fill="#FCDEBB"/>
<path d="M29.8784 7.06611L31.1248 9.74661L28.9117 10.5903L29.8815 7.06611H29.8784ZM29.7507 5.48633L29.3557 6.92122L28.3859 10.4454L28.0977 11.483L29.1026 11.0997L31.3157 10.2561L31.8609 10.0481L31.6156 9.51759L30.3692 6.83631L29.746 5.48633H29.7507Z" fill="#4D4D4D"/>
<path d="M29.4727 10.3758L29.9704 9.05078L30.5734 9.95596L29.4727 10.3758Z" fill="#4D4D4D"/>
<path d="M11.3359 14.377L12.1445 14.7914L16.0683 16.7996L13.5233 18.1519L13.0147 18.423L11.3359 14.377Z" fill="#FCDEBB"/>
<path d="M11.8703 14.9589L12.0176 15.0368L15.4778 16.8043L13.3948 17.9113L13.151 18.0414L11.8719 14.9589H11.8703ZM10.7984 13.7951L11.3687 15.1677L12.6477 18.2501L12.8814 18.8048L13.4119 18.522L13.6558 18.3919L15.738 17.2857L16.6611 16.795L15.7263 16.3182L12.2676 14.5484L12.1212 14.4705L10.7969 13.792L10.7984 13.7951Z" fill="#4D4D4D"/>
<path d="M14.776 17.178L13.2539 16.6094L13.6746 17.7631L14.776 17.178Z" fill="#4D4D4D"/>
<path d="M12.0183 15.0345L13.4119 17.902L13.1502 18.0414L11.8711 14.959L12.0183 15.0345Z" fill="#EBA54E"/>
<path d="M17.8789 21.1602L21.6897 19.085C21.6897 19.085 22.3986 19.9894 21.6897 20.7598C20.9808 21.5302 19.9432 21.0371 19.6643 20.4201L17.8789 21.1602Z" fill="#4D4D4D"/>
<path d="M26.0742 17.0106C26.0742 17.0106 26.283 18.7337 28.1315 17.9352C28.7017 17.6883 28.5475 16.625 28.2546 16.2215L30.0572 15.1426L26.0742 17.0106Z" fill="#4D4D4D"/>
<path d="M21.3874 24.4525C22.4513 24.4525 23.3138 23.59 23.3138 22.526C23.3138 21.4621 22.4513 20.5996 21.3874 20.5996C20.3234 20.5996 19.4609 21.4621 19.4609 22.526C19.4609 23.59 20.3234 24.4525 21.3874 24.4525Z" fill="#F6BBAA"/>
<path d="M28.8249 20.8988C29.8888 20.8988 30.7513 20.0363 30.7513 18.9723C30.7513 17.9084 29.8888 17.0459 28.8249 17.0459C27.7609 17.0459 26.8984 17.9084 26.8984 18.9723C26.8984 20.0363 27.7609 20.8988 28.8249 20.8988Z" fill="#F6BBAA"/>
<path d="M9.93149 21.8446C9.78732 21.8471 9.644 21.822 9.50928 21.7706C9.4683 21.7552 9.42869 21.7365 9.39087 21.7145C9.32299 21.6754 9.26602 21.6199 9.22518 21.5531C9.18435 21.4863 9.16096 21.4102 9.15717 21.332C9.12757 20.8296 9.81542 20.2157 10.3973 19.7888C11.41 19.0496 17.2431 15.9438 18.438 15.4265C19.633 14.9093 26.2279 11.9016 29.2208 10.4846C31.8272 9.25071 33.9539 8.80279 34.7469 8.80279C34.8034 8.80226 34.8598 8.80538 34.9159 8.81214L34.9744 8.81993C35.2688 8.85888 35.7611 8.92431 35.7533 9.36055C35.7533 9.57321 35.6053 9.80924 35.286 10.1247C34.5911 10.8056 30.1961 12.859 25.755 14.903L25.1007 15.2045C21.8204 16.7165 12.3798 21.0134 11.4497 21.4177C10.7798 21.7098 10.2984 21.8446 9.93149 21.8446Z" fill="white"/>
<path d="M34.7426 9.07752C34.7866 9.07715 34.8306 9.07975 34.8743 9.08531C35.1586 9.12426 35.4811 9.15152 35.4788 9.36029C35.4788 9.47947 35.3705 9.65864 35.0893 9.93285C34.3197 10.6877 28.0963 13.5224 24.9804 14.9596C21.8644 16.3969 12.2829 20.76 11.3356 21.1705C10.7054 21.4447 10.2567 21.5725 9.93347 21.5725C9.82351 21.5746 9.71413 21.5561 9.61097 21.5179C9.58245 21.5072 9.55484 21.4941 9.52839 21.479C9.24173 21.317 9.56111 20.7397 10.5574 20.0098C11.5538 19.2799 17.3268 16.2045 18.5444 15.6802C19.7619 15.156 26.3896 12.1296 29.3365 10.7344C32.0583 9.4452 34.0984 9.0783 34.7458 9.07752H34.7426ZM34.7458 8.53223C34.0447 8.53223 31.9562 8.88978 29.1036 10.2413C26.1122 11.6575 19.522 14.6644 18.3286 15.1793C17.0939 15.7106 11.2897 18.7985 10.2357 19.5697C9.30872 20.2482 8.85457 20.8472 8.88417 21.3489C8.89001 21.4729 8.92742 21.5934 8.99285 21.6989C9.05829 21.8044 9.14958 21.8915 9.25809 21.9518C9.3079 21.9818 9.35999 22.0079 9.41388 22.0297C9.5797 22.0919 9.75561 22.1228 9.93269 22.1209C10.344 22.1209 10.8449 21.983 11.5561 21.6737C12.4862 21.2694 21.9306 16.9702 25.2117 15.4574L25.8653 15.1567C30.5143 13.0169 34.7458 11.0375 35.4741 10.327C35.8574 9.95232 36.0194 9.66643 36.0264 9.37198C36.0303 9.04948 35.8332 8.78306 35.499 8.65998C35.3396 8.60836 35.1751 8.57388 35.0083 8.55715L34.9506 8.54937C34.8824 8.54073 34.8137 8.53656 34.745 8.5369L34.7458 8.53223Z" fill="#4D4D4D"/>
<path d="M35.4803 9.36035C35.4803 9.47954 35.372 9.65871 35.0908 9.93291C34.3212 10.6877 28.0979 13.5225 24.9819 14.9597C21.866 16.3969 12.2844 20.76 11.3372 21.1706C10.467 21.5492 9.942 21.6489 9.60938 21.518C10.3502 21.0272 15.9908 17.3403 22.1635 14.5554C28.2007 11.8321 32.3441 9.95316 35.4803 9.36035Z" fill="#F58422"/>
<path d="M28.9087 20.5323C31.4105 20.5323 33.4385 18.5042 33.4385 16.0025C33.4385 13.5007 31.4105 11.4727 28.9087 11.4727C26.407 11.4727 24.3789 13.5007 24.3789 16.0025C24.3789 18.5042 26.407 20.5323 28.9087 20.5323Z" stroke="#4D4D4D" stroke-width="0.389493" stroke-miterlimit="10"/>
<path d="M19.0767 25.0791C21.5784 25.0791 23.6065 23.0511 23.6065 20.5493C23.6065 18.0476 21.5784 16.0195 19.0767 16.0195C16.5749 16.0195 14.5469 18.0476 14.5469 20.5493C14.5469 23.0511 16.5749 25.0791 19.0767 25.0791Z" stroke="#4D4D4D" stroke-width="0.389493" stroke-miterlimit="10"/>
<path d="M23.2188 18.7156C23.2188 18.7156 23.6698 17.8494 24.7962 17.9071" stroke="#4D4D4D" stroke-width="0.389493" stroke-miterlimit="10"/>
<path d="M15.14 23.0923L15.1049 23.0978L12.2344 22.029L12.7275 21.7969L15.14 23.0923Z" fill="#EBA44D"/>
<path d="M13.341 17.7579L13.0894 17.8958L11.8711 14.959L12.0183 15.0345L13.341 17.7579Z" fill="#EBA44D"/>
<path d="M15.6172 24.1696C15.6172 24.1696 16.9204 22.166 20.7141 21.7041" stroke="#4D4D4D" stroke-width="0.389493" stroke-miterlimit="10"/>
<path d="M14.5391 27.0663C14.5391 27.0663 15.8174 24.1272 19.7006 22.6074" stroke="#4D4D4D" stroke-width="0.389493" stroke-miterlimit="10"/>
<path d="M17.7695 25.7509C17.7695 25.7509 19.2956 23.5378 20.5926 22.7744" stroke="#4D4D4D" stroke-width="0.389493" stroke-miterlimit="10"/>
<path d="M28.8242 18.5501C28.8242 18.5501 31.4798 15.8182 33.904 15.9311" stroke="#4D4D4D" stroke-width="0.389493" stroke-miterlimit="10"/>
<path d="M30.168 18.2681C30.168 18.2681 33.8611 16.0417 36.8992 16.8269" stroke="#4D4D4D" stroke-width="0.389493" stroke-miterlimit="10"/>
<path d="M29.7852 19.0846C29.7852 19.0846 33.3038 17.8679 35.6151 19.1773" stroke="#4D4D4D" stroke-width="0.389493" stroke-miterlimit="10"/>
</svg>
