<svg width="104" height="105" viewBox="0 0 104 105" fill="none" xmlns="http://www.w3.org/2000/svg">
<g filter="url(#filter0_d_3863_123)">
<circle cx="52" cy="52" r="49" fill="white"/>
<path d="M52 3C24.952 3 3 24.952 3 52C3 79.048 24.952 101 52 101C79.048 101 101 79.048 101 52C101 24.952 79.048 3 52 3ZM52 17.7C60.134 17.7 66.7 24.266 66.7 32.4C66.7 40.534 60.134 47.1 52 47.1C43.866 47.1 37.3 40.534 37.3 32.4C37.3 24.266 43.866 17.7 52 17.7ZM52 87.28C39.75 87.28 28.921 81.008 22.6 71.502C22.747 61.751 42.2 56.41 52 56.41C61.751 56.41 81.253 61.751 81.4 71.502C75.079 81.008 64.25 87.28 52 87.28Z" fill="#F1F1F1"/>
</g>
<defs>
<filter id="filter0_d_3863_123" x="0.152542" y="0.627119" width="103.695" height="103.695" filterUnits="userSpaceOnUse" color-interpolation-filters="sRGB">
<feFlood flood-opacity="0" result="BackgroundImageFix"/>
<feColorMatrix in="SourceAlpha" type="matrix" values="0 0 0 0 0 0 0 0 0 0 0 0 0 0 0 0 0 0 127 0" result="hardAlpha"/>
<feOffset dy="0.474576"/>
<feGaussianBlur stdDeviation="1.42373"/>
<feColorMatrix type="matrix" values="0 0 0 0 0 0 0 0 0 0 0 0 0 0 0 0 0 0 0.161 0"/>
<feBlend mode="normal" in2="BackgroundImageFix" result="effect1_dropShadow_3863_123"/>
<feBlend mode="normal" in="SourceGraphic" in2="effect1_dropShadow_3863_123" result="shape"/>
</filter>
</defs>
</svg>
