<svg width="48" height="48" viewBox="0 0 48 48" fill="none" xmlns="http://www.w3.org/2000/svg">
<rect width="48" height="48" rx="24" fill="#2594A2" fill-opacity="0.2"/>
<path d="M27.2143 24.6667V22L24.5 23.3333L21.7857 22V24.6667L19.0714 26L21.7857 27.3333V30L24.5 28.6667L27.2143 30V27.3333L29.9286 26L27.2143 24.6667ZM27.2143 10H17.7143C16.9944 10 16.304 10.281 15.795 10.781C15.286 11.2811 15 11.9594 15 12.6667V31.3333C15 32.0406 15.286 32.7189 15.795 33.219C16.304 33.719 16.9944 34 17.7143 34H19.0714V31.3333H17.7143V12.6667H25.8571V18H31.2857V31.3333H29.9286V34H31.2857C32.0056 34 32.696 33.719 33.205 33.219C33.714 32.7189 34 32.0406 34 31.3333V16.6667L27.2143 10ZM27.2143 24.6667V22L24.5 23.3333L21.7857 22V24.6667L19.0714 26L21.7857 27.3333V30L24.5 28.6667L27.2143 30V27.3333L29.9286 26L27.2143 24.6667ZM21.7857 38L24.5 36.6667L27.2143 38V31.3333H21.7857V38ZM27.2143 24.6667V22L24.5 23.3333L21.7857 22V24.6667L19.0714 26L21.7857 27.3333V30L24.5 28.6667L27.2143 30V27.3333L29.9286 26L27.2143 24.6667Z" fill="#2594A2"/>
</svg>
