<svg width="13" height="13" viewBox="0 0 13 13" fill="none" xmlns="http://www.w3.org/2000/svg">
<path d="M11.7 1.95H5.772L5.2 0H1.3C0.955219 0 0.624558 0.136964 0.380761 0.380761C0.136964 0.624558 0 0.955219 0 1.3V9.75C0 10.0948 0.136964 10.4254 0.380761 10.6692C0.624558 10.913 0.955219 11.05 1.3 11.05H5.85L6.5 13H11.7C12.0448 13 12.3754 12.863 12.6192 12.6192C12.863 12.3754 13 12.0448 13 11.7V3.25C13 2.90522 12.863 2.57456 12.6192 2.33076C12.3754 2.08696 12.0448 1.95 11.7 1.95ZM3.3605 8.1835C2.65542 8.1835 1.97922 7.90341 1.48066 7.40484C0.982091 6.90628 0.702 6.23008 0.702 5.525C0.702 4.81992 0.982091 4.14372 1.48066 3.64516C1.97922 3.14659 2.65542 2.8665 3.3605 2.8665C4.0365 2.8665 4.654 3.107 5.1415 3.575L5.2 3.601L4.3875 4.368L4.3485 4.3355C4.16 4.16 3.8415 3.952 3.3605 3.952C2.509 3.952 1.8135 4.6605 1.8135 5.525C1.8135 6.3895 2.509 7.098 3.3605 7.098C4.251 7.098 4.6345 6.5325 4.7385 6.149H3.302V5.1415H5.8695L5.876 5.2C5.902 5.3235 5.9085 5.447 5.9085 5.5835C5.9085 7.111 4.875 8.1835 3.3605 8.1835ZM7.28 7.072C7.4945 7.475 7.761 7.839 8.0535 8.177L7.7025 8.5215L7.28 7.072ZM7.7805 6.578H7.15L6.9355 5.902H9.529C9.529 5.902 9.308 6.7535 8.515 7.683C8.177 7.28 7.9365 6.8835 7.7805 6.578ZM12.35 11.7C12.35 11.8724 12.2815 12.0377 12.1596 12.1596C12.0377 12.2815 11.8724 12.35 11.7 12.35H7.15L8.45 11.05L7.9235 9.2495L8.5215 8.6515L10.2635 10.4L10.725 9.9255L8.9765 8.1835C9.5615 7.514 10.0165 6.721 10.2245 5.902H11.05V5.226H8.684V4.55H8.008V5.226H6.734L5.967 2.6H11.7C11.8724 2.6 12.0377 2.66848 12.1596 2.79038C12.2815 2.91228 12.35 3.07761 12.35 3.25V11.7Z" fill="#4D4D4D"/>
</svg>
