<svg width="48" height="48" viewBox="0 0 48 48" fill="none" xmlns="http://www.w3.org/2000/svg">
<rect width="48" height="48" rx="24" fill="#2594A2" fill-opacity="0.2"/>
<path d="M24.5 13C26.025 13 27.4875 13.6058 28.5659 14.6841C29.6442 15.7625 30.25 17.225 30.25 18.75C30.25 20.275 29.6442 21.7375 28.5659 22.8159C27.4875 23.8942 26.025 24.5 24.5 24.5C22.975 24.5 21.5125 23.8942 20.4341 22.8159C19.3558 21.7375 18.75 20.275 18.75 18.75C18.75 17.225 19.3558 15.7625 20.4341 14.6841C21.5125 13.6058 22.975 13 24.5 13ZM24.5 27.375C30.8538 27.375 36 29.9481 36 33.125V36H13V33.125C13 29.9481 18.1462 27.375 24.5 27.375Z" fill="#2594A2"/>
</svg>
