<svg width="48" height="48" viewBox="0 0 48 48" fill="none" xmlns="http://www.w3.org/2000/svg">
<rect width="48" height="48" rx="24" fill="#2594A2" fill-opacity="0.2"/>
<path d="M32.8132 17.4211C33.4551 17.4211 33.9753 17.6421 34.3848 18.0732C34.8054 18.5263 35.0267 19.0237 35.0267 19.6316V31.7895C35.0267 32.3974 34.8054 32.8947 34.3848 33.3479C33.9753 33.7789 33.4551 34 32.8132 34H15.1051C14.4632 34 13.943 33.7789 13.5335 33.3479C13.113 32.8947 12.8916 32.3974 12.8916 31.7895V19.6316C12.8916 19.0237 13.113 18.5263 13.5335 18.0732C13.943 17.6421 14.4632 17.4211 15.1051 17.4211H19.5321V15.2105C19.5321 14.5695 19.7535 14.05 20.1741 13.6411C20.5836 13.2211 21.1037 13 21.7457 13H26.1727C26.8146 13 27.3348 13.2211 27.7443 13.6411C28.1648 14.05 28.3862 14.5695 28.3862 15.2105V17.4211H32.8132ZM15.1051 19.6316V31.7895H32.8132V19.6316H15.1051ZM26.1727 17.4211V15.2105H21.7457V17.4211H26.1727Z" fill="#2594A2"/>
</svg>
