<svg width="32" height="32" viewBox="0 0 32 32" fill="none" xmlns="http://www.w3.org/2000/svg">
<rect x="0.5" y="0.5" width="31" height="31" rx="3.5" fill="white"/>
<path d="M12.2503 12.95C13.1892 12.95 13.9503 12.1889 13.9503 11.25C13.9503 10.3112 13.1892 9.55005 12.2503 9.55005C11.3114 9.55005 10.5503 10.3112 10.5503 11.25C10.5503 12.1889 11.3114 12.95 12.2503 12.95Z" fill="#7D8199"/>
<path d="M23.3 16.35V9.4055C23.3 8.0795 22.2205 7 20.8945 7C20.257 7 19.645 7.255 19.1945 7.7055L18.132 8.768C17.996 8.7255 17.8515 8.7 17.6985 8.7C17.3585 8.7 17.044 8.802 16.7805 8.972L19.1265 11.318C19.2965 11.0545 19.3985 10.74 19.3985 10.4C19.3985 10.247 19.373 10.111 19.339 9.9665L20.4015 8.904C20.5003 8.80635 20.6258 8.74013 20.7622 8.71368C20.8986 8.68723 21.0397 8.70173 21.1679 8.75535C21.296 8.80898 21.4054 8.89933 21.4823 9.01502C21.5592 9.13072 21.6002 9.26658 21.6 9.4055V16.35H15.7775C15.5225 16.1715 15.293 15.9675 15.0805 15.738L13.8905 14.4205C13.729 14.242 13.525 14.0975 13.304 13.9955C13.0124 13.8529 12.6894 13.7868 12.3652 13.8035C12.0411 13.8201 11.7265 13.9189 11.4511 14.0906C11.1757 14.2624 10.9484 14.5013 10.7908 14.785C10.6332 15.0688 10.5503 15.3879 10.55 15.7125V16.35H8V21.45C8 22.385 8.765 23.15 9.7 23.15C9.7 23.6175 10.0825 24 10.55 24H22.45C22.9175 24 23.3 23.6175 23.3 23.15C24.235 23.15 25 22.385 25 21.45V16.35H23.3Z" fill="#7D8199"/>
<rect x="0.5" y="0.5" width="31" height="31" rx="3.5" stroke="#7D8199"/>
</svg>
