<svg width="32" height="32" viewBox="0 0 32 32" fill="none" xmlns="http://www.w3.org/2000/svg">
<rect x="0.5" y="0.5" width="31" height="31" rx="3.5" fill="white"/>
<path d="M6 10L12.99 17H6V20H15.99L22.99 27L24.25 25.75L7.25 8.75L6 10ZM24.5 17H26V20H24.5V17ZM22 17H23.5V20H22V17ZM22.85 8.88C23.47 8.27 23.85 7.43 23.85 6.5H22.35C22.35 7.52 21.52 8.35 20.5 8.35V9.85C22.74 9.85 24.5 11.68 24.5 13.92V16H26V13.92C26 11.69 24.72 9.77 22.85 8.88ZM18.5 12.7H20.03C21.08 12.7 22 13.44 22 14.75V16H23.5V14.41C23.5 12.61 21.9 11.25 20.03 11.25H18.5C17.48 11.25 16.65 10.27 16.65 9.25C16.65 8.23 17.48 7.5 18.5 7.5V6C16.65 6 15.15 7.5 15.15 9.35C15.15 11.2 16.65 12.7 18.5 12.7ZM21 19.93V17H18.07L21 19.93Z" fill="#7D8199"/>
<rect x="0.5" y="0.5" width="31" height="31" rx="3.5" stroke="#7D8199"/>
</svg>
