<svg width="32" height="32" viewBox="0 0 32 32" fill="none" xmlns="http://www.w3.org/2000/svg">
<rect x="0.5" y="0.5" width="31" height="31" rx="3.5" fill="white"/>
<g clip-path="url(#clip0_1297_73937)">
<path d="M21.4688 9.59375C21.7609 9.59375 22 9.35469 22 9.0625V8.53125C22 8.23906 21.7609 8 21.4688 8H9.78125C9.48906 8 9.25 8.23906 9.25 8.53125V9.0625C9.25 9.35469 9.48906 9.59375 9.78125 9.59375H10.3125V14.7967C9.6418 15.132 9.25 15.5338 9.25 15.9688C9.25 18.2 10.3988 20.159 12.132 21.2979L11.4215 23.6287C11.2123 24.3094 11.7236 25 12.4375 25H18.8125C19.5264 25 20.0377 24.3094 19.8285 23.6287L19.118 21.2979C20.8512 20.159 22 18.2 22 15.9688C22 15.5338 21.6082 15.132 20.9375 14.7967V9.59375H21.4688ZM11.9062 10.3906C11.9062 10.2445 12.0258 10.125 12.1719 10.125H13.7656C13.9117 10.125 14.0312 10.2445 14.0312 10.3906V10.9219C14.0312 11.068 13.9117 11.1875 13.7656 11.1875H12.1719C12.0258 11.1875 11.9062 11.068 11.9062 10.9219V10.3906ZM15.625 17.0312C13.065 17.0312 10.9898 16.5564 10.9898 15.9688C10.9898 15.3811 13.065 14.9062 15.625 14.9062C18.185 14.9062 20.2602 15.3811 20.2602 15.9688C20.2602 16.5564 18.185 17.0312 15.625 17.0312Z" fill="#7D8199"/>
</g>
<rect x="0.5" y="0.5" width="31" height="31" rx="3.5" stroke="#7D8199"/>
<defs>
<clipPath id="clip0_1297_73937">
<rect width="12.75" height="17" fill="white" transform="translate(9.25 8)"/>
</clipPath>
</defs>
</svg>
