<svg width="32" height="32" viewBox="0 0 32 32" fill="none" xmlns="http://www.w3.org/2000/svg">
<rect x="0.5" y="0.5" width="31" height="31" rx="3.5" fill="white"/>
<path d="M25.5 10C23.84 10 22.5 11.34 22.5 13V17C22.5 17.55 22.05 18 21.5 18V14C21.5 12.34 20.16 11 18.5 11H14.5C12.84 11 11.5 12.34 11.5 14H13.5C13.5 13.45 13.95 13 14.5 13H18.5C19.05 13 19.5 13.45 19.5 14V15H10.5C8.29 15 6.5 16.79 6.5 19V22H21.5V20C23.16 20 24.5 18.66 24.5 17V13C24.5 12.45 24.95 12 25.5 12H26.5V10H25.5Z" fill="#7D8199"/>
<rect x="0.5" y="0.5" width="31" height="31" rx="3.5" stroke="#7D8199"/>
</svg>
