<svg width="34" height="36" viewBox="0 0 34 36" fill="none" xmlns="http://www.w3.org/2000/svg">
<rect x="1.5" y="4.5" width="31" height="31" rx="3.5" fill="white"/>
<g clip-path="url(#clip0_1200_20723)">
<path d="M18.5122 26.7722C19.3635 25.9209 19.3635 24.5406 18.5122 23.6892C17.6608 22.8379 16.2805 22.8379 15.4292 23.6892C14.5778 24.5406 14.5778 25.9209 15.4292 26.7722C16.2805 27.6235 17.6608 27.6235 18.5122 26.7722Z" fill="#7D8199"/>
<path d="M5.96777 17.311L7.96889 19.3121C12.9398 14.3412 21.0009 14.3412 25.9718 19.3121L27.9729 17.311C21.8989 11.237 12.0418 11.237 5.96777 17.311ZM9.97 21.3133L11.9711 23.3144C14.7288 20.5567 19.2119 20.5567 21.9696 23.3144L23.9707 21.3133C20.1028 17.4454 13.8379 17.4454 9.97 21.3133Z" fill="#7D8199"/>
</g>
<rect x="1.5" y="4.5" width="31" height="31" rx="3.5" stroke="#7D8199"/>
<defs>
<clipPath id="clip0_1200_20723">
<rect width="24" height="24" fill="white" transform="translate(0 17) rotate(-45)"/>
</clipPath>
</defs>
</svg>
