<svg width="32" height="32" viewBox="0 0 32 32" fill="none" xmlns="http://www.w3.org/2000/svg">
<rect x="0.5" y="0.5" width="31" height="31" rx="3.5" fill="white"/>
<path d="M16.6128 23.5731H24.1313V16.3418H16.6959L16.6128 23.5731ZM21.4395 19.2276C21.4917 19.2586 21.5285 19.3077 21.542 19.3641C21.5554 19.4205 21.5444 19.4796 21.5113 19.5284L20.5349 20.9681C20.5185 20.9923 20.4972 21.0132 20.4722 21.0296C20.4472 21.0461 20.4189 21.0578 20.3891 21.064C20.3592 21.0703 20.3284 21.0709 20.2983 21.066C20.2681 21.0611 20.2393 21.0506 20.2135 21.0353C20.1877 21.02 20.1654 21 20.1478 20.9766C20.1302 20.9532 20.1177 20.9267 20.111 20.8988C20.1044 20.8709 20.1037 20.842 20.1089 20.8138C20.1142 20.7856 20.1253 20.7586 20.1417 20.7345L21.1181 19.295C21.1345 19.2708 21.1558 19.2499 21.1808 19.2334C21.2058 19.2169 21.2341 19.2052 21.2639 19.199C21.2938 19.1927 21.3246 19.192 21.3548 19.1969C21.3849 19.2018 21.4137 19.2123 21.4395 19.2276ZM18.7439 20.473L20.5135 18.1007C20.5488 18.0533 20.6029 18.021 20.6637 18.0109C20.7245 18.0008 20.7871 18.0137 20.8377 18.0468C20.8884 18.0798 20.9229 18.1304 20.9337 18.1873C20.9445 18.2442 20.9307 18.3028 20.8954 18.3502L19.1257 20.7225C19.1083 20.7462 19.0861 20.7665 19.0603 20.7822C19.0345 20.7978 19.0056 20.8086 18.9754 20.8137C18.9451 20.8189 18.9141 20.8184 18.884 20.8122C18.854 20.8061 18.8255 20.7945 18.8003 20.778C18.7751 20.7615 18.7536 20.7405 18.7371 20.7163C18.7206 20.692 18.7094 20.6649 18.7042 20.6365C18.6989 20.6081 18.6997 20.5791 18.7065 20.551C18.7133 20.523 18.7261 20.4964 18.7439 20.473Z" fill="#7D8199"/>
<path d="M18.7439 20.473L20.5135 18.1007C20.5488 18.0533 20.6029 18.021 20.6637 18.0109C20.7245 18.0008 20.7871 18.0137 20.8377 18.0468C20.8884 18.0798 20.9229 18.1304 20.9337 18.1873C20.9445 18.2442 20.9307 18.3028 20.8954 18.3502L19.1257 20.7225C19.1083 20.7462 19.0861 20.7665 19.0603 20.7822C19.0345 20.7978 19.0056 20.8086 18.9754 20.8137C18.9451 20.8189 18.9141 20.8184 18.884 20.8122C18.854 20.8061 18.8255 20.7945 18.8003 20.778C18.7751 20.7615 18.7536 20.7405 18.7371 20.7163C18.7206 20.692 18.7094 20.6649 18.7042 20.6365C18.6989 20.6081 18.6997 20.5791 18.7065 20.551C18.7133 20.523 18.7261 20.4964 18.7439 20.473Z" fill="#7D8199"/>
<path d="M21.4395 19.2276C21.4917 19.2586 21.5285 19.3077 21.542 19.3641C21.5554 19.4205 21.5444 19.4796 21.5113 19.5284L20.5349 20.9681C20.5185 20.9923 20.4972 21.0132 20.4722 21.0296C20.4472 21.0461 20.4189 21.0578 20.3891 21.064C20.3592 21.0703 20.3284 21.0709 20.2983 21.066C20.2681 21.0611 20.2393 21.0506 20.2135 21.0353C20.1877 21.02 20.1654 21 20.1478 20.9766C20.1302 20.9532 20.1177 20.9267 20.111 20.8988C20.1044 20.8709 20.1037 20.842 20.1089 20.8138C20.1142 20.7856 20.1253 20.7586 20.1417 20.7345L21.1181 19.295C21.1345 19.2708 21.1558 19.2499 21.1808 19.2334C21.2058 19.2169 21.2341 19.2052 21.2639 19.199C21.2938 19.1927 21.3246 19.192 21.3548 19.1969C21.3849 19.2018 21.4137 19.2123 21.4395 19.2276Z" fill="#7D8199"/>
<path d="M24.1306 8H16.7912L16.7002 15.9057H24.1306V8Z" fill="#7D8199"/>
<path d="M8.99121 23.5731H16.1464L16.2296 16.3418H8.99121V23.5731Z" fill="#7D8199"/>
<path d="M8.99121 15.9057H16.2346L16.3256 8H8.99121V15.9057ZM13.3538 10.0479C13.4059 10.0789 13.4428 10.128 13.4562 10.1844C13.4697 10.2408 13.4587 10.2999 13.4256 10.3487L12.4492 11.7882C12.4328 11.8124 12.4115 11.8333 12.3865 11.8498C12.3614 11.8662 12.3332 11.8779 12.3034 11.8841C12.2735 11.8904 12.2426 11.8911 12.2125 11.8861C12.1824 11.8812 12.1536 11.8708 12.1278 11.8554C12.102 11.8401 12.0796 11.8201 12.062 11.7967C12.0445 11.7733 12.032 11.7469 12.0253 11.7189C12.0186 11.691 12.0179 11.6621 12.0232 11.6339C12.0284 11.6057 12.0396 11.5788 12.056 11.5546L13.0324 10.1151C13.0655 10.0663 13.1179 10.0318 13.1782 10.0192C13.2384 10.0066 13.3016 10.0169 13.3538 10.0479ZM10.6581 11.2933L12.4279 8.92098C12.4633 8.87358 12.5173 8.84127 12.5781 8.83115C12.6389 8.82104 12.7016 8.83394 12.7522 8.86704C12.8029 8.90013 12.8374 8.9507 12.8482 9.00761C12.859 9.06453 12.8452 9.12313 12.8098 9.17053L11.04 11.5428C11.0225 11.5663 11.0002 11.5863 10.9744 11.6017C10.9487 11.6171 10.9199 11.6276 10.8898 11.6326C10.8597 11.6376 10.8288 11.637 10.7989 11.6309C10.7691 11.6247 10.7408 11.6131 10.7157 11.5968C10.6906 11.5804 10.6693 11.5595 10.6528 11.5354C10.6363 11.5113 10.6251 11.4844 10.6197 11.4562C10.6144 11.428 10.615 11.3991 10.6216 11.3712C10.6282 11.3432 10.6406 11.3168 10.6581 11.2933Z" fill="#7D8199"/>
<path d="M10.6581 11.2933L12.4279 8.92098C12.4633 8.87358 12.5173 8.84127 12.5781 8.83115C12.6389 8.82104 12.7016 8.83394 12.7522 8.86704C12.8029 8.90013 12.8374 8.9507 12.8482 9.00761C12.859 9.06453 12.8452 9.12313 12.8098 9.17053L11.04 11.5428C11.0225 11.5663 11.0002 11.5863 10.9744 11.6017C10.9487 11.6171 10.9199 11.6276 10.8898 11.6326C10.8597 11.6376 10.8288 11.637 10.7989 11.6309C10.7691 11.6247 10.7408 11.6131 10.7157 11.5968C10.6906 11.5804 10.6693 11.5595 10.6528 11.5354C10.6363 11.5113 10.6251 11.4844 10.6197 11.4562C10.6144 11.428 10.615 11.3991 10.6216 11.3712C10.6282 11.3432 10.6406 11.3168 10.6581 11.2933Z" fill="#7D8199"/>
<path d="M13.3538 10.0479C13.4059 10.0789 13.4428 10.128 13.4562 10.1844C13.4697 10.2408 13.4587 10.2999 13.4256 10.3487L12.4492 11.7882C12.4328 11.8124 12.4115 11.8333 12.3865 11.8498C12.3614 11.8662 12.3332 11.8779 12.3034 11.8841C12.2735 11.8904 12.2426 11.8911 12.2125 11.8861C12.1824 11.8812 12.1536 11.8708 12.1278 11.8554C12.102 11.8401 12.0796 11.8201 12.062 11.7967C12.0445 11.7733 12.032 11.7469 12.0253 11.7189C12.0186 11.691 12.0179 11.6621 12.0232 11.6339C12.0284 11.6057 12.0396 11.5788 12.056 11.5546L13.0324 10.1151C13.0655 10.0663 13.1179 10.0318 13.1782 10.0192C13.2384 10.0066 13.3016 10.0169 13.3538 10.0479Z" fill="#7D8199"/>
<path d="M16.3745 24.0088H8V24.9999H25V24.0088H16.377H16.3745Z" fill="#7D8199"/>
<rect x="0.5" y="0.5" width="31" height="31" rx="3.5" stroke="#7D8199"/>
</svg>
